# This file uses centimeters as units for non-parametric coordinates.

mtllib Tall_Grass_3.mtl
g default
v 0.053341 -0.205752 -0.235369
v -0.556297 3.509136 1.179130
v -0.347088 -0.260631 -0.148737
v -0.896006 3.809705 1.587127
v -0.471585 2.233809 0.949547
v -0.646338 2.042594 1.240871
v -0.623487 -0.989427 -0.720346
v 0.378202 3.760607 1.401084
v -0.430320 -0.883340 -1.005319
v 0.549650 3.782448 1.074396
v 0.171065 1.183962 0.542657
v 0.342513 1.205801 0.215969
v 1.478193 3.666276 -1.320460
v 1.794940 3.408996 -1.012141
v 0.317757 -0.432681 -0.407989
v 0.633261 -0.500452 -0.550949
v 0.858193 2.243516 -0.894210
v 1.195502 2.120227 -1.043509
v -0.072583 -0.608842 -0.474207
v -1.426521 3.598403 -1.064227
v -0.050462 -0.510608 -0.073306
v -1.404400 3.696637 -0.663326
v -0.529476 2.037204 -0.813475
v -0.507355 2.135437 -0.412575
v -1.253396 -0.600109 -0.014115
v -0.866162 3.830809 -0.329062
v -1.209473 -0.541896 0.392754
v -0.822239 3.889023 0.077807
v -0.646871 2.032599 -0.176544
v -0.602947 2.090813 0.230325
v 0.518532 1.704038 0.298790
v 0.560618 1.704038 -0.298790
v 0.518532 -0.318644 0.298790
v 0.560618 -0.318644 -0.298790
v 0.305154 0.850148 0.298790
v 0.347240 0.850148 -0.298790
v 0.518001 1.533372 0.585077
v 1.115023 1.521994 0.537028
v 0.439190 -0.420649 0.068518
v 1.036211 -0.432026 0.020468
v 0.454330 0.763592 0.163127
v 1.051352 0.752214 0.115077
v 0.156985 -0.579339 -0.448166
v -1.388524 3.467545 -1.504722
v -0.228627 -0.657200 -0.321277
v -1.774136 3.389684 -1.377832
v -0.741342 1.958866 -0.723727
v -1.126955 1.881005 -0.596838
v 0.323722 3.301563 0.004261
v 0.661010 3.415147 0.004261
v -0.425607 -0.338543 0.017540
v -0.088319 -0.224959 0.017540
v 0.257483 2.238811 0.418964
v 0.594771 2.352395 0.418964
v 0.137568 -0.586271 0.216052
v -0.428621 3.420985 -1.655712
v 0.096134 -0.387353 0.576018
v -0.470055 3.619904 -1.295746
v 0.157911 1.904812 -0.842012
v 0.116478 2.103730 -0.482047
v -0.272250 3.070446 -2.002185
v -0.383794 2.925326 -2.303965
v -0.164107 -0.402293 0.182850
v -0.275651 -0.547412 -0.118930
v -0.508763 3.149132 -1.078870
v -0.454289 3.402277 -0.834709
v 0.076514 -0.422573 -0.234820
v 0.130988 -0.169427 0.009340
v -0.692247 2.139188 -0.576720
v -0.637773 2.392334 -0.332559
v 0.309912 1.616850 -0.283411
v 0.269602 1.583433 -0.569808
v 0.096546 -0.368748 0.020456
v 0.056236 -0.402165 -0.265941
v -0.575106 1.506443 -0.117044
v -1.129951 1.476890 -0.340978
v -0.366330 -0.489350 -0.370946
v -0.921175 -0.518902 -0.594880
v -0.550275 0.631685 -0.023022
v -1.105121 0.602133 -0.246956
v -0.248650 -0.983213 0.327940
v -2.026278 3.578763 -1.695690
v 0.031487 -0.796698 0.456441
v -1.710297 3.682011 -1.534157
v -1.373833 1.302706 -0.349294
v -1.057852 1.405953 -0.187761
v 0.197235 1.640958 0.550595
v -0.090718 1.683942 0.550595
v -0.059917 -0.362621 0.550595
v -0.347871 -0.319638 0.550595
v -0.967184 1.487720 0.294788
v -0.816420 1.512673 -0.284453
v -0.293063 -0.417030 0.388195
v -0.142299 -0.392078 -0.191046
v -0.879772 0.611926 0.295316
v -0.729008 0.636878 -0.283926
v -0.001013 3.135710 -0.578623
v 0.286431 3.537164 -0.445873
v -0.068978 -0.414767 -0.250545
v 0.011788 -0.229189 -0.019634
v -0.177485 2.084578 -0.353283
v 0.041936 2.455539 -0.230120
v 1.955520 3.402338 -0.725356
v 1.848606 3.395309 -1.061649
v 0.832900 -0.433183 0.209783
v 0.725986 -0.440211 -0.126510
v 0.267186 3.646955 0.129772
v 0.599267 3.680523 0.015019
v 0.075299 -0.442537 -0.162143
v 0.407380 -0.408969 -0.276897
vt 0.511969 1.000000
vt 0.511969 0.375832
vt 0.798495 0.375832
vt 0.798495 1.000000
vt 0.511969 0.000000
vt 0.798495 0.000000
vt 0.000000 0.426424
vt 0.272136 0.426424
vt 0.272136 1.000000
vt 0.000000 1.000000
vt 0.000000 0.000000
vt 0.272136 0.000000
vt 0.511969 0.784783
vt 0.272136 0.784783
vt 0.272136 0.417271
vt 0.511969 0.417271
vt 0.272136 0.204327
vt 0.511969 0.204327
vt 0.511969 1.000000
vt 0.511969 0.375832
vt 0.798495 0.375832
vt 0.798495 1.000000
vt 0.511969 0.000000
vt 0.798495 0.000000
vt 0.511969 1.000000
vt 0.511969 0.375832
vt 0.798495 0.375832
vt 0.798495 1.000000
vt 0.511969 0.000000
vt 0.798495 0.000000
vt 1.000000 0.462311
vt 0.798495 0.462311
vt 0.798495 0.236552
vt 1.000000 0.236552
vt 1.000000 0.627244
vt 0.798495 0.627244
vt 1.000000 0.462311
vt 0.798495 0.462311
vt 0.798495 0.236552
vt 1.000000 0.236552
vt 1.000000 0.627244
vt 0.798495 0.627244
vt 0.511969 1.000000
vt 0.511969 0.375832
vt 0.798495 0.375832
vt 0.798495 1.000000
vt 0.511969 0.000000
vt 0.798495 0.000000
vt 0.511969 0.784783
vt 0.272136 0.784783
vt 0.272136 0.417271
vt 0.511969 0.417271
vt 0.272136 0.204327
vt 0.511969 0.204327
vt 0.511969 1.000000
vt 0.511969 0.375832
vt 0.798495 0.375832
vt 0.798495 1.000000
vt 0.511969 0.000000
vt 0.798495 0.000000
vt 0.511969 0.204327
vt 0.511969 0.784783
vt 0.272136 0.784783
vt 0.272136 0.204327
vt 0.511969 0.784783
vt 0.272136 0.784783
vt 0.272136 0.417271
vt 0.511969 0.417271
vt 0.272136 0.204327
vt 0.511969 0.204327
vt 1.000000 0.627244
vt 0.798495 0.627244
vt 0.798495 0.236552
vt 1.000000 0.236552
vt 1.000000 0.462311
vt 0.798495 0.462311
vt 0.798495 0.236552
vt 1.000000 0.236552
vt 1.000000 0.627244
vt 0.798495 0.627244
vt 0.000000 0.426424
vt 0.272136 0.426424
vt 0.272136 1.000000
vt 0.000000 1.000000
vt 0.000000 0.000000
vt 0.272136 0.000000
vt 1.000000 0.627244
vt 0.798495 0.627244
vt 0.798495 0.236552
vt 1.000000 0.236552
vt 1.000000 0.462311
vt 0.798495 0.462311
vt 0.798495 0.236552
vt 1.000000 0.236552
vt 1.000000 0.627244
vt 0.798495 0.627244
vt 0.511969 0.784783
vt 0.272136 0.784783
vt 0.272136 0.417271
vt 0.511969 0.417271
vt 0.272136 0.204327
vt 0.511969 0.204327
vt 0.511969 0.204327
vt 0.511969 0.784783
vt 0.272136 0.784783
vt 0.272136 0.204327
vt 0.511969 0.204327
vt 0.511969 0.784783
vt 0.272136 0.784783
vt 0.272136 0.204327
vn -0.803457 0.024286 -0.594867
vn -0.706778 0.177417 -0.684827
vn -0.687579 0.202593 -0.697274
vn -0.803457 0.024286 -0.594867
vn -0.609533 0.293775 -0.736319
vn -0.609533 0.293775 -0.736319
vn 0.844633 -0.339201 0.414172
vn 0.833205 -0.378115 0.403483
vn 0.870218 -0.217269 0.442171
vn 0.870218 -0.217269 0.442171
vn 0.785553 -0.500740 0.363546
vn 0.785553 -0.500740 0.363546
vn -0.122131 0.196602 0.972847
vn -0.122131 0.196602 0.972847
vn 0.244756 0.123650 0.961668
vn 0.236131 0.125655 0.963563
vn 0.426254 0.077802 0.901252
vn 0.426254 0.077802 0.901252
vn -0.866518 -0.471649 0.163383
vn -0.951892 -0.281335 0.121460
vn -0.947100 -0.295713 0.124719
vn -0.866518 -0.471649 0.163383
vn -0.983084 -0.157835 0.092920
vn -0.983084 -0.157835 0.092920
vn -0.986398 -0.109926 0.122213
vn -0.990604 0.100709 0.092530
vn -0.991819 0.085429 0.094848
vn -0.986398 -0.109926 0.122213
vn -0.970949 0.228141 0.072176
vn -0.970949 0.228141 0.072176
vn -0.997529 -0.000299 -0.070254
vn -0.997529 0.000293 -0.070254
vn -0.981388 -0.179165 -0.069117
vn -0.981388 -0.179165 -0.069117
vn -0.967911 0.241871 -0.068168
vn -0.967911 0.241871 -0.068168
vn -0.072646 0.257351 -0.963583
vn -0.072623 0.257923 -0.963432
vn -0.078440 0.080388 -0.993673
vn -0.078440 0.080387 -0.993672
vn -0.061054 0.483651 -0.873129
vn -0.061054 0.483651 -0.873129
vn -0.174000 -0.510549 -0.842060
vn -0.236773 -0.321511 -0.916826
vn -0.232537 -0.335857 -0.912758
vn -0.174000 -0.510549 -0.842059
vn -0.270107 -0.197895 -0.942274
vn -0.270107 -0.197895 -0.942274
vn -0.123727 0.367410 0.921793
vn -0.123727 0.367410 0.921793
vn 0.019187 -0.056975 0.998191
vn -0.030981 0.091999 0.995277
vn 0.056674 -0.168296 0.984106
vn 0.056674 -0.168296 0.984106
vn -0.942594 -0.326145 0.071733
vn -0.988648 -0.146633 -0.032767
vn -0.986794 -0.160013 -0.025160
vn -0.942594 -0.326145 0.071733
vn -0.994804 -0.032810 -0.096375
vn -0.994804 -0.032810 -0.096375
vn 0.948692 -0.146702 -0.280111
vn 0.948692 -0.146702 -0.280111
vn 0.948692 -0.146702 -0.280111
vn 0.948692 -0.146702 -0.280111
vn -0.981618 0.189527 0.022503
vn -0.981618 0.189527 0.022503
vn -0.930773 -0.129476 0.341902
vn -0.971308 -0.019592 0.237017
vn -0.885050 -0.210161 0.415355
vn -0.885050 -0.210161 0.415355
vn -0.984408 0.124757 0.123998
vn -0.984408 0.124757 0.123998
vn -0.984408 0.124757 0.123998
vn -0.984408 0.124757 0.123998
vn -0.362616 -0.155141 0.918935
vn -0.362677 -0.154557 0.919009
vn -0.338286 -0.329124 0.881612
vn -0.338286 -0.329124 0.881612
vn -0.376845 0.088407 0.922048
vn -0.376845 0.088407 0.922048
vn -0.493076 0.207516 0.844874
vn -0.484966 0.168562 0.858135
vn -0.512386 0.323655 0.795429
vn -0.512386 0.323655 0.795429
vn -0.452457 0.039061 0.890930
vn -0.452457 0.039061 0.890930
vn 0.000000 0.000000 1.000000
vn 0.000000 0.000000 1.000000
vn 0.000000 0.000000 1.000000
vn 0.000000 0.000000 1.000000
vn -0.908519 -0.334158 -0.250863
vn -0.908716 -0.333601 -0.250890
vn -0.834204 -0.497194 -0.238543
vn -0.834203 -0.497194 -0.238543
vn -0.962251 -0.096195 -0.254597
vn -0.962251 -0.096195 -0.254597
vn -0.731930 0.273537 0.624064
vn -0.731930 0.273537 0.624064
vn -0.779267 0.051527 0.624570
vn -0.754476 0.190484 0.628078
vn -0.782143 0.025793 0.622565
vn -0.782143 0.025793 0.622565
vn 0.900974 -0.331852 -0.279501
vn 0.900974 -0.331852 -0.279501
vn 0.900974 -0.331852 -0.279501
vn 0.900974 -0.331852 -0.279501
vn 0.332945 -0.082673 0.939315
vn 0.332945 -0.082673 0.939315
vn 0.332945 -0.082673 0.939315
vn 0.332945 -0.082673 0.939315
s 1
g Tall_Grass_3
usemtl lambert4SG
f 2/1/1 5/2/2 6/3/3 4/4/4
f 6/3/3 5/2/2 1/5/5 3/6/6
s 2
f 11/7/7 12/8/8 10/9/9 8/10/10
f 7/11/11 9/12/12 12/8/8 11/7/7
s 3
f 14/13/13 13/14/14 17/15/15 18/16/16
f 18/16/16 17/15/15 15/17/17 16/18/18
s 4
f 20/19/19 23/20/20 24/21/21 22/22/22
f 24/21/21 23/20/20 19/23/23 21/24/24
s 5
f 26/25/25 29/26/26 30/27/27 28/28/28
f 30/27/27 29/26/26 25/29/29 27/30/30
s 6
f 35/31/31 36/32/32 34/33/33 33/34/34
f 31/35/35 32/36/36 36/32/32 35/31/31
s 7
f 41/37/37 42/38/38 40/39/39 39/40/40
f 37/41/41 38/42/42 42/38/38 41/37/37
s 8
f 44/43/43 47/44/44 48/45/45 46/46/46
f 48/45/45 47/44/44 43/47/47 45/48/48
s 9
f 50/49/49 49/50/50 53/51/51 54/52/52
f 54/52/52 53/51/51 51/53/53 52/54/54
s 10
f 56/55/55 59/56/56 60/57/57 58/58/58
f 60/57/57 59/56/56 55/59/59 57/60/60
s off
f 64/61/61 62/62/62 61/63/63 63/64/64
s 11
f 66/65/65 65/66/66 69/67/67 70/68/68
f 70/68/68 69/67/67 67/69/69 68/70/70
s off
f 71/71/71 72/72/72 74/73/73 73/74/74
s 12
f 79/75/75 80/76/76 78/77/77 77/78/78
f 75/79/79 76/80/80 80/76/76 79/75/75
s 13
f 85/81/81 86/82/82 84/83/83 82/84/84
f 81/85/85 83/86/86 86/82/82 85/81/81
s off
f 87/87/87 88/88/88 90/89/89 89/90/90
s 14
f 95/91/91 96/92/92 94/93/93 93/94/94
f 91/95/95 92/96/96 96/92/92 95/91/91
s 15
f 98/97/97 97/98/98 101/99/99 102/100/100
f 102/100/100 101/99/99 99/101/101 100/102/102
s off
f 106/103/103 104/104/104 103/105/105 105/106/106
f 110/107/107 108/108/108 107/109/109 109/110/110
