# This file uses centimeters as units for non-parametric coordinates.

mtllib Screen_Pole.mtl
g default
v 0.002155 0.193667 0.099236
v 0.002155 0.179156 0.070759
v 0.002155 0.156556 0.048157
v 0.002155 0.128079 0.033646
v 0.002155 0.096511 0.028649
v 0.002155 0.064942 0.033646
v 0.002155 0.036464 0.048157
v 0.002155 0.013863 0.070759
v 0.002155 -0.000646 0.099236
v 0.002155 -0.005645 0.130802
v 0.002155 -0.000646 0.162373
v 0.002155 0.013863 0.190846
v 0.002155 0.036464 0.213448
v 0.002155 0.064942 0.227959
v 0.002155 0.096511 0.232960
v 0.002203 0.128077 0.227959
v 0.002155 0.156556 0.213448
v 0.002203 0.179156 0.190846
v 0.002155 0.193667 0.162373
v 0.002155 0.198666 0.130802
v -51.347568 0.193667 0.209450
v -51.347544 0.179158 0.180973
v -51.347592 0.156556 0.158371
v -51.347568 0.128079 0.143856
v -51.347544 0.096512 0.138859
v -51.347592 0.064942 0.143856
v -51.347568 0.036465 0.158371
v -51.347568 0.013865 0.180973
v -51.347544 -0.000644 0.209450
v -51.347568 -0.005645 0.241017
v -51.347544 -0.000644 0.272583
v -51.347568 0.013865 0.301060
v -51.347568 0.036465 0.323662
v -51.347592 0.064942 0.338169
v -51.347544 0.096512 0.343174
v -51.347568 0.128079 0.338169
v -51.347592 0.156556 0.323662
v -51.347544 0.179158 0.301060
v -51.347568 0.193667 0.272583
v -51.347592 0.198667 0.241017
vt 0.017184 0.003354
vt 0.017376 0.002762
vt 0.017376 0.002140
vt 0.017184 0.001549
vt 0.016818 0.001046
vt 0.016315 0.000680
vt 0.015724 0.000488
vt 0.015102 0.000488
vt 0.014510 0.000680
vt 0.014007 0.001046
vt 0.013642 0.001549
vt 0.013450 0.002140
vt 0.013450 0.002762
vt 0.013642 0.003354
vt 0.014007 0.003857
vt 0.014510 0.004222
vt 0.015102 0.004414
vt 0.015724 0.004414
vt 0.016315 0.004222
vt 0.016818 0.003857
vt 0.000551 0.000491
vt 0.001173 0.000490
vt 0.001795 0.000489
vt 0.002417 0.000488
vt 0.003038 0.000488
vt 0.003660 0.000489
vt 0.004282 0.000489
vt 0.004904 0.000490
vt 0.005526 0.000491
vt 0.006148 0.000493
vt 0.006769 0.000494
vt 0.007391 0.000495
vt 0.008013 0.000496
vt 0.008635 0.000497
vt 0.009257 0.000497
vt 0.009878 0.000496
vt 0.010500 0.000496
vt 0.011122 0.000495
vt 0.011744 0.000494
vt 0.012366 0.000493
vt 0.012987 0.000492
vt 0.000488 0.999505
vt 0.001110 0.999504
vt 0.001732 0.999504
vt 0.002354 0.999503
vt 0.002976 0.999502
vt 0.003597 0.999503
vt 0.004219 0.999503
vt 0.004841 0.999505
vt 0.005463 0.999505
vt 0.006085 0.999507
vt 0.006706 0.999508
vt 0.007328 0.999510
vt 0.007950 0.999511
vt 0.008572 0.999512
vt 0.009194 0.999511
vt 0.009815 0.999511
vt 0.010437 0.999511
vt 0.011059 0.999509
vt 0.011681 0.999509
vt 0.012303 0.999508
vt 0.012924 0.999506
vt 0.021504 0.003354
vt 0.021696 0.002762
vt 0.021696 0.002140
vt 0.021504 0.001549
vt 0.021139 0.001046
vt 0.020635 0.000680
vt 0.020044 0.000488
vt 0.019422 0.000488
vt 0.018831 0.000680
vt 0.018328 0.001046
vt 0.017962 0.001549
vt 0.017770 0.002140
vt 0.017770 0.002762
vt 0.017962 0.003354
vt 0.018328 0.003857
vt 0.018831 0.004222
vt 0.019422 0.004414
vt 0.020044 0.004414
vt 0.020636 0.004222
vt 0.021139 0.003857
vn -0.000758 0.935569 -0.353143
vn -0.001330 0.784885 -0.619640
vn -0.001195 0.830574 -0.556906
vn -0.000570 0.964072 -0.265642
vn -0.001772 0.564122 -0.825689
vn -0.001702 0.609308 -0.792932
vn -0.002051 0.294516 -0.955644
vn -0.002032 0.322225 -0.946661
vn -0.002146 -0.000001 -0.999998
vn -0.002146 0.000001 -0.999998
vn -0.002051 -0.294506 -0.955647
vn -0.002032 -0.322213 -0.946665
vn -0.001772 -0.564121 -0.825690
vn -0.001702 -0.609310 -0.792930
vn -0.001330 -0.784899 -0.619622
vn -0.001195 -0.830589 -0.556885
vn -0.000758 -0.935573 -0.353133
vn -0.000570 -0.964070 -0.265648
vn -0.000104 -0.998821 -0.048542
vn 0.000104 -0.998821 0.048540
vn 0.000570 -0.964071 0.265644
vn 0.000758 -0.935570 0.353140
vn 0.001195 -0.830576 0.556904
vn 0.001330 -0.784891 0.619633
vn 0.001702 -0.609281 0.792953
vn 0.001772 -0.564074 0.825722
vn 0.002032 -0.322226 0.946661
vn 0.002051 -0.294541 0.955636
vn 0.002146 -0.000001 0.999998
vn 0.002146 -0.000001 0.999998
vn 0.002032 0.322238 0.946656
vn 0.002051 0.294556 0.955632
vn 0.001702 0.609271 0.792961
vn 0.001772 0.564069 0.825725
vn 0.001195 0.830561 0.556926
vn 0.001330 0.784877 0.619650
vn 0.000570 0.964072 0.265641
vn 0.000758 0.935567 0.353149
vn -0.000104 0.998822 -0.048534
vn 0.000104 0.998822 0.048534
vn 1.000000 -0.000053 -0.000072
vn 1.000000 -0.000053 -0.000072
vn 1.000000 -0.000053 -0.000072
vn 1.000000 -0.000053 -0.000072
vn 1.000000 -0.000053 -0.000072
vn 1.000000 -0.000053 -0.000072
vn 1.000000 -0.000053 -0.000072
vn 1.000000 -0.000053 -0.000072
vn 1.000000 -0.000053 -0.000072
vn 1.000000 -0.000053 -0.000072
vn 1.000000 -0.000053 -0.000072
vn 1.000000 -0.000053 -0.000072
vn 1.000000 -0.000053 -0.000072
vn 1.000000 -0.000053 -0.000072
vn 1.000000 -0.000053 -0.000072
vn 1.000000 -0.000053 -0.000072
vn 1.000000 -0.000053 -0.000072
vn 1.000000 -0.000053 -0.000072
vn 1.000000 -0.000053 -0.000072
vn 1.000000 -0.000053 -0.000072
vn -1.000000 -0.000043 0.000010
vn -1.000000 -0.000043 0.000010
vn -1.000000 -0.000043 0.000010
vn -1.000000 -0.000043 0.000010
vn -1.000000 -0.000043 0.000010
vn -1.000000 -0.000043 0.000010
vn -1.000000 -0.000043 0.000010
vn -1.000000 -0.000043 0.000010
vn -1.000000 -0.000043 0.000010
vn -1.000000 -0.000043 0.000010
vn -1.000000 -0.000043 0.000010
vn -1.000000 -0.000043 0.000010
vn -1.000000 -0.000043 0.000010
vn -1.000000 -0.000043 0.000010
vn -1.000000 -0.000043 0.000010
vn -1.000000 -0.000043 0.000010
vn -1.000000 -0.000043 0.000010
vn -1.000000 -0.000043 0.000010
vn -1.000000 -0.000043 0.000010
vn -1.000000 -0.000043 0.000010
s 1
g Screen_Pole
usemtl initialShadingGroup
f 1/21/1 2/22/2 22/43/3 21/42/4
f 2/22/2 3/23/5 23/44/6 22/43/3
f 3/23/5 4/24/7 24/45/8 23/44/6
f 4/24/7 5/25/9 25/46/10 24/45/8
f 5/25/9 6/26/11 26/47/12 25/46/10
f 6/26/11 7/27/13 27/48/14 26/47/12
f 7/27/13 8/28/15 28/49/16 27/48/14
f 8/28/15 9/29/17 29/50/18 28/49/16
f 9/29/17 10/30/19 30/51/20 29/50/18
f 10/30/19 11/31/21 31/52/22 30/51/20
f 11/31/21 12/32/23 32/53/24 31/52/22
f 12/32/23 13/33/25 33/54/26 32/53/24
f 13/33/25 14/34/27 34/55/28 33/54/26
f 14/34/27 15/35/29 35/56/30 34/55/28
f 15/35/29 16/36/31 36/57/32 35/56/30
f 16/36/31 17/37/33 37/58/34 36/57/32
f 17/37/33 18/38/35 38/59/36 37/58/34
f 18/38/35 19/39/37 39/60/38 38/59/36
f 19/39/37 20/40/39 40/61/40 39/60/38
f 20/40/39 1/41/1 21/62/4 40/61/40
s off
f 1/1/41 20/20/42 19/19/43 18/18/44 17/17/45 16/16/46 15/15/47 14/14/48 13/13/49 12/12/50 11/11/51 10/10/52 9/9/53 8/8/54 7/7/55 6/6/56 5/5/57 4/4/58 3/3/59 2/2/60
f 21/81/61 22/80/62 23/79/63 24/78/64 25/77/65 26/76/66 27/75/67 28/74/68 29/73/69 30/72/70 31/71/71 32/70/72 33/69/73 34/68/74 35/67/75 36/66/76 37/65/77 38/64/78 39/63/79 40/82/80
