# This file uses centimeters as units for non-parametric coordinates.

mtllib Speaker_002.mtl
g default
v -0.498536 -0.005322 1.237639
v -0.495001 -0.006787 1.237639
v -0.495001 -0.005322 1.241174
v -0.495001 -0.001787 1.242638
v -0.498536 -0.001787 1.241174
v -0.500000 -0.001787 1.237639
v 0.498536 -0.005322 1.237639
v 0.500000 -0.001787 1.237639
v 0.498536 -0.001787 1.241174
v 0.495001 -0.001787 1.242638
v 0.495001 -0.005322 1.241174
v 0.495001 -0.006787 1.237639
v -0.498536 0.991749 1.237639
v -0.500000 0.988214 1.237639
v -0.498536 0.988214 1.241174
v -0.495001 0.988214 1.242638
v -0.495001 0.991749 1.241174
v -0.495001 0.993213 1.237639
v 0.498536 0.991749 1.237639
v 0.495001 0.993213 1.237639
v 0.495001 0.991749 1.241174
v 0.495001 0.988214 1.242638
v 0.498536 0.988214 1.241174
v 0.500000 0.988214 1.237639
v -0.498536 0.988214 -1.411957
v -0.500000 0.988214 -1.408422
v -0.498536 0.991749 -1.408422
v -0.495001 0.993213 -1.408422
v -0.495001 0.991749 -1.411957
v -0.495001 0.988214 -1.413422
v 0.498536 0.988214 -1.411957
v 0.495001 0.988214 -1.413422
v 0.495001 0.991749 -1.411957
v 0.495001 0.993213 -1.408422
v 0.498536 0.991749 -1.408422
v 0.500000 0.988214 -1.408422
v -0.498536 -0.005322 -1.408422
v -0.500000 -0.001787 -1.408422
v -0.498536 -0.001787 -1.411957
v -0.495001 -0.001787 -1.413422
v -0.495001 -0.005322 -1.411957
v -0.495001 -0.006787 -1.408422
v 0.498536 -0.005322 -1.408422
v 0.495001 -0.006787 -1.408422
v 0.495001 -0.005322 -1.411957
v 0.495001 -0.001787 -1.413422
v 0.498536 -0.001787 -1.411957
v 0.500000 -0.001787 -1.408422
v -0.497886 -0.004673 1.240524
v 0.497886 -0.004673 1.240524
v -0.497886 0.991099 1.240524
v 0.497886 0.991099 1.240524
v -0.497886 0.991099 -1.411308
v 0.497886 0.991099 -1.411308
v -0.497886 -0.004673 -1.411308
v 0.497886 -0.004673 -1.411308
v 0.526560 0.042617 -1.349273
v 0.525947 0.036991 -1.354644
v 0.523904 0.032432 -1.360188
v 0.523904 0.032432 1.189405
v 0.525947 0.036991 1.183860
v 0.526560 0.042617 1.178490
v 0.526560 0.943912 -1.349363
v 0.525957 0.949448 -1.354647
v 0.523947 0.953933 -1.360102
v 0.526560 0.943809 1.178490
v 0.525947 0.949436 1.183860
v 0.523904 0.953995 1.189405
vt 0.357167 0.998507
vt 0.363993 0.001142
vt 0.492758 0.998989
vt 0.366317 0.135893
vt 0.500140 0.137930
vt 0.001011 0.011177
vt 0.361811 0.499020
vt 0.497136 0.500266
vt 0.495602 0.637878
vt 0.360449 0.635192
vt 0.495615 0.636829
vt 0.504352 0.001009
vt 0.366251 0.136943
vt 0.500182 0.138968
vt 0.361799 0.500061
vt 0.497124 0.501314
vt 0.360438 0.636233
vt 0.362902 0.001161
vt 0.365320 0.135952
vt 0.004100 0.146715
vt 0.356643 0.998513
vt 0.362926 0.000639
vt 0.363959 0.000620
vt 0.357148 0.999030
vt 0.363448 0.001161
vt 0.505424 0.000526
vt 0.493281 0.999003
vt 0.504894 0.001038
vt 0.492769 0.999512
vt 0.504396 0.000488
vt 0.365379 0.136472
vt 0.365730 0.136898
vt 0.365819 0.135917
vt 0.366289 0.136418
vt 0.500704 0.138932
vt 0.501075 0.138528
vt 0.500156 0.138449
vt 0.500641 0.137964
vt 0.003578 0.146745
vt 0.361278 0.500022
vt 0.361288 0.499047
vt 0.004107 0.147238
vt 0.361815 0.499541
vt 0.497647 0.501285
vt 0.863071 0.155568
vt 0.497121 0.500790
vt 0.862536 0.156051
vt 0.497658 0.500303
vt 0.000987 0.010654
vt 0.359917 0.636191
vt 0.359926 0.635220
vt 0.000488 0.011176
vt 0.360453 0.635712
vt 0.496124 0.637844
vt 0.869444 0.017686
vt 0.495598 0.637353
vt 0.869930 0.018218
vt 0.496136 0.636868
vt 0.356725 0.998937
vt 0.363442 0.000743
vt 0.504908 0.000620
vt 0.493193 0.999426
vt 0.365848 0.136379
vt 0.500601 0.138422
vt 0.003680 0.147166
vt 0.361397 0.499536
vt 0.497538 0.500794
vt 0.862962 0.155986
vt 0.000566 0.010751
vt 0.360036 0.635707
vt 0.496015 0.637356
vt 0.869863 0.017792
vt 0.860471 0.024841
vt 0.854319 0.148096
vt 0.869407 0.018207
vt 0.512319 0.006959
vt 0.862549 0.155528
vt 0.862070 0.023464
vt 0.501142 0.138009
vt 0.855745 0.149595
vt 0.505437 0.001049
vt 0.508325 0.132760
vt 0.509889 0.131384
vt 0.513794 0.008479
vt 0.861247 0.024103
vt 0.513084 0.007671
vt 0.855005 0.148892
vt 0.509131 0.132122
vn -0.001473 -0.999999 0.000552
vn -0.382647 -0.923895 0.000310
vn -0.382647 -0.923895 -0.000310
vn -0.001473 -0.999999 -0.000552
vn -0.923895 -0.382646 0.000310
vn -0.999999 -0.001473 0.000552
vn -0.999999 -0.001473 -0.000552
vn -0.923895 -0.382646 -0.000310
vn -0.001472 -0.001472 0.999998
vn -0.000856 -0.382588 0.923919
vn 0.000856 -0.382588 0.923919
vn 0.001472 -0.001472 0.999998
vn -0.001050 -0.923926 0.382569
vn 0.001473 -0.999999 0.000552
vn 0.001050 -0.923926 0.382569
vn -0.923926 -0.001050 0.382570
vn -0.923926 0.001050 0.382570
vn -0.999999 0.001473 0.000552
vn -0.382588 -0.000856 0.923919
vn -0.001472 0.001472 0.999998
vn -0.382587 0.000856 0.923919
vn 0.889632 -0.444097 0.106458
vn 0.923895 -0.382646 0.000310
vn 0.923895 -0.382646 -0.000310
vn 0.889658 -0.444029 -0.106523
vn 0.382647 -0.923895 0.000310
vn 0.001473 -0.999999 -0.000552
vn 0.382647 -0.923895 -0.000310
vn 0.382588 -0.000856 0.923919
vn 0.382587 0.000856 0.923919
vn 0.001472 0.001472 0.999998
vn 0.923926 -0.001050 0.382570
vn 0.889597 0.444183 0.106393
vn 0.923926 0.001050 0.382570
vn -0.923894 0.382649 0.000310
vn -0.923894 0.382649 -0.000310
vn -0.999999 0.001473 -0.000552
vn -0.382661 0.923889 0.000310
vn -0.001473 0.999999 0.000552
vn -0.001473 0.999999 -0.000552
vn -0.382661 0.923889 -0.000310
vn -0.001050 0.923921 0.382582
vn 0.001050 0.923921 0.382582
vn 0.001473 0.999999 0.000552
vn -0.000855 0.382591 0.923918
vn 0.000855 0.382591 0.923918
vn 0.382661 0.923889 0.000310
vn 0.382661 0.923889 -0.000310
vn 0.001473 0.999999 -0.000552
vn 0.923894 0.382649 0.000310
vn 0.889623 0.444114 -0.106457
vn 0.923894 0.382649 -0.000310
vn -0.923926 0.001050 -0.382570
vn -0.923926 -0.001050 -0.382570
vn -0.382587 0.000856 -0.923919
vn -0.001472 0.001472 -0.999998
vn -0.001472 -0.001472 -0.999998
vn -0.382588 -0.000856 -0.923919
vn -0.000855 0.382591 -0.923918
vn 0.000855 0.382591 -0.923918
vn 0.001472 0.001472 -0.999998
vn -0.001050 0.923921 -0.382582
vn 0.001050 0.923921 -0.382582
vn 0.382587 0.000856 -0.923919
vn 0.382588 -0.000856 -0.923919
vn 0.001472 -0.001472 -0.999998
vn 0.923926 0.001050 -0.382570
vn 0.923926 -0.001050 -0.382570
vn -0.001050 -0.923926 -0.382569
vn 0.001050 -0.923926 -0.382569
vn -0.000856 -0.382588 -0.923919
vn 0.000856 -0.382588 -0.923919
vn -0.887915 -0.325272 0.325276
vn -0.325263 -0.887917 0.325280
vn -0.325267 -0.325277 0.887917
vn 0.325264 -0.887918 0.325276
vn 0.887915 -0.325274 0.325276
vn 0.325272 -0.325277 0.887915
vn -0.325270 0.887916 0.325276
vn -0.887921 0.325269 0.325264
vn -0.325246 0.325278 0.887924
vn 0.887923 0.325265 0.325262
vn 0.325269 0.887917 0.325275
vn 0.325252 0.325275 0.887923
vn -0.325252 0.325275 -0.887923
vn -0.887923 0.325265 -0.325262
vn -0.325269 0.887917 -0.325275
vn 0.887921 0.325269 -0.325264
vn 0.325246 0.325278 -0.887924
vn 0.325270 0.887916 -0.325276
vn -0.325264 -0.887918 -0.325276
vn -0.887915 -0.325274 -0.325276
vn -0.325272 -0.325277 -0.887915
vn 0.887915 -0.325272 -0.325276
vn 0.325263 -0.887917 -0.325280
vn 0.325267 -0.325277 -0.887917
vn 0.826702 -0.562641 0.000000
vn 0.972764 -0.214441 -0.088009
vn 0.972816 -0.213984 0.088539
vn 0.826702 -0.562641 0.000000
vn 1.000000 -0.000821 -0.000424
vn 1.000000 -0.000821 0.000427
vn 1.000000 0.000814 -0.000424
vn 1.000000 0.000814 0.000427
vn 0.897137 -0.000000 -0.441752
vn 0.897137 -0.000000 -0.441752
vn 0.826644 0.562726 0.000000
vn 0.826645 0.562724 0.000000
vn 0.897147 0.000000 0.441732
vn 0.897147 0.000000 0.441732
vn 0.972818 0.213979 -0.088533
vn 0.972869 0.213524 0.089073
s 1
g Speaker_002
usemtl initialShadingGroup
f 2/1/1 1/21/2 37/50/3 42/17/4
s 2
f 1/22/5 6/18/6 38/6/7 37/49/8
s 3
f 4/2/9 3/23/10 11/30/11 10/12/12
s 1
f 3/24/13 2/1/1 12/3/14 11/29/15
s 2
f 6/18/6 5/25/16 15/33/17 14/19/18
s 3
f 5/25/19 4/2/9 16/4/20 15/33/21
s 4
f 8/81/22 7/26/23 43/55/24 48/75/25
s 1
f 7/27/26 12/3/14 44/9/27 43/54/28
s 3
f 10/12/12 9/28/29 23/38/30 22/5/31
s 4
f 9/28/32 8/81/22 24/79/33 23/38/34
s 2
f 14/19/18 13/31/35 27/42/36 26/20/37
s 5
f 13/32/38 18/13/39 28/7/40 27/41/41
f 18/13/39 17/34/42 21/37/43 20/14/44
s 3
f 17/34/45 16/4/20 22/5/31 21/37/46
s 5
f 20/14/44 19/35/47 35/48/48 34/8/49
s 4
f 19/36/50 24/79/33 36/77/51 35/47/52
s 2
f 26/20/37 25/39/53 39/52/54 38/6/7
s 6
f 25/40/55 30/15/56 40/10/57 39/51/58
f 30/15/56 29/43/59 33/46/60 32/16/61
s 5
f 29/43/62 28/7/40 34/8/49 33/46/63
s 6
f 32/16/61 31/44/64 47/58/65 46/11/66
s 4
f 31/45/67 36/77/51 48/75/25 47/57/68
s 1
f 42/17/4 41/53/69 45/56/70 44/9/27
s 6
f 41/53/71 40/10/57 46/11/66 45/56/72
s 3
f 4/2/9 10/12/12 22/5/31 16/4/20
s 5
f 18/13/39 20/14/44 34/8/49 28/7/40
s 6
f 30/15/56 32/16/61 46/11/66 40/10/57
s 1
f 42/17/4 44/9/27 12/3/14 2/1/1
s 2
f 38/6/7 6/18/6 14/19/18 26/20/37
f 5/25/16 6/18/6 1/22/5 49/60/73
s 1
f 1/21/2 2/1/1 3/24/13 49/59/74
s 3
f 3/23/10 4/2/9 5/25/19 49/60/75
s 1
f 11/29/15 12/3/14 7/27/26 50/62/76
s 4
f 7/26/23 8/81/22 9/28/32 50/61/77
s 3
f 9/28/29 10/12/12 11/30/11 50/61/78
s 5
f 17/34/42 18/13/39 13/32/38 51/63/79
s 2
f 13/31/35 14/19/18 15/33/17 51/63/80
s 3
f 15/33/21 16/4/20 17/34/45 51/63/81
s 4
f 23/38/34 24/79/33 19/36/50 52/64/82
s 5
f 19/35/47 20/14/44 21/37/43 52/64/83
s 3
f 21/37/46 22/5/31 23/38/30 52/64/84
s 6
f 29/43/59 30/15/56 25/40/55 53/66/85
s 2
f 25/39/53 26/20/37 27/42/36 53/65/86
s 5
f 27/41/41 28/7/40 29/43/62 53/66/87
s 4
f 35/47/52 36/77/51 31/45/67 54/68/88
s 6
f 31/44/64 32/16/61 33/46/60 54/67/89
s 5
f 33/46/63 34/8/49 35/48/48 54/67/90
s 1
f 41/53/69 42/17/4 37/50/3 55/70/91
s 2
f 37/49/8 38/6/7 39/52/54 55/69/92
s 6
f 39/51/58 40/10/57 41/53/71 55/70/93
s 4
f 47/57/68 48/75/25 43/55/24 56/72/94
s 1
f 43/54/28 44/9/27 45/56/70 56/71/95
s 6
f 45/56/72 46/11/66 47/58/65 56/71/96
s 4
f 59/78/97 58/85/98 61/86/99 60/76/100
f 58/85/98 57/73/101 62/84/102 61/86/99
f 62/84/102 57/73/101 63/74/103 66/83/104
f 8/81/22 48/75/25 59/78/97 60/76/100
f 48/75/25 36/77/51 65/80/105 59/78/106
f 36/77/51 24/79/33 68/82/107 65/80/108
f 24/79/33 8/81/22 60/76/109 68/82/110
f 57/73/101 58/85/98 64/87/111 63/74/103
f 58/85/98 59/78/106 65/80/105 64/87/111
f 63/74/103 64/87/111 67/88/112 66/83/104
f 64/87/111 65/80/108 68/82/107 67/88/112
f 60/76/109 61/86/99 67/88/112 68/82/110
f 61/86/99 62/84/102 66/83/104 67/88/112
