# This file uses centimeters as units for non-parametric coordinates.

mtllib Swamp_Flower_Stem.mtl
g default
v 0.001352 -0.017220 -0.006119
v -0.007262 -0.016268 -0.003287
v -0.007262 -0.016268 0.005875
v 0.001352 -0.017220 0.008707
v 0.006676 -0.017808 0.001294
v -0.050848 1.422069 -0.005246
v -0.059481 1.420900 -0.002414
v -0.059481 1.420900 0.006748
v -0.050848 1.422069 0.009580
v -0.045512 1.422790 0.002167
v -0.158035 2.019199 0.002167
v -0.055568 1.421430 -0.005082
v -0.060786 1.420724 0.002167
v -0.055568 1.421430 0.009416
v -0.047124 1.422573 0.006647
v -0.047124 1.422573 -0.002313
v -0.161539 2.018521 -0.000426
v -0.156697 2.019458 -0.002028
v -0.161539 2.018521 0.004760
v -0.156697 2.019458 0.006362
v -0.153705 2.020038 0.002167
v -0.003357 -0.016699 -0.005955
v -0.008564 -0.016124 0.001294
v -0.003357 -0.016699 0.008543
v 0.005067 -0.017631 0.005774
v 0.005067 -0.017631 -0.003186
v -0.008178 0.874467 -0.029779
v 0.000440 0.874290 -0.032611
v -0.008178 0.874467 -0.020617
v 0.000440 0.874290 -0.017785
v 0.005767 0.874180 -0.025198
v -0.004271 0.874387 -0.032447
v -0.009480 0.874494 -0.025198
v -0.004271 0.874387 -0.017949
v 0.004157 0.874213 -0.020718
v 0.004157 0.874213 -0.029678
v -0.159577 2.018901 -0.002666
v -0.163024 2.018234 0.002167
v -0.159577 2.018901 0.007000
v -0.153999 2.019981 0.005154
v -0.153999 2.019981 -0.000820
vt 0.043180 0.002049
vt 0.071606 0.002681
vt 0.048793 0.001842
vt 0.054565 0.001257
vt 0.060285 0.000518
vt 0.066018 0.000824
vt 0.000488 0.868833
vt 0.071933 0.872126
vt 0.017113 0.871495
vt 0.031860 0.872278
vt 0.046585 0.873051
vt 0.061303 0.873433
vt 0.042461 0.996699
vt 0.034075 0.539634
vt 0.039779 0.540357
vt 0.045524 0.540326
vt 0.051240 0.539911
vt 0.057001 0.539712
vt 0.042046 0.997619
vt 0.041548 0.995233
vt 0.042305 0.993532
vt 0.043241 0.995192
vt 0.042963 0.997679
vt 0.045962 0.001937
vt 0.051675 0.001603
vt 0.057431 0.000835
vt 0.063152 0.000488
vt 0.068843 0.001600
vt 0.036911 0.540082
vt 0.031250 0.539137
vt 0.059862 0.539708
vt 0.042659 0.540448
vt 0.048377 0.540118
vt 0.054121 0.539764
vt 0.009725 0.870933
vt 0.024489 0.871873
vt 0.039223 0.872680
vt 0.053948 0.873358
vt 0.069061 0.872433
vt 0.041764 0.996477
vt 0.042637 0.999512
vt 0.041731 0.994072
vt 0.042936 0.994029
vt 0.043133 0.996507
vn 0.334358 -0.027653 -0.942040
vn -0.297626 -0.028674 -0.954252
vn -0.306577 -0.009775 -0.951796
vn 0.313181 0.012099 -0.949616
vn -0.807329 -0.018370 -0.589815
vn -0.805462 -0.028406 -0.591967
vn -0.999987 -0.000878 0.005076
vn -0.999303 -0.036757 -0.006488
vn -0.800371 0.016998 0.599264
vn -0.812184 -0.030703 0.582592
vn -0.290933 0.028131 0.956330
vn -0.306585 -0.011753 0.951771
vn 0.334038 0.028338 0.942134
vn 0.321828 0.011827 0.946724
vn 0.816684 0.017968 0.576805
vn 0.816492 0.029532 0.576602
vn 0.999978 0.001214 0.006546
vn 0.999331 0.035658 -0.008098
vn 0.820858 -0.016123 -0.570905
vn 0.809408 0.029110 -0.586525
vn -0.303378 -0.011783 -0.952798
vn 0.314030 0.068460 -0.946942
vn -0.805028 -0.089086 -0.586510
vn -0.991727 -0.128283 0.004631
vn -0.796502 -0.119096 0.592791
vn -0.297321 -0.062214 0.952749
vn 0.313967 0.019459 0.949234
vn 0.805261 0.092483 0.585664
vn 0.991058 0.133313 0.005630
vn 0.806370 0.123441 -0.578386
vn -0.302649 -0.043946 -0.952089
vn 0.305345 0.063965 -0.950091
vn -0.797775 -0.129546 -0.588875
vn -0.986473 -0.163922 0.000003
vn -0.797774 -0.129546 0.588876
vn -0.302648 -0.043946 0.952089
vn 0.305346 0.063964 0.950091
vn 0.796776 0.148921 0.585637
vn 0.983141 0.182847 -0.000001
vn 0.796776 0.148921 -0.585637
vn -0.190029 0.981779 -0.000004
s 1
g Swamp_Flower_Stem
usemtl initialShadingGroup
f 1/1/1 22/24/2 32/14/3 28/30/4
f 22/24/2 2/3/5 27/29/6 32/14/3
f 2/3/5 23/25/7 33/15/8 27/29/6
f 23/25/7 3/4/9 29/32/10 33/15/8
f 3/4/9 24/26/11 34/16/12 29/32/10
f 24/26/11 4/5/13 30/33/14 34/16/12
f 4/5/13 25/27/15 35/17/16 30/33/14
f 25/27/15 5/6/17 31/34/18 35/17/16
f 5/6/17 26/28/19 36/18/20 31/34/18
f 26/28/19 1/2/1 28/31/4 36/18/20
f 32/14/3 12/35/21 6/7/22 28/30/4
f 27/29/6 7/9/23 12/35/21 32/14/3
f 33/15/8 13/36/24 7/9/23 27/29/6
f 29/32/10 8/10/25 13/36/24 33/15/8
f 34/16/12 14/37/26 8/10/25 29/32/10
f 30/33/14 9/11/27 14/37/26 34/16/12
f 35/17/16 15/38/28 9/11/27 30/33/14
f 31/34/18 10/12/29 15/38/28 35/17/16
f 36/18/20 16/39/30 10/12/29 31/34/18
f 28/31/4 6/8/22 16/39/30 36/18/20
f 12/35/21 37/19/31 18/41/32 6/7/22
f 7/9/23 17/40/33 37/19/31 12/35/21
f 13/36/24 38/20/34 17/40/33 7/9/23
f 8/10/25 19/42/35 38/20/34 13/36/24
f 14/37/26 39/21/36 19/42/35 8/10/25
f 9/11/27 20/43/37 39/21/36 14/37/26
f 15/38/28 40/22/38 20/43/37 9/11/27
f 10/12/29 21/44/39 40/22/38 15/38/28
f 16/39/30 41/23/40 21/44/39 10/12/29
f 6/8/22 18/41/32 41/23/40 16/39/30
f 11/13/41 18/41/32 37/19/31 17/40/33
f 11/13/41 17/40/33 38/20/34 19/42/35
f 11/13/41 19/42/35 39/21/36 20/43/37
f 11/13/41 20/43/37 40/22/38 21/44/39
f 11/13/41 21/44/39 41/23/40 18/41/32
