# This file uses centimeters as units for non-parametric coordinates.

mtllib Wire_Door_Bottom.mtl
g default
v -2.136775 0.013878 -0.129644
v 0.013245 0.013878 -0.000371
v -2.136775 2.288727 -0.129644
v 0.013245 2.288727 -0.000371
v -1.061638 2.288727 -0.065008
v -2.136775 1.225716 -0.129644
v 0.013245 1.225716 -0.000371
v -0.973426 0.014130 -0.058161
v -1.134885 0.014415 -0.065618
v -0.916139 1.225465 0.093682
v -1.061638 1.236344 0.075477
v -1.185863 1.225180 -0.065618
vt 0.489881 0.987296
vt 0.970734 0.542084
vt 0.953423 0.999512
vt 0.026229 0.999472
vt 0.000488 0.020213
vt 0.014200 0.541875
vt 0.565336 0.000488
vt 0.990469 0.020615
vt 0.432660 0.009082
vt 0.568770 0.526764
vt 0.505555 0.530366
vt 0.424462 0.530861
vn -0.094612 0.004616 0.995504
vn -0.101762 0.006086 0.994790
vn -0.059090 0.045341 0.997222
vn -0.059692 0.045025 0.997201
vn -0.124554 0.010779 0.992154
vn 0.010825 0.025980 0.999604
vn 0.012497 0.007623 0.999893
vn 0.005946 0.079263 0.996836
vn -0.065433 -0.001377 0.997856
vn -0.065433 -0.001377 0.997856
vn 0.018885 -0.062974 0.997837
vn 0.018885 -0.062974 0.997837
s 1
g Wire_Door_Bottom
usemtl initialShadingGroup
f 6/6/1 12/12/2 11/11/3 5/1/4 3/4/5
f 5/1/4 11/11/3 10/10/6 7/2/7 4/3/8
f 1/5/9 9/9/10 12/12/2 6/6/1
f 7/2/7 10/10/6 8/7/11 2/8/12
