# This file uses centimeters as units for non-parametric coordinates.

mtllib Wire_Door_Top.mtl
g default
v -2.119092 0.001063 -0.126729
v 0.030901 0.001063 0.002552
v -2.119092 2.275912 -0.126729
v 0.030901 2.275912 0.002552
v -1.115744 0.001063 -0.066397
v -1.115744 2.275912 -0.066397
v -2.119092 1.306603 -0.126729
v -1.115744 1.248085 0.140916
v 0.030901 1.306603 0.002552
vt 0.002533 0.005442
vt 0.945482 0.005827
vt 0.004360 0.999344
vt 0.942992 0.999512
vt 0.442596 0.000488
vt 0.442443 0.998619
vt 0.000488 0.576710
vt 0.448300 0.545396
vt 0.946557 0.577177
vn -0.161285 0.000580 0.986908
vn -0.059890 -0.000572 0.998205
vn -0.059825 0.103066 0.992874
vn -0.157564 0.101961 0.982231
vn 0.030242 0.000515 0.999542
vn 0.027462 0.103212 0.994280
vn -0.163054 -0.079868 0.983379
vn -0.059933 -0.080806 0.994926
vn 0.032219 -0.080909 0.996201
s 1
g Wire_Door_Top
usemtl initialShadingGroup
f 7/7/1 8/8/2 6/6/3 3/3/4
f 6/6/3 8/8/2 9/9/5 4/4/6
f 1/1/7 5/5/8 8/8/2 7/7/1
f 9/9/5 8/8/2 5/5/8 2/2/9
