# This file uses centimeters as units for non-parametric coordinates.

mtllib Wire2.mtl
g default
v 0.092463 0.012726 -0.030498
v 7.300477 0.012726 -0.030498
v 0.092463 5.825562 -0.070068
v 7.300477 5.825562 -0.070068
v 0.092463 5.831650 -0.006113
v 7.300477 5.831650 -0.006113
v 0.095909 5.760634 0.001500
v 7.303908 5.759882 0.001877
v 0.092463 5.838857 -0.038015
v 7.300477 5.838857 -0.038015
v 0.092463 5.810740 0.013437
v 7.300477 5.810740 0.013437
v 0.092463 5.767968 -0.062253
v 7.300477 5.767968 -0.062253
v 0.092463 5.779657 0.013340
v 7.300477 5.779657 0.013340
v 0.094068 5.745057 -0.032557
v 7.302082 5.745057 -0.032557
v 2.983754 0.008660 -0.027763
v 2.975668 5.825562 -0.070068
v 2.975668 5.838857 -0.038015
v 2.975668 5.831650 -0.006113
v 2.975668 5.810740 0.013437
v 2.975668 5.779657 0.013340
v 2.979108 5.760333 0.001651
v 2.977274 5.745058 -0.032557
v 2.975668 5.767968 -0.062253
v 0.092463 4.662995 -0.062154
v 2.975668 4.662995 -0.383775
v 7.300477 4.662995 -0.062154
v 3.408148 0.012726 -0.030498
v 3.410572 4.662995 -0.315556
v 3.408148 5.825562 -0.070068
v 3.408148 5.838857 -0.038015
v 3.408148 5.831650 -0.006113
v 3.408148 5.810740 0.013437
v 3.408148 5.779657 0.013340
v 3.411588 5.760288 0.001673
v 3.409754 5.745058 -0.032557
v 3.408148 5.767968 -0.062253
v 0.092463 0.942780 -0.036829
v 3.031514 1.087185 0.357015
v 3.475146 1.446363 0.486409
v 7.300477 0.942780 -0.036829
v 0.092463 2.802887 -0.049492
v 2.287136 2.184770 0.277601
v 7.260034 2.802887 -0.049492
v 5.354312 0.012726 -0.030498
v 5.354312 0.942780 -0.036829
v 4.229076 3.120925 -0.042788
v 5.682319 4.367845 0.258755
v 5.335255 5.734809 -0.066105
v 5.333273 5.749172 -0.034098
v 5.336531 5.738911 -0.002063
v 5.343433 5.712644 0.017722
v 5.353520 5.674795 0.017920
v 5.363111 5.651438 0.006520
v 5.364678 5.634924 -0.027747
v 5.352993 5.664545 -0.057736
v 5.496002 0.012726 -0.030498
v 5.496002 0.942780 -0.036829
v 4.156097 2.787086 0.045608
v 5.647478 4.200771 0.263936
v 5.470723 5.735556 -0.066137
v 5.468861 5.749914 -0.034131
v 5.472478 5.739668 -0.002096
v 5.478432 5.713428 0.017687
v 5.488079 5.675612 0.017884
v 5.497346 5.652352 0.006487
v 5.498848 5.635812 -0.027786
v 5.487571 5.665355 -0.057771
vt 0.000488 0.028647
vt 0.964059 0.000488
vt 0.989681 0.820403
vt 0.001602 0.807165
vt 0.001464 0.811848
vt 0.989552 0.825090
vt 0.989311 0.829502
vt 0.001331 0.816263
vt 0.001083 0.824326
vt 0.988632 0.837542
vt 0.988850 0.840660
vt 0.001447 0.827362
vt 0.989007 0.833357
vt 0.001213 0.820128
vt 0.001035 0.832417
vt 0.988352 0.845711
vt 0.988198 0.850787
vt 0.000651 0.837483
vt 0.388393 0.010168
vt 0.391983 0.815375
vt 0.391847 0.820058
vt 0.391709 0.824472
vt 0.391583 0.828337
vt 0.391439 0.832534
vt 0.391835 0.835594
vt 0.391345 0.840646
vt 0.390873 0.845708
vt 0.006593 0.651013
vt 0.397417 0.654466
vt 0.992155 0.662181
vt 0.446263 0.026015
vt 0.456938 0.654283
vt 0.450743 0.815472
vt 0.450508 0.820152
vt 0.450448 0.824566
vt 0.450467 0.828427
vt 0.450524 0.832620
vt 0.451053 0.835652
vt 0.450724 0.840724
vt 0.450139 0.845787
vt 0.004495 0.155093
vt 0.406488 0.163494
vt 0.458770 0.221534
vt 0.978286 0.128165
vt 0.012276 0.403080
vt 0.311941 0.315921
vt 0.999512 0.396950
vt 0.702826 0.022042
vt 0.715233 0.148749
vt 0.582541 0.444257
vt 0.758172 0.620607
vt 0.718557 0.810884
vt 0.718091 0.815644
vt 0.718573 0.820190
vt 0.719613 0.824592
vt 0.721125 0.829628
vt 0.722516 0.833071
vt 0.722714 0.838214
vt 0.720669 0.843863
vt 0.721337 0.020746
vt 0.735077 0.146148
vt 0.608895 0.415980
vt 0.764826 0.601046
vt 0.738671 0.810297
vt 0.738154 0.815066
vt 0.738427 0.819665
vt 0.738916 0.824182
vt 0.739896 0.829409
vt 0.740959 0.833010
vt 0.740967 0.838172
vt 0.739500 0.843892
vn 0.031745 0.046394 0.998419
vn 0.014974 0.040410 0.999071
vn 0.037772 -0.144149 0.988835
vn 0.055214 -0.130195 0.989950
vn 0.000000 -0.995500 0.094764
vn -0.000000 -0.995500 0.094765
vn -0.000000 -0.975418 -0.220364
vn 0.000000 -0.975417 -0.220366
vn 0.000021 0.220566 -0.975372
vn 0.000022 0.235811 -0.971799
vn 0.000050 0.522085 -0.852894
vn 0.000050 0.522993 -0.852337
vn 0.000000 -0.923691 0.383137
vn -0.000000 -0.923692 0.383137
vn 0.000000 -0.682969 -0.730447
vn -0.000000 -0.682968 -0.730448
vn -0.000000 -0.350427 -0.936590
vn 0.000000 -0.350427 -0.936590
vn 0.000033 0.991717 0.128442
vn 0.000034 0.994156 0.107951
vn -0.000000 0.791756 0.610838
vn -0.000000 0.791756 0.610837
vn 0.000058 0.911263 -0.411824
vn 0.000058 0.911550 -0.411190
vn -0.105655 0.071822 0.991806
vn -0.125807 -0.029630 0.991612
vn -0.035903 -0.918918 0.392812
vn -0.038340 -0.995894 0.082014
vn -0.037017 -0.966528 -0.253875
vn -0.024737 -0.650039 -0.759498
vn -0.012068 -0.339248 -0.940620
vn 0.010263 0.194013 -0.980945
vn 0.024270 0.486943 -0.873096
vn 0.042702 0.907497 -0.417883
vn 0.044622 0.986180 0.159555
vn 0.032439 0.761583 0.647254
vn -0.027698 0.106974 0.993876
vn -0.021089 0.103779 0.994377
vn -0.002671 0.158630 0.987335
vn -0.093498 0.083267 0.992131
vn -0.126578 0.016820 0.991814
vn -0.040367 -0.917391 0.395935
vn -0.043852 -0.996115 0.076363
vn -0.041434 -0.963522 -0.264401
vn -0.028177 -0.640370 -0.767549
vn -0.010472 -0.277477 -0.960675
vn 0.014731 0.242639 -0.970005
vn 0.025452 0.477445 -0.878293
vn 0.048262 0.905768 -0.421016
vn 0.050198 0.991421 0.120685
vn 0.037406 0.752233 0.657834
vn -0.062319 -0.183366 0.981067
vn -0.062319 -0.183366 0.981067
vn -0.102645 -0.091306 0.990519
vn -0.104072 -0.087987 0.990670
vn 0.099412 -0.201389 0.974454
vn 0.116148 -0.059519 0.991447
vn 0.169099 0.111416 0.979281
vn 0.104862 -0.212813 0.971450
vn 0.000000 0.006807 0.999977
vn 0.006192 -0.012545 0.999902
vn 0.025858 -0.070273 0.997193
vn 0.093326 -0.051013 0.994328
vn 0.081626 0.132474 0.987820
vn 0.042919 -0.916426 0.397896
vn 0.045952 -0.995619 0.081428
vn 0.044313 -0.962360 -0.268140
vn 0.029054 -0.635026 -0.771945
vn 0.014214 -0.332422 -0.943024
vn -0.011925 0.179077 -0.983763
vn -0.027772 0.460836 -0.887051
vn -0.052158 0.907935 -0.415853
vn -0.054420 0.980102 0.190887
vn -0.038758 0.743058 0.668104
vn 0.014144 -0.006607 0.999878
vn 0.000000 0.006807 0.999977
vn 0.055418 -0.055585 0.996915
vn 0.086167 0.013455 0.996190
vn 0.073303 0.128724 0.988968
vn 0.045650 -0.916672 0.397024
vn 0.049110 -0.995735 0.078105
vn 0.047034 -0.962957 -0.265520
vn 0.031341 -0.637937 -0.769451
vn 0.015184 -0.335460 -0.941932
vn -0.013670 0.192457 -0.981210
vn -0.029262 0.462176 -0.886305
vn -0.055628 0.908396 -0.414393
vn -0.058103 0.985280 0.160770
vn -0.042002 0.745945 0.664682
s 1
g Wire2
usemtl initialShadingGroup
f 28/28/1 29/29/2 20/20/3 3/4/4
s 2
f 9/5/5 21/21/6 22/22/7 5/8/8
s 3
f 15/9/9 24/24/10 25/25/11 7/12/12
s 2
f 3/4/13 20/20/14 21/21/6 9/5/5
s 3
f 5/8/15 22/22/16 23/23/17 11/14/18
s 5
f 17/15/19 26/26/20 27/27/21 13/18/22
s 3
f 11/14/18 23/23/17 24/24/10 15/9/9
s 5
f 7/12/23 25/25/24 26/26/20 17/15/19
s 1
f 20/20/3 29/29/2 32/32/25 33/33/26
s 2
f 21/21/6 20/20/14 33/33/27 34/34/28
f 22/22/7 21/21/6 34/34/28 35/35/29
s 3
f 23/23/17 22/22/16 35/35/30 36/36/31
f 24/24/10 23/23/17 36/36/31 37/37/32
f 25/25/11 24/24/10 37/37/32 38/38/33
s 5
f 26/26/20 25/25/24 38/38/34 39/39/35
f 27/27/21 26/26/20 39/39/35 40/40/36
s 1
f 45/45/37 46/46/38 29/29/2 28/28/1
f 46/46/38 32/32/25 29/29/2
f 50/50/39 51/51/40 32/32/25 46/46/38
f 33/33/26 32/32/25 51/51/40 52/52/41
s 2
f 34/34/28 33/33/27 52/52/42 53/53/43
f 35/35/29 34/34/28 53/53/43 54/54/44
s 3
f 36/36/31 35/35/30 54/54/45 55/55/46
f 37/37/32 36/36/31 55/55/46 56/56/47
f 38/38/33 37/37/32 56/56/47 57/57/48
s 5
f 39/39/35 38/38/34 57/57/49 58/58/50
f 40/40/36 39/39/35 58/58/50 59/59/51
s 1
f 1/1/52 19/19/53 42/42/54 41/41/55
f 48/48/56 49/49/57 43/43/58 31/31/59
f 41/41/55 42/42/54 46/46/38 45/45/37
f 49/49/57 50/50/39 46/46/38 43/43/58
f 60/60/60 61/61/61 49/49/57 48/48/56
f 61/61/61 62/62/62 50/50/39 49/49/57
f 52/52/41 51/51/40 63/63/63 64/64/64
s 2
f 53/53/43 52/52/42 64/64/65 65/65/66
f 54/54/44 53/53/43 65/65/66 66/66/67
s 3
f 55/55/46 54/54/45 66/66/68 67/67/69
f 56/56/47 55/55/46 67/67/69 68/68/70
f 57/57/48 56/56/47 68/68/70 69/69/71
s 5
f 58/58/50 57/57/49 69/69/72 70/70/73
f 59/59/51 58/58/50 70/70/73 71/71/74
s 1
f 44/44/75 61/61/61 60/60/60 2/2/76
f 47/47/77 62/62/62 61/61/61 44/44/75
f 30/30/78 63/63/63 62/62/62 47/47/77
f 64/64/64 63/63/63 30/30/78 4/3/79
s 2
f 65/65/66 64/64/65 4/3/80 10/6/81
f 66/66/67 65/65/66 10/6/81 6/7/82
s 3
f 67/67/69 66/66/68 6/7/83 12/13/84
f 68/68/70 67/67/69 12/13/84 16/10/85
f 69/69/71 68/68/70 16/10/85 8/11/86
s 5
f 70/70/73 69/69/72 8/11/87 18/16/88
f 71/71/74 70/70/73 18/16/88 14/17/89
