# This file uses centimeters as units for non-parametric coordinates.

mtllib Wire.mtl
g default
v 0.000605 -0.001585 -0.030499
v 7.208619 0.428755 -0.768653
v 0.000605 5.811252 -0.070069
v 7.208619 4.536452 2.089341
v 0.000605 5.817340 -0.006114
v 7.208619 4.495166 2.138563
v 0.004051 5.746324 0.001500
v 7.212050 4.439106 2.093044
v 0.000605 5.824547 -0.038015
v 7.208619 4.522949 2.121307
v 0.000605 5.796430 0.013437
v 7.208619 4.466564 2.137388
v 0.000605 5.753657 -0.062253
v 7.208619 4.490464 2.053798
v 0.000605 5.765347 0.013340
v 7.208619 4.444818 2.115177
v 0.002210 5.730747 -0.032558
v 7.210225 4.453231 2.058318
v 3.388309 0.260159 0.123036
v 3.807280 5.568818 2.599499
v 3.807429 5.567894 2.627401
v 3.806108 5.548365 2.656790
v 3.804112 5.521379 2.676368
v 3.801880 5.493118 2.680049
v 3.804208 5.479930 2.672376
v 3.802147 5.480149 2.644023
v 3.802942 5.513202 2.613688
v 0.000605 4.397448 -0.060444
v 3.705378 4.277641 2.719830
v 7.208619 3.537374 2.059820
v 0.000605 2.054145 -0.044493
v 3.536479 2.137584 1.646527
v 7.208619 1.881456 1.752925
vt 0.001825 0.622297
vt 0.562546 0.658247
vt 0.558599 0.817396
vt 0.000488 0.806153
vt 0.002877 0.809988
vt 0.559962 0.820457
vt 0.561574 0.824512
vt 0.005396 0.813437
vt 0.007669 0.820677
vt 0.563667 0.831952
vt 0.564222 0.833645
vt 0.007553 0.823515
vt 0.562871 0.828494
vt 0.007146 0.816739
vt 0.005475 0.827457
vt 0.563196 0.836601
vt 0.562242 0.841930
vt 0.003455 0.831448
vt 0.994783 0.586863
vt 0.982697 0.718384
vt 0.983195 0.722797
vt 0.984392 0.726729
vt 0.985855 0.729954
vt 0.987502 0.733415
vt 0.988840 0.735903
vt 0.989407 0.740631
vt 0.988619 0.745428
vt 0.038053 0.316135
vt 0.529392 0.371219
vt 0.999512 0.368455
vt 0.041246 0.053919
vt 0.489308 0.073331
vt 0.999437 0.000488
vn -0.548588 -0.082398 0.832023
vn -0.292831 -0.132774 0.946901
vn -0.339414 0.054288 0.939069
vn -0.584238 0.060890 0.809295
vn -0.067400 -0.997725 0.001098
vn -0.108617 -0.925200 -0.363603
vn -0.090107 -0.805749 -0.585362
vn 0.209030 -0.897985 -0.387208
vn 0.573944 0.167966 -0.801483
vn 0.371883 0.316953 -0.872493
vn 0.377769 0.682481 -0.625707
vn 0.518468 0.509135 -0.687002
vn -0.201903 -0.959096 0.198417
vn -0.255249 -0.966603 0.022967
vn 0.439210 -0.579269 -0.686689
vn 0.200512 -0.510443 -0.836207
vn 0.254437 -0.194078 -0.947415
vn 0.514905 -0.370509 -0.773044
vn -0.273061 0.841431 0.466296
vn 0.151814 0.906223 0.394605
vn -0.154903 0.620418 0.768822
vn -0.399084 0.667992 0.628108
vn 0.237082 0.939803 -0.246096
vn 0.292035 0.956073 0.025296
vn 0.070417 -0.236155 0.969161
vn 0.174804 0.031242 0.984107
vn -0.314929 -0.922880 -0.221614
vn -0.322175 -0.810908 -0.488499
vn -0.307343 -0.663710 -0.681930
vn -0.235884 -0.297775 -0.925034
vn -0.134129 0.075410 -0.988090
vn 0.068534 0.634320 -0.770027
vn 0.175047 0.846424 -0.502917
vn 0.314806 0.929539 0.191975
vn 0.324536 0.754761 0.570099
vn 0.273950 0.429827 0.860349
vn -0.395079 -0.253630 0.882941
vn -0.202095 -0.443796 0.873042
vn 0.045485 -0.615323 0.786961
vn -0.226011 -0.341602 0.912265
vn -0.071891 -0.606582 0.791764
vn 0.057358 -0.771793 0.633282
s 1
g Wire9
usemtl initialShadingGroup
f 28/1/1 29/2/2 20/3/3 3/4/4
s 2
f 9/5/5 21/6/6 22/7/7 5/8/8
s 3
f 15/9/9 24/10/10 25/11/11 7/12/12
s 2
f 3/4/13 20/3/14 21/6/6 9/5/5
s 3
f 5/8/15 22/7/16 23/13/17 11/14/18
s 5
f 17/15/19 26/16/20 27/17/21 13/18/22
s 3
f 11/14/18 23/13/17 24/10/10 15/9/9
s 5
f 7/12/23 25/11/24 26/16/20 17/15/19
s 1
f 20/3/3 29/2/2 30/19/25 4/20/26
s 2
f 21/6/6 20/3/14 4/20/27 10/21/28
f 22/7/7 21/6/6 10/21/28 6/22/29
s 3
f 23/13/17 22/7/16 6/22/30 12/23/31
f 24/10/10 23/13/17 12/23/31 16/24/32
f 25/11/11 24/10/10 16/24/32 8/25/33
s 5
f 26/16/20 25/11/24 8/25/34 18/26/35
f 27/17/21 26/16/20 18/26/35 14/27/36
s 1
f 31/28/37 32/29/38 29/2/2 28/1/1
f 30/19/25 29/2/2 32/29/38 33/30/39
f 1/31/40 19/32/41 32/29/38 31/28/37
f 33/30/39 32/29/38 19/32/41 2/33/42
