# This file uses centimeters as units for non-parametric coordinates.

mtllib Folder.mtl
g default
v -0.023666 1.284759 0.202950
v -0.014402 1.427043 0.188470
v -0.023862 1.427579 0.204867
v -0.041892 1.285476 0.208160
v -0.041993 1.428284 0.210294
v -0.014124 1.284217 0.186564
v 0.006995 1.281684 0.042020
v 0.000345 1.424458 0.025376
v 0.006695 1.424513 0.044073
v -0.023470 1.141940 0.201029
v -0.276546 1.293575 0.183660
v -0.041789 1.142668 0.206024
v -0.018016 1.282131 0.017304
v -0.018525 1.424949 0.019569
v -0.276351 1.436279 0.189729
v 0.000738 1.281633 0.023335
v -0.013845 1.141390 0.184654
v 0.007294 1.138855 0.039974
v -0.023273 0.999120 0.199105
v -0.269551 1.290384 0.057220
v -0.276741 1.150870 0.177593
v -0.041682 0.999859 0.203883
v -0.017508 1.139313 0.015048
v -0.269569 1.433070 0.063721
v 0.001128 1.138807 0.021303
v -0.013566 0.998563 0.182742
v -0.374729 1.297471 0.164637
v -0.374534 1.440176 0.170704
v 0.007592 0.996026 0.037937
v -0.023075 0.856300 0.197177
v -0.269533 1.147698 0.050718
v -0.276936 1.008165 0.171526
v -0.041572 0.857050 0.201741
v -0.017000 0.996494 0.012802
v 0.001517 0.995982 0.019277
v -0.013286 0.855736 0.180826
v -0.374924 1.154766 0.158568
v 0.007888 0.853197 0.035906
v -0.022877 0.713481 0.195248
v -0.269515 1.005012 0.044217
v -0.277131 0.865460 0.165459
v -0.041458 0.714241 0.199597
v -0.016490 0.853675 0.010566
v 0.001905 0.853156 0.017260
v -0.013005 0.712909 0.178908
v -0.731285 1.158662 0.162745
v 0.008184 0.710368 0.033884
v -0.022677 0.570660 0.193315
v -0.269497 0.862326 0.037716
v -0.041340 0.571432 0.197448
v -0.277326 0.722755 0.159392
v -0.015979 0.710855 0.008339
v 0.002292 0.710331 0.015251
v -0.012725 0.570082 0.176987
v -0.731090 1.301367 0.168812
v 0.008478 0.567539 0.031870
v -0.022477 0.427841 0.191378
v -0.041218 0.428623 0.195298
v -0.269480 0.719641 0.031214
v -0.277521 0.580050 0.153325
v -0.015468 0.568036 0.006122
v 0.002677 0.567505 0.013252
v -0.012443 0.427254 0.175061
v 0.008771 0.424711 0.029864
v -0.375314 0.869356 0.146434
v -0.375119 1.012061 0.152501
v -0.731675 0.873252 0.150609
v -0.022276 0.285022 0.189439
v -0.041093 0.285814 0.193147
v -0.269462 0.576955 0.024713
v -0.277716 0.437345 0.147259
v -0.014955 0.425216 0.003914
v 0.003060 0.424679 0.011258
v -0.012162 0.284427 0.173134
v -0.731479 1.015957 0.156678
v 0.009063 0.281883 0.027867
v -0.022073 0.142202 0.187497
v -0.040964 0.143005 0.190992
v -0.269444 0.434269 0.018212
v -0.277911 0.294640 0.141192
v -0.014442 0.282396 0.001715
v 0.003442 0.281853 0.009273
v -0.011880 0.141600 0.171205
v -0.829858 0.877147 0.131586
v -0.829663 1.019852 0.137653
v 0.009354 0.139054 0.025877
v -0.021871 -0.000618 0.185552
v -0.040834 0.000196 0.188838
v -0.269426 0.291583 0.011710
v -0.278106 0.151935 0.135125
v -0.013929 0.139576 -0.000474
v 0.003823 0.139027 0.007297
v -0.011598 -0.001227 0.169274
v -0.830053 0.734443 0.125517
v 0.009644 -0.003774 0.023890
v -0.731870 0.730547 0.144543
v -0.269408 0.148897 0.005209
v -0.278301 0.009230 0.129058
v -0.013420 -0.003246 -0.002653
v 0.004201 -0.003798 0.005326
v -0.269390 0.006211 -0.001292
v -0.369434 0.145858 0.006820
v -0.369417 0.003172 0.000317
v -0.727638 0.142818 0.031632
v -0.727620 0.000132 0.025131
v -0.827664 0.139780 0.033244
v -0.827646 -0.002907 0.026740
v -0.003182 1.282904 0.111673
v -0.003433 1.425728 0.113389
v -0.002931 1.140081 0.109956
v -0.002680 0.997257 0.108240
v -0.006600 0.354803 0.135072
v -0.005073 0.365906 0.124616
v -0.003148 0.373034 0.111440
v -0.007581 0.340812 0.141785
v -0.007919 0.325303 0.144097
v -0.001014 0.375491 0.096837
v 0.001120 0.373034 0.082233
v -0.007581 0.309794 0.141785
v -0.369577 1.287345 0.058831
v -0.369595 1.430031 0.065332
v 0.003044 0.365906 0.069059
v -0.006600 0.295803 0.135072
v -0.002429 0.854434 0.106522
v 0.004572 0.354803 0.058605
v -0.005073 0.284700 0.124616
v 0.005553 0.340812 0.051892
v 0.005891 0.325303 0.049578
v 0.005553 0.309794 0.051892
v 0.001120 0.277571 0.082233
v -0.001014 0.275115 0.096837
v 0.004572 0.295803 0.058605
v 0.003045 0.284700 0.069059
v -0.730895 1.444072 0.174879
v -0.369559 1.144659 0.052330
v -0.002179 0.711611 0.104806
v -0.727780 1.284305 0.083643
v -0.727798 1.426991 0.090144
v -0.369542 1.001973 0.045828
v -0.001928 0.568787 0.103089
v -0.829078 1.447967 0.155854
v -0.829273 1.305262 0.149787
v -0.727763 1.141619 0.077142
v -0.369524 0.859287 0.039327
v -0.001677 0.425964 0.101373
v -0.827807 1.281267 0.085254
v -0.827825 1.423952 0.091756
v -0.375509 0.726651 0.140367
v -0.829468 1.162557 0.143720
v -0.727745 0.998934 0.070640
v -0.369506 0.716601 0.032826
v -0.827789 1.138580 0.078753
v -0.375704 0.583946 0.134300
v -0.727727 0.856248 0.064139
v -0.369488 0.573915 0.026324
v -0.827771 0.995894 0.072252
v -0.375899 0.441241 0.128233
v -0.727709 0.713562 0.057638
v -0.732065 0.587842 0.138476
v -0.369470 0.431229 0.019823
v -0.000924 -0.002506 0.096224
v -0.001175 0.140317 0.097940
v -0.827753 0.853208 0.065750
v -0.376094 0.298536 0.122166
v -0.727691 0.570876 0.051136
v -0.732260 0.445137 0.132409
v -0.369452 0.288543 0.013322
v -0.827735 0.710522 0.059249
v -0.376289 0.155832 0.116099
v -0.830248 0.591738 0.119450
v -0.727673 0.428190 0.044635
v -0.732454 0.302433 0.126342
v -0.827717 0.567837 0.052748
v -0.376484 0.013127 0.110032
v -0.830443 0.449033 0.113383
v -0.727655 0.285504 0.038134
v -0.732649 0.159728 0.120275
v -0.827700 0.425152 0.046246
v -0.830638 0.306328 0.107316
v -0.732844 0.017023 0.114208
v -0.827682 0.282466 0.039745
v -0.830833 0.163624 0.101249
v -0.831028 0.020919 0.095183
v -0.001587 0.374831 0.100759
v -0.004760 0.283540 0.122472
v -0.003148 0.277571 0.111440
v -0.001413 0.275574 0.099567
v 0.002496 0.282670 0.072811
vt 0.700947 0.558939
vt 0.778152 0.549177
vt 0.778502 0.559447
vt 0.701320 0.569230
vt 0.778870 0.569717
vt 0.700594 0.548647
vt 0.698707 0.469361
vt 0.776186 0.459289
vt 0.776265 0.470002
vt 0.623386 0.558419
vt 0.704857 0.697335
vt 0.623763 0.568729
vt 0.698968 0.447973
vt 0.776522 0.448578
vt 0.782415 0.697419
vt 0.698630 0.458664
vt 0.623029 0.548107
vt 0.621142 0.468726
vt 0.545818 0.557890
vt 0.705420 0.309795
vt 0.627296 0.697263
vt 0.546199 0.568220
vt 0.621404 0.447377
vt 0.782979 0.310327
vt 0.621065 0.458049
vt 0.545459 0.547560
vt 0.706424 0.751648
vt 0.783979 0.751713
vt 0.543570 0.468098
vt 0.468247 0.557355
vt 0.627859 0.309247
vt 0.549732 0.697207
vt 0.468631 0.567703
vt 0.543834 0.446790
vt 0.543495 0.457441
vt 0.467884 0.547007
vt 0.628869 0.751585
vt 0.465995 0.467475
vt 0.390674 0.556816
vt 0.550295 0.308680
vt 0.472166 0.697173
vt 0.391061 0.567181
vt 0.466260 0.446210
vt 0.465920 0.456840
vt 0.390308 0.546450
vt 0.630745 0.945097
vt 0.388417 0.466860
vt 0.313101 0.556273
vt 0.472730 0.308089
vt 0.313492 0.566655
vt 0.394600 0.697162
vt 0.388683 0.445638
vt 0.388344 0.456246
vt 0.312732 0.545890
vt 0.708289 0.945144
vt 0.310839 0.466251
vt 0.235530 0.555727
vt 0.235924 0.566126
vt 0.395164 0.307474
vt 0.317033 0.697175
vt 0.311107 0.445074
vt 0.310767 0.455660
vt 0.235157 0.545327
vt 0.233263 0.465650
vt 0.473759 0.751503
vt 0.551314 0.751535
vt 0.475677 0.945030
vt 0.157961 0.555177
vt 0.158359 0.565592
vt 0.317597 0.306833
vt 0.239468 0.697212
vt 0.233531 0.444518
vt 0.233191 0.455082
vt 0.157584 0.544760
vt 0.553208 0.945057
vt 0.155691 0.465060
vt 0.080397 0.554624
vt 0.080798 0.565054
vt 0.240032 0.306168
vt 0.161904 0.697272
vt 0.155959 0.443971
vt 0.155619 0.454512
vt 0.080017 0.544193
vt 0.477267 0.999350
vt 0.554791 0.999378
vt 0.078122 0.464477
vt 0.002839 0.554067
vt 0.003244 0.564512
vt 0.162470 0.305481
vt 0.084345 0.697351
vt 0.078391 0.443436
vt 0.078051 0.453954
vt 0.002456 0.543624
vt 0.399746 0.999340
vt 0.000558 0.463902
vt 0.398148 0.945019
vt 0.084913 0.304774
vt 0.006790 0.697446
vt 0.000828 0.442909
vt 0.000488 0.453404
vt 0.007364 0.304053
vt 0.083791 0.250450
vt 0.006241 0.249750
vt 0.084449 0.055498
vt 0.006900 0.054818
vt 0.083317 0.001167
vt 0.005769 0.000488
vt 0.699613 0.507568
vt 0.777167 0.508009
vt 0.622052 0.507122
vt 0.544485 0.506677
vt 0.704217 0.255476
vt 0.781770 0.256029
vt 0.466915 0.506229
vt 0.785840 0.945193
vt 0.626663 0.254917
vt 0.389342 0.505782
vt 0.704696 0.060536
vt 0.782242 0.061112
vt 0.549110 0.254343
vt 0.311769 0.505335
vt 0.787413 0.999512
vt 0.709863 0.999465
vt 0.627158 0.059958
vt 0.471555 0.253749
vt 0.234198 0.504891
vt 0.703508 0.006208
vt 0.781051 0.006785
vt 0.396204 0.751492
vt 0.632322 0.999418
vt 0.549627 0.059370
vt 0.394001 0.253132
vt 0.625975 0.005628
vt 0.318649 0.751504
vt 0.472100 0.058767
vt 0.316447 0.252492
vt 0.548451 0.005040
vt 0.241094 0.751537
vt 0.394575 0.058146
vt 0.320620 0.945027
vt 0.238894 0.251829
vt 0.001507 0.503566
vt 0.079065 0.504005
vt 0.470933 0.004436
vt 0.163540 0.751591
vt 0.317049 0.057506
vt 0.243091 0.945051
vt 0.161342 0.251146
vt 0.393417 0.003814
vt 0.085987 0.751659
vt 0.322227 0.999347
vt 0.239521 0.056849
vt 0.165558 0.945091
vt 0.315900 0.003174
vt 0.008434 0.751733
vt 0.244707 0.999371
vt 0.161988 0.056178
vt 0.088019 0.945140
vt 0.238380 0.002517
vt 0.167181 0.999409
vt 0.010471 0.945192
vt 0.160853 0.001846
vt 0.089647 0.999458
vt 0.012101 0.999507
vt 0.152520 0.504424
vt 0.153646 0.510932
vt 0.156926 0.516964
vt 0.156278 0.489718
vt 0.153543 0.494906
vt 0.152261 0.502928
vt 0.206427 0.504732
vt 0.157564 0.518137
vt 0.163629 0.523836
vt 0.171251 0.527471
vt 0.179681 0.528686
vt 0.188095 0.527364
vt 0.195670 0.523632
vt 0.201663 0.517855
vt 0.205488 0.510600
vt 0.206771 0.502578
vt 0.205385 0.494571
vt 0.201467 0.487367
vt 0.195400 0.481669
vt 0.187778 0.478035
vt 0.179348 0.476819
vt 0.170934 0.478144
vt 0.163360 0.481877
vt 0.157367 0.487652
vn 0.975226 -0.001105 0.221208
vn 0.865129 -0.005276 0.501522
vn 0.864131 -0.005307 0.503238
vn 0.975725 -0.001076 0.218999
vn 0.280200 -0.013323 0.959849
vn -0.070103 -0.027601 0.997158
vn -0.077122 -0.027537 0.996641
vn 0.274116 -0.013364 0.961604
vn 0.947532 0.006877 -0.319588
vn 0.998941 0.001500 0.045989
vn 0.999017 0.001523 0.044297
vn 0.948213 0.006837 -0.317561
vn 0.862058 -0.005366 0.506781
vn 0.975493 -0.001093 0.220026
vn -0.130639 -0.032398 0.990901
vn -0.125775 -0.032526 0.991525
vn -0.093202 -0.027501 0.995267
vn 0.262325 -0.013440 0.964886
vn -0.123196 0.029165 -0.991954
vn -0.132695 0.029162 -0.990728
vn 0.300524 0.015327 -0.953651
vn 0.306590 0.015282 -0.951719
vn 0.998954 0.001498 0.045713
vn 0.949548 0.006756 -0.313548
vn 0.859972 -0.005424 0.510313
vn 0.975261 -0.001108 0.221053
vn -0.117078 0.034451 -0.992525
vn -0.122715 0.034452 -0.991844
vn -0.142005 -0.032344 0.989337
vn -0.109147 -0.027461 0.993646
vn 0.250645 -0.013516 0.967985
vn -0.106843 0.029226 -0.993846
vn 0.318491 0.015202 -0.947804
vn -0.032466 -0.042411 0.998573
vn -0.033345 -0.042410 0.998544
vn 0.998889 0.001472 0.047108
vn 0.950861 0.006677 -0.309546
vn 0.857897 -0.005481 0.513792
vn 0.975026 -0.001124 0.222086
vn -0.105074 0.034491 -0.993866
vn -0.153285 -0.032289 0.987654
vn -0.124948 -0.027412 0.991785
vn 0.238865 -0.013584 0.970958
vn -0.090409 0.029278 -0.995474
vn 0.330438 0.015121 -0.943707
vn -0.033345 -0.042410 0.998544
vn 0.998823 0.001446 0.048476
vn 0.952161 0.006598 -0.305525
vn 0.855850 -0.005535 0.517195
vn 0.974790 -0.001138 0.223123
vn -0.093028 0.034525 -0.995065
vn -0.164469 -0.032230 0.985856
vn -0.140596 -0.027361 0.989689
vn 0.227081 -0.013651 0.973780
vn -0.073919 0.029323 -0.996833
vn 0.342396 0.015034 -0.939435
vn -0.033346 -0.042409 0.998544
vn -0.033351 -0.042409 0.998544
vn 0.998757 0.001421 0.049825
vn 0.953447 0.006516 -0.301492
vn 0.853818 -0.005594 0.520542
vn 0.974553 -0.001155 0.224153
vn -0.080949 0.034554 -0.996119
vn -0.156079 -0.027304 0.987367
vn 0.215452 -0.013721 0.976418
vn -0.175558 -0.032169 0.983944
vn -0.057388 0.029360 -0.997920
vn 0.354251 0.014946 -0.935031
vn 0.998690 0.001396 0.051158
vn 0.954716 0.006437 -0.297450
vn 0.851767 -0.005649 0.523891
vn 0.971712 -0.001332 0.236164
vn -0.171386 -0.027235 0.984828
vn 0.203986 -0.013779 0.978877
vn -0.068841 0.034578 -0.997028
vn -0.186555 -0.032106 0.981920
vn -0.040822 0.029389 -0.998734
vn 0.366109 0.014859 -0.930453
vn 0.999363 0.001621 0.035649
vn 0.955972 0.006359 -0.293390
vn -0.033348 -0.042410 0.998544
vn -0.033346 -0.042409 0.998544
vn -0.033343 -0.042409 0.998544
vn -0.033343 -0.042410 0.998544
vn 0.849695 -0.005702 0.527244
vn 0.971183 -0.001364 0.238332
vn -0.186506 -0.027163 0.982078
vn 0.192632 -0.013840 0.981173
vn -0.056708 0.034597 -0.997791
vn -0.197458 -0.032034 0.979788
vn -0.024243 0.029410 -0.999273
vn 0.377899 0.014773 -0.925729
vn 0.999304 0.001590 0.037278
vn 0.957208 0.006280 -0.289333
vn 0.847624 -0.005757 0.530566
vn 0.973744 -0.001207 0.227643
vn -0.201443 -0.027086 0.979126
vn 0.181223 -0.013899 0.983344
vn -0.044561 0.034611 -0.998407
vn -0.208256 -0.031961 0.977552
vn -0.007658 0.029423 -0.999538
vn 0.389648 0.014677 -0.920847
vn -0.191648 -0.041430 0.980589
vn -0.191657 -0.041433 0.980587
vn 0.998511 0.001332 0.054538
vn 0.958411 0.006205 -0.285325
vn 0.846568 -0.005785 0.532249
vn 0.974436 -0.001164 0.224660
vn -0.207297 -0.027001 0.977906
vn 0.175674 -0.013922 0.984350
vn -0.032401 0.034620 -0.998875
vn -0.218944 -0.031885 0.975216
vn 0.008920 0.029428 -0.999527
vn 0.401372 0.014579 -0.915799
vn -0.191661 -0.041430 0.980586
vn -0.033350 -0.042407 0.998544
vn 0.998564 0.001345 0.053563
vn 0.958995 0.006169 -0.283357
vn -0.020232 0.034625 -0.999196
vn -0.224663 -0.031746 0.973919
vn 0.018190 0.029389 -0.999403
vn 0.407104 0.014531 -0.913266
vn -0.014001 0.034610 -0.999303
vn -0.058108 0.045436 -0.997276
vn -0.058302 0.045438 -0.997264
vn -0.058109 0.045436 -0.997276
vn -0.057912 0.045440 -0.997287
vn -0.017470 0.045511 -0.998811
vn -0.017460 0.045514 -0.998811
vn 0.989494 -0.000000 0.144572
vn 0.989494 0.000001 0.144572
vn 0.989494 -0.000001 0.144572
vn 0.989494 -0.000000 0.144572
vn -0.058107 0.045433 -0.997276
vn -0.057913 0.045433 -0.997287
vn 0.989495 0.000000 0.144571
vn -0.034232 -0.042404 0.998514
vn -0.058107 0.045433 -0.997276
vn 0.989495 0.000001 0.144570
vn -0.058109 0.045433 -0.997276
vn -0.058306 0.045432 -0.997264
vn -0.058111 0.045433 -0.997276
vn 0.989495 0.000000 0.144570
vn -0.191655 -0.041426 0.980588
vn -0.191659 -0.041427 0.980587
vn -0.058107 0.045433 -0.997276
vn -0.058111 0.045433 -0.997276
vn 0.989495 0.000000 0.144570
vn -0.017477 0.045508 -0.998811
vn -0.017480 0.045508 -0.998811
vn -0.033348 -0.042406 0.998544
vn -0.191654 -0.041427 0.980588
vn -0.058109 0.045433 -0.997276
vn -0.058108 0.045433 -0.997276
vn -0.017471 0.045508 -0.998811
vn -0.033348 -0.042406 0.998544
vn -0.058111 0.045433 -0.997276
vn -0.058108 0.045433 -0.997276
vn -0.017467 0.045508 -0.998811
vn -0.033350 -0.042406 0.998544
vn -0.058109 0.045432 -0.997276
vn -0.033348 -0.042406 0.998544
vn -0.058110 0.045433 -0.997276
vn 0.989495 0.000001 0.144568
vn 0.989495 0.000000 0.144567
vn -0.017472 0.045507 -0.998811
vn -0.033349 -0.042406 0.998544
vn -0.058110 0.045433 -0.997276
vn -0.033348 -0.042406 0.998544
vn -0.058110 0.045433 -0.997276
vn -0.017476 0.045507 -0.998811
vn -0.033348 -0.042406 0.998544
vn -0.191657 -0.041427 0.980587
vn -0.058110 0.045433 -0.997276
vn -0.033347 -0.042406 0.998544
vn -0.017473 0.045508 -0.998811
vn -0.034230 -0.042404 0.998514
vn -0.191655 -0.041427 0.980588
vn -0.058110 0.045433 -0.997276
vn -0.033348 -0.042406 0.998544
vn -0.017469 0.045508 -0.998811
vn -0.191659 -0.041427 0.980587
vn -0.032471 -0.042409 0.998573
vn -0.017473 0.045508 -0.998811
vn -0.191657 -0.041427 0.980587
vn -0.191649 -0.041426 0.980589
vn 0.989495 0.000000 0.144566
vn 0.989495 0.000001 0.144568
vn 0.989495 0.000001 0.144568
vn 0.989496 -0.000001 0.144563
vn 0.989496 -0.000001 0.144564
vn 0.989496 -0.000001 0.144564
vn 0.989495 -0.000001 0.144565
vn 0.989495 -0.000002 0.144569
vn 0.989495 -0.000002 0.144569
vn 0.989495 -0.000002 0.144569
vn 0.989495 -0.000002 0.144569
vn 0.989495 -0.000002 0.144569
vn 0.989495 -0.000002 0.144569
vn 0.989495 -0.000002 0.144569
vn 0.989495 -0.000002 0.144569
vn 0.989496 0.000000 0.144560
vn 0.989496 0.000000 0.144560
vn 0.989496 0.000000 0.144560
vn 0.989496 0.000000 0.144560
vn 0.989496 0.000000 0.144560
vn 0.989496 0.000000 0.144560
vn 0.989496 0.000000 0.144560
vn 0.989496 0.000000 0.144559
vn 0.989496 0.000000 0.144560
s 1
g Folder
usemtl lambert30SG
f 2/2/1 3/3/2 1/1/3 6/6/4
s 2
f 3/3/5 5/5/6 4/4/7 1/1/8
s 1
f 8/8/9 9/9/10 7/7/11 16/16/12
f 6/6/4 1/1/3 10/10/13 17/17/14
s 2
f 11/11/15 4/4/7 5/5/6 15/15/16
f 1/1/8 4/4/7 12/12/17 10/10/18
s 4
f 13/13/19 14/14/20 8/8/21 16/16/22
s 1
f 16/16/12 7/7/11 18/18/23 25/25/24
f 17/17/14 10/10/13 19/19/25 26/26/26
s 4
f 14/14/20 13/13/19 20/20/27 24/24/28
s 2
f 21/21/29 12/12/17 4/4/7 11/11/15
f 10/10/18 12/12/17 22/22/30 19/19/31
s 4
f 23/23/32 13/13/19 16/16/22 25/25/33
s 2
f 15/15/16 28/28/34 27/27/35 11/11/15
s 1
f 25/25/24 18/18/23 29/29/36 35/35/37
f 26/26/26 19/19/25 30/30/38 36/36/39
s 4
f 13/13/19 23/23/32 31/31/40 20/20/27
s 2
f 32/32/41 22/22/30 12/12/17 21/21/29
f 19/19/31 22/22/30 33/33/42 30/30/43
s 4
f 34/34/44 23/23/32 25/25/33 35/35/45
s 2
f 11/11/15 27/27/35 37/37/46 21/21/29
s 1
f 35/35/37 29/29/36 38/38/47 44/44/48
f 36/36/39 30/30/38 39/39/49 45/45/50
s 4
f 23/23/32 34/34/44 40/40/51 31/31/40
s 2
f 41/41/52 33/33/42 22/22/30 32/32/41
f 30/30/43 33/33/42 42/42/53 39/39/54
s 4
f 43/43/55 34/34/44 35/35/45 44/44/56
s 2
f 46/46/57 37/37/46 27/27/35 55/55/58
s 1
f 44/44/48 38/38/47 47/47/59 53/53/60
f 45/45/50 39/39/49 48/48/61 54/54/62
s 4
f 34/34/44 43/43/55 49/49/63 40/40/51
s 2
f 39/39/54 42/42/53 50/50/64 48/48/65
f 51/51/66 42/42/53 33/33/42 41/41/52
s 4
f 52/52/67 43/43/55 44/44/56 53/53/68
s 1
f 53/53/60 47/47/59 56/56/69 62/62/70
f 54/54/62 48/48/61 57/57/71 63/63/72
s 2
f 48/48/65 50/50/64 58/58/73 57/57/74
s 4
f 43/43/55 52/52/67 59/59/75 49/49/63
s 2
f 60/60/76 50/50/64 42/42/53 51/51/66
s 4
f 61/61/77 52/52/67 53/53/68 62/62/78
s 1
f 62/62/70 56/56/69 64/64/79 73/73/80
s 2
f 67/67/81 65/65/82 66/66/83 75/75/84
s 1
f 63/63/72 57/57/71 68/68/85 74/74/86
s 2
f 57/57/74 58/58/73 69/69/87 68/68/88
s 4
f 52/52/67 61/61/77 70/70/89 59/59/75
s 2
f 71/71/90 58/58/73 50/50/64 60/60/76
s 4
f 72/72/91 61/61/77 62/62/78 73/73/92
s 1
f 73/73/80 64/64/79 76/76/93 82/82/94
f 74/74/86 68/68/85 77/77/95 83/83/96
s 2
f 68/68/88 69/69/87 78/78/97 77/77/98
s 4
f 61/61/77 72/72/91 79/79/99 70/70/89
s 2
f 80/80/100 69/69/87 58/58/73 71/71/90
s 4
f 81/81/101 72/72/91 73/73/92 82/82/102
s 2
f 75/75/84 85/85/103 84/84/104 67/67/81
s 1
f 82/82/94 76/76/93 86/86/105 92/92/106
f 83/83/96 77/77/95 87/87/107 93/93/108
s 2
f 77/77/98 78/78/97 88/88/109 87/87/110
s 4
f 72/72/91 81/81/101 89/89/111 79/79/99
s 2
f 90/90/112 78/78/97 69/69/87 80/80/100
s 4
f 91/91/113 81/81/101 82/82/102 92/92/114
s 2
f 67/67/81 84/84/104 94/94/115 96/96/116
s 1
f 92/92/106 86/86/105 95/95/117 100/100/118
s 4
f 81/81/101 91/91/113 97/97/119 89/89/111
s 2
f 98/98/120 88/88/109 78/78/97 90/90/112
s 4
f 99/99/121 91/91/113 92/92/114 100/100/122
f 91/91/113 99/99/121 101/101/123 97/97/119
f 102/102/124 97/97/119 101/101/123 103/103/125
f 104/104/126 102/102/124 103/103/125 105/105/127
f 106/106/128 104/104/126 105/105/127 107/107/129
s 1
f 108/108/130 109/109/131 2/2/1 6/6/4
f 7/7/11 9/9/10 109/109/131 108/108/130
f 110/110/132 108/108/130 6/6/4 17/17/14
f 18/18/23 7/7/11 108/108/130 110/110/132
f 111/111/133 110/110/132 17/17/14 26/26/26
f 29/29/36 18/18/23 110/110/132 111/111/133
s 4
f 120/112/134 121/113/135 24/24/28 20/20/27
s 1
f 124/114/136 111/111/133 26/26/26 36/36/39
f 38/38/47 29/29/36 111/111/133 124/114/136
s 2
f 27/27/35 28/28/34 134/115/137 55/55/58
s 4
f 135/116/138 120/112/134 20/20/27 31/31/40
s 1
f 136/117/139 124/114/136 36/36/39 45/45/50
s 2
f 32/32/41 21/21/29 37/37/46 66/66/83
s 4
f 137/118/140 138/119/141 121/113/135 120/112/134
s 1
f 47/47/59 38/38/47 124/114/136 136/117/139
s 4
f 139/120/142 135/116/138 31/31/40 40/40/51
s 1
f 140/121/143 136/117/139 45/45/50 54/54/62
s 2
f 41/41/52 32/32/41 66/66/83 65/65/82
f 55/55/58 134/115/137 141/122/144 142/123/145
s 1
f 56/56/69 47/47/59 136/117/139 140/121/143
s 4
f 143/124/146 137/118/140 120/112/134 135/116/138
s 2
f 66/66/83 37/37/46 46/46/57 75/75/84
s 4
f 144/125/147 139/120/142 40/40/51 49/49/63
s 1
f 145/126/148 140/121/143 54/54/62 63/63/72
s 4
f 146/127/149 147/128/150 138/119/141 137/118/140
s 2
f 51/51/66 41/41/52 65/65/82 148/129/151
s 1
f 64/64/79 56/56/69 140/121/143 145/126/148
s 2
f 46/46/57 55/55/58 142/123/145 149/130/152
s 4
f 150/131/153 143/124/146 135/116/138 139/120/142
f 151/132/154 144/125/147 49/49/63 59/59/75
f 152/133/155 146/127/149 137/118/140 143/124/146
s 2
f 60/60/76 51/51/66 148/129/151 153/134/156
f 75/75/84 46/46/57 149/130/152 85/85/103
s 4
f 154/135/157 150/131/153 139/120/142 144/125/147
s 2
f 148/129/151 65/65/82 67/67/81 96/96/116
s 4
f 155/136/158 151/132/154 59/59/75 70/70/89
f 156/137/159 152/133/155 143/124/146 150/131/153
s 2
f 71/71/90 60/60/76 153/134/156 157/138/160
s 4
f 158/139/161 154/135/157 144/125/147 151/132/154
s 2
f 153/134/156 148/129/151 96/96/116 159/140/162
s 4
f 160/141/163 155/136/158 70/70/89 79/79/99
s 1
f 161/142/164 162/143/165 83/83/96 93/93/108
s 4
f 163/144/166 156/137/159 150/131/153 154/135/157
s 2
f 80/80/100 71/71/90 157/138/160 164/145/167
s 1
f 95/95/117 86/86/105 162/143/165 161/142/164
s 4
f 165/146/168 158/139/161 151/132/154 155/136/158
s 2
f 157/138/160 153/134/156 159/140/162 166/147/169
s 4
f 167/148/170 160/141/163 79/79/99 89/89/111
f 168/149/171 163/144/166 154/135/157 158/139/161
s 2
f 90/90/112 80/80/100 164/145/167 169/150/172
f 159/140/162 96/96/116 94/94/115 170/151/173
s 4
f 171/152/174 165/146/168 155/136/158 160/141/163
s 2
f 164/145/167 157/138/160 166/147/169 172/153/175
s 4
f 102/102/124 167/148/170 89/89/111 97/97/119
f 173/154/176 168/149/171 158/139/161 165/146/168
s 2
f 98/98/120 90/90/112 169/150/172 174/155/177
f 166/147/169 159/140/162 170/151/173 175/156/178
s 4
f 176/157/179 171/152/174 160/141/163 167/148/170
s 2
f 169/150/172 164/145/167 172/153/175 177/158/180
s 4
f 178/159/181 173/154/176 165/146/168 171/152/174
s 2
f 172/153/175 166/147/169 175/156/178 179/160/182
s 4
f 104/104/126 176/157/179 167/148/170 102/102/124
s 2
f 174/155/177 169/150/172 177/158/180 180/161/183
s 4
f 181/162/184 178/159/181 171/152/174 176/157/179
s 2
f 177/158/180 172/153/175 179/160/182 182/163/185
s 4
f 106/106/128 181/162/184 176/157/179 104/104/126
s 2
f 180/161/183 177/158/180 182/163/185 183/164/186
s 1
f 162/143/165 187/165/187 186/166/188 185/167/189 74/74/86 83/83/96
f 86/86/105 76/76/93 188/168/190 130/169/191 131/170/192 187/165/187 162/143/165
f 184/171/193 145/126/148 63/63/72 74/74/86 185/167/189 126/172/194 123/173/195 119/174/196 116/175/197 115/176/198 112/177/199 113/178/200 114/179/201
f 76/76/93 64/64/79 145/126/148 184/171/193 117/180/202 118/181/203 122/182/204 125/183/205 127/184/206 128/185/207 129/186/208 132/187/209 133/188/210 188/168/190
