# This file uses centimeters as units for non-parametric coordinates.

mtllib Door_Lights.mtl
g default
v -0.059825 -0.034071 0.038809
v -0.053358 -0.034071 0.045276
v -0.057931 -0.034071 0.043382
v -0.059825 2.433919 0.038809
v -0.057931 2.433919 0.043382
v -0.053358 2.433919 0.045276
v 0.069517 -0.034071 0.038809
v 0.067623 -0.034071 0.043382
v 0.063051 -0.034071 0.045276
v 0.069517 2.433919 0.038809
v 0.063051 2.433919 0.045276
v 0.067623 2.433919 0.043382
v -0.057931 2.433919 -0.082172
v -0.059825 2.433919 -0.077600
v -0.053358 2.433919 -0.084066
v -0.059825 -0.034071 -0.077600
v -0.057931 -0.034071 -0.082172
v -0.053358 -0.034071 -0.084066
v 0.067623 2.433919 -0.082172
v 0.063051 2.433919 -0.084066
v 0.069517 2.433919 -0.077600
v 0.069517 -0.034071 -0.077600
v 0.063051 -0.034071 -0.084066
v 0.067623 -0.034071 -0.082172
v -0.324992 2.777255 0.100840
v -0.300495 2.777309 0.108265
v -0.300413 2.787360 0.100840
v -0.300385 2.791524 0.082915
v -0.324932 2.787314 0.082917
v -0.335139 2.777232 0.082915
v 0.336143 2.778719 0.100840
v 0.346290 2.778742 0.082915
v 0.336160 2.788763 0.082859
v 0.311608 2.792880 0.082806
v 0.311646 2.788716 0.100808
v 0.311646 2.778665 0.108265
v -0.324992 2.777255 -0.138926
v -0.335139 2.777232 -0.121002
v -0.324975 2.787314 -0.121058
v -0.300533 2.791524 -0.121110
v -0.300495 2.787360 -0.138958
v -0.300495 2.777309 -0.146351
v 0.336143 2.778719 -0.138926
v 0.311646 2.778665 -0.146351
v 0.311729 2.788716 -0.138926
v 0.311758 2.792880 -0.121002
v 0.336204 2.788763 -0.121000
v 0.346290 2.778742 -0.121002
v -0.327712 2.421357 -0.120888
v -0.337842 2.431423 -0.120892
v -0.327695 2.431416 -0.138894
v -0.303199 2.431438 -0.146351
v -0.303203 2.421387 -0.138894
v -0.303161 2.417223 -0.120892
v 0.333422 2.422771 -0.121114
v 0.308981 2.418579 -0.121110
v 0.308942 2.422743 -0.138958
v 0.308942 2.432794 -0.146351
v 0.333439 2.432816 -0.138958
v 0.343586 2.432810 -0.121110
v -0.327695 2.431382 0.100840
v -0.337842 2.431361 0.082915
v -0.327712 2.421340 0.082859
v -0.303161 2.417223 0.082806
v -0.303203 2.421387 0.100808
v -0.303199 2.431438 0.108265
v 0.333439 2.432850 0.100840
v 0.308942 2.432794 0.108265
v 0.308860 2.422742 0.100840
v 0.308832 2.418579 0.082915
v 0.333379 2.422789 0.082917
v 0.343586 2.432871 0.082915
v -0.320436 2.785473 0.097546
v 0.331660 2.786908 0.097522
v -0.320470 2.785473 -0.135656
v 0.331695 2.786909 -0.135631
v -0.323214 2.423208 -0.135584
v 0.328917 2.424616 -0.135679
v -0.323214 2.423194 0.097522
v 0.328883 2.424630 0.097546
v -0.277741 0.006539 0.286797
v 0.315518 0.006539 0.286797
v -0.277741 0.006539 -0.306463
v 0.315518 0.006539 -0.306463
v -0.218415 0.006539 0.286797
v -0.218415 0.006539 -0.306463
v -0.277741 0.006539 -0.247137
v -0.218415 0.006539 -0.247137
v 0.315518 0.006539 -0.247137
v 0.262125 0.006539 0.286797
v 0.262125 0.006539 -0.247137
v 0.262125 0.006539 -0.306463
v -0.277741 0.006539 0.233404
v -0.218415 0.006539 0.233404
v 0.262125 0.006539 0.233404
v 0.315518 0.006539 0.233404
v -0.218415 0.011247 -0.306463
v -0.218415 0.014575 -0.305084
v -0.218415 0.015954 -0.301756
v -0.273034 0.015954 -0.301756
v -0.276363 0.014575 -0.305084
v -0.277741 0.011247 -0.306463
v -0.273034 0.015954 -0.247137
v -0.276363 0.014575 -0.247137
v -0.277741 0.011247 -0.247137
v -0.218415 0.011247 -0.247137
v -0.219794 0.014575 -0.248515
v -0.223122 0.015954 -0.251844
v 0.266832 0.015954 -0.251844
v 0.263504 0.014575 -0.248515
v 0.262125 0.011247 -0.247137
v 0.262125 0.011247 -0.306463
v 0.262125 0.014575 -0.305084
v 0.262125 0.015954 -0.301756
v -0.218415 0.011247 0.233404
v -0.219794 0.014575 0.234782
v -0.223122 0.015954 0.238111
v -0.273034 0.015954 0.233404
v -0.276363 0.014575 0.233404
v -0.277741 0.011247 0.233404
v 0.266832 0.015954 0.238111
v 0.263504 0.014575 0.234782
v 0.262125 0.011247 0.233404
v 0.310811 0.015954 -0.247137
v 0.314140 0.014575 -0.247137
v 0.315518 0.011247 -0.247137
v 0.315518 0.011247 0.233404
v 0.314140 0.014575 0.233404
v 0.310811 0.015954 0.233404
v 0.310811 0.015954 -0.301756
v 0.314140 0.014575 -0.305084
v 0.315518 0.011247 -0.306463
v -0.277741 0.011247 0.286797
v -0.276363 0.014575 0.285418
v -0.273034 0.015954 0.282090
v -0.218415 0.015954 0.282090
v -0.218415 0.014575 0.285418
v -0.218415 0.011247 0.286797
v 0.262125 0.015954 0.282090
v 0.262125 0.014575 0.285418
v 0.262125 0.011247 0.286797
v 0.310811 0.015954 0.282090
v 0.314140 0.014575 0.285418
v 0.315518 0.011247 0.286797
vt 0.428534 0.999502
vt 0.428629 0.099190
vt 0.471094 0.099194
vt 0.470999 0.999507
vt 0.748707 0.900802
vt 0.748670 0.000490
vt 0.791135 0.000488
vt 0.791173 0.900801
vt 0.474610 0.999507
vt 0.474705 0.099195
vt 0.517171 0.099199
vt 0.517076 0.999512
vt 0.382457 0.999497
vt 0.382552 0.099185
vt 0.425018 0.099190
vt 0.424923 0.999502
vt 0.426823 0.099190
vt 0.426728 0.999502
vt 0.472900 0.099195
vt 0.472805 0.999507
vt 0.380652 0.999497
vt 0.380747 0.099185
vt 0.746864 0.000490
vt 0.746902 0.900802
vt 0.792941 0.000488
vt 0.792978 0.900801
vt 0.518881 0.999512
vt 0.518976 0.099200
vt 0.144287 0.441946
vt 0.134907 0.441984
vt 0.135798 0.314027
vt 0.145044 0.315002
vt 0.132130 0.000979
vt 0.131318 0.008394
vt 0.005627 0.013685
vt 0.004900 0.006179
vt 0.145749 0.007207
vt 0.145384 0.000488
vt 0.372473 0.000513
vt 0.372079 0.007236
vt 0.144137 0.446494
vt 0.370014 0.441891
vt 0.370191 0.446454
vt 0.136546 0.007968
vt 0.139367 0.081712
vt 0.134417 0.081853
vt 0.147975 0.081266
vt 0.386331 0.008617
vt 0.385714 0.001117
vt 0.513995 0.008636
vt 0.513044 0.016043
vt 0.379334 0.441998
vt 0.367691 0.316502
vt 0.376990 0.315597
vt 0.381186 0.008120
vt 0.378290 0.082417
vt 0.369623 0.082008
vt 0.383241 0.082546
vt 0.135948 0.089178
vt 0.008371 0.096111
vt 0.008420 0.088544
vt 0.138525 0.091469
vt 0.147890 0.092439
vt 0.145513 0.218243
vt 0.136241 0.218868
vt 0.147967 0.087919
vt 0.369601 0.088674
vt 0.369608 0.093196
vt 0.378909 0.092302
vt 0.377792 0.220391
vt 0.368450 0.219672
vt 0.381639 0.089934
vt 0.508046 0.090883
vt 0.508026 0.098328
vt 0.003269 0.089217
vt 0.000488 0.013497
vt 0.136192 0.228896
vt 0.145250 0.229464
vt 0.144890 0.303761
vt 0.135757 0.304147
vt 0.145460 0.222774
vt 0.368438 0.224195
vt 0.368592 0.230851
vt 0.377692 0.230403
vt 0.376994 0.305770
vt 0.367930 0.305289
vt 0.513147 0.091631
vt 0.518263 0.015945
vt 0.145035 0.310467
vt 0.367705 0.311966
vt 0.136724 0.002336
vt 0.136388 0.445492
vt 0.377893 0.445489
vt 0.381102 0.002448
vt 0.140205 0.087594
vt 0.377376 0.088360
vt 0.138027 0.222786
vt 0.004539 0.095311
vt 0.511856 0.097612
vt 0.375909 0.224293
vt 0.137601 0.310234
vt 0.001171 0.007331
vt 0.517723 0.009829
vt 0.375147 0.311803
vt 0.722610 0.026933
vt 0.722156 0.202569
vt 0.546519 0.202534
vt 0.546997 0.026923
vt 0.524949 0.025136
vt 0.523620 0.025063
vt 0.525120 0.005158
vt 0.526309 0.006344
vt 0.522291 0.024984
vt 0.524100 0.004141
vt 0.543425 0.023422
vt 0.544723 0.024718
vt 0.544312 0.204811
vt 0.543013 0.206113
vt 0.545800 0.025793
vt 0.545388 0.203732
vt 0.544707 0.225050
vt 0.544765 0.223721
vt 0.724109 0.223671
vt 0.724186 0.225000
vt 0.544817 0.222390
vt 0.724037 0.222341
vt 0.740980 0.006205
vt 0.742172 0.005025
vt 0.743720 0.025092
vt 0.742389 0.025142
vt 0.743203 0.004023
vt 0.745051 0.025036
vt 0.545114 0.004966
vt 0.524556 0.204133
vt 0.724124 0.004877
vt 0.726114 0.023353
vt 0.725730 0.206072
vt 0.525896 0.221001
vt 0.742002 0.204363
vt 0.740748 0.221067
vt 0.520563 0.024877
vt 0.522933 0.002991
vt 0.544860 0.000574
vt 0.544966 0.002306
vt 0.520161 0.204339
vt 0.521894 0.204253
vt 0.723740 0.025734
vt 0.724336 0.000488
vt 0.724248 0.002217
vt 0.723353 0.203700
vt 0.724293 0.226732
vt 0.544628 0.226780
vt 0.522596 0.224419
vt 0.523719 0.223229
vt 0.744376 0.002882
vt 0.746784 0.024958
vt 0.746387 0.204623
vt 0.744660 0.204515
vt 0.744109 0.224405
vt 0.742943 0.223258
vt 0.523224 0.204190
vt 0.545042 0.003635
vt 0.724183 0.003546
vt 0.724815 0.024655
vt 0.724431 0.204775
vt 0.524718 0.222196
vt 0.743331 0.204436
vt 0.741929 0.222246
vn -0.015653 0.000000 0.999878
vn -0.015653 0.000000 0.999878
vn 0.015653 0.000000 0.999878
vn 0.015653 0.000000 0.999878
vn -0.015653 0.000000 -0.999878
vn -0.015653 0.000000 -0.999878
vn 0.015653 0.000000 -0.999878
vn 0.015653 0.000000 -0.999878
vn 0.999878 0.000000 0.015653
vn 0.999878 0.000000 0.015653
vn 0.999878 0.000000 -0.015653
vn 0.999878 0.000000 -0.015653
vn -0.999878 0.000000 -0.015653
vn -0.999878 0.000000 -0.015653
vn -0.999878 0.000000 0.015653
vn -0.999878 0.000000 0.015653
vn -0.923881 0.000000 0.382681
vn -0.923881 0.000000 0.382681
vn -0.382683 0.000000 0.923880
vn -0.382683 0.000000 0.923880
vn 0.382683 0.000000 0.923880
vn 0.382683 0.000000 0.923880
vn 0.923878 0.000000 0.382686
vn 0.923878 0.000000 0.382686
vn -0.923881 0.000000 -0.382681
vn -0.923881 0.000000 -0.382681
vn -0.382680 0.000000 -0.923881
vn -0.382680 0.000000 -0.923881
vn 0.382680 0.000000 -0.923881
vn 0.382680 0.000000 -0.923881
vn 0.923879 0.000000 -0.382686
vn 0.923879 0.000000 -0.382686
vn -0.011457 0.020487 0.999725
vn -0.289499 0.013506 0.957083
vn -0.289456 -0.009300 0.957146
vn -0.011636 -0.020673 0.999719
vn -0.870540 0.024143 0.491505
vn -0.998355 0.035168 0.045273
vn -0.998789 -0.019791 0.045047
vn -0.870729 -0.010539 0.491651
vn -0.008583 0.999791 0.018577
vn -0.006366 0.974317 0.225089
vn 0.002120 0.974341 0.225067
vn 0.004183 0.999819 0.018564
vn -0.008145 0.593554 0.804753
vn 0.011635 0.020669 0.999719
vn 0.005640 0.593567 0.804765
vn -0.706108 0.707648 0.025423
vn -0.706279 0.707478 -0.025398
vn -0.998354 0.035208 -0.045265
vn -0.168320 0.985666 0.011433
vn -0.008590 0.999791 -0.018562
vn -0.168379 0.985658 -0.011234
vn 0.998791 0.019724 0.045019
vn 0.870727 0.010540 0.491654
vn 0.870539 -0.024143 0.491506
vn 0.998357 -0.035155 0.045242
vn 0.289456 0.009300 0.957146
vn 0.011457 -0.020487 0.999725
vn 0.289499 -0.013506 0.957083
vn 0.164599 0.986294 0.011471
vn 0.164660 0.986286 -0.011265
vn 0.004189 0.999819 -0.018548
vn 0.706682 0.707074 0.025415
vn 0.998791 0.019782 -0.045007
vn 0.706854 0.706904 -0.025386
vn -0.870984 0.023890 -0.490731
vn -0.871198 -0.010654 -0.490816
vn -0.998788 -0.019832 -0.045046
vn -0.290069 0.013394 -0.956912
vn -0.011479 0.020478 -0.999724
vn -0.011653 -0.020633 -0.999719
vn -0.290053 -0.009322 -0.956965
vn -0.008208 0.591854 -0.806004
vn 0.005712 0.591866 -0.806016
vn 0.011609 0.020663 -0.999719
vn -0.006356 0.974106 -0.226003
vn 0.002109 0.974129 -0.225983
vn 0.288904 0.009277 -0.957313
vn 0.288916 -0.013403 -0.957261
vn 0.011438 -0.020518 -0.999724
vn 0.870278 0.010532 -0.492448
vn 0.998357 -0.035164 -0.045235
vn 0.870067 -0.023889 -0.492354
vn -0.706852 -0.706900 -0.025552
vn -0.706694 -0.707072 0.025167
vn -0.164654 -0.986286 -0.011386
vn -0.004197 -0.999819 -0.018579
vn -0.004199 -0.999819 0.018572
vn -0.164594 -0.986296 0.011334
vn -0.002184 -0.974247 -0.225475
vn 0.006293 -0.974212 -0.225547
vn 0.008582 -0.999791 -0.018561
vn -0.005724 -0.592730 -0.805381
vn 0.008130 -0.592655 -0.805416
vn 0.167988 -0.985725 -0.011222
vn 0.167988 -0.985722 0.011474
vn 0.008573 -0.999791 0.018583
vn 0.705423 -0.708340 -0.025163
vn 0.705409 -0.708340 0.025567
vn -0.005641 -0.593538 0.804786
vn 0.008146 -0.593526 0.804774
vn -0.002120 -0.974348 0.225036
vn 0.006367 -0.974324 0.225059
vn -0.697758 0.625674 0.348806
vn -0.219782 0.534540 0.816066
vn -0.147249 0.968892 0.198912
vn 0.217456 0.535494 0.816063
vn 0.697995 0.624898 0.349722
vn 0.143263 0.969633 0.198210
vn -0.220439 0.531797 -0.817679
vn -0.699606 0.622920 -0.350031
vn -0.148058 0.968557 -0.199942
vn 0.699869 0.622118 -0.350931
vn 0.218148 0.532739 -0.817680
vn 0.144098 0.969289 -0.199287
vn -0.144296 -0.969528 -0.197973
vn -0.700141 -0.623059 -0.348713
vn -0.219025 -0.534874 -0.816050
vn 0.697544 -0.624688 -0.350995
vn 0.147044 -0.968668 -0.200149
vn 0.218911 -0.532336 -0.817739
vn -0.217450 -0.535456 0.816090
vn -0.698039 -0.624888 0.349652
vn -0.143263 -0.969641 0.198171
vn 0.697774 -0.625647 0.348824
vn 0.219802 -0.534515 0.816077
vn 0.147249 -0.968892 0.198912
vn 0.000000 1.000000 0.000000
vn 0.000000 1.000000 0.000000
vn 0.000000 1.000000 0.000000
vn 0.000000 1.000000 0.000000
vn -0.000000 0.999696 -0.024646
vn 0.000000 0.923880 -0.382684
vn 0.000000 0.923880 -0.382684
vn -0.034860 0.998784 -0.034860
vn 0.000000 0.382694 -0.923875
vn 0.000000 0.168965 -0.985622
vn 0.000000 0.143090 -0.989710
vn 0.000000 0.382694 -0.923875
vn 0.007005 0.999951 0.007005
vn -0.000000 0.923880 0.382684
vn -0.000000 0.923880 0.382684
vn -0.007482 0.999944 0.007482
vn 0.000000 0.382680 0.923881
vn 0.000000 0.189668 0.981848
vn 0.000000 0.189668 0.981848
vn 0.000000 0.382680 0.923881
vn 0.985623 0.168963 -0.000000
vn 0.923877 0.382689 -0.000000
vn 0.923877 0.382689 0.000000
vn 0.985623 0.168961 0.000000
vn 0.382682 0.923880 0.000000
vn 0.027575 0.999620 -0.000000
vn 0.027554 0.999620 0.000000
vn 0.382682 0.923880 0.000000
vn -0.034779 0.998639 0.038877
vn 0.000000 0.923880 0.382684
vn 0.000000 0.923880 0.382684
vn -0.000000 0.999620 0.027575
vn 0.000000 0.382687 0.923878
vn 0.000000 0.143087 0.989710
vn 0.000000 0.168961 0.985623
vn 0.000000 0.382687 0.923878
vn -0.024646 0.999696 0.000000
vn -0.000000 0.999697 -0.024629
vn -0.024629 0.999697 -0.000000
vn 0.007482 0.999944 -0.007482
vn -0.008022 0.999936 -0.008022
vn 0.038877 0.998639 -0.034779
vn -0.000000 0.999620 0.027554
vn 0.038785 0.998495 0.038785
vn 0.000000 0.000000 -1.000000
vn 0.000000 0.000000 -1.000000
vn -1.000000 0.000000 0.000000
vn -1.000000 0.000000 0.000000
vn -0.985624 0.168955 0.000000
vn -0.989711 0.143080 0.000000
vn 0.000000 0.000000 1.000000
vn 0.000000 0.000000 1.000000
vn 0.000000 0.000000 -1.000000
vn 0.000000 0.168964 -0.985622
vn 1.000000 0.000000 0.000000
vn 1.000000 0.000000 0.000000
vn 0.981848 0.189667 0.000000
vn 0.981848 0.189668 0.000000
vn -1.000000 0.000000 0.000000
vn -0.985624 0.168954 0.000000
vn -1.000000 0.000000 0.000000
vn -1.000000 0.000000 0.000000
vn -0.981849 0.189663 0.000000
vn -0.981849 0.189663 0.000000
vn 1.000000 0.000000 0.000000
vn 1.000000 0.000000 0.000000
vn 1.000000 0.000000 0.000000
vn 0.989710 0.143087 -0.000000
vn 0.000000 0.000000 -1.000000
vn 0.000000 0.142970 -0.989727
vn 0.000000 0.000000 1.000000
vn 0.000000 0.000000 1.000000
vn -1.000000 0.000000 0.000000
vn -0.989728 0.142963 0.000000
vn 0.000000 0.000000 -1.000000
vn 0.000000 0.000000 -1.000000
vn -0.000000 0.189670 -0.981848
vn -0.000000 0.189670 -0.981848
vn 0.000000 0.000000 1.000000
vn 0.000000 0.168960 0.985623
vn 0.000000 0.000000 1.000000
vn 0.000000 0.142967 0.989728
vn 1.000000 0.000000 0.000000
vn 0.989728 0.142965 0.000000
vn 0.000000 0.382694 -0.923875
vn 0.000000 0.923879 -0.382684
vn -0.382682 0.923880 0.000000
vn -0.382682 0.923880 0.000000
vn -0.923883 0.382675 0.000000
vn -0.923883 0.382675 0.000000
vn -0.382682 0.923880 0.000000
vn -0.923883 0.382675 0.000000
vn 0.923882 0.382678 0.000000
vn 0.923882 0.382678 0.000000
vn 0.382683 0.923880 0.000000
vn 0.382683 0.923880 0.000000
vn -0.382686 0.923879 0.000000
vn -0.382686 0.923878 0.000000
vn -0.923885 0.382671 0.000000
vn -0.923885 0.382671 0.000000
vn -0.000000 0.382683 -0.923880
vn -0.000000 0.382683 -0.923880
vn -0.000000 0.923880 -0.382682
vn -0.000000 0.923880 -0.382682
vn 0.382682 0.923880 0.000000
vn 0.923877 0.382690 -0.000000
vn 0.000000 0.382694 -0.923875
vn 0.000000 0.923880 -0.382684
vn -0.382683 0.923880 0.000000
vn -0.923882 0.382678 0.000000
vn 0.000000 0.923879 0.382684
vn 0.000000 0.382687 0.923878
vn 0.000000 0.923880 0.382683
vn 0.000000 0.382687 0.923878
vn 0.923880 0.382682 0.000000
vn 0.382683 0.923880 0.000000
s 1
g Door_Lights
usemtl lambert31SG
f 6/1/1 2/2/2 9/3/3 11/4/4
s 2
f 18/5/5 15/6/6 20/7/7 23/8/8
s 3
f 10/9/9 7/10/10 22/11/11 21/12/12
s 4
f 14/13/13 16/14/14 1/15/15 4/16/16
f 1/15/15 3/17/17 5/18/18 4/16/16
s 1
f 3/17/19 2/2/2 6/1/1 5/18/20
f 9/3/3 8/19/21 12/20/22 11/4/4
s 3
f 8/19/23 7/10/10 10/9/9 12/20/24
s 4
f 14/13/13 13/21/25 17/22/26 16/14/14
s 2
f 13/23/27 15/6/6 18/5/5 17/24/28
f 20/7/7 19/25/29 24/26/30 23/8/8
s 3
f 19/27/31 21/12/12 22/11/11 24/28/32
s 5
f 26/29/33 25/30/34 61/31/35 66/32/36
s 6
f 25/33/37 30/34/38 62/35/39 61/36/40
s 7
f 28/37/41 27/38/42 35/39/43 34/40/44
s 5
f 27/41/45 26/29/33 36/42/46 35/43/47
s 6
f 30/34/38 29/44/48 39/45/49 38/46/50
s 7
f 29/44/51 28/37/41 40/47/52 39/45/53
s 8
f 32/48/54 31/49/55 67/50/56 72/51/57
s 5
f 31/52/58 36/42/46 68/53/59 67/54/60
s 7
f 34/40/44 33/55/61 47/56/62 46/57/63
s 8
f 33/55/64 32/48/54 48/58/65 47/56/66
s 6
f 38/46/50 37/59/67 51/60/68 50/61/69
s 9
f 37/62/70 42/63/71 52/64/72 51/65/73
f 42/63/71 41/66/74 45/67/75 44/68/76
s 7
f 41/66/77 40/47/52 46/57/63 45/67/78
s 9
f 44/68/76 43/69/79 59/70/80 58/71/81
s 8
f 43/72/82 48/58/65 60/73/83 59/74/84
s 6
f 50/61/69 49/75/85 63/76/86 62/35/39
s 10
f 49/77/87 54/78/88 64/79/89 63/80/90
f 54/78/88 53/81/91 57/82/92 56/83/93
s 9
f 53/81/94 52/64/72 58/71/81 57/82/95
s 10
f 56/83/93 55/84/96 71/85/97 70/86/98
s 8
f 55/87/99 60/73/83 72/51/57 71/88/100
s 5
f 66/32/36 65/89/101 69/90/102 68/53/59
s 10
f 65/89/103 64/79/89 70/86/98 69/90/104
s 7
f 28/37/41 34/40/44 46/57/63 40/47/52
s 9
f 42/63/71 44/68/76 58/71/81 52/64/72
s 10
f 54/78/88 56/83/93 70/86/98 64/79/89
s 5
f 66/32/36 68/53/59 36/42/46 26/29/33
s 8
f 32/48/54 72/51/57 60/73/83 48/58/65
s 6
f 62/35/39 30/34/38 38/46/50 50/61/69
f 29/44/48 30/34/38 25/33/37 73/91/105
s 5
f 25/30/34 26/29/33 27/41/45 73/92/106
s 7
f 27/38/42 28/37/41 29/44/51 73/91/107
s 5
f 35/43/47 36/42/46 31/52/58 74/93/108
s 8
f 31/49/55 32/48/54 33/55/64 74/94/109
s 7
f 33/55/61 34/40/44 35/39/43 74/94/110
s 9
f 41/66/74 42/63/71 37/62/70 75/95/111
s 6
f 37/59/67 38/46/50 39/45/49 75/95/112
s 7
f 39/45/53 40/47/52 41/66/77 75/95/113
s 8
f 47/56/66 48/58/65 43/72/82 76/96/114
s 9
f 43/69/79 44/68/76 45/67/75 76/96/115
s 7
f 45/67/78 46/57/63 47/56/62 76/96/116
s 10
f 53/81/91 54/78/88 49/77/87 77/97/117
s 6
f 49/75/85 50/61/69 51/60/68 77/98/118
s 9
f 51/65/73 52/64/72 53/81/94 77/97/119
s 8
f 59/74/84 60/73/83 55/87/99 78/99/120
s 10
f 55/84/96 56/83/93 57/82/92 78/100/121
s 9
f 57/82/95 58/71/81 59/70/80 78/100/122
s 5
f 65/89/101 66/32/36 61/31/35 79/101/123
s 6
f 61/36/40 62/35/39 63/76/86 79/102/124
s 10
f 63/80/90 64/79/89 65/89/103 79/101/125
s 8
f 71/88/100 72/51/57 67/50/56 80/103/126
s 5
f 67/54/60 68/53/59 69/90/102 80/104/127
s 10
f 69/90/104 70/86/98 71/85/97 80/104/128
s off
f 94/105/129 95/106/130 91/107/131 88/108/132
s 11
f 99/109/133 98/110/134 101/111/135 100/112/136
s 12
f 98/110/137 97/113/138 102/114/139 101/111/140
s 11
f 108/115/141 107/116/142 110/117/143 109/118/144
s 14
f 107/116/145 106/119/146 111/120/147 110/117/148
s 15
f 126/121/149 125/122/150 128/123/151 127/124/152
s 11
f 125/122/153 124/125/154 129/126/155 128/123/156
f 135/127/157 134/128/158 137/129/159 136/130/160
s 18
f 134/128/161 133/131/162 138/132/163 137/129/164
s 11
f 103/133/165 108/115/141 99/109/133 100/112/136
f 99/109/133 108/115/141 109/118/144 114/134/166
f 118/135/167 117/136/168 108/115/141 103/133/165
f 124/125/154 109/118/144 121/137/169 129/126/155
f 114/134/166 109/118/144 124/125/154 130/138/170
f 135/127/157 136/130/160 117/136/168 118/135/167
f 139/139/171 121/137/169 117/136/168 136/130/160
f 129/126/155 121/137/169 139/139/171 142/140/172
s 12
f 86/141/173 83/142/174 102/114/139 97/113/138
s 19
f 83/142/175 87/143/176 105/144/177 102/114/178
s 14
f 88/108/179 91/107/180 111/120/147 106/119/146
s 12
f 92/145/181 86/141/173 97/113/138 112/146/182
s 20
f 94/105/183 88/108/184 106/119/185 115/147/186
s 19
f 87/143/176 93/148/187 120/149/188 105/144/177
s 21
f 91/107/189 95/106/190 123/150/191 111/120/192
s 15
f 96/151/193 89/152/194 126/121/149 127/124/152
f 89/152/194 84/153/195 132/154/196 126/121/149
s 12
f 84/153/197 92/145/181 112/146/182 132/154/198
s 18
f 81/155/199 85/156/200 138/132/163 133/131/162
s 19
f 93/148/187 81/155/201 133/131/202 120/149/188
s 22
f 95/106/203 94/105/204 115/147/205 123/150/206
s 18
f 85/156/200 90/157/207 141/158/208 138/132/163
f 90/157/207 82/159/209 144/160/210 141/158/208
s 15
f 82/159/211 96/151/193 127/124/152 144/160/212
s 12
f 97/113/138 98/110/137 113/161/213 112/146/182
s 11
f 98/110/134 99/109/133 114/134/166 113/161/214
f 100/112/136 101/111/215 104/162/216 103/133/165
s 19
f 101/111/217 102/114/178 105/144/177 104/162/218
s 11
f 103/133/165 104/162/216 119/163/219 118/135/167
s 19
f 104/162/218 105/144/177 120/149/188 119/163/220
s 20
f 106/119/185 107/116/221 116/164/222 115/147/186
s 11
f 107/116/223 108/115/141 117/136/168 116/164/224
f 109/118/144 110/117/225 122/165/226 121/137/169
s 21
f 110/117/227 111/120/192 123/150/191 122/165/228
s 22
f 115/147/205 116/164/229 122/165/230 123/150/206
s 11
f 116/164/231 117/136/168 121/137/169 122/165/232
f 124/125/154 125/122/153 131/166/233 130/138/170
s 15
f 125/122/150 126/121/149 132/154/196 131/166/234
s 12
f 112/146/182 113/161/213 131/166/235 132/154/198
s 11
f 113/161/214 114/134/166 130/138/170 131/166/236
f 118/135/167 119/163/219 134/128/237 135/127/157
s 19
f 119/163/220 120/149/188 133/131/202 134/128/238
s 11
f 136/130/160 137/129/159 140/167/239 139/139/171
s 18
f 137/129/164 138/132/163 141/158/208 140/167/240
s 11
f 139/139/171 140/167/239 143/168/241 142/140/172
s 18
f 140/167/240 141/158/208 144/160/210 143/168/242
s 15
f 127/124/152 128/123/151 143/168/243 144/160/212
s 11
f 128/123/156 129/126/155 142/140/172 143/168/244
