# This file uses centimeters as units for non-parametric coordinates.

mtllib Wire3.mtl
g default
v 0.092463 0.012726 -0.030498
v 7.300477 0.012726 -0.030498
v 0.092463 5.825562 -0.070068
v 7.300477 5.825562 -0.070068
v 0.092463 5.831650 -0.006113
v 7.300477 5.831650 -0.006113
v 0.095909 5.760634 0.001500
v 7.303908 5.759882 0.001877
v 0.092463 5.838857 -0.038015
v 7.300477 5.838857 -0.038015
v 0.092463 5.810740 0.013437
v 7.300477 5.810740 0.013437
v 0.092463 5.767968 -0.062253
v 7.300477 5.767968 -0.062253
v 0.092463 5.779657 0.013340
v 7.300477 5.779657 0.013340
v 0.094068 5.745057 -0.032557
v 7.302082 5.745057 -0.032557
v 3.587485 0.012726 -0.030498
v 3.587485 5.825562 -0.070068
v 3.587485 5.838857 -0.038015
v 3.587485 5.831650 -0.006113
v 3.587485 5.810740 0.013437
v 3.587485 5.779657 0.013340
v 3.590923 5.760269 0.001683
v 3.589090 5.745057 -0.032557
v 3.587485 5.767968 -0.062253
v 0.092463 4.374178 -0.060188
v 4.414278 4.374178 -0.309377
v 7.300477 4.374178 -0.060188
v 0.092463 2.193452 -0.045343
v 4.000882 2.193452 -0.500209
v 7.300477 2.193452 -0.045343
vt 0.000488 0.003994
vt 0.998009 0.004553
vt 0.996690 0.808880
vt 0.001509 0.807100
vt 0.001500 0.811884
vt 0.996684 0.813663
vt 0.996678 0.818171
vt 0.001491 0.816392
vt 0.001475 0.824622
vt 0.996667 0.826400
vt 0.997137 0.829551
vt 0.001944 0.827712
vt 0.996673 0.822116
vt 0.001483 0.820338
vt 0.001680 0.832873
vt 0.996878 0.834718
vt 0.996650 0.839887
vt 0.001447 0.838041
vt 0.483388 0.000488
vt 0.484014 0.808996
vt 0.484006 0.813777
vt 0.483999 0.818284
vt 0.483993 0.822228
vt 0.483986 0.826512
vt 0.484455 0.829630
vt 0.484194 0.834793
vt 0.483963 0.839961
vt 0.001744 0.606873
vt 0.598952 0.607078
vt 0.998050 0.608353
vt 0.001587 0.304912
vt 0.541888 0.306698
vt 0.999512 0.306533
vn 0.064530 -0.056572 0.996311
vn -0.008158 -0.055943 0.998401
vn 0.007921 -0.076547 0.997034
vn 0.031785 -0.069752 0.997058
vn 0.000000 -0.995500 0.094763
vn 0.000000 -0.995500 0.094764
vn 0.000000 -0.975418 -0.220361
vn 0.000000 -0.975419 -0.220357
vn 0.000021 0.220161 -0.975464
vn 0.000021 0.226589 -0.973990
vn 0.000049 0.514462 -0.857513
vn 0.000050 0.521852 -0.853036
vn 0.000000 -0.923695 0.383128
vn 0.000000 -0.923693 0.383132
vn 0.000000 -0.682962 -0.730454
vn 0.000000 -0.682964 -0.730452
vn 0.000000 -0.350428 -0.936590
vn 0.000000 -0.350429 -0.936589
vn 0.000033 0.991660 0.128884
vn 0.000034 0.992772 0.120012
vn 0.000000 0.791743 0.610854
vn 0.000000 0.791743 0.610855
vn 0.000058 0.911641 -0.410989
vn 0.000058 0.914052 -0.405597
vn -0.081860 -0.054291 0.995164
vn -0.037583 -0.089370 0.995289
vn 0.000000 -0.923692 0.383136
vn 0.000000 -0.995500 0.094764
vn 0.000000 -0.975418 -0.220364
vn 0.000000 -0.682966 -0.730450
vn 0.000000 -0.350428 -0.936590
vn 0.000022 0.232433 -0.972613
vn 0.000049 0.508401 -0.861121
vn 0.000058 0.916199 -0.400725
vn 0.000035 0.993865 0.110596
vn -0.000000 0.791744 0.610854
vn 0.073896 0.024325 0.996969
vn 0.001562 0.034118 0.999417
vn -0.087349 0.048261 0.995008
vn 0.060988 0.104503 0.992653
vn 0.005040 0.109947 0.993925
vn -0.064290 0.116209 0.991142
s 1
g Wire3
usemtl initialShadingGroup
f 28/28/1 29/29/2 20/20/3 3/4/4
s 2
f 9/5/5 21/21/6 22/22/7 5/8/8
s 3
f 15/9/9 24/24/10 25/25/11 7/12/12
s 2
f 3/4/13 20/20/14 21/21/6 9/5/5
s 3
f 5/8/15 22/22/16 23/23/17 11/14/18
s 5
f 17/15/19 26/26/20 27/27/21 13/18/22
s 3
f 11/14/18 23/23/17 24/24/10 15/9/9
s 5
f 7/12/23 25/25/24 26/26/20 17/15/19
s 1
f 20/20/3 29/29/2 30/30/25 4/3/26
s 2
f 21/21/6 20/20/14 4/3/27 10/6/28
f 22/22/7 21/21/6 10/6/28 6/7/29
s 3
f 23/23/17 22/22/16 6/7/30 12/13/31
f 24/24/10 23/23/17 12/13/31 16/10/32
f 25/25/11 24/24/10 16/10/32 8/11/33
s 5
f 26/26/20 25/25/24 8/11/34 18/16/35
f 27/27/21 26/26/20 18/16/35 14/17/36
s 1
f 31/31/37 32/32/38 29/29/2 28/28/1
f 30/30/25 29/29/2 32/32/38 33/33/39
f 1/1/40 19/19/41 32/32/38 31/31/37
f 33/33/39 32/32/38 19/19/41 2/2/42
