# This file uses centimeters as units for non-parametric coordinates.

mtllib Wire.mtl
g default
v 0.001695 0.001941 -0.030498
v 7.209709 0.001941 -0.030498
v 0.001695 5.814778 -0.070068
v 7.209709 5.814778 -0.070068
v 0.001695 5.820866 -0.006113
v 7.209709 5.820866 -0.006113
v 0.005141 5.749850 0.001500
v 7.213140 5.749097 0.001877
v 0.001695 5.828073 -0.038015
v 7.209709 5.828073 -0.038015
v 0.001695 5.799956 0.013437
v 7.209709 5.799956 0.013437
v 0.001695 5.757184 -0.062253
v 7.209709 5.757184 -0.062253
v 0.001695 5.768873 0.013340
v 7.209709 5.768873 0.013340
v 0.003300 5.734273 -0.032557
v 7.211314 5.734273 -0.032557
vt 0.000488 0.013874
vt 0.987968 0.000488
vt 0.998763 0.796851
vt 0.011284 0.810236
vt 0.011348 0.814991
vt 0.998828 0.801604
vt 0.998888 0.806085
vt 0.011409 0.819471
vt 0.011520 0.827651
vt 0.998999 0.814265
vt 0.999512 0.817390
vt 0.012033 0.830714
vt 0.998941 0.810007
vt 0.011462 0.823393
vt 0.011850 0.835848
vt 0.999331 0.822530
vt 0.999180 0.827671
vt 0.011700 0.840990
vn 0.000000 0.006807 0.999977
vn 0.000000 0.006807 0.999977
vn 0.000000 0.006807 0.999977
vn 0.000000 0.006807 0.999977
vn 0.000000 -0.995500 0.094767
vn 0.000000 -0.995500 0.094767
vn 0.000000 -0.975420 -0.220355
vn 0.000000 -0.975420 -0.220355
vn 0.000021 0.217681 -0.976020
vn 0.000022 0.234986 -0.971999
vn 0.000049 0.514909 -0.857245
vn 0.000049 0.514909 -0.857245
vn 0.000000 -0.923693 0.383132
vn 0.000000 -0.923693 0.383132
vn 0.000000 -0.682961 -0.730455
vn 0.000000 -0.682961 -0.730455
vn 0.000000 -0.350427 -0.936590
vn 0.000000 -0.350427 -0.936590
vn 0.000033 0.991303 0.131597
vn 0.000035 0.994162 0.107896
vn 0.000000 0.791746 0.610851
vn 0.000000 0.791746 0.610851
vn 0.000058 0.914005 -0.405702
vn 0.000058 0.914005 -0.405702
s off
g Wire
usemtl initialShadingGroup
f 1/1/1 2/2/2 4/3/3 3/4/4
s 1
f 9/5/5 10/6/6 6/7/7 5/8/8
s 2
f 15/9/9 16/10/10 8/11/11 7/12/12
s 1
f 3/4/13 4/3/14 10/6/6 9/5/5
s 2
f 5/8/15 6/7/16 12/13/17 11/14/18
s 3
f 17/15/19 18/16/20 14/17/21 13/18/22
s 2
f 11/14/18 12/13/17 16/10/10 15/9/9
s 3
f 7/12/23 8/11/24 18/16/20 17/15/19
