# This file uses centimeters as units for non-parametric coordinates.

mtllib Sign.mtl
g default
v -0.065329 0.001255 1.312055
v 0.003649 0.001255 1.381033
v -0.045126 0.001255 1.360830
v -0.065329 0.014939 1.312055
v -0.045126 0.014939 1.360830
v 0.003649 0.014939 1.381033
v 1.905318 0.001255 1.312055
v 1.885114 0.001255 1.360830
v 1.836339 0.001255 1.381033
v 1.905318 0.014939 1.312055
v 1.836339 0.014939 1.381033
v 1.885114 0.014939 1.360830
v -0.045126 0.014939 0.021537
v -0.065329 0.014939 0.070311
v 0.003649 0.014939 0.001333
v -0.065329 0.001255 0.070311
v -0.045126 0.001255 0.021537
v 0.003649 0.001255 0.001333
v 1.885114 0.014939 0.021537
v 1.836339 0.014939 0.001333
v 1.905318 0.014939 0.070311
v 1.905318 0.001255 0.070311
v 1.836339 0.001255 0.001333
v 1.885114 0.001255 0.021537
vt 0.302404 0.597008
vt 0.011872 0.597018
vt 0.279636 0.599959
vt 0.720364 0.596993
vt 0.988128 0.599934
vt 0.279636 0.597009
vt 0.015360 0.000552
vt 0.697596 0.596994
vt 0.720364 0.599944
vt 0.011873 0.599969
vt 0.015384 0.298763
vt 0.410600 0.298000
vt 0.988127 0.596984
vt 0.431807 0.000501
vt 0.000531 0.283191
vt 0.000488 0.015428
vt 0.697596 0.599945
vt 0.425428 0.015360
vt 0.425471 0.283123
vt 0.425449 0.313668
vt 0.425428 0.581431
vt 0.410553 0.596304
vt 0.015361 0.596274
vt 0.000488 0.581399
vt 0.000509 0.313636
vt 0.826999 0.003439
vt 0.004844 0.591917
vt 0.291020 0.597008
vt 0.291020 0.599959
vt 0.421071 0.591948
vt 0.708980 0.596994
vt 0.708980 0.599944
vt 0.004890 0.293708
vt 0.000488 0.599969
vt 0.420422 0.003452
vt 0.000488 0.597019
vt 0.421117 0.293641
vt 0.999512 0.599934
vt 0.999512 0.596983
vt 0.838383 0.003439
vt 0.421070 0.004843
vt 0.410552 0.000488
vt 0.302404 0.599959
vt 0.004843 0.004910
vt 0.421093 0.303150
vt 0.410576 0.298793
vt 0.826999 0.000489
vt 0.838383 0.000488
vt 0.431807 0.003452
vt 0.004866 0.303119
vt 0.420422 0.000501
vt 0.015408 0.298063
vn -0.010737 0.000000 0.999942
vn -0.010737 0.000000 0.999942
vn 0.010737 0.000000 0.999942
vn 0.010737 0.000000 0.999942
vn -0.010737 0.000000 -0.999942
vn -0.010737 0.000000 -0.999942
vn 0.010737 0.000000 -0.999942
vn 0.010737 0.000000 -0.999942
vn 0.999878 0.000000 0.015653
vn 0.999878 0.000000 0.015653
vn 0.999878 0.000000 -0.015653
vn 0.999878 0.000000 -0.015653
vn -0.999878 0.000000 -0.015653
vn -0.999878 0.000000 -0.015653
vn -0.999878 0.000000 0.015653
vn -0.999878 0.000000 0.015653
vn -0.923879 0.000000 0.382686
vn -0.923879 0.000000 0.382686
vn -0.382684 0.000000 0.923879
vn -0.382684 0.000000 0.923879
vn 0.382684 0.000000 0.923879
vn 0.382684 0.000000 0.923879
vn 0.923879 0.000000 0.382686
vn 0.923879 0.000000 0.382686
vn -0.923879 0.000000 -0.382686
vn -0.923879 0.000000 -0.382686
vn -0.382684 0.000000 -0.923879
vn -0.382684 0.000000 -0.923879
vn 0.382684 0.000000 -0.923879
vn 0.382684 0.000000 -0.923879
vn 0.923879 0.000000 -0.382686
vn 0.923879 0.000000 -0.382686
vn 0.000000 1.000000 -0.000000
vn 0.000000 1.000000 -0.000000
vn 0.000000 1.000000 -0.000000
vn 0.000000 1.000000 -0.000000
vn 0.000000 1.000000 -0.000000
vn 0.000000 1.000000 -0.000000
vn 0.000000 1.000000 -0.000000
vn 0.000000 1.000000 -0.000000
vn 0.000000 1.000000 -0.000000
vn 0.000000 1.000000 -0.000000
vn 0.000000 1.000000 -0.000000
vn 0.000000 1.000000 -0.000000
vn 0.000000 -1.000000 0.000000
vn 0.000000 -1.000000 0.000000
vn 0.000000 -1.000000 0.000000
vn 0.000000 -1.000000 0.000000
vn 0.000000 -1.000000 0.000000
vn 0.000000 -1.000000 0.000000
vn 0.000000 -1.000000 0.000000
vn 0.000000 -1.000000 0.000000
vn 0.000000 -1.000000 0.000000
vn 0.000000 -1.000000 0.000000
vn 0.000000 -1.000000 0.000000
vn 0.000000 -1.000000 0.000000
s 1
g Sign
usemtl initialShadingGroup
f 6/43/1 2/1/2 9/8/3 11/17/4
s 2
f 18/49/5 15/14/6 20/47/7 23/26/8
s 3
f 10/9/9 7/4/10 22/13/11 21/5/12
s 4
f 14/10/13 16/2/14 1/6/15 4/3/16
f 1/6/15 3/28/17 5/29/18 4/3/16
s 1
f 3/28/19 2/1/2 6/43/1 5/29/20
f 9/8/3 8/31/21 12/32/22 11/17/4
s 3
f 8/31/23 7/4/10 10/9/9 12/32/24
s 4
f 14/10/13 13/34/25 17/36/26 16/2/14
s 2
f 13/51/27 15/14/6 18/49/5 17/35/28
f 20/47/7 19/48/29 24/40/30 23/26/8
s 3
f 19/38/31 21/5/12 22/13/11 24/39/32
s off
f 19/37/33 20/12/34 15/52/35 13/33/36 14/15/37 4/16/38 5/44/39 6/7/40 11/42/41 12/41/42 10/18/43 21/19/44
f 22/20/45 7/21/46 8/30/47 9/22/48 2/23/49 3/27/50 1/24/51 16/25/52 17/50/53 18/11/54 23/46/55 24/45/56
g default
v -0.065329 0.001255 1.312055
v 0.003649 0.001255 1.381033
v -0.045126 0.001255 1.360830
v -0.065329 0.014939 1.312055
v -0.045126 0.014939 1.360830
v 0.003649 0.014939 1.381033
v 1.905318 0.001255 1.312055
v 1.885114 0.001255 1.360830
v 1.836339 0.001255 1.381033
v 1.905318 0.014939 1.312055
v 1.836339 0.014939 1.381033
v 1.885114 0.014939 1.360830
v -0.045126 0.014939 0.021537
v -0.065329 0.014939 0.070311
v 0.003649 0.014939 0.001333
v -0.065329 0.001255 0.070311
v -0.045126 0.001255 0.021537
v 0.003649 0.001255 0.001333
v 1.885114 0.014939 0.021537
v 1.836339 0.014939 0.001333
v 1.905318 0.014939 0.070311
v 1.905318 0.001255 0.070311
v 1.836339 0.001255 0.001333
v 1.885114 0.001255 0.021537
vt 0.302404 0.597008
vt 0.011872 0.597018
vt 0.279636 0.599959
vt 0.720364 0.596993
vt 0.988128 0.599934
vt 0.279636 0.597009
vt 0.015360 0.000552
vt 0.697596 0.596994
vt 0.720364 0.599944
vt 0.011873 0.599969
vt 0.015384 0.298763
vt 0.410600 0.298000
vt 0.988127 0.596984
vt 0.431807 0.000501
vt 0.000531 0.283191
vt 0.000488 0.015428
vt 0.697596 0.599945
vt 0.425428 0.015360
vt 0.425471 0.283123
vt 0.425449 0.313668
vt 0.425428 0.581431
vt 0.410553 0.596304
vt 0.015361 0.596274
vt 0.000488 0.581399
vt 0.000509 0.313636
vt 0.826999 0.003439
vt 0.004844 0.591917
vt 0.291020 0.597008
vt 0.291020 0.599959
vt 0.421071 0.591948
vt 0.708980 0.596994
vt 0.708980 0.599944
vt 0.004890 0.293708
vt 0.000488 0.599969
vt 0.420422 0.003452
vt 0.000488 0.597019
vt 0.421117 0.293641
vt 0.999512 0.599934
vt 0.999512 0.596983
vt 0.838383 0.003439
vt 0.421070 0.004843
vt 0.410552 0.000488
vt 0.302404 0.599959
vt 0.004843 0.004910
vt 0.421093 0.303150
vt 0.410576 0.298793
vt 0.826999 0.000489
vt 0.838383 0.000488
vt 0.431807 0.003452
vt 0.004866 0.303119
vt 0.420422 0.000501
vt 0.015408 0.298063
vn -0.010737 0.000000 0.999942
vn -0.010737 0.000000 0.999942
vn 0.010737 0.000000 0.999942
vn 0.010737 0.000000 0.999942
vn -0.010737 0.000000 -0.999942
vn -0.010737 0.000000 -0.999942
vn 0.010737 0.000000 -0.999942
vn 0.010737 0.000000 -0.999942
vn 0.999878 0.000000 0.015653
vn 0.999878 0.000000 0.015653
vn 0.999878 0.000000 -0.015653
vn 0.999878 0.000000 -0.015653
vn -0.999878 0.000000 -0.015653
vn -0.999878 0.000000 -0.015653
vn -0.999878 0.000000 0.015653
vn -0.999878 0.000000 0.015653
vn -0.923879 0.000000 0.382686
vn -0.923879 0.000000 0.382686
vn -0.382684 0.000000 0.923879
vn -0.382684 0.000000 0.923879
vn 0.382684 0.000000 0.923879
vn 0.382684 0.000000 0.923879
vn 0.923879 0.000000 0.382686
vn 0.923879 0.000000 0.382686
vn -0.923879 0.000000 -0.382686
vn -0.923879 0.000000 -0.382686
vn -0.382684 0.000000 -0.923879
vn -0.382684 0.000000 -0.923879
vn 0.382684 0.000000 -0.923879
vn 0.382684 0.000000 -0.923879
vn 0.923879 0.000000 -0.382686
vn 0.923879 0.000000 -0.382686
vn 0.000000 1.000000 -0.000000
vn 0.000000 1.000000 -0.000000
vn 0.000000 1.000000 -0.000000
vn 0.000000 1.000000 -0.000000
vn 0.000000 1.000000 -0.000000
vn 0.000000 1.000000 -0.000000
vn 0.000000 1.000000 -0.000000
vn 0.000000 1.000000 -0.000000
vn 0.000000 1.000000 -0.000000
vn 0.000000 1.000000 -0.000000
vn 0.000000 1.000000 -0.000000
vn 0.000000 1.000000 -0.000000
vn 0.000000 -1.000000 0.000000
vn 0.000000 -1.000000 0.000000
vn 0.000000 -1.000000 0.000000
vn 0.000000 -1.000000 0.000000
vn 0.000000 -1.000000 0.000000
vn 0.000000 -1.000000 0.000000
vn 0.000000 -1.000000 0.000000
vn 0.000000 -1.000000 0.000000
vn 0.000000 -1.000000 0.000000
vn 0.000000 -1.000000 0.000000
vn 0.000000 -1.000000 0.000000
vn 0.000000 -1.000000 0.000000
s 1
g Sign
f 30/95/57 26/53/58 33/60/59 35/69/60
s 2
f 42/101/61 39/66/62 44/99/63 47/78/64
s 3
f 34/61/65 31/56/66 46/65/67 45/57/68
s 4
f 38/62/69 40/54/70 25/58/71 28/55/72
f 25/58/71 27/80/73 29/81/74 28/55/72
s 1
f 27/80/75 26/53/58 30/95/57 29/81/76
f 33/60/59 32/83/77 36/84/78 35/69/60
s 3
f 32/83/79 31/56/66 34/61/65 36/84/80
s 4
f 38/62/69 37/86/81 41/88/82 40/54/70
s 2
f 37/103/83 39/66/62 42/101/61 41/87/84
f 44/99/63 43/100/85 48/92/86 47/78/64
s 3
f 43/90/87 45/57/68 46/65/67 48/91/88
s off
f 43/89/89 44/64/90 39/104/91 37/85/92 38/67/93 28/68/94 29/96/95 30/59/96 35/94/97 36/93/98 34/70/99 45/71/100
f 46/72/101 31/73/102 32/82/103 33/74/104 26/75/105 27/79/106 25/76/107 40/77/108 41/102/109 42/63/110 47/98/111 48/97/112
