# This file uses centimeters as units for non-parametric coordinates.

mtllib Wire_Door.mtl
g default
v -2.136024 -0.051910 -0.352694
v -0.005026 -0.051910 -0.039600
v -2.136024 4.857221 -0.352694
v -0.005026 4.857221 -0.039600
v -2.136024 1.911742 -0.352694
v -0.005026 1.911742 -0.039600
v -1.070525 4.857221 -0.196147
v -1.070525 1.455796 -0.002421
v -1.070525 -0.051910 -0.196147
v -2.136024 3.384482 -0.352694
v -1.070525 3.384482 -0.396821
v -0.005026 3.384482 -0.039600
vt 0.002973 0.002709
vt 0.439353 0.000488
vt 0.006551 0.999512
vt 0.442838 0.994991
vt 0.003105 0.400936
vt 0.442892 0.398365
vt 0.225124 0.997725
vt 0.228396 0.306201
vt 0.221182 0.000705
vt 0.000488 0.700615
vt 0.214306 0.699734
vt 0.440919 0.696831
vn -0.148963 -0.067214 0.986556
vn -0.142530 0.030137 0.989332
vn -0.201362 0.029884 0.979061
vn -0.233865 -0.066087 0.970021
vn -0.043964 -0.055667 0.997481
vn -0.111227 0.033061 0.993245
vn -0.144080 0.024891 0.989253
vn -0.149196 -0.055097 0.987271
vn -0.087797 0.030391 0.995675
vn -0.052560 -0.067878 0.996308
vn -0.178926 0.032606 0.983322
vn -0.241974 -0.054065 0.968775
s 1
g Wire_Door
usemtl initialShadingGroup
f 7/7/1 11/11/2 12/12/3 4/4/4
f 2/2/5 6/6/6 8/8/7 9/9/8
f 10/10/9 11/11/2 7/7/1 3/3/10
f 9/9/8 8/8/7 5/5/11 1/1/12
f 5/5/11 8/8/7 11/11/2 10/10/9
f 12/12/3 11/11/2 8/8/7 6/6/6
