# This file uses centimeters as units for non-parametric coordinates.

mtllib Light1.mtl
g default
v 0.069767 0.178039 -0.036237
v 0.038018 0.178039 -0.059304
v -0.001225 0.178039 -0.059304
v -0.045100 0.178039 0.001085
v 0.038018 0.178039 0.061474
v 0.069767 0.178039 0.038408
v 0.018397 0.188427 0.001085
v -0.019686 0.177841 -0.051332
v -0.043223 0.177841 -0.018936
v -0.019686 0.177841 0.053502
v 0.056480 0.177841 0.053502
v 0.080017 0.177841 0.021107
v 0.080017 0.177841 -0.018936
v 0.158883 0.074351 -0.100984
v 0.154934 0.103497 -0.098115
v 0.150219 0.109594 -0.094689
v 0.144833 0.114843 -0.090776
v 0.072070 0.074351 -0.164105
v 0.070551 0.103476 -0.159429
v 0.068733 0.109622 -0.153834
v 0.066655 0.114923 -0.147437
v -0.035264 0.074351 -0.164066
v -0.033756 0.103497 -0.159424
v -0.031955 0.109594 -0.153881
v -0.029897 0.114843 -0.147549
v -0.083542 0.074351 -0.139222
v -0.080681 0.103505 -0.135283
v -0.077268 0.109617 -0.130585
v -0.073372 0.114894 -0.125223
v -0.146544 0.074351 -0.052507
v -0.141914 0.103505 -0.051003
v -0.136391 0.109617 -0.049208
v -0.130088 0.114894 -0.047160
v -0.155302 0.074351 0.001085
v -0.150367 0.103481 0.001085
v -0.144441 0.109658 0.001085
v -0.137649 0.115005 0.001085
v -0.083627 0.074351 0.141509
v -0.080680 0.103447 0.137453
v -0.077124 0.109768 0.132559
v -0.073035 0.115288 0.126931
v 0.072073 0.074351 0.166282
v 0.070548 0.103481 0.161589
v 0.068717 0.109658 0.155954
v 0.066618 0.115005 0.149493
v 0.120322 0.074351 0.141373
v 0.117478 0.103509 0.137459
v 0.114100 0.109574 0.132809
v 0.110253 0.114791 0.127514
v 0.158864 0.074351 0.103141
v 0.154940 0.103501 0.100290
v 0.150271 0.109553 0.096897
v 0.144951 0.114743 0.093033
v 0.183338 0.074351 0.054678
v 0.178707 0.103505 0.053173
v 0.173185 0.109617 0.051379
v 0.166881 0.114894 0.049331
v 0.183338 0.074351 -0.052507
v 0.178707 0.103505 -0.051003
v 0.173185 0.109617 -0.049208
v 0.166881 0.114894 -0.047160
v 0.181004 -0.015210 -0.117055
v 0.080507 -0.015210 -0.190070
v -0.043714 -0.015210 -0.190070
v -0.099595 -0.015210 -0.161317
v -0.172518 -0.015210 -0.060947
v -0.182596 -0.015210 0.001085
v -0.099595 -0.015210 0.163487
v 0.080507 -0.015210 0.192241
v 0.136389 -0.015210 0.163487
v 0.181004 -0.015210 0.119226
v 0.209312 -0.015210 0.063118
v 0.209312 -0.015210 -0.060947
v 0.170830 0.074351 -0.108401
v 0.178025 0.070548 -0.114521
v 0.181005 0.061368 -0.117056
v 0.076289 0.074351 -0.177089
v 0.079272 0.070548 -0.186269
v 0.080507 0.061368 -0.190072
v -0.040570 0.074351 -0.177089
v -0.042793 0.070548 -0.186269
v -0.043714 0.061368 -0.190072
v -0.090909 0.074351 -0.151188
v -0.097052 0.070548 -0.158351
v -0.099596 0.061368 -0.161318
v -0.160201 0.074351 -0.055816
v -0.168912 0.070548 -0.059444
v -0.172520 0.061368 -0.060947
v -0.169101 0.074351 -0.001033
v -0.178644 0.070548 0.000465
v -0.182597 0.061368 0.001085
v -0.091037 0.074351 0.151709
v -0.097089 0.070548 0.160038
v -0.099596 0.061368 0.163489
v 0.078352 0.074351 0.178752
v 0.079876 0.070548 0.188291
v 0.080508 0.061368 0.192242
v 0.128669 0.074351 0.152862
v 0.134128 0.070548 0.160376
v 0.136390 0.061368 0.163489
v 0.170364 0.074351 0.111496
v 0.177888 0.070548 0.116963
v 0.181005 0.061368 0.119227
v 0.196331 0.074351 0.060028
v 0.205511 0.070548 0.062213
v 0.209313 0.061368 0.063118
v 0.196331 0.074351 -0.057858
v 0.205511 0.070548 -0.060042
v 0.209313 0.061368 -0.060947
vt 0.508190 0.509400
vt 0.395819 0.427682
vt 0.391932 0.416568
vt 0.396478 0.395701
vt 0.429448 0.380161
vt 0.447928 0.403149
vt 0.449635 0.421797
vt 0.129237 0.522597
vt 0.334002 0.510932
vt 0.111069 0.373316
vt 0.297370 0.459126
vt 0.129946 0.300493
vt 0.290661 0.396123
vt 0.215891 0.177125
vt 0.295449 0.364190
vt 0.277763 0.135630
vt 0.332594 0.311730
vt 0.495201 0.109644
vt 0.361096 0.296360
vt 0.676454 0.233284
vt 0.453810 0.278933
vt 0.712029 0.299376
vt 0.528082 0.336781
vt 0.731315 0.372557
vt 0.545624 0.364078
vt 0.731013 0.448279
vt 0.551641 0.395933
vt 0.678101 0.590330
vt 0.554983 0.428016
vt 0.627076 0.649052
vt 0.532113 0.487993
vt 0.683001 0.697785
vt 0.213806 0.649629
vt 0.194387 0.669141
vt 0.646826 0.668468
vt 0.204226 0.659572
vt 0.636899 0.658918
vt 0.103552 0.531506
vt 0.116377 0.527079
vt 0.084302 0.369493
vt 0.097661 0.371347
vt 0.105065 0.290763
vt 0.117466 0.295685
vt 0.198388 0.156713
vt 0.207163 0.166872
vt 0.265251 0.111282
vt 0.271347 0.123483
vt 0.501951 0.082298
vt 0.498586 0.095919
vt 0.698969 0.217474
vt 0.687830 0.225461
vt 0.736504 0.289742
vt 0.724282 0.294565
vt 0.757901 0.369296
vt 0.744625 0.370927
vt 0.757599 0.451254
vt 0.744325 0.449708
vt 0.700753 0.604946
vt 0.689392 0.597722
vt 0.038034 0.554015
vt 0.154795 0.696526
vt 0.016734 0.359416
vt 0.058478 0.546814
vt 0.038626 0.365106
vt 0.039613 0.265793
vt 0.061258 0.271253
vt 0.154335 0.103519
vt 0.233208 0.050320
vt 0.166804 0.122317
vt 0.518552 0.017393
vt 0.248069 0.067077
vt 0.513759 0.036514
vt 0.755006 0.179590
vt 0.733964 0.187479
vt 0.801499 0.263848
vt 0.826061 0.360513
vt 0.780491 0.272054
vt 0.803415 0.363525
vt 0.827431 0.458472
vt 0.805038 0.458825
vt 0.758727 0.643005
vt 0.698704 0.713748
vt 0.741583 0.628349
vt 0.405088 0.736962
vt 0.405116 0.859663
vt 0.206077 0.859709
vt 0.204423 0.744011
vt 0.204434 0.866711
vt 0.005395 0.866731
vt 0.600402 0.876809
vt 0.600403 0.999510
vt 0.499706 0.999512
vt 0.899180 0.744098
vt 0.899157 0.866799
vt 0.700369 0.866764
vt 0.928317 0.520889
vt 0.928326 0.643590
vt 0.827629 0.643597
vt 0.566802 0.597108
vt 0.566808 0.719809
vt 0.274575 0.719825
vt 0.698948 0.736965
vt 0.698946 0.859666
vt 0.406713 0.859663
vt 0.101186 0.016413
vt 0.101206 0.139114
vt 0.000509 0.139131
vt 0.923423 0.156293
vt 0.923438 0.278993
vt 0.822740 0.279005
vt 0.497622 0.876808
vt 0.497624 0.999509
vt 0.396927 0.999510
vt 0.928545 0.016448
vt 0.928523 0.139149
vt 0.729734 0.139114
vt 0.947895 0.296144
vt 0.947898 0.418844
vt 0.847201 0.418848
vt 0.141978 0.715125
vt 0.206048 0.737009
vt 0.005383 0.744031
vt 0.499704 0.876811
vt 0.700390 0.744063
vt 0.827620 0.520897
vt 0.274567 0.597124
vt 0.406713 0.736962
vt 0.000488 0.016430
vt 0.822725 0.156305
vt 0.396924 0.876810
vt 0.729755 0.016413
vt 0.847197 0.296147
vt 0.708412 0.726948
vt 0.848672 0.280226
vt 0.403609 0.721041
vt 0.130602 0.726878
vt 0.202442 0.728090
vt 0.022406 0.559561
vt 0.208023 0.721087
vt 0.598926 0.860889
vt 0.000488 0.358020
vt 0.006856 0.728110
vt 0.897732 0.728177
vt 0.024788 0.259078
vt 0.501153 0.860890
vt 0.926866 0.504969
vt 0.143041 0.091769
vt 0.701842 0.728143
vt 0.564804 0.581188
vt 0.227124 0.034899
vt 0.829615 0.504976
vt 0.695854 0.721045
vt 0.522799 0.000488
vt 0.277661 0.581203
vt 0.099187 0.000493
vt 0.767632 0.168841
vt 0.408711 0.721041
vt 0.922481 0.140372
vt 0.816445 0.258024
vt 0.001426 0.000509
vt 0.496632 0.860887
vt 0.842033 0.358358
vt 0.823713 0.140384
vt 0.927098 0.000527
vt 0.843532 0.461094
vt 0.398374 0.860889
vt 0.946444 0.280223
vt 0.772711 0.651411
vt 0.731208 0.000493
vn 0.349332 0.874223 -0.337196
vn 0.162637 0.850295 -0.500546
vn -0.023722 0.999346 0.027281
vn -0.084417 0.874223 -0.478130
vn -0.421775 0.879098 -0.222018
vn -0.466426 0.870586 0.156609
vn -0.341452 0.879080 -0.332609
vn -0.298156 0.861796 0.410377
vn -0.014587 0.857300 0.514610
vn 0.287346 0.872442 0.395319
vn 0.366421 0.896598 0.248692
vn 0.471743 0.879080 -0.068386
vn 0.471756 0.879069 0.068441
vn 0.176296 0.821293 -0.542584
vn 0.408677 0.817629 -0.405545
vn -0.092253 0.817629 -0.568307
vn -0.403632 0.816316 -0.413171
vn -0.517624 0.816281 -0.256420
vn -0.565374 0.806632 0.172330
vn -0.551771 0.785989 0.278873
vn 0.010980 0.806665 0.590907
vn -0.094718 0.785988 0.610943
vn 0.335849 0.820932 0.461818
vn 0.463041 0.819966 0.336524
vn 0.569349 0.816336 0.097145
vn 0.569401 0.816316 -0.097013
vn 0.484311 0.728858 -0.483951
vn 0.678407 0.726925 -0.106511
vn 0.699753 0.163619 -0.695395
vn 0.681345 0.271306 -0.679825
vn 0.951203 0.270073 -0.149246
vn 0.974429 0.162797 -0.154873
vn 0.210427 0.732322 -0.647630
vn 0.297364 0.272030 -0.915191
vn 0.304739 0.165806 -0.937892
vn -0.107357 0.728858 -0.676196
vn -0.151629 0.271307 -0.950474
vn -0.157369 0.163619 -0.973891
vn -0.486238 0.726924 -0.484927
vn -0.681814 0.270074 -0.679845
vn -0.697297 0.162798 -0.698050
vn -0.611538 0.727152 -0.311883
vn -0.857129 0.270618 -0.438288
vn -0.879255 0.163112 -0.447554
vn -0.666125 0.713073 0.218642
vn -0.918473 0.259073 0.298812
vn -0.973660 0.163874 -0.158531
vn -0.645854 0.688417 0.330083
vn -0.864387 0.240590 0.441533
vn -0.880427 0.150494 0.449666
vn -0.880427 0.150494 0.449666
vn -0.114347 0.688416 0.716246
vn -0.002529 0.712908 0.701253
vn -0.152813 0.240590 0.958522
vn -0.000405 0.258828 0.965923
vn -0.155591 0.150495 0.976290
vn -0.155591 0.150495 0.976290
vn 0.398430 0.734009 0.549985
vn 0.564586 0.278395 0.777006
vn 0.451820 0.163369 0.877023
vn 0.579985 0.164533 0.797839
vn 0.549743 0.733901 0.398964
vn 0.777254 0.277460 0.564705
vn 0.797981 0.164282 0.579861
vn 0.678626 0.726773 0.106148
vn 0.951292 0.269768 0.149230
vn 0.974449 0.162629 0.154923
vn 0.140999 0.979850 -0.141471
vn 0.062840 0.979105 -0.193400
vn 0.000005 1.000000 -0.000015
vn 0.000011 1.000000 -0.000012
vn -0.030916 0.979849 -0.197330
vn -0.000002 1.000000 -0.000016
vn -0.141908 0.979849 -0.140565
vn -0.000012 1.000000 -0.000012
vn -0.177494 0.979832 -0.091791
vn -0.000014 1.000000 -0.000008
vn -0.212254 0.974698 0.070080
vn -0.000017 1.000000 0.000006
vn -0.129749 0.975332 0.178585
vn -0.000010 1.000000 0.000014
vn -0.000738 0.974738 0.223351
vn -0.000001 1.000000 0.000018
vn 0.108314 0.982960 0.148519
vn 0.000010 1.000000 0.000014
vn 0.149222 0.982818 0.108634
vn 0.000014 1.000000 0.000010
vn 0.197343 0.979859 0.030534
vn 0.000017 1.000000 0.000002
vn 0.197428 0.979849 -0.030308
vn 0.000016 1.000000 -0.000002
vn 0.587295 0.040822 -0.808343
vn 0.707292 0.042606 -0.705637
vn 0.707980 -0.000017 -0.706233
vn 0.587785 -0.000016 -0.809017
vn -0.157448 0.042606 -0.986608
vn -0.000000 0.040822 -0.999166
vn -0.000000 -0.000016 -1.000000
vn -0.157654 -0.000016 -0.987494
vn -0.707391 0.042647 -0.705535
vn -0.707980 -0.000017 -0.706232
vn -0.889588 0.042613 -0.454771
vn -0.890445 -0.000017 -0.455091
vn -0.986250 0.040482 -0.160228
vn -0.987059 -0.000016 -0.160359
vn -0.889765 0.039079 0.454743
vn -0.889704 0.040794 0.454712
vn -0.890445 -0.000016 0.455090
vn -0.890445 -0.000016 0.455091
vn -0.157523 0.040794 0.986672
vn -0.157533 0.039079 0.986740
vn -0.157654 -0.000016 0.987494
vn -0.157654 -0.000016 0.987494
vn 0.587279 0.042827 0.808251
vn 0.457150 0.040575 0.888463
vn 0.457527 -0.000017 0.889196
vn 0.587786 -0.000017 0.809017
vn 0.808261 0.042850 0.587263
vn 0.809017 -0.000017 0.587786
vn 0.986989 0.042678 0.155022
vn 0.987881 -0.000017 0.155215
vn 0.986994 0.042646 -0.154996
vn 0.987881 -0.000017 -0.155214
vn 0.264407 0.927205 -0.265293
vn 0.113268 0.930401 -0.348603
vn 0.651208 0.390990 -0.650427
vn 0.543046 0.382668 -0.747440
vn -0.057975 0.927205 -0.370041
vn -0.000000 0.382667 -0.923886
vn -0.144527 0.390990 -0.908977
vn -0.266309 0.927090 -0.263788
vn -0.652206 0.390712 -0.649594
vn -0.332981 0.927076 -0.172202
vn -0.819230 0.390704 -0.419777
vn -0.351851 0.928819 0.116171
vn -0.911930 0.382667 -0.148154
vn -0.203637 0.938069 0.280282
vn -0.822669 0.382670 0.420452
vn -0.822669 0.382670 0.420452
vn -0.001225 0.928850 0.370455
vn -0.145655 0.382669 0.912332
vn -0.145655 0.382669 0.912332
vn 0.223246 0.925450 0.306112
vn 0.422703 0.382669 0.821515
vn 0.542394 0.386525 0.745928
vn 0.305970 0.925617 0.222746
vn 0.745886 0.386938 0.542156
vn 0.370401 0.927102 0.057310
vn 0.909428 0.390717 0.142410
vn 0.370499 0.927090 -0.056876
vn 0.909468 0.390710 -0.142176
s 1
g Light1
usemtl initialShadingGroup
f 1/9/1 2/11/2 7/2/3
f 7/3/3 2/11/2 3/13/4
f 9/17/5 4/19/6 7/4/3 3/13/4 8/15/7
f 10/21/8 5/23/9 7/5/3 4/19/6
f 11/25/10 6/27/11 7/6/3 5/23/9
f 13/31/12 1/1/1 7/7/3 6/27/11 12/29/13
f 21/8/14 2/11/2 1/9/1 17/33/15
f 25/10/16 3/13/4 2/11/2 21/8/14
f 29/12/17 8/15/7 3/13/4 25/10/16
f 33/14/18 9/17/5 8/15/7 29/12/17
f 37/16/19 4/19/6 9/17/5 33/14/18
f 41/18/20 10/21/8 4/19/6 37/16/19
f 45/20/21 5/23/9 10/21/8 41/18/22
f 49/22/23 11/25/10 5/23/9 45/20/21
f 53/24/24 6/27/11 11/25/10 49/22/23
f 57/26/25 12/29/13 6/27/11 53/24/24
f 61/28/26 13/31/12 12/29/13 57/26/25
f 17/30/15 1/1/1 13/31/12 61/28/26
f 16/37/27 17/30/15 61/28/26 60/59/28
f 14/32/29 15/35/30 59/58/31 58/83/32
f 15/35/30 16/37/27 60/59/28 59/58/31
f 17/33/15 16/36/27 20/39/33 21/8/14
f 16/36/27 15/34/30 19/38/34 20/39/33
f 15/34/30 14/61/29 18/63/35 19/38/34
f 21/8/14 20/39/33 24/41/36 25/10/16
f 20/39/33 19/38/34 23/40/37 24/41/36
f 19/38/34 18/63/35 22/64/38 23/40/37
f 25/10/16 24/41/36 28/43/39 29/12/17
f 24/41/36 23/40/37 27/42/40 28/43/39
f 23/40/37 22/64/38 26/66/41 27/42/40
f 29/12/17 28/43/39 32/45/42 33/14/18
f 28/43/39 27/42/40 31/44/43 32/45/42
f 27/42/40 26/66/41 30/69/44 31/44/43
f 33/14/18 32/45/42 36/47/45 37/16/19
f 32/45/42 31/44/43 35/46/46 36/47/45
f 31/44/43 30/69/44 34/71/47 35/46/46
f 37/16/19 36/47/45 40/49/48 41/18/20
f 36/47/45 35/46/46 39/48/49 40/49/48
f 35/46/46 34/71/50 38/72/51 39/48/49
f 41/18/22 40/49/52 44/51/53 45/20/21
f 40/49/52 39/48/54 43/50/55 44/51/53
f 39/48/54 38/72/56 42/74/57 43/50/55
f 45/20/21 44/51/53 48/53/58 49/22/23
f 44/51/53 43/50/55 47/52/59 48/53/58
f 43/50/55 42/74/60 46/77/61 47/52/59
f 49/22/23 48/53/58 52/55/62 53/24/24
f 48/53/58 47/52/59 51/54/63 52/55/62
f 47/52/59 46/77/61 50/78/64 51/54/63
f 53/24/24 52/55/62 56/57/65 57/26/25
f 52/55/62 51/54/63 55/56/66 56/57/65
f 51/54/63 50/78/64 54/80/67 55/56/66
f 57/26/25 56/57/65 60/59/28 61/28/26
f 56/57/65 55/56/66 59/58/31 60/59/28
f 55/56/66 54/80/67 58/83/32 59/58/31
s 3
f 74/120/68 77/60/69 18/63/70 14/61/71
f 77/60/69 80/62/72 22/64/73 18/63/70
f 22/64/73 80/62/72 83/65/74 26/66/75
f 26/66/75 83/65/74 86/67/76 30/69/77
f 86/67/76 89/68/78 34/71/79 30/69/77
f 89/68/78 92/70/80 38/72/81 34/71/79
f 38/72/81 92/70/80 95/73/82 42/74/83
f 42/74/83 95/73/82 98/75/84 46/77/85
f 98/75/84 101/76/86 50/78/87 46/77/85
f 50/78/87 101/76/86 104/79/88 54/80/89
f 54/80/89 104/79/88 107/81/90 58/83/91
f 107/81/90 74/82/68 14/32/71 58/83/91
s 4
f 79/121/92 76/84/93 62/85/94 63/86/95
s 5
f 82/122/96 79/87/97 63/88/98 64/89/99
f 85/123/100 82/90/96 64/91/99 65/92/101
f 88/124/102 85/93/100 65/94/101 66/95/103
f 91/125/104 88/96/102 66/97/103 67/98/105
s 6
f 94/126/106 91/99/107 67/100/108 68/101/109
s 7
f 97/127/110 94/102/111 68/103/112 69/104/113
s 4
f 100/128/114 97/105/115 69/106/116 70/107/117
f 103/129/118 100/108/114 70/109/117 71/110/119
f 106/130/120 103/111/118 71/112/119 72/113/121
f 109/131/122 106/114/120 72/115/121 73/116/123
f 76/132/93 109/117/122 73/118/123 62/119/94
s 3
f 74/120/68 75/136/124 78/138/125 77/60/69
s 4
f 75/135/126 76/84/93 79/121/92 78/139/127
s 3
f 77/60/69 78/138/125 81/141/128 80/62/72
s 5
f 78/137/129 79/87/97 82/122/96 81/142/130
s 3
f 80/62/72 81/141/128 84/144/131 83/65/74
s 5
f 81/140/130 82/90/96 85/123/100 84/145/132
s 3
f 83/65/74 84/144/131 87/147/133 86/67/76
s 5
f 84/143/132 85/93/100 88/124/102 87/148/134
s 3
f 86/67/76 87/147/133 90/150/135 89/68/78
s 5
f 87/146/134 88/96/102 91/125/104 90/151/136
s 3
f 89/68/78 90/150/135 93/153/137 92/70/80
s 6
f 90/149/138 91/99/107 94/126/106 93/154/139
s 3
f 92/70/80 93/153/137 96/156/140 95/73/82
s 7
f 93/152/141 94/102/111 97/127/110 96/157/142
s 3
f 95/73/82 96/156/140 99/159/143 98/75/84
s 4
f 96/155/144 97/105/115 100/128/114 99/160/145
s 3
f 98/75/84 99/159/143 102/162/146 101/76/86
s 4
f 99/158/145 100/108/114 103/129/118 102/163/147
s 3
f 101/76/86 102/162/146 105/165/148 104/79/88
s 4
f 102/161/147 103/111/118 106/130/120 105/166/149
s 3
f 104/79/88 105/165/148 108/168/150 107/81/90
s 4
f 105/164/149 106/114/120 109/131/122 108/169/151
f 76/132/93 75/134/126 108/167/151 109/117/122
s 3
f 75/133/124 74/82/68 107/81/90 108/168/150
