# This file uses centimeters as units for non-parametric coordinates.

mtllib Pole_Sign.mtl
g default
v 0.533282 -0.089499 -0.763499
v 0.660132 -0.089850 -0.617198
v 0.740531 -0.090200 -0.441264
v 0.060650 -0.089499 -1.030009
v 0.246437 -0.089850 -0.975505
v 0.409207 -0.090200 -0.870982
v -0.481047 -0.089499 -0.998698
v -0.295281 -0.089850 -1.053294
v -0.101853 -0.090200 -1.053355
v -0.919834 -0.089499 -0.679515
v -0.793078 -0.089850 -0.825877
v -0.630388 -0.090200 -0.930491
v -1.116388 -0.089499 -0.173777
v -1.088881 -0.089850 -0.365428
v -1.008589 -0.090200 -0.541392
v -1.008310 -0.089499 0.357961
v -1.088811 -0.089850 0.181814
v -1.116388 -0.090200 -0.009593
v -0.629919 -0.089499 0.746846
v -0.792883 -0.089850 0.642171
v -0.919554 -0.090200 0.496084
v -0.101343 -0.089499 0.869436
v -0.295021 -0.089850 0.869497
v -0.480578 -0.090200 0.815053
v 0.409597 -0.089499 0.686788
v 0.246660 -0.089850 0.791555
v 0.061161 -0.090200 0.846090
v 0.740676 -0.089499 0.256917
v 0.660268 -0.089850 0.433126
v 0.533671 -0.090200 0.579305
v 0.786786 -0.089499 -0.283732
v 0.814402 -0.089850 -0.092051
v 0.786932 -0.090200 0.099386
v 0.421978 20.250241 -0.479747
v 0.501465 20.250241 -0.285227
v 0.677189 20.172754 -0.380534
v 0.740676 19.978988 -0.440776
v 0.660268 19.979340 -0.616984
v 0.533671 19.979689 -0.763163
v 0.451857 20.173132 -0.730998
v 0.292441 20.250241 -0.610484
v 0.106530 20.250241 -0.727671
v 0.388938 20.172806 -0.785472
v 0.409597 19.978988 -0.870646
v 0.246660 19.979340 -0.975413
v 0.061161 19.979689 -1.029948
v 0.009970 20.173073 -0.958628
v -0.059248 20.250241 -0.771098
v -0.272552 20.250241 -0.766246
v -0.072511 20.172845 -0.970439
v -0.101343 19.978988 -1.053294
v -0.295021 19.979337 -1.053355
v -0.480578 19.979689 -0.998912
v -0.485163 20.173093 -0.911204
v -0.441931 20.250241 -0.716075
v -0.581090 20.250241 -0.616587
v -0.561002 20.172815 -0.876536
v -0.629919 19.978988 -0.930705
v -0.792883 19.979340 -0.826030
v -0.919554 19.979689 -0.679942
v -0.876019 20.173105 -0.603648
v -0.734124 20.250241 -0.462901
v -0.824702 20.250241 -0.301860
v -0.920850 20.172897 -0.533824
v -1.008310 19.978988 -0.541819
v -1.088811 19.979340 -0.365672
v -1.116388 19.979689 -0.174266
v -1.038518 20.173081 -0.133708
v -0.843049 20.250241 -0.091929
v -0.824702 20.250241 0.118001
v -1.038492 20.172845 -0.050425
v -1.116388 19.978988 -0.010081
v -1.088881 19.979340 0.181569
v -1.008589 19.979689 0.357534
v -0.921026 20.173135 0.349752
v -0.734124 20.250241 0.279043
v -0.581090 20.250241 0.432729
v -0.876151 20.172865 0.419545
v -0.919834 19.978988 0.495656
v -0.793078 19.979340 0.642019
v -0.630388 19.979689 0.746633
v -0.561269 20.173051 0.692586
v -0.441931 20.250241 0.532216
v -0.272552 20.250241 0.582387
v -0.485409 20.172857 0.727224
v -0.481047 19.978988 0.814840
v -0.295281 19.979340 0.869436
v -0.101853 19.979689 0.869497
v -0.072787 20.173081 0.786641
v -0.059248 20.250241 0.587240
v 0.106530 20.250241 0.543813
v 0.009686 20.172835 0.774770
v 0.060650 19.978988 0.846151
v 0.246437 19.979340 0.791646
v 0.409207 19.979689 0.687124
v 0.388742 20.173044 0.601827
v 0.292441 20.250241 0.426626
v 0.421978 20.250241 0.295888
v 0.451626 20.172894 0.547323
v 0.533282 19.978988 0.579641
v 0.660132 19.979340 0.433339
v 0.740531 19.979689 0.257406
v 0.677135 20.172990 0.196950
v 0.501465 20.250241 0.101369
v 0.523338 20.250241 -0.091929
v 0.700732 20.172806 0.116475
v 0.786786 19.978988 0.099874
v 0.814402 19.979340 -0.091807
v 0.786932 19.979689 -0.283244
v 0.700837 20.173044 -0.300059
v 0.356300 20.250241 -0.091929
v 0.498009 20.250241 -0.284220
v 0.274344 20.250241 -0.369059
v 0.290089 20.250241 -0.607768
v 0.056027 20.250241 -0.557505
v -0.059758 20.250241 -0.767558
v -0.229698 20.250241 -0.599162
v -0.440442 20.250241 -0.712809
v -0.492289 20.250241 -0.478648
v -0.731116 20.250241 -0.460948
v -0.648242 20.250241 -0.236308
v -0.839444 20.250241 -0.091929
v -0.648242 20.250241 0.052450
v -0.731116 20.250241 0.277089
v -0.492289 20.250241 0.294790
v -0.440442 20.250241 0.528951
v -0.229698 20.250241 0.415304
v -0.059758 20.250241 0.583700
v 0.056027 20.250241 0.373647
v 0.290089 20.250241 0.423909
v 0.274344 20.250241 0.185201
v 0.498009 20.250241 0.100362
v 0.588177 20.172110 -0.577250
v 0.202567 20.172550 -0.903605
v -0.290839 20.172351 -0.968974
v -0.729458 20.172589 -0.767680
v -1.008988 20.172120 -0.347636
v -1.008987 20.172125 0.163808
v -0.729454 20.172592 0.583852
v -0.290830 20.172346 0.785116
v 0.202580 20.172548 0.719747
v 0.588183 20.172105 0.393361
v 0.729936 20.171946 -0.091929
v -0.170240 20.250241 -0.091929
vt 0.011792 0.000600
vt 0.287845 0.000495
vt 0.038595 0.000581
vt 0.065402 0.000566
vt 0.092209 0.000553
vt 0.119016 0.000542
vt 0.145824 0.000534
vt 0.172631 0.000528
vt 0.199440 0.000524
vt 0.226247 0.000523
vt 0.253054 0.000524
vt 0.279861 0.000528
vt 0.279823 0.988665
vt 0.375903 0.053900
vt 0.012264 0.988850
vt 0.020236 0.988691
vt 0.365508 0.069739
vt 0.039027 0.988597
vt 0.046996 0.988547
vt 0.348313 0.077576
vt 0.065783 0.988563
vt 0.073752 0.988524
vt 0.329613 0.074873
vt 0.092537 0.988556
vt 0.100506 0.988520
vt 0.315335 0.062488
vt 0.119292 0.988552
vt 0.127261 0.988515
vt 0.310021 0.044359
vt 0.146046 0.988538
vt 0.154015 0.988499
vt 0.315358 0.026237
vt 0.172800 0.988526
vt 0.180769 0.988496
vt 0.329651 0.013870
vt 0.199555 0.988531
vt 0.207523 0.988491
vt 0.348354 0.011190
vt 0.226309 0.988524
vt 0.234277 0.988492
vt 0.365540 0.019048
vt 0.253064 0.988535
vt 0.261034 0.988514
vt 0.375745 0.034950
vt 0.375733 0.053850
vt 0.019773 0.000560
vt 0.046579 0.000542
vt 0.073386 0.000527
vt 0.100193 0.000515
vt 0.127000 0.000505
vt 0.153808 0.000498
vt 0.180616 0.000492
vt 0.207423 0.000489
vt 0.234230 0.000488
vt 0.261039 0.000490
vt 0.287796 0.988753
vt 0.365624 0.069872
vt 0.348338 0.077750
vt 0.329540 0.075033
vt 0.315187 0.062584
vt 0.309843 0.044359
vt 0.315210 0.026141
vt 0.329578 0.013710
vt 0.348379 0.011016
vt 0.365655 0.018915
vt 0.375915 0.034900
vt 0.297249 0.000514
vt 0.002380 0.000589
vt 0.029179 0.000570
vt 0.055985 0.000554
vt 0.082792 0.000540
vt 0.109600 0.000529
vt 0.136405 0.000519
vt 0.163211 0.000513
vt 0.190020 0.000508
vt 0.216826 0.000506
vt 0.243634 0.000506
vt 0.270443 0.000509
vt 0.371987 0.063452
vt 0.285454 0.998979
vt 0.385238 0.058828
vt 0.002868 0.989041
vt 0.297205 0.988971
vt 0.373955 0.076340
vt 0.014664 0.999088
vt 0.356486 0.075631
vt 0.018901 0.998953
vt 0.370807 0.079065
vt 0.029641 0.988548
vt 0.351863 0.087687
vt 0.040866 0.998885
vt 0.337855 0.077517
vt 0.045259 0.998815
vt 0.347736 0.088278
vt 0.056397 0.988474
vt 0.327136 0.085291
vt 0.067570 0.998873
vt 0.322688 0.070162
vt 0.071991 0.998801
vt 0.323344 0.083556
vt 0.083152 0.988457
vt 0.307629 0.069937
vt 0.094305 0.998855
vt 0.310750 0.054670
vt 0.098704 0.998794
vt 0.305376 0.066450
vt 0.109906 0.988460
vt 0.299494 0.046442
vt 0.121076 0.998849
vt 0.310763 0.034049
vt 0.125487 0.998782
vt 0.299494 0.042276
vt 0.136659 0.988450
vt 0.305399 0.022275
vt 0.147861 0.998842
vt 0.322720 0.018572
vt 0.152260 0.998767
vt 0.307651 0.018788
vt 0.163413 0.988429
vt 0.323381 0.005188
vt 0.174560 0.998779
vt 0.337896 0.011236
vt 0.178985 0.998830
vt 0.327173 0.003450
vt 0.190167 0.988436
vt 0.347777 0.000488
vt 0.201344 0.998833
vt 0.356524 0.013145
vt 0.205762 0.998764
vt 0.351903 0.001079
vt 0.216921 0.988427
vt 0.370838 0.009722
vt 0.228076 0.998767
vt 0.372011 0.025343
vt 0.232486 0.998820
vt 0.373987 0.012445
vt 0.243676 0.988435
vt 0.385249 0.029971
vt 0.254801 0.998773
vt 0.377003 0.044401
vt 0.259221 0.998821
vt 0.386424 0.034000
vt 0.270435 0.988492
vt 0.386413 0.054798
vt 0.281178 0.998942
vt 0.368785 0.044395
vt 0.364741 0.058009
vt 0.354009 0.067264
vt 0.339967 0.069302
vt 0.327065 0.063376
vt 0.319418 0.051458
vt 0.319426 0.037272
vt 0.327088 0.025363
vt 0.339998 0.019453
vt 0.354038 0.021509
vt 0.364758 0.030777
vt 0.296188 0.999476
vt 0.004436 0.999512
vt 0.380758 0.068642
vt 0.030336 0.998915
vt 0.361479 0.084918
vt 0.056806 0.998893
vt 0.336843 0.088160
vt 0.082645 0.998914
vt 0.314961 0.078092
vt 0.109632 0.998821
vt 0.300993 0.057128
vt 0.136941 0.998813
vt 0.301009 0.031578
vt 0.163925 0.998873
vt 0.315003 0.010631
vt 0.189775 0.998867
vt 0.336898 0.000591
vt 0.216408 0.998833
vt 0.361530 0.003864
vt 0.243400 0.998805
vt 0.380788 0.020165
vt 0.270270 0.998856
vt 0.387846 0.044407
vt 0.342907 0.044379
vn 0.934880 0.000000 -0.354965
vn 0.841267 -0.000000 -0.540620
vn 0.841292 0.003896 -0.540566
vn 0.934798 0.003759 -0.355159
vn 0.711182 -0.000001 -0.703008
vn 0.711351 0.003661 -0.702828
vn 0.594470 0.000000 -0.804118
vn 0.415445 -0.000000 -0.909619
vn 0.415538 0.003940 -0.909567
vn 0.594266 0.003832 -0.804260
vn 0.218248 -0.000001 -0.975893
vn 0.218492 0.003639 -0.975832
vn 0.065411 -0.000000 -0.997859
vn -0.142303 -0.000001 -0.989823
vn -0.142220 0.003948 -0.989827
vn 0.065161 0.003820 -0.997867
vn -0.344005 -0.000001 -0.938968
vn -0.343751 0.003672 -0.939054
vn -0.484426 0.000001 -0.874832
vn -0.654829 0.000000 -0.755777
vn -0.654899 0.003989 -0.755706
vn -0.484609 0.003679 -0.874723
vn -0.797030 -0.000000 -0.603940
vn -0.796812 0.003864 -0.604215
vn -0.880504 0.000001 -0.474039
vn -0.959487 0.000000 -0.281752
vn -0.959496 0.003887 -0.281694
vn -0.880579 0.003656 -0.473886
vn -0.997017 -0.000000 -0.077180
vn -0.996989 0.003752 -0.077452
vn -0.997015 0.000000 0.077214
vn -0.959490 -0.000000 0.281744
vn -0.959499 0.003887 0.281684
vn -0.996992 0.003754 0.077418
vn -0.880488 -0.000001 0.474069
vn -0.880595 0.003653 0.473855
vn -0.797009 0.000000 0.603968
vn -0.654836 -0.000000 0.755771
vn -0.654906 0.003989 0.755700
vn -0.796834 0.003866 0.604187
vn -0.484396 -0.000001 0.874849
vn -0.484640 0.003676 0.874706
vn -0.343972 0.000001 0.938980
vn -0.142310 0.000001 0.989822
vn -0.142231 0.003949 0.989826
vn -0.343784 0.003674 0.939042
vn 0.065445 0.000000 0.997856
vn 0.065126 0.003818 0.997870
vn 0.218282 0.000001 0.975886
vn 0.415436 0.000000 0.909623
vn 0.415530 0.003940 0.909571
vn 0.218457 0.003642 0.975840
vn 0.594498 -0.000000 0.804097
vn 0.594237 0.003829 0.804281
vn 0.711206 0.000001 0.702983
vn 0.841262 0.000000 0.540627
vn 0.841287 0.003895 0.540575
vn 0.711326 0.003664 0.702853
vn 0.934892 -0.000000 0.354933
vn 0.934786 0.003757 0.355192
vn 0.978380 0.000001 0.206813
vn 1.000000 -0.000000 0.000005
vn 0.999992 0.003948 0.000005
vn 0.978421 0.003753 0.206586
vn 0.978373 -0.000001 -0.206847
vn 0.978429 0.003750 -0.206551
vn 0.257140 0.963830 -0.070075
vn 0.234531 0.960151 -0.152001
vn 0.000000 1.000000 0.000000
vn 0.000000 1.000000 0.000000
vn 0.167046 0.964341 -0.205283
vn 0.000000 1.000000 0.000000
vn 0.865158 0.383627 -0.323003
vn 0.901680 0.385694 -0.195485
vn 0.341283 0.929170 -0.142016
vn 0.355524 0.933228 -0.051848
vn 0.268212 0.928561 -0.256587
vn 0.198982 0.932047 -0.302810
vn 0.650696 0.381929 -0.656296
vn 0.550216 0.385971 -0.740465
vn 0.112586 0.961453 -0.250864
vn 0.000000 1.000000 0.000000
vn 0.030389 0.963634 -0.265491
vn 0.000000 1.000000 0.000000
vn 0.090552 0.930855 -0.353989
vn 0.001261 0.932751 -0.360520
vn 0.193116 0.382619 -0.903498
vn 0.062659 0.386205 -0.920282
vn -0.040040 0.961856 -0.270611
vn 0.000000 1.000000 0.000000
vn -0.115569 0.962677 -0.244736
vn 0.000000 1.000000 0.000000
vn -0.109541 0.932014 -0.345472
vn -0.193041 0.934231 -0.299913
vn -0.324673 0.383696 -0.864503
vn -0.442770 0.384711 -0.809908
vn -0.175128 0.963072 -0.204506
vn 0.000000 1.000000 0.000000
vn -0.215147 0.963999 -0.156265
vn 0.000000 1.000000 0.000000
vn -0.262787 0.935446 -0.236396
vn -0.331156 0.927348 -0.174248
vn -0.735057 0.388385 -0.555741
vn -0.809884 0.381105 -0.445922
vn -0.268916 0.959763 -0.080866
vn 0.000000 1.000000 0.000000
vn -0.261952 0.965081 -0.000095
vn 0.000000 1.000000 0.000000
vn -0.369243 0.928583 -0.037317
vn -0.369783 0.928355 0.037645
vn -0.921374 0.383301 -0.064428
vn -0.921406 0.383047 0.065472
vn -0.269060 0.959769 0.080313
vn 0.000000 1.000000 0.000000
vn -0.215276 0.963994 0.156117
vn 0.000000 1.000000 0.000000
vn -0.330448 0.927598 0.174259
vn -0.263071 0.935228 0.236943
vn -0.809271 0.381345 0.446829
vn -0.734540 0.388129 0.556603
vn -0.175530 0.963076 0.204143
vn 0.000000 1.000000 0.000000
vn -0.115744 0.962681 0.244641
vn 0.000000 1.000000 0.000000
vn -0.192458 0.934475 0.299527
vn -0.109437 0.931779 0.346137
vn -0.441783 0.384944 0.810337
vn -0.323704 0.383384 0.865004
vn -0.040574 0.961853 0.270540
vn 0.000000 1.000000 0.000000
vn 0.030184 0.963638 0.265501
vn 0.000000 1.000000 0.000000
vn 0.001508 0.932971 0.359947
vn 0.090996 0.930607 0.354528
vn 0.063693 0.386418 0.920122
vn 0.194189 0.382330 0.903390
vn 0.112072 0.961451 0.251100
vn 0.000000 1.000000 0.000000
vn 0.166893 0.964347 0.205380
vn 0.000000 1.000000 0.000000
vn 0.198859 0.932277 0.302184
vn 0.268885 0.928317 0.256767
vn 0.550971 0.386169 0.739800
vn 0.651551 0.381656 0.655607
vn 0.234241 0.960146 0.152482
vn 0.000000 1.000000 0.000000
vn 0.257095 0.963829 0.070261
vn 0.000000 1.000000 0.000000
vn 0.340859 0.929396 0.141557
vn 0.356159 0.932995 0.051689
vn 0.865419 0.383883 0.322001
vn 0.902006 0.385430 0.194497
vn 0.272595 0.962129 0.000273
vn 0.000000 1.000000 0.000000
vn 0.309756 0.930352 -0.196206
vn 0.770522 0.394212 -0.500892
vn 0.152555 0.932889 -0.326260
vn 0.373220 0.396819 -0.838595
vn -0.048695 0.933680 -0.354782
vn -0.136984 0.398108 -0.907053
vn -0.231390 0.936096 -0.264919
vn -0.592699 0.400909 -0.698556
vn -0.354277 0.929544 -0.102153
vn -0.880454 0.393237 -0.264887
vn -0.354490 0.929539 0.101462
vn -0.880862 0.393240 0.263524
vn -0.231933 0.936084 0.264488
vn -0.593801 0.400936 0.697604
vn -0.049375 0.933695 0.354649
vn -0.138383 0.398010 0.906884
vn 0.151880 0.932912 0.326508
vn 0.371849 0.396732 0.839245
vn 0.309359 0.930359 0.196799
vn 0.769756 0.394203 0.502075
vn 0.356572 0.934268 0.000353
vn 0.916827 0.399285 0.000745
vn 0.000000 1.000000 0.000000
s 1
g Pole_Sign
usemtl lambert23SG
f 3/2/1 2/67/2 38/83/3 37/56/4
f 2/68/2 1/1/5 39/15/6 38/82/3
f 6/46/7 5/69/8 45/89/9 44/16/10
f 5/69/8 4/3/11 46/18/12 45/89/9
f 9/47/13 8/70/14 52/95/15 51/19/16
f 8/70/14 7/4/17 53/21/18 52/95/15
f 12/48/19 11/71/20 59/101/21 58/22/22
f 11/71/20 10/5/23 60/24/24 59/101/21
f 15/49/25 14/72/26 66/107/27 65/25/28
f 14/72/26 13/6/29 67/27/30 66/107/27
f 18/50/31 17/73/32 73/113/33 72/28/34
f 17/73/32 16/7/35 74/30/36 73/113/33
f 21/51/37 20/74/38 80/119/39 79/31/40
f 20/74/38 19/8/41 81/33/42 80/119/39
f 24/52/43 23/75/44 87/125/45 86/34/46
f 23/75/44 22/9/47 88/36/48 87/125/45
f 27/53/49 26/76/50 94/131/51 93/37/52
f 26/76/50 25/10/53 95/39/54 94/131/51
f 30/54/55 29/77/56 101/137/57 100/40/58
f 29/77/56 28/11/59 102/42/60 101/137/57
f 33/55/61 32/78/62 108/143/63 107/43/64
f 32/78/62 31/12/65 109/13/66 108/143/63
s 12
f 35/14/67 34/79/68 113/147/69 112/45/70
f 34/79/68 41/57/71 114/17/72 113/147/69
s 1
f 37/56/4 36/80/73 110/145/74 109/13/66
s 12
f 36/81/75 35/14/67 110/144/76
f 41/57/71 40/84/77 43/88/78
s 1
f 40/85/79 39/15/6 44/16/10 43/87/80
s 12
f 41/57/71 42/86/81 115/148/82 114/17/72
f 42/86/81 48/58/83 116/20/84 115/148/82
f 48/58/83 47/90/85 50/94/86
s 1
f 47/91/87 46/18/12 51/19/16 50/93/88
s 12
f 48/58/83 49/92/89 117/149/90 116/20/84
f 49/92/89 55/59/91 118/23/92 117/149/90
f 55/59/91 54/96/93 57/100/94
s 1
f 54/97/95 53/21/18 58/22/22 57/99/96
s 12
f 55/59/91 56/98/97 119/150/98 118/23/92
f 56/98/97 62/60/99 120/26/100 119/150/98
f 62/60/99 61/102/101 64/106/102
s 1
f 61/103/103 60/24/24 65/25/28 64/105/104
s 12
f 62/60/99 63/104/105 121/151/106 120/26/100
f 63/104/105 69/61/107 122/29/108 121/151/106
f 69/61/107 68/108/109 71/112/110
s 1
f 68/109/111 67/27/30 72/28/34 71/111/112
s 12
f 69/61/107 70/110/113 123/152/114 122/29/108
f 70/110/113 76/62/115 124/32/116 123/152/114
f 76/62/115 75/114/117 78/118/118
s 1
f 75/115/119 74/30/36 79/31/40 78/117/120
s 12
f 76/62/115 77/116/121 125/153/122 124/32/116
f 77/116/121 83/63/123 126/35/124 125/153/122
f 83/63/123 82/120/125 85/124/126
s 1
f 82/121/127 81/33/42 86/34/46 85/123/128
s 12
f 83/63/123 84/122/129 127/154/130 126/35/124
f 84/122/129 90/64/131 128/38/132 127/154/130
f 90/64/131 89/126/133 92/130/134
s 1
f 89/127/135 88/36/48 93/37/52 92/129/136
s 12
f 90/64/131 91/128/137 129/155/138 128/38/132
f 91/128/137 97/65/139 130/41/140 129/155/138
f 97/65/139 96/132/141 99/136/142
s 1
f 96/133/143 95/39/54 100/40/58 99/135/144
s 12
f 97/65/139 98/134/145 131/156/146 130/41/140
f 98/134/145 104/66/147 132/44/148 131/156/146
f 104/66/147 103/138/149 106/142/150
s 1
f 103/139/151 102/42/60 107/43/64 106/141/152
s 12
f 104/66/147 105/140/153 111/146/154 132/44/148
f 105/140/153 35/14/67 112/45/70 111/146/154
s 1
f 1/1/5 6/46/7 44/16/10 39/15/6
f 4/3/11 9/47/13 51/19/16 46/18/12
f 7/4/17 12/48/19 58/22/22 53/21/18
f 10/5/23 15/49/25 65/25/28 60/24/24
f 13/6/29 18/50/31 72/28/34 67/27/30
f 16/7/35 21/51/37 79/31/40 74/30/36
f 19/8/41 24/52/43 86/34/46 81/33/42
f 22/9/47 27/53/49 93/37/52 88/36/48
f 25/10/53 30/54/55 100/40/58 95/39/54
f 28/11/59 33/55/61 107/43/64 102/42/60
f 31/12/65 3/2/1 37/56/4 109/13/66
s 12
f 40/84/77 41/57/71 34/79/68 133/159/155
f 34/79/68 35/14/67 36/81/75 133/159/155
s 1
f 36/80/73 37/56/4 38/83/3 133/157/156
f 38/82/3 39/15/6 40/85/79 133/158/156
s 12
f 47/90/85 48/58/83 42/86/81 134/161/157
f 42/86/81 41/57/71 43/88/78 134/161/157
s 1
f 43/87/80 44/16/10 45/89/9 134/160/158
f 45/89/9 46/18/12 47/91/87 134/160/158
s 12
f 54/96/93 55/59/91 49/92/89 135/163/159
f 49/92/89 48/58/83 50/94/86 135/163/159
s 1
f 50/93/88 51/19/16 52/95/15 135/162/160
f 52/95/15 53/21/18 54/97/95 135/162/160
s 12
f 61/102/101 62/60/99 56/98/97 136/165/161
f 56/98/97 55/59/91 57/100/94 136/165/161
s 1
f 57/99/96 58/22/22 59/101/21 136/164/162
f 59/101/21 60/24/24 61/103/103 136/164/162
s 12
f 68/108/109 69/61/107 63/104/105 137/167/163
f 63/104/105 62/60/99 64/106/102 137/167/163
s 1
f 64/105/104 65/25/28 66/107/27 137/166/164
f 66/107/27 67/27/30 68/109/111 137/166/164
s 12
f 75/114/117 76/62/115 70/110/113 138/169/165
f 70/110/113 69/61/107 71/112/110 138/169/165
s 1
f 71/111/112 72/28/34 73/113/33 138/168/166
f 73/113/33 74/30/36 75/115/119 138/168/166
s 12
f 82/120/125 83/63/123 77/116/121 139/171/167
f 77/116/121 76/62/115 78/118/118 139/171/167
s 1
f 78/117/120 79/31/40 80/119/39 139/170/168
f 80/119/39 81/33/42 82/121/127 139/170/168
s 12
f 89/126/133 90/64/131 84/122/129 140/173/169
f 84/122/129 83/63/123 85/124/126 140/173/169
s 1
f 85/123/128 86/34/46 87/125/45 140/172/170
f 87/125/45 88/36/48 89/127/135 140/172/170
s 12
f 96/132/141 97/65/139 91/128/137 141/175/171
f 91/128/137 90/64/131 92/130/134 141/175/171
s 1
f 92/129/136 93/37/52 94/131/51 141/174/172
f 94/131/51 95/39/54 96/133/143 141/174/172
s 12
f 103/138/149 104/66/147 98/134/145 142/177/173
f 98/134/145 97/65/139 99/136/142 142/177/173
s 1
f 99/135/144 100/40/58 101/137/57 142/176/174
f 101/137/57 102/42/60 103/139/151 142/176/174
s 12
f 110/144/76 35/14/67 105/140/153 143/179/175
f 105/140/153 104/66/147 106/142/150 143/179/175
s 1
f 106/141/152 107/43/64 108/143/63 143/178/176
f 108/143/63 109/13/66 110/145/74 143/178/176
s 12
f 131/156/146 132/44/148 111/146/154 144/180/177
f 111/146/154 112/45/70 113/147/69 144/180/177
f 113/147/69 114/17/72 115/148/82 144/180/177
f 115/148/82 116/20/84 117/149/90 144/180/177
f 117/149/90 118/23/92 119/150/98 144/180/177
f 119/150/98 120/26/100 121/151/106 144/180/177
f 121/151/106 122/29/108 123/152/114 144/180/177
f 123/152/114 124/32/116 125/153/122 144/180/177
f 125/153/122 126/35/124 127/154/130 144/180/177
f 127/154/130 128/38/132 129/155/138 144/180/177
f 129/155/138 130/41/140 131/156/146 144/180/177
