# This file uses centimeters as units for non-parametric coordinates.

mtllib Mine_Tunnel_003.mtl
g default
v -4.674498 16.344372 2.851390
v -3.596068 16.315678 -0.090199
v -2.740172 12.746964 -2.424611
v -2.190672 9.613967 -3.923390
v -2.001280 6.141015 -4.439809
v -2.190672 2.668063 -3.923390
v -9.104063 0.600632 14.408519
v -8.837218 6.141015 13.143016
v -8.801939 9.613965 13.228221
v -9.489317 14.362881 13.178660
v -8.143858 16.249722 12.314281
v -7.065489 16.226784 9.372752
v -5.869993 15.891697 6.112071
v -57.500548 9.065434 -57.437734
v -55.806700 14.403454 -56.352284
v -57.886168 17.639927 -55.426869
v -61.530699 16.566731 -53.881520
v -63.561583 17.608620 -51.814137
v -65.592345 16.870946 -49.746755
v -67.818907 15.973065 -46.340627
v -68.878294 13.661790 -46.401540
v -69.449156 9.065432 -46.867604
v -70.133421 -0.317867 -45.123769
v -56.989683 -0.071212 -58.504567
v -7.715391 9.065434 -7.727162
v -6.413939 13.661793 -6.078176
v -7.059752 16.733418 -5.500966
v -10.704405 16.566731 -3.955678
v -12.735167 17.608620 -1.888234
v -14.766051 16.870946 0.179149
v -16.992613 15.973065 3.585277
v -18.051939 13.661790 3.524364
v -18.622862 9.065432 3.058299
v -19.307066 -0.317867 4.802196
v -6.163328 -0.071212 -8.578664
v -57.348082 4.497111 -57.569020
v -6.939390 4.497111 -8.152944
v -69.791197 4.373784 -45.995717
v -18.964964 4.373784 3.930247
v -31.576475 -0.071212 -33.541554
v -32.143736 4.497111 -32.860951
v -32.710997 9.065434 -32.180348
v -31.228575 13.661793 -30.753285
v -32.472899 16.733418 -30.463918
v -36.117552 16.566731 -28.918630
v -38.148375 17.608620 -26.851186
v -40.179198 16.870946 -24.783742
v -42.405760 15.973065 -21.377675
v -43.465147 13.661790 -21.438527
v -40.404845 9.065432 -19.931386
v -42.053282 4.373784 -20.437612
v -44.720274 -0.317867 -20.160817
v -13.787291 -0.071212 -16.067494
v -18.021300 4.497111 -16.466664
v -18.272459 9.065434 -17.029408
v -13.858336 13.661793 -13.480641
v -14.683714 16.733418 -12.989919
v -18.328306 16.566731 -11.444570
v -20.359190 16.143361 -9.377126
v -22.389952 16.870946 -7.309743
v -24.616514 15.973065 -3.903615
v -25.675902 13.661790 -3.964467
v -26.246763 9.065432 -4.430654
v -26.588866 4.373784 -3.558705
v -26.931029 -0.317867 -2.686696
v -46.824461 -0.071212 -48.519338
v -47.266356 4.497113 -47.685719
v -47.525145 9.065434 -47.567555
v -45.997679 14.572098 -46.026052
v -47.622496 16.816113 -45.978322
v -51.365477 17.151074 -43.896413
v -53.396300 17.608620 -41.829030
v -55.427061 17.666936 -39.761525
v -57.216612 16.466694 -37.205861
v -58.713072 13.661790 -36.416310
v -59.283873 9.065434 -36.882375
v -59.626036 4.373784 -36.010488
v -59.968138 -0.317867 -35.138539
v -0.018797 -0.002225 0.005870
v -0.126341 4.538510 0.963084
v -0.243345 9.079249 1.136851
v 1.604860 14.361741 1.790111
v -0.156676 17.606579 3.225535
v -3.252012 16.561131 5.640147
v -4.700133 17.565384 8.165538
v -6.148253 16.854725 10.691112
v -7.454527 15.980031 14.520091
v -8.503660 13.679448 14.740489
v -9.138060 9.079247 14.439647
v -9.251219 4.418288 15.343577
v -9.370299 -0.294736 16.281566
vt 0.103597 0.645072
vt 0.105379 0.804596
vt 0.053018 0.829579
vt 0.051496 0.709512
vt 0.588113 0.827937
vt 0.586914 0.706210
vt 0.546469 0.810948
vt 0.545106 0.689385
vt 0.511689 0.811513
vt 0.511791 0.689724
vt 0.477936 0.812329
vt 0.477762 0.690533
vt 0.224690 0.172042
vt 0.225156 0.293473
vt 0.252230 0.180837
vt 0.252578 0.302610
vt 0.304571 0.189357
vt 0.304947 0.310930
vt 0.358992 0.185155
vt 0.359256 0.306482
vt 0.214934 0.689467
vt 0.211904 0.811374
vt 0.158938 0.807798
vt 0.155164 0.651543
vt 0.413382 0.180795
vt 0.413529 0.302059
vt 0.401884 0.021133
vt 0.338242 0.030538
vt 0.299030 0.028736
vt 0.244838 0.033310
vt 0.434354 0.963467
vt 0.466703 0.948591
vt 0.502846 0.931651
vt 0.539087 0.914569
vt 0.014351 0.901572
vt 0.062874 0.890124
vt 0.101392 0.880126
vt 0.140626 0.877090
vt 0.179949 0.880664
vt 0.210246 0.162424
vt 0.210404 0.405186
vt 0.157364 0.406163
vt 0.157293 0.165423
vt 0.104341 0.407086
vt 0.105266 0.164157
vt 0.051854 0.430357
vt 0.042586 0.188654
vt 0.583863 0.422739
vt 0.585121 0.176226
vt 0.542040 0.406046
vt 0.538128 0.162788
vt 0.507063 0.406113
vt 0.504740 0.163310
vt 0.473089 0.406910
vt 0.471790 0.163832
vt 0.223753 0.577322
vt 0.216608 0.823634
vt 0.251188 0.586426
vt 0.253427 0.829354
vt 0.304556 0.549427
vt 0.305810 0.837420
vt 0.358530 0.566690
vt 0.360157 0.833295
vt 0.416711 0.586149
vt 0.414442 0.829335
vt 0.210665 0.000492
vt 0.157684 0.004914
vt 0.105720 0.004590
vt 0.044808 0.026772
vt 0.579363 0.017684
vt 0.536070 0.000492
vt 0.501110 0.001384
vt 0.467109 0.001870
vt 0.226426 0.982301
vt 0.253886 0.991286
vt 0.306102 0.999512
vt 0.360264 0.995271
vt 0.414449 0.991094
vt 0.359284 0.006683
vt 0.413621 0.000488
vt 0.305535 0.014477
vt 0.253123 0.012292
vt 0.420495 0.985986
vt 0.463691 0.968105
vt 0.497172 0.963858
vt 0.528645 0.948846
vt 0.000488 0.955911
vt 0.045163 0.960100
vt 0.105262 0.941095
vt 0.157781 0.941217
vt 0.209929 0.932060
vt 0.571540 0.899397
vt 0.574112 0.955232
vt 0.216795 0.030782
vt 0.225313 0.006070
vt 0.434349 0.170274
vt 0.426766 0.416734
vt 0.013651 0.176209
vt 0.014818 0.422693
vt 0.431329 0.700130
vt 0.431733 0.822017
vt 0.015036 0.706862
vt 0.016843 0.828934
vt 0.420753 0.011694
vt 0.000710 0.017910
vn -0.706807 0.004747 0.707391
vn -0.656848 -0.024168 0.753636
vn -0.685062 -0.122524 0.718108
vn -0.691676 -0.120879 0.712020
vn -0.442918 -0.776569 0.448067
vn -0.399599 -0.822755 0.404222
vn 0.009508 -0.999555 0.028261
vn -0.012745 -0.999835 0.012975
vn 0.012235 -0.996305 0.085011
vn -0.036970 -0.998618 0.037354
vn 0.114324 -0.990351 -0.078329
vn 0.092852 -0.991183 -0.094527
vn 0.381076 -0.839213 -0.387948
vn 0.390483 -0.830359 -0.397527
vn 0.694876 -0.129318 -0.707407
vn 0.706023 -0.070167 -0.704705
vn 0.697422 -0.097543 -0.709992
vn 0.719138 -0.049974 -0.693068
vn 0.689232 -0.180670 -0.701654
vn 0.700249 -0.226801 -0.676914
vn -0.641072 -0.354619 0.680641
vn -0.607941 -0.335456 0.719637
vn -0.625193 -0.201266 0.754073
vn -0.685060 -0.233550 0.690034
vn 0.689228 -0.180676 -0.701656
vn 0.687706 -0.262498 -0.676871
vn 0.680417 -0.188436 -0.708184
vn 0.680417 -0.188436 -0.708184
vn 0.680417 -0.188436 -0.708184
vn 0.680417 -0.188436 -0.708184
vn 0.699306 -0.100516 -0.707720
vn 0.699306 -0.100516 -0.707720
vn 0.699306 -0.100516 -0.707720
vn 0.699306 -0.100516 -0.707720
vn 0.731438 0.039451 -0.680766
vn 0.731438 0.039451 -0.680766
vn 0.731438 0.039451 -0.680766
vn 0.731438 0.039451 -0.680766
vn 0.648111 -0.483812 -0.588113
vn 0.648111 -0.483812 -0.588113
vn 0.648111 -0.483812 -0.588113
vn 0.648111 -0.483812 -0.588113
vn 0.080623 -0.992227 -0.094790
vn 0.080623 -0.992227 -0.094790
vn 0.080623 -0.992227 -0.094790
vn 0.080623 -0.992227 -0.094790
vn -0.042260 -0.994019 -0.100698
vn -0.042260 -0.994019 -0.100698
vn -0.042260 -0.994019 -0.100698
vn -0.042260 -0.994019 -0.100698
vn -0.161462 -0.986814 0.011364
vn -0.161462 -0.986814 0.011364
vn -0.161462 -0.986814 0.011364
vn -0.161462 -0.986814 0.011364
vn -0.011814 -0.998998 -0.043159
vn -0.011814 -0.998998 -0.043159
vn -0.011814 -0.998998 -0.043159
vn -0.011814 -0.998998 -0.043159
vn -0.747401 -0.401218 0.529543
vn -0.747401 -0.401218 0.529543
vn -0.747401 -0.401218 0.529543
vn -0.747401 -0.401218 0.529543
vn -0.616463 -0.244793 0.748365
vn -0.616463 -0.244793 0.748365
vn -0.616463 -0.244793 0.748365
vn -0.616463 -0.244793 0.748365
vn -0.553112 -0.162158 0.817173
vn -0.553112 -0.162158 0.817173
vn -0.553112 -0.162158 0.817173
vn -0.553112 -0.162158 0.817173
vn -0.673271 -0.040803 0.738270
vn -0.673271 -0.040803 0.738270
vn -0.673271 -0.040803 0.738270
vn -0.673271 -0.040803 0.738270
vn -0.687157 -0.193549 0.700253
vn -0.683958 -0.290240 0.669300
vn -0.705439 -0.202000 0.679376
vn -0.696193 -0.145464 0.702962
vn -0.721335 -0.029401 0.691962
vn -0.711763 -0.030959 0.701737
vn -0.709809 -0.107395 0.696159
vn -0.710379 -0.153562 0.686863
vn -0.348115 -0.875134 0.336092
vn -0.312018 -0.904903 0.289475
vn -0.061254 -0.997280 0.041006
vn -0.068878 -0.995832 0.059783
vn -0.059136 -0.997882 0.027114
vn -0.049451 -0.997507 0.050343
vn 0.104946 -0.985791 -0.131159
vn 0.148274 -0.977687 -0.148808
vn 0.410502 -0.808246 -0.422168
vn 0.418477 -0.801640 -0.426907
vn 0.697195 -0.065604 -0.713873
vn 0.688463 -0.108288 -0.717142
vn 0.707309 -0.034152 -0.706079
vn 0.683570 -0.065106 -0.726976
vn 0.679286 -0.236355 -0.694771
vn 0.668342 -0.209829 -0.713646
vn 0.665429 -0.297220 -0.684737
vn 0.665916 -0.254027 -0.701446
vn -0.686863 -0.195700 0.699943
vn -0.695405 -0.126443 0.707407
vn -0.707879 -0.005964 0.706308
vn -0.704714 -0.157927 0.691692
vn -0.200899 -0.961790 0.186011
vn -0.052240 -0.996794 0.060608
vn -0.032206 -0.997216 0.067250
vn 0.169032 -0.977348 -0.127351
vn 0.451943 -0.771711 -0.447447
vn 0.689317 -0.135800 -0.711618
vn 0.697115 -0.101879 -0.709684
vn 0.689233 -0.180662 -0.701655
vn 0.689232 -0.180673 -0.701653
vn 0.986550 -0.002007 0.163448
vn 0.986550 -0.002007 0.163448
vn 0.986550 -0.002007 0.163448
vn 0.986550 -0.002007 0.163448
vn 0.976102 0.004048 0.217274
vn 0.976102 0.004048 0.217274
vn 0.976102 0.004048 0.217274
vn 0.976102 0.004048 0.217274
vn 0.974699 0.011529 -0.223225
vn 0.974699 0.011529 -0.223225
vn 0.974699 0.011529 -0.223225
vn 0.974699 0.011529 -0.223225
vn 0.718287 -0.528117 -0.452941
vn 0.718287 -0.528117 -0.452941
vn 0.718287 -0.528117 -0.452941
vn 0.718287 -0.528117 -0.452941
vn 0.270868 -0.962275 -0.025658
vn 0.270868 -0.962274 -0.025658
vn 0.270868 -0.962274 -0.025658
vn 0.270868 -0.962274 -0.025658
vn 0.558716 -0.804113 0.203073
vn 0.558716 -0.804113 0.203073
vn 0.558716 -0.804113 0.203073
vn 0.558716 -0.804113 0.203073
vn 0.278293 -0.935812 0.216356
vn 0.278293 -0.935812 0.216356
vn 0.278293 -0.935812 0.216356
vn 0.278293 -0.935812 0.216356
vn 0.267062 -0.963349 0.025230
vn 0.267062 -0.963349 0.025230
vn 0.267062 -0.963349 0.025230
vn 0.267062 -0.963349 0.025230
vn -0.459516 -0.558581 0.690531
vn -0.459516 -0.558581 0.690531
vn -0.459516 -0.558581 0.690531
vn -0.459516 -0.558581 0.690531
vn -0.826538 -0.016340 0.562644
vn -0.826538 -0.016340 0.562644
vn -0.826538 -0.016340 0.562644
vn -0.826538 -0.016340 0.562644
vn -0.941505 -0.064494 0.330769
vn -0.941505 -0.064494 0.330769
vn -0.941505 -0.064494 0.330769
vn -0.941505 -0.064494 0.330769
vn -0.919417 -0.012226 0.393094
vn -0.919417 -0.012226 0.393094
vn -0.919417 -0.012226 0.393094
vn -0.919417 -0.012226 0.393094
s 1
g Cave_Tunnel_003
usemtl initialShadingGroup
f 55/1/1 25/2/2 26/3/3 56/4/4
f 56/4/4 26/3/3 27/103/5 57/102/6
f 57/6/6 27/5/5 28/7/7 58/8/8
f 58/8/8 28/7/7 29/9/9 59/10/10
f 59/10/10 29/9/9 30/11/11 60/12/12
f 60/12/12 30/11/11 31/101/13 61/100/14
f 61/14/14 31/13/13 32/15/15 62/16/16
f 62/16/16 32/15/15 33/17/17 63/18/18
f 63/18/18 33/17/17 39/19/19 64/20/20
f 53/21/21 35/22/22 37/23/23 54/24/24
f 37/23/23 25/2/2 55/1/1 54/24/24
f 39/19/19 34/25/25 65/26/26 64/20/20
s off
f 7/27/27 34/25/28 39/19/29 8/28/30
f 8/28/31 39/19/32 33/17/33 9/29/34
f 9/29/35 33/17/36 32/15/37 10/30/38
f 10/30/39 32/15/40 31/13/41 11/94/42
f 11/31/43 31/101/44 30/11/45 12/32/46
f 12/32/47 30/11/48 29/9/49 13/33/50
f 13/33/51 29/9/52 28/7/53 1/34/54
f 1/34/55 28/7/56 27/5/57 2/92/58
f 2/35/59 27/103/60 26/3/61 3/36/62
f 3/36/63 26/3/64 25/2/65 4/37/66
f 4/37/67 25/2/68 37/23/69 5/38/70
f 5/38/71 37/23/72 35/22/73 6/39/74
s 1
f 66/40/75 40/41/76 41/42/77 67/43/78
f 42/44/79 68/45/80 67/43/78 41/42/77
f 68/45/80 42/44/79 43/46/81 69/47/82
f 69/47/82 43/46/81 44/99/83 70/98/84
f 70/49/84 44/48/83 45/50/85 71/51/86
f 71/51/86 45/50/85 46/52/87 72/53/88
f 72/53/88 46/52/87 47/54/89 73/55/90
f 73/55/90 47/54/89 48/97/91 74/96/92
f 74/57/92 48/56/91 49/58/93 75/59/94
f 75/59/94 49/58/93 50/60/95 76/61/96
f 76/61/96 50/60/95 51/62/97 77/63/98
f 52/64/99 78/65/100 77/63/98 51/62/97
f 40/41/76 53/21/21 54/24/24 41/42/77
f 55/1/1 42/44/79 41/42/77 54/24/24
f 42/44/79 55/1/1 56/4/4 43/46/81
f 43/46/81 56/4/4 57/102/6 44/99/83
f 44/48/83 57/6/6 58/8/8 45/50/85
f 45/50/85 58/8/8 59/10/10 46/52/87
f 46/52/87 59/10/10 60/12/12 47/54/89
f 47/54/89 60/12/12 61/100/14 48/97/91
f 48/56/91 61/14/14 62/16/16 49/58/93
f 49/58/93 62/16/16 63/18/18 50/60/95
f 50/60/95 63/18/18 64/20/20 51/62/97
f 65/26/26 52/64/99 51/62/97 64/20/20
f 24/66/101 66/40/75 67/43/78 36/67/102
f 68/45/80 14/68/103 36/67/102 67/43/78
f 14/68/103 68/45/80 69/47/82 15/69/104
f 15/69/104 69/47/82 70/98/84 16/105/105
f 16/70/105 70/49/84 71/51/86 17/71/106
f 17/71/106 71/51/86 72/53/88 18/72/107
f 18/72/107 72/53/88 73/55/90 19/73/108
f 19/73/108 73/55/90 74/96/92 20/104/109
f 20/74/109 74/57/92 75/59/94 21/75/110
f 21/75/110 75/59/94 76/61/96 22/76/111
f 22/76/111 76/61/96 77/63/98 38/77/112
f 78/65/100 23/78/113 38/77/112 77/63/98
s off
f 7/27/114 8/28/115 90/79/116 91/80/117
f 8/28/118 9/29/119 89/81/120 90/79/121
f 9/29/122 10/30/123 88/82/124 89/81/125
f 10/30/126 11/94/127 87/95/128 88/82/129
f 11/31/130 12/32/131 86/84/132 87/83/133
f 12/32/134 13/33/135 85/85/136 86/84/137
f 13/33/138 1/34/139 84/86/140 85/85/141
f 1/34/142 2/92/143 83/93/144 84/86/145
f 2/35/146 3/36/147 82/88/148 83/87/149
f 3/36/150 4/37/151 81/89/152 82/88/153
f 4/37/154 5/38/155 80/90/156 81/89/157
f 5/38/158 6/39/159 79/91/160 80/90/161
