# This file uses centimeters as units for non-parametric coordinates.

mtllib Pole_Stage_3.mtl
g default
v -7.755508 -0.009956 7.199209
v 9.674545 -0.009956 7.199209
v -7.755508 -0.009956 7.268957
v 9.674545 -0.009956 7.268957
v -7.755508 0.990044 7.268957
v 9.674545 0.990044 7.268957
v -7.755508 0.990044 7.199209
v 9.674545 0.990044 7.199209
v -4.915495 1.041123 -3.224020
v -4.792007 1.041123 7.459902
v -4.915495 1.134404 -3.224020
v -4.792007 1.134404 7.459902
v 6.373726 1.134404 -3.354506
v 6.497212 1.134404 7.329416
v 6.373726 1.041123 -3.354506
v 6.497212 1.041123 7.329416
v 9.347443 0.337410 6.015676
v -7.618046 0.337407 6.127077
v 9.186855 0.337407 5.839178
v -7.487701 0.337407 5.927252
v 9.186855 0.915120 5.839178
v -7.487701 0.915120 5.927252
v 9.347443 0.915120 6.015676
v -7.618046 0.915120 6.127077
v -9.400274 -0.091819 7.459184
v -0.276115 -0.027923 -7.391821
v -9.340858 -0.093402 7.495680
v -0.216701 -0.029506 -7.355326
v -9.323425 0.906334 7.510691
v -0.199266 0.970230 -7.340315
v -9.382839 0.907917 7.474195
v -0.258680 0.971814 -7.376810
v 6.632794 0.337410 1.389852
v -5.681988 0.337410 1.489038
v 6.499741 0.337410 1.191816
v -5.547306 0.337407 1.292105
v 6.499741 0.915120 1.191816
v -5.547306 0.915116 1.292105
v 6.632794 0.915120 1.389852
v -5.681988 0.915120 1.489038
v 0.075991 0.131932 -7.152449
v 10.738060 -0.180423 6.608690
v 0.020933 0.132889 -7.109644
v 10.683003 -0.179466 6.651499
v 0.042769 1.132634 -7.103918
v 10.704838 0.820279 6.657221
v 0.097826 1.131676 -7.146723
v 10.759895 0.819321 6.614416
v 2.113794 0.337410 -4.410376
v -2.117897 0.330933 -4.319143
v 1.977926 0.337407 -4.606501
v -1.986952 0.345127 -4.518084
v 1.977926 0.915116 -4.606501
v -2.019352 0.921593 -4.498263
v 2.113794 0.915120 -4.410376
v -2.150299 0.907399 -4.299322
v -0.226652 0.337410 7.246050
v -0.255371 0.337410 -5.302080
v -0.027857 0.337410 7.246050
v -0.059210 0.337407 -5.166273
v -0.027857 0.915120 7.246050
v -0.059210 0.915116 -5.166273
v -0.226652 0.915120 7.246050
v -0.255371 0.915120 -5.302080
vt 0.445877 0.685466
vt 0.969347 0.685389
vt 0.445877 0.687561
vt 0.969347 0.687484
vt 0.445881 0.717594
vt 0.969352 0.717516
vt 0.445882 0.719688
vt 0.969352 0.719611
vt 0.445886 0.749721
vt 0.969357 0.749644
vt 0.999380 0.685385
vt 0.999380 0.687479
vt 0.415844 0.685471
vt 0.415844 0.687565
vt 0.339556 0.000547
vt 0.660444 0.000603
vt 0.660444 0.003405
vt 0.339556 0.003349
vt 0.660384 0.342473
vt 0.339497 0.342417
vt 0.660384 0.345274
vt 0.339496 0.345218
vt 0.660325 0.684342
vt 0.339437 0.684286
vt 0.999512 0.000663
vt 0.999511 0.003464
vt 0.000489 0.000488
vt 0.000488 0.003290
vt 0.472448 0.881731
vt 0.981975 0.880512
vt 0.978036 0.886497
vt 0.477248 0.887052
vt 0.978055 0.903847
vt 0.477268 0.904402
vt 0.982008 0.909823
vt 0.472479 0.909734
vt 0.982005 0.927173
vt 0.472476 0.927084
vt 0.996468 0.890052
vt 0.992528 0.896037
vt 0.459566 0.893354
vt 0.464366 0.898675
vt 0.030521 0.816155
vt 0.553991 0.816184
vt 0.553991 0.818279
vt 0.030521 0.818250
vt 0.553990 0.848312
vt 0.030519 0.848282
vt 0.553990 0.850406
vt 0.030519 0.850377
vt 0.553988 0.880439
vt 0.030517 0.880410
vt 0.584024 0.816186
vt 0.584024 0.818281
vt 0.000488 0.816154
vt 0.000488 0.818249
vt 0.045574 0.733137
vt 0.415432 0.733210
vt 0.411338 0.739091
vt 0.049521 0.739117
vt 0.411339 0.756441
vt 0.049522 0.756467
vt 0.415434 0.762321
vt 0.045576 0.762448
vt 0.415440 0.779671
vt 0.045582 0.779798
vt 0.429672 0.743122
vt 0.425578 0.749002
vt 0.031093 0.742693
vt 0.035040 0.748674
vt 0.445877 0.750831
vt 0.968778 0.750741
vt 0.968781 0.752836
vt 0.445880 0.752925
vt 0.968785 0.782868
vt 0.445884 0.782958
vt 0.968782 0.784963
vt 0.445881 0.785052
vt 0.968789 0.814996
vt 0.445888 0.815085
vt 0.998810 0.750692
vt 0.998814 0.752787
vt 0.415844 0.750878
vt 0.415847 0.752973
vt 0.014979 0.004386
vt 0.142097 0.004623
vt 0.138025 0.010519
vt 0.018920 0.010370
vt 0.139025 0.027841
vt 0.018932 0.027721
vt 0.143112 0.033726
vt 0.015006 0.033715
vt 0.142154 0.051050
vt 0.015035 0.051065
vt 0.156374 0.014483
vt 0.152302 0.020379
vt 0.000488 0.013927
vt 0.004429 0.019912
vt 0.017852 0.685417
vt 0.394706 0.685389
vt 0.390614 0.691271
vt 0.017838 0.691388
vt 0.390620 0.708621
vt 0.017844 0.708738
vt 0.394715 0.714501
vt 0.017861 0.714708
vt 0.394725 0.731851
vt 0.017870 0.732058
vt 0.408949 0.695296
vt 0.404858 0.701179
vt 0.000502 0.685379
vt 0.000488 0.691349
vn 0.000000 -1.000000 0.000000
vn 0.000000 -1.000000 0.000000
vn 0.000000 -1.000000 0.000000
vn 0.000000 -1.000000 0.000000
vn 0.000000 0.000000 1.000000
vn 0.000000 0.000000 1.000000
vn 0.000000 0.000000 1.000000
vn 0.000000 0.000000 1.000000
vn 0.000000 1.000000 0.000000
vn 0.000000 1.000000 0.000000
vn 0.000000 1.000000 0.000000
vn 0.000000 1.000000 0.000000
vn 0.000000 0.000000 -1.000000
vn 0.000000 0.000000 -1.000000
vn 0.000000 0.000000 -1.000000
vn 0.000000 0.000000 -1.000000
vn 1.000000 0.000000 0.000000
vn 1.000000 0.000000 0.000000
vn 1.000000 0.000000 0.000000
vn 1.000000 0.000000 0.000000
vn -1.000000 0.000000 0.000000
vn -1.000000 0.000000 0.000000
vn -1.000000 0.000000 0.000000
vn -1.000000 0.000000 0.000000
vn -0.999933 0.000000 0.011557
vn -0.999933 0.000000 0.011557
vn -0.999933 0.000000 0.011557
vn -0.999933 0.000000 0.011557
vn 0.000000 1.000000 -0.000001
vn 0.000000 1.000000 -0.000001
vn 0.000000 1.000000 -0.000001
vn 0.000000 1.000000 -0.000001
vn 0.999933 0.000000 -0.011557
vn 0.999933 0.000000 -0.011557
vn 0.999933 0.000000 -0.011557
vn 0.999933 0.000000 -0.011557
vn 0.000000 -1.000000 0.000000
vn 0.000000 -1.000000 0.000000
vn 0.000000 -1.000000 0.000000
vn 0.000000 -1.000000 0.000000
vn 0.011557 0.000000 0.999933
vn 0.011557 0.000000 0.999933
vn 0.011557 0.000000 0.999933
vn 0.011557 0.000000 0.999933
vn -0.011558 0.000000 -0.999933
vn -0.011558 0.000000 -0.999933
vn -0.011558 0.000000 -0.999933
vn -0.011558 0.000000 -0.999933
vn 0.000000 -1.000000 0.000018
vn 0.000000 -1.000000 0.000018
vn 0.000000 -1.000000 0.000018
vn 0.000000 -1.000000 0.000018
vn -0.005282 0.000000 -0.999986
vn -0.005282 0.000000 -0.999986
vn -0.005282 0.000000 -0.999986
vn -0.005282 0.000000 -0.999986
vn 0.000000 1.000000 -0.000018
vn 0.000000 1.000000 -0.000018
vn 0.000000 1.000000 -0.000018
vn 0.000000 1.000000 -0.000018
vn 0.006566 0.000000 0.999979
vn 0.006566 0.000000 0.999979
vn 0.006566 0.000000 0.999978
vn 0.006566 0.000000 0.999978
vn -0.837563 0.000000 -0.546341
vn -0.837563 0.000000 -0.546341
vn -0.837563 0.000000 -0.546341
vn -0.837563 0.000000 -0.546341
vn 0.739658 0.000000 -0.672983
vn 0.739658 0.000000 -0.672983
vn 0.739658 0.000000 -0.672983
vn 0.739658 0.000000 -0.672983
vn -0.017421 -0.999736 -0.014985
vn -0.017421 -0.999736 -0.014985
vn -0.017421 -0.999736 -0.014985
vn -0.017421 -0.999736 -0.014985
vn 0.851864 -0.022713 0.523271
vn 0.851864 -0.022713 0.523271
vn 0.851864 -0.022713 0.523271
vn 0.851864 -0.022713 0.523271
vn 0.017422 0.999736 0.014965
vn 0.017422 0.999736 0.014965
vn 0.017422 0.999736 0.014965
vn 0.017422 0.999736 0.014965
vn -0.851863 0.022713 -0.523271
vn -0.851863 0.022713 -0.523271
vn -0.851863 0.022713 -0.523271
vn -0.851863 0.022713 -0.523271
vn 0.523441 0.003665 -0.852054
vn 0.523441 0.003665 -0.852054
vn 0.523441 0.003665 -0.852054
vn 0.523441 0.003665 -0.852054
vn -0.523441 -0.003665 0.852054
vn -0.523441 -0.003665 0.852054
vn -0.523441 -0.003665 0.852054
vn -0.523441 -0.003665 0.852054
vn 0.000000 -1.000000 0.000007
vn 0.000000 -1.000000 0.000007
vn 0.000000 -1.000000 0.000007
vn 0.000000 -1.000000 0.000007
vn -0.008324 0.000000 -0.999965
vn -0.008324 0.000000 -0.999965
vn -0.008324 0.000000 -0.999965
vn -0.008324 0.000000 -0.999965
vn -0.000000 1.000000 0.000002
vn -0.000000 1.000000 0.000002
vn -0.000000 1.000000 0.000002
vn -0.000000 1.000000 0.000002
vn 0.008054 0.000000 0.999968
vn 0.008054 0.000000 0.999968
vn 0.008054 0.000000 0.999968
vn 0.008054 0.000000 0.999968
vn -0.825428 0.000000 -0.564508
vn -0.825428 0.000000 -0.564508
vn -0.825428 0.000000 -0.564508
vn -0.825428 0.000000 -0.564508
vn 0.830054 0.000000 -0.557683
vn 0.830054 0.000000 -0.557683
vn 0.830054 0.000000 -0.557683
vn 0.830054 0.000000 -0.557683
vn -0.021861 -0.999744 -0.005779
vn -0.021861 -0.999744 -0.005779
vn -0.021861 -0.999744 -0.005779
vn -0.021861 -0.999744 -0.005779
vn -0.790266 0.013754 0.612610
vn -0.790266 0.013754 0.612610
vn -0.790266 0.013754 0.612610
vn -0.790266 0.013754 0.612609
vn 0.021861 0.999744 0.005771
vn 0.021861 0.999744 0.005771
vn 0.021861 0.999744 0.005771
vn 0.021861 0.999744 0.005771
vn 0.790267 -0.013751 -0.612609
vn 0.790267 -0.013751 -0.612609
vn 0.790267 -0.013751 -0.612609
vn 0.790267 -0.013751 -0.612609
vn 0.613518 -0.017919 0.789477
vn 0.613518 -0.017919 0.789477
vn 0.613518 -0.017919 0.789477
vn 0.613518 -0.017919 0.789477
vn -0.613534 0.017918 -0.789465
vn -0.613534 0.017918 -0.789465
vn -0.613534 0.017918 -0.789465
vn -0.613534 0.017918 -0.789465
vn -0.000938 -0.999355 -0.035901
vn -0.000938 -0.999355 -0.035901
vn -0.000938 -0.999355 -0.035901
vn -0.000938 -0.999355 -0.035901
vn -0.024659 0.016474 -0.999560
vn -0.024659 0.016474 -0.999560
vn -0.024659 0.016474 -0.999560
vn -0.024659 0.016474 -0.999560
vn 0.000802 0.999356 0.035879
vn 0.000802 0.999356 0.035879
vn 0.000802 0.999356 0.035879
vn 0.000802 0.999356 0.035879
vn 0.023828 -0.016497 0.999580
vn 0.023828 -0.016497 0.999580
vn 0.023828 -0.016497 0.999580
vn 0.023828 -0.016497 0.999580
vn -0.834049 -0.027934 -0.550983
vn -0.834049 -0.027934 -0.550983
vn -0.834049 -0.027934 -0.550983
vn -0.834049 -0.027934 -0.550983
vn 0.822017 0.000000 -0.569464
vn 0.822016 0.000000 -0.569464
vn 0.822017 0.000000 -0.569464
vn 0.822016 0.000000 -0.569464
vn -0.000010 -1.000000 0.000000
vn -0.000010 -1.000000 0.000000
vn -0.000010 -1.000000 0.000000
vn -0.000010 -1.000000 0.000000
vn 0.999997 0.000000 -0.002526
vn 0.999997 0.000000 -0.002526
vn 0.999997 0.000000 -0.002526
vn 0.999997 0.000000 -0.002526
vn 0.000010 1.000000 0.000000
vn 0.000010 1.000000 0.000000
vn 0.000010 1.000000 0.000000
vn 0.000010 1.000000 0.000000
vn -0.999997 0.000000 0.002289
vn -0.999997 0.000000 0.002289
vn -0.999997 0.000000 0.002289
vn -0.999997 0.000000 0.002289
vn 0.569225 0.000000 -0.822182
vn 0.569225 0.000000 -0.822182
vn 0.569225 0.000000 -0.822182
vn 0.569225 0.000000 -0.822182
vn 0.000000 0.000000 1.000000
vn 0.000000 0.000000 1.000000
vn 0.000000 0.000000 1.000000
vn 0.000000 0.000000 1.000000
s off
g Pole_Stage_3
usemtl initialShadingGroup
f 1/1/1 2/2/2 4/4/3 3/3/4
f 3/3/5 4/4/6 6/6/7 5/5/8
f 5/5/9 6/6/10 8/8/11 7/7/12
f 7/7/13 8/8/14 2/10/15 1/9/16
f 2/2/17 8/11/18 6/12/19 4/4/20
f 7/13/21 1/1/22 3/3/23 5/14/24
f 9/15/25 10/16/26 12/17/27 11/18/28
f 11/18/29 12/17/30 14/19/31 13/20/32
f 13/20/33 14/19/34 16/21/35 15/22/36
f 15/22/37 16/21/38 10/23/39 9/24/40
f 10/16/41 16/25/42 14/26/43 12/17/44
f 15/27/45 9/15/46 11/18/47 13/28/48
f 17/29/49 18/30/50 20/31/51 19/32/52
f 19/32/53 20/31/54 22/33/55 21/34/56
f 21/34/57 22/33/58 24/35/59 23/36/60
f 23/36/61 24/35/62 18/37/63 17/38/64
f 18/30/65 24/39/66 22/40/67 20/31/68
f 23/41/69 17/29/70 19/32/71 21/42/72
f 25/43/73 26/44/74 28/45/75 27/46/76
f 27/46/77 28/45/78 30/47/79 29/48/80
f 29/48/81 30/47/82 32/49/83 31/50/84
f 31/50/85 32/49/86 26/51/87 25/52/88
f 26/44/89 32/53/90 30/54/91 28/45/92
f 31/55/93 25/43/94 27/46/95 29/56/96
f 33/57/97 34/58/98 36/59/99 35/60/100
f 35/60/101 36/59/102 38/61/103 37/62/104
f 37/62/105 38/61/106 40/63/107 39/64/108
f 39/64/109 40/63/110 34/65/111 33/66/112
f 34/58/113 40/67/114 38/68/115 36/59/116
f 39/69/117 33/57/118 35/60/119 37/70/120
f 41/71/121 42/72/122 44/73/123 43/74/124
f 43/74/125 44/73/126 46/75/127 45/76/128
f 45/76/129 46/75/130 48/77/131 47/78/132
f 47/78/133 48/77/134 42/79/135 41/80/136
f 42/72/137 48/81/138 46/82/139 44/73/140
f 47/83/141 41/71/142 43/74/143 45/84/144
f 49/85/145 50/86/146 52/87/147 51/88/148
f 51/88/149 52/87/150 54/89/151 53/90/152
f 53/90/153 54/89/154 56/91/155 55/92/156
f 55/92/157 56/91/158 50/93/159 49/94/160
f 50/86/161 56/95/162 54/96/163 52/87/164
f 55/97/165 49/85/166 51/88/167 53/98/168
f 57/99/169 58/100/170 60/101/171 59/102/172
f 59/102/173 60/101/174 62/103/175 61/104/176
f 61/104/177 62/103/178 64/105/179 63/106/180
f 63/106/181 64/105/182 58/107/183 57/108/184
f 58/100/185 64/109/186 62/110/187 60/101/188
f 63/111/189 57/99/190 59/102/191 61/112/192
