# This file uses centimeters as units for non-parametric coordinates.

mtllib Pole_Stage_4.mtl
g default
v 0.149103 0.137652 -5.914027
v 10.909013 -0.174702 7.847112
v 0.094045 0.138609 -5.871223
v 10.853952 -0.173744 7.889916
v 0.115880 1.138355 -5.865497
v 10.875791 0.826002 7.895642
v 0.170938 1.137398 -5.908301
v 10.930848 0.825045 7.852838
v -9.422444 -0.086098 8.697606
v -0.172076 -0.022201 -6.153399
v -9.363028 -0.087683 8.734101
v -0.112662 -0.023786 -6.116904
v -9.345593 0.912052 8.749112
v -0.095227 0.975948 -6.101893
v -9.405007 0.913637 8.712617
v -0.154641 0.977533 -6.138389
v 2.217834 0.343128 -3.171954
v -2.013859 0.336657 -3.080722
v 2.081966 0.343128 -3.368079
v -1.882912 0.350851 -3.279662
v 2.081966 0.920841 -3.368079
v -1.915312 0.927313 -3.259841
v 2.217834 0.920841 -3.171954
v -2.046260 0.913118 -3.060901
v -0.122613 0.343128 8.484471
v -0.151332 0.343128 -4.063659
v 0.076183 0.343132 8.484471
v 0.044830 0.343132 -3.927852
v 0.076183 0.920843 8.484471
v 0.044830 0.920843 -3.927852
v -0.122613 0.920841 8.484471
v -0.151332 0.920841 -4.063659
v -8.511403 -0.004232 8.437631
v 9.778585 -0.004232 8.437631
v -8.511403 -0.004232 8.507379
v 9.778585 -0.004232 8.507379
v -8.511403 0.995768 8.507379
v 9.778585 0.995768 8.507379
v -8.511403 0.995768 8.437631
v 9.778585 0.995768 8.437631
v -6.715285 1.031284 -3.746093
v -6.550601 1.031284 10.502347
v -6.715285 1.155686 -3.746093
v -6.550601 1.155686 10.502347
v 8.340398 1.155686 -3.920108
v 8.505082 1.155686 10.328332
v 8.340398 1.031284 -3.920108
v 8.505082 1.031284 10.328332
v 9.451482 0.343128 7.254098
v -7.514006 0.343128 7.365499
v 9.290895 0.343132 7.077600
v -7.383662 0.343128 7.165673
v 9.290895 0.920843 7.077600
v -7.383662 0.920841 7.165673
v 9.451482 0.920841 7.254098
v -7.514006 0.920841 7.365499
v 8.575593 0.343132 4.981603
v -7.013724 0.343132 5.093003
v 8.415067 0.343128 4.805104
v -6.883347 0.343132 4.893178
v 8.415067 0.920841 4.805104
v -6.883347 0.920843 4.893178
v 8.575593 0.920843 4.981603
v -7.013724 0.920843 5.093003
v 6.736833 0.343128 2.628274
v -5.577948 0.343128 2.727460
v 6.603780 0.343132 2.430238
v -5.443267 0.343132 2.530526
v 6.603780 0.920843 2.430238
v -5.443267 0.920843 2.530526
v 6.736833 0.920841 2.628274
v -5.577948 0.920841 2.727460
v 4.527734 0.343132 -0.226230
v -3.820925 0.343132 -0.120601
v 4.371911 0.343132 -0.406894
v -3.679934 0.343132 -0.313052
v 4.371911 0.920843 -0.406894
v -3.679934 0.920843 -0.313052
v 4.527734 0.920843 -0.226230
v -3.820925 0.920843 -0.120601
v -9.176800 4.345457 8.493371
v 11.243287 3.490124 8.490659
v -9.187024 4.345682 8.562360
v 11.233068 3.490353 8.559651
v -9.163937 4.710360 8.564588
v 11.256154 3.855030 8.561879
v -9.153714 4.710136 8.495595
v 11.266374 3.854801 8.492887
v 0.528530 5.926334 -7.726481
v -7.251120 6.774300 9.071408
v 0.469827 5.930283 -7.763934
v -7.309825 6.778244 9.033952
v 0.492914 6.294958 -7.761706
v -7.286738 7.142922 9.036183
v 0.551618 6.291012 -7.724254
v -7.228036 7.138977 9.073636
vt 0.574004 0.734587
vt 0.967444 0.734531
vt 0.573999 0.736158
vt 0.967440 0.736102
vt 0.574004 0.758677
vt 0.967445 0.758621
vt 0.574009 0.760248
vt 0.967450 0.760192
vt 0.574011 0.782768
vt 0.967451 0.782711
vt 0.989964 0.734596
vt 0.989959 0.736167
vt 0.551484 0.734523
vt 0.551480 0.736093
vt 0.120490 0.685386
vt 0.514500 0.685440
vt 0.514510 0.687011
vt 0.120500 0.686956
vt 0.514509 0.709530
vt 0.120500 0.709476
vt 0.514499 0.711101
vt 0.120490 0.711046
vt 0.514493 0.733620
vt 0.120484 0.733566
vt 0.537019 0.685305
vt 0.537029 0.686875
vt 0.097971 0.685521
vt 0.097981 0.687092
vt 0.672544 0.040364
vt 0.767861 0.040542
vt 0.764808 0.044963
vt 0.675499 0.044851
vt 0.765557 0.057951
vt 0.675508 0.057861
vt 0.768622 0.062364
vt 0.672564 0.062356
vt 0.767903 0.075354
vt 0.672586 0.075365
vt 0.778566 0.047935
vt 0.775513 0.052356
vt 0.661678 0.047518
vt 0.664633 0.052006
vt 0.704367 0.004390
vt 0.986944 0.004370
vt 0.983876 0.008780
vt 0.704357 0.008867
vt 0.983880 0.021790
vt 0.704361 0.021877
vt 0.986951 0.026199
vt 0.704373 0.026353
vt 0.986958 0.039209
vt 0.704380 0.039363
vt 0.997624 0.011799
vt 0.994556 0.016210
vt 0.691357 0.004362
vt 0.691347 0.008838
vt 0.561284 0.685304
vt 0.973164 0.685291
vt 0.973164 0.686862
vt 0.561284 0.686875
vt 0.973165 0.709381
vt 0.561285 0.709394
vt 0.973165 0.710952
vt 0.561285 0.710965
vt 0.973165 0.733471
vt 0.561286 0.733484
vt 0.995683 0.685290
vt 0.995683 0.686861
vt 0.538765 0.685305
vt 0.538765 0.686875
vt 0.339556 0.000515
vt 0.660444 0.000502
vt 0.660444 0.003303
vt 0.339556 0.003316
vt 0.660458 0.342371
vt 0.339570 0.342384
vt 0.660458 0.345172
vt 0.339570 0.345185
vt 0.660471 0.684240
vt 0.339583 0.684253
vt 0.999512 0.000488
vt 0.999512 0.003290
vt 0.000488 0.000528
vt 0.000488 0.003330
vt 0.162730 0.735528
vt 0.544790 0.734615
vt 0.541836 0.739103
vt 0.166329 0.739517
vt 0.541850 0.752113
vt 0.166344 0.752527
vt 0.544814 0.756594
vt 0.162753 0.756525
vt 0.544812 0.769603
vt 0.162751 0.769535
vt 0.555656 0.741768
vt 0.552702 0.746256
vt 0.153071 0.744243
vt 0.156670 0.748233
vt 0.209357 0.771537
vt 0.560427 0.770629
vt 0.557471 0.775115
vt 0.212954 0.775528
vt 0.557486 0.788125
vt 0.212970 0.788538
vt 0.560454 0.792605
vt 0.209382 0.792538
vt 0.560451 0.805614
vt 0.209380 0.805547
vt 0.571290 0.777788
vt 0.568334 0.782274
vt 0.199693 0.780246
vt 0.203290 0.784238
vt 0.045254 0.004387
vt 0.322584 0.004443
vt 0.319515 0.008852
vt 0.048213 0.008872
vt 0.319516 0.021862
vt 0.048214 0.021881
vt 0.322586 0.026271
vt 0.045255 0.026366
vt 0.322590 0.039281
vt 0.045260 0.039376
vt 0.333262 0.011875
vt 0.330192 0.016285
vt 0.034395 0.011554
vt 0.037355 0.016038
vt 0.798774 0.040596
vt 0.986795 0.040270
vt 0.983573 0.044569
vt 0.802238 0.044703
vt 0.983583 0.057578
vt 0.802248 0.057712
vt 0.986811 0.061873
vt 0.798789 0.061824
vt 0.986808 0.074882
vt 0.798786 0.074834
vt 0.997206 0.048072
vt 0.993983 0.052371
vt 0.788830 0.048985
vt 0.792294 0.053091
vt 0.208063 0.807165
vt 0.668314 0.806530
vt 0.668086 0.808084
vt 0.207834 0.808719
vt 0.668273 0.816311
vt 0.208022 0.816946
vt 0.668505 0.817864
vt 0.208254 0.818499
vt 0.668341 0.826092
vt 0.208090 0.826727
vt 0.676455 0.807726
vt 0.676227 0.809280
vt 0.199921 0.805969
vt 0.199693 0.807523
vt 0.572558 0.784737
vt 0.989871 0.783725
vt 0.989670 0.785283
vt 0.572356 0.786295
vt 0.989893 0.793509
vt 0.572579 0.794521
vt 0.990102 0.795066
vt 0.572788 0.796077
vt 0.989919 0.803292
vt 0.572605 0.804304
vt 0.998032 0.784782
vt 0.997830 0.786340
vt 0.564397 0.783681
vt 0.564195 0.785238
vn -0.021785 -0.999747 -0.005643
vn -0.021785 -0.999747 -0.005643
vn -0.021785 -0.999747 -0.005643
vn -0.021785 -0.999747 -0.005643
vn -0.787550 0.013673 0.616100
vn -0.787550 0.013673 0.616100
vn -0.787550 0.013673 0.616100
vn -0.787550 0.013673 0.616100
vn 0.021786 0.999747 0.005660
vn 0.021786 0.999747 0.005660
vn 0.021786 0.999747 0.005660
vn 0.021786 0.999747 0.005660
vn 0.787549 -0.013672 -0.616100
vn 0.787549 -0.013672 -0.616100
vn 0.787549 -0.013672 -0.616100
vn 0.787549 -0.013672 -0.616100
vn 0.613505 -0.017923 0.789488
vn 0.613505 -0.017923 0.789488
vn 0.613505 -0.017923 0.789488
vn 0.613505 -0.017923 0.789488
vn -0.613535 0.017920 -0.789464
vn -0.613535 0.017920 -0.789464
vn -0.613535 0.017920 -0.789464
vn -0.613535 0.017920 -0.789464
vn -0.017379 -0.999735 -0.015128
vn -0.017379 -0.999735 -0.015128
vn -0.017379 -0.999735 -0.015128
vn -0.017379 -0.999735 -0.015128
vn 0.848631 -0.022735 0.528496
vn 0.848631 -0.022735 0.528496
vn 0.848631 -0.022735 0.528496
vn 0.848631 -0.022735 0.528496
vn 0.017379 0.999735 0.015131
vn 0.017379 0.999735 0.015131
vn 0.017379 0.999735 0.015131
vn 0.017379 0.999735 0.015131
vn -0.848631 0.022733 -0.528496
vn -0.848631 0.022733 -0.528496
vn -0.848631 0.022733 -0.528496
vn -0.848631 0.022733 -0.528496
vn 0.523388 0.003665 -0.852086
vn 0.523389 0.003665 -0.852086
vn 0.523388 0.003665 -0.852086
vn 0.523389 0.003665 -0.852086
vn -0.523393 -0.003664 0.852084
vn -0.523393 -0.003664 0.852084
vn -0.523393 -0.003664 0.852084
vn -0.523393 -0.003664 0.852084
vn -0.000939 -0.999355 -0.035887
vn -0.000939 -0.999355 -0.035887
vn -0.000939 -0.999355 -0.035887
vn -0.000939 -0.999355 -0.035887
vn -0.024658 0.016474 -0.999560
vn -0.024658 0.016474 -0.999560
vn -0.024658 0.016474 -0.999560
vn -0.024658 0.016474 -0.999560
vn 0.000801 0.999356 0.035886
vn 0.000801 0.999356 0.035886
vn 0.000801 0.999356 0.035886
vn 0.000801 0.999356 0.035886
vn 0.023828 -0.016497 0.999580
vn 0.023828 -0.016497 0.999580
vn 0.023828 -0.016497 0.999580
vn 0.023828 -0.016497 0.999580
vn -0.834049 -0.027935 -0.550983
vn -0.834049 -0.027935 -0.550983
vn -0.834049 -0.027935 -0.550983
vn -0.834049 -0.027935 -0.550983
vn 0.822018 0.000000 -0.569462
vn 0.822018 0.000000 -0.569462
vn 0.822018 0.000000 -0.569462
vn 0.822018 0.000000 -0.569462
vn 0.000019 -1.000000 0.000000
vn 0.000019 -1.000000 0.000000
vn 0.000019 -1.000000 0.000000
vn 0.000019 -1.000000 0.000000
vn 0.999997 0.000000 -0.002526
vn 0.999997 0.000000 -0.002526
vn 0.999997 0.000000 -0.002526
vn 0.999997 0.000000 -0.002526
vn -0.000010 1.000000 0.000000
vn -0.000010 1.000000 0.000000
vn -0.000010 1.000000 0.000000
vn -0.000010 1.000000 0.000000
vn -0.999997 0.000000 0.002289
vn -0.999997 0.000000 0.002289
vn -0.999997 0.000000 0.002289
vn -0.999997 0.000000 0.002289
vn 0.569213 0.000000 -0.822190
vn 0.569213 0.000000 -0.822190
vn 0.569213 0.000000 -0.822190
vn 0.569213 0.000000 -0.822190
vn -0.000012 0.000000 1.000000
vn -0.000012 0.000000 1.000000
vn -0.000012 0.000000 1.000000
vn -0.000012 0.000000 1.000000
vn 0.000000 -1.000000 0.000000
vn 0.000000 -1.000000 0.000000
vn 0.000000 -1.000000 0.000000
vn 0.000000 -1.000000 0.000000
vn 0.000000 0.000000 1.000000
vn 0.000000 0.000000 1.000000
vn 0.000000 0.000000 1.000000
vn 0.000000 0.000000 1.000000
vn 0.000000 1.000000 0.000000
vn 0.000000 1.000000 0.000000
vn 0.000000 1.000000 0.000000
vn 0.000000 1.000000 0.000000
vn 0.000000 0.000000 -1.000000
vn 0.000000 0.000000 -1.000000
vn 0.000000 0.000000 -1.000000
vn 0.000000 0.000000 -1.000000
vn 1.000000 0.000000 0.000000
vn 1.000000 0.000000 0.000000
vn 1.000000 0.000000 0.000000
vn 1.000000 0.000000 0.000000
vn -1.000000 0.000000 0.000000
vn -1.000000 0.000000 0.000000
vn -1.000000 0.000000 0.000000
vn -1.000000 0.000000 0.000000
vn -0.999933 0.000000 0.011557
vn -0.999933 0.000000 0.011557
vn -0.999933 0.000000 0.011557
vn -0.999933 0.000000 0.011557
vn 0.000000 1.000000 0.000000
vn 0.000000 1.000000 0.000000
vn 0.000000 1.000000 0.000000
vn 0.000000 1.000000 0.000000
vn 0.999933 0.000000 -0.011557
vn 0.999933 0.000000 -0.011557
vn 0.999933 0.000000 -0.011557
vn 0.999933 0.000000 -0.011557
vn 0.000000 -1.000000 0.000000
vn 0.000000 -1.000000 0.000000
vn 0.000000 -1.000000 0.000000
vn 0.000000 -1.000000 0.000000
vn 0.011557 0.000000 0.999933
vn 0.011557 0.000000 0.999933
vn 0.011557 0.000000 0.999933
vn 0.011557 0.000000 0.999933
vn -0.011557 0.000000 -0.999933
vn -0.011557 0.000000 -0.999933
vn -0.011557 0.000000 -0.999933
vn -0.011557 0.000000 -0.999933
vn 0.000000 -1.000000 -0.000005
vn 0.000000 -1.000000 -0.000005
vn 0.000000 -1.000000 -0.000005
vn 0.000000 -1.000000 -0.000005
vn -0.005282 0.000000 -0.999986
vn -0.005282 0.000000 -0.999986
vn -0.005282 0.000000 -0.999986
vn -0.005282 0.000000 -0.999986
vn -0.000000 1.000000 -0.000005
vn -0.000000 1.000000 -0.000005
vn -0.000000 1.000000 -0.000005
vn -0.000000 1.000000 -0.000005
vn 0.006566 0.000000 0.999979
vn 0.006566 0.000000 0.999979
vn 0.006566 0.000000 0.999979
vn 0.006566 0.000000 0.999979
vn -0.837563 0.000000 -0.546341
vn -0.837563 0.000000 -0.546341
vn -0.837563 0.000000 -0.546341
vn -0.837563 0.000000 -0.546341
vn 0.739660 0.000000 -0.672981
vn 0.739660 0.000000 -0.672981
vn 0.739660 0.000000 -0.672981
vn 0.739660 0.000000 -0.672981
vn -0.000000 -1.000000 0.000013
vn -0.000000 -1.000000 0.000013
vn -0.000000 -1.000000 0.000013
vn -0.000000 -1.000000 0.000013
vn -0.005757 0.000000 -0.999983
vn -0.005757 0.000000 -0.999983
vn -0.005757 0.000000 -0.999983
vn -0.005757 0.000000 -0.999983
vn 0.000000 1.000000 -0.000004
vn 0.000000 1.000000 -0.000004
vn 0.000000 1.000000 -0.000004
vn 0.000000 1.000000 -0.000004
vn 0.007146 0.000000 0.999975
vn 0.007146 0.000000 0.999975
vn 0.007146 0.000000 0.999975
vn 0.007146 0.000000 0.999975
vn -0.837505 0.000000 -0.546430
vn -0.837505 0.000000 -0.546430
vn -0.837505 0.000000 -0.546430
vn -0.837505 0.000000 -0.546430
vn 0.739782 0.000000 -0.672846
vn 0.739782 0.000000 -0.672846
vn 0.739782 0.000000 -0.672846
vn 0.739782 0.000000 -0.672846
vn -0.000000 -1.000000 -0.000018
vn -0.000000 -1.000000 -0.000018
vn -0.000000 -1.000000 -0.000018
vn -0.000000 -1.000000 -0.000018
vn -0.008324 0.000000 -0.999965
vn -0.008324 0.000000 -0.999965
vn -0.008324 0.000000 -0.999965
vn -0.008324 0.000000 -0.999965
vn 0.000000 1.000000 0.000002
vn 0.000000 1.000000 0.000002
vn 0.000000 1.000000 0.000002
vn 0.000000 1.000000 0.000002
vn 0.008054 0.000000 0.999968
vn 0.008054 0.000000 0.999968
vn 0.008054 0.000000 0.999968
vn 0.008054 0.000000 0.999968
vn -0.825428 0.000000 -0.564508
vn -0.825428 0.000000 -0.564508
vn -0.825428 0.000000 -0.564508
vn -0.825427 0.000000 -0.564508
vn 0.830054 0.000000 -0.557684
vn 0.830054 0.000000 -0.557684
vn 0.830054 0.000000 -0.557684
vn 0.830054 0.000000 -0.557684
vn 0.000000 -1.000000 -0.000007
vn 0.000000 -1.000000 -0.000007
vn 0.000000 -1.000000 -0.000007
vn 0.000000 -1.000000 -0.000007
vn -0.011654 0.000000 -0.999932
vn -0.011654 0.000000 -0.999932
vn -0.011654 0.000000 -0.999932
vn -0.011654 0.000000 -0.999932
vn 0.000000 1.000000 -0.000007
vn 0.000000 1.000000 -0.000007
vn 0.000000 1.000000 -0.000007
vn 0.000000 1.000000 -0.000007
vn 0.012651 0.000000 0.999920
vn 0.012651 0.000000 0.999920
vn 0.012651 0.000000 0.999920
vn 0.012651 0.000000 0.999920
vn -0.806684 0.000000 -0.590982
vn -0.806684 0.000000 -0.590982
vn -0.806684 0.000000 -0.590982
vn -0.806684 0.000000 -0.590982
vn 0.757244 0.000000 -0.653132
vn 0.757244 0.000000 -0.653132
vn 0.757244 0.000000 -0.653132
vn 0.757244 0.000000 -0.653132
vn -0.041848 -0.999120 -0.002897
vn -0.041848 -0.999120 -0.002897
vn -0.041848 -0.999120 -0.002897
vn -0.041848 -0.999120 -0.002897
vn -0.000123 -0.006101 0.999981
vn -0.000123 -0.006101 0.999981
vn -0.000123 -0.006101 0.999981
vn -0.000123 -0.006101 0.999981
vn 0.041851 0.999120 0.002901
vn 0.041851 0.999120 0.002901
vn 0.041851 0.999120 0.002901
vn 0.041851 0.999120 0.002901
vn 0.000122 0.006096 -0.999981
vn 0.000122 0.006096 -0.999981
vn 0.000122 0.006096 -0.999981
vn 0.000122 0.006096 -0.999981
vn 0.987186 -0.063390 0.146443
vn 0.987186 -0.063390 0.146443
vn 0.987186 -0.063390 0.146443
vn 0.987186 -0.063390 0.146443
vn -0.987180 0.063388 -0.146485
vn -0.987180 0.063387 -0.146485
vn -0.987180 0.063388 -0.146485
vn -0.987180 0.063388 -0.146485
vn -0.076523 -0.996957 0.014900
vn -0.076523 -0.996957 0.014900
vn -0.076523 -0.996957 0.014900
vn -0.076523 -0.996957 0.014900
vn -0.904626 0.059847 -0.421985
vn -0.904626 0.059847 -0.421985
vn -0.904626 0.059847 -0.421985
vn -0.904626 0.059847 -0.421985
vn 0.076506 0.996958 -0.014890
vn 0.076506 0.996958 -0.014890
vn 0.076506 0.996958 -0.014890
vn 0.076506 0.996958 -0.014890
vn 0.904627 -0.059848 0.421982
vn 0.904627 -0.059848 0.421982
vn 0.904627 -0.059848 0.421982
vn 0.904627 -0.059848 0.421982
vn -0.536275 0.028789 0.843552
vn -0.536275 0.028789 0.843552
vn -0.536275 0.028789 0.843552
vn -0.536275 0.028789 0.843552
vn 0.536255 -0.028799 -0.843565
vn 0.536255 -0.028799 -0.843565
vn 0.536255 -0.028799 -0.843565
vn 0.536255 -0.028799 -0.843565
s off
g Pole_Stage_4
usemtl initialShadingGroup
f 1/1/1 2/2/2 4/4/3 3/3/4
f 3/3/5 4/4/6 6/6/7 5/5/8
f 5/5/9 6/6/10 8/8/11 7/7/12
f 7/7/13 8/8/14 2/10/15 1/9/16
f 2/2/17 8/11/18 6/12/19 4/4/20
f 7/13/21 1/1/22 3/3/23 5/14/24
f 9/15/25 10/16/26 12/17/27 11/18/28
f 11/18/29 12/17/30 14/19/31 13/20/32
f 13/20/33 14/19/34 16/21/35 15/22/36
f 15/22/37 16/21/38 10/23/39 9/24/40
f 10/16/41 16/25/42 14/26/43 12/17/44
f 15/27/45 9/15/46 11/18/47 13/28/48
f 17/29/49 18/30/50 20/31/51 19/32/52
f 19/32/53 20/31/54 22/33/55 21/34/56
f 21/34/57 22/33/58 24/35/59 23/36/60
f 23/36/61 24/35/62 18/37/63 17/38/64
f 18/30/65 24/39/66 22/40/67 20/31/68
f 23/41/69 17/29/70 19/32/71 21/42/72
f 25/43/73 26/44/74 28/45/75 27/46/76
f 27/46/77 28/45/78 30/47/79 29/48/80
f 29/48/81 30/47/82 32/49/83 31/50/84
f 31/50/85 32/49/86 26/51/87 25/52/88
f 26/44/89 32/53/90 30/54/91 28/45/92
f 31/55/93 25/43/94 27/46/95 29/56/96
f 33/57/97 34/58/98 36/59/99 35/60/100
f 35/60/101 36/59/102 38/61/103 37/62/104
f 37/62/105 38/61/106 40/63/107 39/64/108
f 39/64/109 40/63/110 34/65/111 33/66/112
f 34/58/113 40/67/114 38/68/115 36/59/116
f 39/69/117 33/57/118 35/60/119 37/70/120
f 41/71/121 42/72/122 44/73/123 43/74/124
f 43/74/125 44/73/126 46/75/127 45/76/128
f 45/76/129 46/75/130 48/77/131 47/78/132
f 47/78/133 48/77/134 42/79/135 41/80/136
f 42/72/137 48/81/138 46/82/139 44/73/140
f 47/83/141 41/71/142 43/74/143 45/84/144
f 49/85/145 50/86/146 52/87/147 51/88/148
f 51/88/149 52/87/150 54/89/151 53/90/152
f 53/90/153 54/89/154 56/91/155 55/92/156
f 55/92/157 56/91/158 50/93/159 49/94/160
f 50/86/161 56/95/162 54/96/163 52/87/164
f 55/97/165 49/85/166 51/88/167 53/98/168
f 57/99/169 58/100/170 60/101/171 59/102/172
f 59/102/173 60/101/174 62/103/175 61/104/176
f 61/104/177 62/103/178 64/105/179 63/106/180
f 63/106/181 64/105/182 58/107/183 57/108/184
f 58/100/185 64/109/186 62/110/187 60/101/188
f 63/111/189 57/99/190 59/102/191 61/112/192
f 65/113/193 66/114/194 68/115/195 67/116/196
f 67/116/197 68/115/198 70/117/199 69/118/200
f 69/118/201 70/117/202 72/119/203 71/120/204
f 71/120/205 72/119/206 66/121/207 65/122/208
f 66/114/209 72/123/210 70/124/211 68/115/212
f 71/125/213 65/113/214 67/116/215 69/126/216
f 73/127/217 74/128/218 76/129/219 75/130/220
f 75/130/221 76/129/222 78/131/223 77/132/224
f 77/132/225 78/131/226 80/133/227 79/134/228
f 79/134/229 80/133/230 74/135/231 73/136/232
f 74/128/233 80/137/234 78/138/235 76/129/236
f 79/139/237 73/127/238 75/130/239 77/140/240
f 81/141/241 82/142/242 84/143/243 83/144/244
f 83/144/245 84/143/246 86/145/247 85/146/248
f 85/146/249 86/145/250 88/147/251 87/148/252
f 87/148/253 88/147/254 82/149/255 81/150/256
f 82/142/257 88/151/258 86/152/259 84/143/260
f 87/153/261 81/141/262 83/144/263 85/154/264
f 89/155/265 90/156/266 92/157/267 91/158/268
f 91/158/269 92/157/270 94/159/271 93/160/272
f 93/160/273 94/159/274 96/161/275 95/162/276
f 95/162/277 96/161/278 90/163/279 89/164/280
f 90/156/281 96/165/282 94/166/283 92/157/284
f 95/167/285 89/155/286 91/158/287 93/168/288
