# This file uses centimeters as units for non-parametric coordinates.

mtllib Pole_Stage_1.mtl
g default
v 0.007921 0.117474 -8.856285
v 10.767832 -0.194879 4.904854
v -0.047136 0.118431 -8.813480
v 10.712771 -0.193922 4.947659
v -0.025301 1.118178 -8.807754
v 10.734610 0.805825 4.953385
v 0.029757 1.117220 -8.850559
v 10.789667 0.804867 4.910580
v -9.563625 -0.106275 5.755348
v -0.313257 -0.042379 -9.095657
v -9.504209 -0.107860 5.791844
v -0.253843 -0.043964 -9.059162
v -9.486774 0.891875 5.806854
v -0.236408 0.955771 -9.044151
v -9.546188 0.893460 5.770359
v -0.295822 0.957356 -9.080646
v 2.076653 0.322951 -6.114212
v -2.155041 0.316479 -6.022980
v 1.940785 0.322951 -6.310337
v -2.024093 0.330674 -6.221920
v 1.940785 0.900664 -6.310337
v -2.056494 0.907135 -6.202099
v 2.076653 0.900664 -6.114212
v -2.187441 0.892941 -6.003158
v -0.263794 0.322951 5.542214
v -0.292513 0.322951 -7.005916
v -0.064998 0.322954 5.542214
v -0.096351 0.322954 -6.870109
v -0.064998 0.900666 5.542214
v -0.096351 0.900666 -6.870109
v -0.263794 0.900664 5.542214
v -0.292513 0.900664 -7.005916
v -8.652584 -0.024410 5.495373
v 9.637404 -0.024410 5.495373
v -8.652584 -0.024410 5.565121
v 9.637404 -0.024410 5.565121
v -8.652584 0.975590 5.565121
v 9.637404 0.975590 5.565121
v -8.652584 0.975590 5.495373
v 9.637404 0.975590 5.495373
v -6.856466 1.011107 -6.688351
v -6.691782 1.011107 7.560089
v -6.856466 1.135508 -6.688351
v -6.691782 1.135508 7.560089
v 8.199217 1.135508 -6.862366
v 8.363901 1.135508 7.386074
v 8.199217 1.011107 -6.862366
v 8.363901 1.011107 7.386074
v 9.310301 0.322951 4.311840
v -7.655187 0.322951 4.423241
v 9.149714 0.322954 4.135342
v -7.524843 0.322951 4.223415
v 9.149714 0.900666 4.135342
v -7.524843 0.900664 4.223415
v 9.310301 0.900664 4.311840
v -7.655187 0.900664 4.423241
v 8.434412 0.322954 2.039345
v -7.154905 0.322954 2.150746
v 8.273886 0.322951 1.862846
v -7.024528 0.322954 1.950920
v 8.273886 0.900664 1.862846
v -7.024528 0.900666 1.950920
v 8.434412 0.900666 2.039345
v -7.154905 0.900666 2.150746
v 6.595652 0.322951 -0.313984
v -5.719129 0.322951 -0.214798
v 6.462599 0.322954 -0.512020
v -5.584448 0.322954 -0.411732
v 6.462599 0.900666 -0.512020
v -5.584448 0.900666 -0.411732
v 6.595652 0.900664 -0.313984
v -5.719129 0.900664 -0.214798
v 4.386553 0.322954 -3.168487
v -3.962107 0.322954 -3.062858
v 4.230730 0.322954 -3.349151
v -3.821115 0.322954 -3.255310
v 4.230730 0.900666 -3.349151
v -3.821115 0.900666 -3.255310
v 4.386553 0.900666 -3.168487
v -3.962107 0.900666 -3.062858
vt 0.573845 0.734555
vt 0.967285 0.734498
vt 0.573840 0.736125
vt 0.967281 0.736069
vt 0.573845 0.758645
vt 0.967286 0.758588
vt 0.573850 0.760215
vt 0.967291 0.760159
vt 0.573852 0.782735
vt 0.967292 0.782679
vt 0.989805 0.734564
vt 0.989800 0.736134
vt 0.551325 0.734490
vt 0.551321 0.736061
vt 0.118986 0.685369
vt 0.512995 0.685424
vt 0.513005 0.686995
vt 0.118995 0.686940
vt 0.513005 0.709514
vt 0.118995 0.709460
vt 0.512995 0.711085
vt 0.118985 0.711030
vt 0.512989 0.733604
vt 0.118979 0.733550
vt 0.535514 0.685288
vt 0.535524 0.686859
vt 0.096467 0.685505
vt 0.096476 0.687076
vt 0.674857 0.040332
vt 0.770174 0.040510
vt 0.767121 0.044931
vt 0.677812 0.044820
vt 0.767870 0.057919
vt 0.677821 0.057829
vt 0.770935 0.062333
vt 0.674877 0.062324
vt 0.770216 0.075322
vt 0.674899 0.075334
vt 0.780879 0.047904
vt 0.777825 0.052325
vt 0.663991 0.047487
vt 0.666946 0.051974
vt 0.706222 0.004374
vt 0.988799 0.004353
vt 0.985731 0.008764
vt 0.706212 0.008850
vt 0.985735 0.021774
vt 0.706216 0.021860
vt 0.988806 0.026182
vt 0.706228 0.026337
vt 0.988813 0.039192
vt 0.706235 0.039347
vt 0.999479 0.011782
vt 0.996411 0.016193
vt 0.693212 0.004345
vt 0.693202 0.008822
vt 0.561321 0.685288
vt 0.973201 0.685275
vt 0.973201 0.686845
vt 0.561321 0.686858
vt 0.973202 0.709365
vt 0.561322 0.709378
vt 0.973202 0.710935
vt 0.561322 0.710948
vt 0.973203 0.733455
vt 0.561323 0.733468
vt 0.995720 0.685274
vt 0.995721 0.686845
vt 0.538802 0.685288
vt 0.538802 0.686859
vt 0.339556 0.000515
vt 0.660444 0.000502
vt 0.660444 0.003303
vt 0.339556 0.003316
vt 0.660458 0.342371
vt 0.339570 0.342384
vt 0.660458 0.345172
vt 0.339570 0.345185
vt 0.660471 0.684240
vt 0.339583 0.684253
vt 0.999512 0.000488
vt 0.999512 0.003290
vt 0.000488 0.000528
vt 0.000488 0.003330
vt 0.164548 0.735482
vt 0.546607 0.734569
vt 0.543653 0.739057
vt 0.168147 0.739471
vt 0.543668 0.752066
vt 0.168162 0.752481
vt 0.546632 0.756548
vt 0.164571 0.756479
vt 0.546629 0.769557
vt 0.164568 0.769488
vt 0.557474 0.741722
vt 0.554520 0.746210
vt 0.154888 0.744197
vt 0.158488 0.748186
vt 0.010153 0.771476
vt 0.361223 0.770568
vt 0.358266 0.775054
vt 0.013749 0.775467
vt 0.358282 0.788064
vt 0.013765 0.788476
vt 0.361249 0.792543
vt 0.010178 0.792476
vt 0.361247 0.805553
vt 0.010175 0.805486
vt 0.372086 0.777726
vt 0.369129 0.782213
vt 0.000488 0.780185
vt 0.004085 0.784176
vt 0.048903 0.004371
vt 0.326234 0.004426
vt 0.323164 0.008836
vt 0.051863 0.008855
vt 0.323165 0.021845
vt 0.051864 0.021865
vt 0.326235 0.026255
vt 0.048905 0.026350
vt 0.326240 0.039264
vt 0.048909 0.039359
vt 0.336911 0.011859
vt 0.333842 0.016268
vt 0.038045 0.011537
vt 0.041004 0.016021
vt 0.799124 0.040563
vt 0.987146 0.040237
vt 0.983924 0.044536
vt 0.802589 0.044670
vt 0.983933 0.057546
vt 0.802598 0.057680
vt 0.987162 0.061840
vt 0.799140 0.061791
vt 0.987158 0.074850
vt 0.799136 0.074801
vt 0.997556 0.048040
vt 0.994334 0.052339
vt 0.789180 0.048952
vt 0.792645 0.053059
vn -0.021785 -0.999747 -0.005643
vn -0.021785 -0.999747 -0.005643
vn -0.021785 -0.999747 -0.005643
vn -0.021785 -0.999747 -0.005643
vn -0.787550 0.013673 0.616100
vn -0.787550 0.013673 0.616100
vn -0.787550 0.013673 0.616100
vn -0.787550 0.013673 0.616100
vn 0.021786 0.999747 0.005660
vn 0.021786 0.999747 0.005660
vn 0.021786 0.999747 0.005660
vn 0.021786 0.999747 0.005660
vn 0.787549 -0.013672 -0.616100
vn 0.787549 -0.013672 -0.616100
vn 0.787549 -0.013672 -0.616100
vn 0.787549 -0.013672 -0.616100
vn 0.613505 -0.017923 0.789488
vn 0.613505 -0.017923 0.789488
vn 0.613505 -0.017923 0.789488
vn 0.613505 -0.017923 0.789488
vn -0.613535 0.017920 -0.789464
vn -0.613535 0.017920 -0.789464
vn -0.613535 0.017920 -0.789464
vn -0.613535 0.017920 -0.789464
vn -0.017379 -0.999735 -0.015128
vn -0.017379 -0.999735 -0.015128
vn -0.017379 -0.999735 -0.015128
vn -0.017379 -0.999735 -0.015128
vn 0.848631 -0.022735 0.528496
vn 0.848631 -0.022735 0.528496
vn 0.848631 -0.022735 0.528496
vn 0.848631 -0.022735 0.528496
vn 0.017379 0.999735 0.015131
vn 0.017379 0.999735 0.015131
vn 0.017379 0.999735 0.015131
vn 0.017379 0.999735 0.015131
vn -0.848631 0.022733 -0.528496
vn -0.848631 0.022733 -0.528496
vn -0.848631 0.022733 -0.528496
vn -0.848631 0.022733 -0.528496
vn 0.523388 0.003665 -0.852086
vn 0.523389 0.003665 -0.852086
vn 0.523388 0.003665 -0.852086
vn 0.523389 0.003665 -0.852086
vn -0.523393 -0.003664 0.852084
vn -0.523393 -0.003664 0.852084
vn -0.523393 -0.003664 0.852084
vn -0.523393 -0.003664 0.852084
vn -0.000939 -0.999355 -0.035887
vn -0.000939 -0.999355 -0.035887
vn -0.000939 -0.999355 -0.035887
vn -0.000939 -0.999355 -0.035887
vn -0.024658 0.016474 -0.999560
vn -0.024658 0.016474 -0.999560
vn -0.024658 0.016474 -0.999560
vn -0.024658 0.016474 -0.999560
vn 0.000801 0.999356 0.035886
vn 0.000801 0.999356 0.035886
vn 0.000801 0.999356 0.035886
vn 0.000801 0.999356 0.035886
vn 0.023828 -0.016497 0.999580
vn 0.023828 -0.016497 0.999580
vn 0.023828 -0.016497 0.999580
vn 0.023828 -0.016497 0.999580
vn -0.834049 -0.027935 -0.550983
vn -0.834049 -0.027935 -0.550983
vn -0.834049 -0.027935 -0.550983
vn -0.834049 -0.027935 -0.550983
vn 0.822018 0.000000 -0.569462
vn 0.822018 0.000000 -0.569462
vn 0.822018 0.000000 -0.569462
vn 0.822018 0.000000 -0.569462
vn 0.000019 -1.000000 0.000000
vn 0.000019 -1.000000 0.000000
vn 0.000019 -1.000000 0.000000
vn 0.000019 -1.000000 0.000000
vn 0.999997 0.000000 -0.002526
vn 0.999997 0.000000 -0.002526
vn 0.999997 0.000000 -0.002526
vn 0.999997 0.000000 -0.002526
vn -0.000010 1.000000 0.000000
vn -0.000010 1.000000 0.000000
vn -0.000010 1.000000 0.000000
vn -0.000010 1.000000 0.000000
vn -0.999997 0.000000 0.002289
vn -0.999997 0.000000 0.002289
vn -0.999997 0.000000 0.002289
vn -0.999997 0.000000 0.002289
vn 0.569213 0.000000 -0.822190
vn 0.569213 0.000000 -0.822190
vn 0.569213 0.000000 -0.822190
vn 0.569213 0.000000 -0.822190
vn -0.000012 0.000000 1.000000
vn -0.000012 0.000000 1.000000
vn -0.000012 0.000000 1.000000
vn -0.000012 0.000000 1.000000
vn 0.000000 -1.000000 0.000000
vn 0.000000 -1.000000 0.000000
vn 0.000000 -1.000000 0.000000
vn 0.000000 -1.000000 0.000000
vn 0.000000 0.000000 1.000000
vn 0.000000 0.000000 1.000000
vn 0.000000 0.000000 1.000000
vn 0.000000 0.000000 1.000000
vn 0.000000 1.000000 0.000000
vn 0.000000 1.000000 0.000000
vn 0.000000 1.000000 0.000000
vn 0.000000 1.000000 0.000000
vn 0.000000 0.000000 -1.000000
vn 0.000000 0.000000 -1.000000
vn 0.000000 0.000000 -1.000000
vn 0.000000 0.000000 -1.000000
vn 1.000000 0.000000 0.000000
vn 1.000000 0.000000 0.000000
vn 1.000000 0.000000 0.000000
vn 1.000000 0.000000 0.000000
vn -1.000000 0.000000 0.000000
vn -1.000000 0.000000 0.000000
vn -1.000000 0.000000 0.000000
vn -1.000000 0.000000 0.000000
vn -0.999933 0.000000 0.011557
vn -0.999933 0.000000 0.011557
vn -0.999933 0.000000 0.011557
vn -0.999933 0.000000 0.011557
vn 0.000000 1.000000 0.000000
vn 0.000000 1.000000 0.000000
vn 0.000000 1.000000 0.000000
vn 0.000000 1.000000 0.000000
vn 0.999933 0.000000 -0.011557
vn 0.999933 0.000000 -0.011557
vn 0.999933 0.000000 -0.011557
vn 0.999933 0.000000 -0.011557
vn 0.000000 -1.000000 0.000000
vn 0.000000 -1.000000 0.000000
vn 0.000000 -1.000000 0.000000
vn 0.000000 -1.000000 0.000000
vn 0.011557 0.000000 0.999933
vn 0.011557 0.000000 0.999933
vn 0.011557 0.000000 0.999933
vn 0.011557 0.000000 0.999933
vn -0.011557 0.000000 -0.999933
vn -0.011557 0.000000 -0.999933
vn -0.011557 0.000000 -0.999933
vn -0.011557 0.000000 -0.999933
vn 0.000000 -1.000000 -0.000005
vn 0.000000 -1.000000 -0.000005
vn 0.000000 -1.000000 -0.000005
vn 0.000000 -1.000000 -0.000005
vn -0.005282 0.000000 -0.999986
vn -0.005282 0.000000 -0.999986
vn -0.005282 0.000000 -0.999986
vn -0.005282 0.000000 -0.999986
vn -0.000000 1.000000 -0.000005
vn -0.000000 1.000000 -0.000005
vn -0.000000 1.000000 -0.000005
vn -0.000000 1.000000 -0.000005
vn 0.006566 0.000000 0.999979
vn 0.006566 0.000000 0.999979
vn 0.006566 0.000000 0.999979
vn 0.006566 0.000000 0.999979
vn -0.837563 0.000000 -0.546341
vn -0.837563 0.000000 -0.546341
vn -0.837563 0.000000 -0.546341
vn -0.837563 0.000000 -0.546341
vn 0.739660 0.000000 -0.672981
vn 0.739660 0.000000 -0.672981
vn 0.739660 0.000000 -0.672981
vn 0.739660 0.000000 -0.672981
vn -0.000000 -1.000000 0.000013
vn -0.000000 -1.000000 0.000013
vn -0.000000 -1.000000 0.000013
vn -0.000000 -1.000000 0.000013
vn -0.005757 0.000000 -0.999983
vn -0.005757 0.000000 -0.999983
vn -0.005757 0.000000 -0.999983
vn -0.005757 0.000000 -0.999983
vn 0.000000 1.000000 -0.000004
vn 0.000000 1.000000 -0.000004
vn 0.000000 1.000000 -0.000004
vn 0.000000 1.000000 -0.000004
vn 0.007146 0.000000 0.999975
vn 0.007146 0.000000 0.999975
vn 0.007146 0.000000 0.999975
vn 0.007146 0.000000 0.999975
vn -0.837505 0.000000 -0.546430
vn -0.837505 0.000000 -0.546430
vn -0.837505 0.000000 -0.546430
vn -0.837505 0.000000 -0.546430
vn 0.739782 0.000000 -0.672846
vn 0.739782 0.000000 -0.672846
vn 0.739782 0.000000 -0.672846
vn 0.739782 0.000000 -0.672846
vn -0.000000 -1.000000 -0.000018
vn -0.000000 -1.000000 -0.000018
vn -0.000000 -1.000000 -0.000018
vn -0.000000 -1.000000 -0.000018
vn -0.008324 0.000000 -0.999965
vn -0.008324 0.000000 -0.999965
vn -0.008324 0.000000 -0.999965
vn -0.008324 0.000000 -0.999965
vn 0.000000 1.000000 0.000002
vn 0.000000 1.000000 0.000002
vn 0.000000 1.000000 0.000002
vn 0.000000 1.000000 0.000002
vn 0.008054 0.000000 0.999968
vn 0.008054 0.000000 0.999968
vn 0.008054 0.000000 0.999968
vn 0.008054 0.000000 0.999968
vn -0.825428 0.000000 -0.564508
vn -0.825428 0.000000 -0.564508
vn -0.825428 0.000000 -0.564508
vn -0.825427 0.000000 -0.564508
vn 0.830054 0.000000 -0.557684
vn 0.830054 0.000000 -0.557684
vn 0.830054 0.000000 -0.557684
vn 0.830054 0.000000 -0.557684
vn 0.000000 -1.000000 -0.000007
vn 0.000000 -1.000000 -0.000007
vn 0.000000 -1.000000 -0.000007
vn 0.000000 -1.000000 -0.000007
vn -0.011654 0.000000 -0.999932
vn -0.011654 0.000000 -0.999932
vn -0.011654 0.000000 -0.999932
vn -0.011654 0.000000 -0.999932
vn 0.000000 1.000000 -0.000007
vn 0.000000 1.000000 -0.000007
vn 0.000000 1.000000 -0.000007
vn 0.000000 1.000000 -0.000007
vn 0.012651 0.000000 0.999920
vn 0.012651 0.000000 0.999920
vn 0.012651 0.000000 0.999920
vn 0.012651 0.000000 0.999920
vn -0.806684 0.000000 -0.590982
vn -0.806684 0.000000 -0.590982
vn -0.806684 0.000000 -0.590982
vn -0.806684 0.000000 -0.590982
vn 0.757244 0.000000 -0.653132
vn 0.757244 0.000000 -0.653132
vn 0.757244 0.000000 -0.653132
vn 0.757244 0.000000 -0.653132
s off
g Pole_Stage_1
usemtl initialShadingGroup
f 1/1/1 2/2/2 4/4/3 3/3/4
f 3/3/5 4/4/6 6/6/7 5/5/8
f 5/5/9 6/6/10 8/8/11 7/7/12
f 7/7/13 8/8/14 2/10/15 1/9/16
f 2/2/17 8/11/18 6/12/19 4/4/20
f 7/13/21 1/1/22 3/3/23 5/14/24
f 9/15/25 10/16/26 12/17/27 11/18/28
f 11/18/29 12/17/30 14/19/31 13/20/32
f 13/20/33 14/19/34 16/21/35 15/22/36
f 15/22/37 16/21/38 10/23/39 9/24/40
f 10/16/41 16/25/42 14/26/43 12/17/44
f 15/27/45 9/15/46 11/18/47 13/28/48
f 17/29/49 18/30/50 20/31/51 19/32/52
f 19/32/53 20/31/54 22/33/55 21/34/56
f 21/34/57 22/33/58 24/35/59 23/36/60
f 23/36/61 24/35/62 18/37/63 17/38/64
f 18/30/65 24/39/66 22/40/67 20/31/68
f 23/41/69 17/29/70 19/32/71 21/42/72
f 25/43/73 26/44/74 28/45/75 27/46/76
f 27/46/77 28/45/78 30/47/79 29/48/80
f 29/48/81 30/47/82 32/49/83 31/50/84
f 31/50/85 32/49/86 26/51/87 25/52/88
f 26/44/89 32/53/90 30/54/91 28/45/92
f 31/55/93 25/43/94 27/46/95 29/56/96
f 33/57/97 34/58/98 36/59/99 35/60/100
f 35/60/101 36/59/102 38/61/103 37/62/104
f 37/62/105 38/61/106 40/63/107 39/64/108
f 39/64/109 40/63/110 34/65/111 33/66/112
f 34/58/113 40/67/114 38/68/115 36/59/116
f 39/69/117 33/57/118 35/60/119 37/70/120
f 41/71/121 42/72/122 44/73/123 43/74/124
f 43/74/125 44/73/126 46/75/127 45/76/128
f 45/76/129 46/75/130 48/77/131 47/78/132
f 47/78/133 48/77/134 42/79/135 41/80/136
f 42/72/137 48/81/138 46/82/139 44/73/140
f 47/83/141 41/71/142 43/74/143 45/84/144
f 49/85/145 50/86/146 52/87/147 51/88/148
f 51/88/149 52/87/150 54/89/151 53/90/152
f 53/90/153 54/89/154 56/91/155 55/92/156
f 55/92/157 56/91/158 50/93/159 49/94/160
f 50/86/161 56/95/162 54/96/163 52/87/164
f 55/97/165 49/85/166 51/88/167 53/98/168
f 57/99/169 58/100/170 60/101/171 59/102/172
f 59/102/173 60/101/174 62/103/175 61/104/176
f 61/104/177 62/103/178 64/105/179 63/106/180
f 63/106/181 64/105/182 58/107/183 57/108/184
f 58/100/185 64/109/186 62/110/187 60/101/188
f 63/111/189 57/99/190 59/102/191 61/112/192
f 65/113/193 66/114/194 68/115/195 67/116/196
f 67/116/197 68/115/198 70/117/199 69/118/200
f 69/118/201 70/117/202 72/119/203 71/120/204
f 71/120/205 72/119/206 66/121/207 65/122/208
f 66/114/209 72/123/210 70/124/211 68/115/212
f 71/125/213 65/113/214 67/116/215 69/126/216
f 73/127/217 74/128/218 76/129/219 75/130/220
f 75/130/221 76/129/222 78/131/223 77/132/224
f 77/132/225 78/131/226 80/133/227 79/134/228
f 79/134/229 80/133/230 74/135/231 73/136/232
f 74/128/233 80/137/234 78/138/235 76/129/236
f 79/139/237 73/127/238 75/130/239 77/140/240
