# This file uses centimeters as units for non-parametric coordinates.

mtllib Stage_Floor.mtl
g default
v -64.150738 -0.000048 0.051101
v -64.145285 -0.005505 0.051101
v -64.137831 -0.007502 0.051101
v -64.137831 -0.005505 0.058555
v -64.137831 -0.000048 0.064012
v -64.137831 0.007406 0.066009
v -64.145285 0.007406 0.064012
v -64.150738 0.007406 0.058555
v -64.152740 0.007406 0.051101
v -0.001301 -0.005505 0.051101
v 0.004156 -0.000048 0.051101
v 0.006154 0.007406 0.051101
v 0.004156 0.007406 0.058555
v -0.001301 0.007406 0.064012
v -0.008752 0.007406 0.066009
v -0.008752 -0.000048 0.064012
v -0.008752 -0.005505 0.058555
v -0.008752 -0.007502 0.051101
v -64.145285 0.288689 0.051101
v -64.150738 0.283233 0.051101
v -64.152740 0.275779 0.051101
v -64.150738 0.275779 0.058555
v -64.145285 0.275779 0.064012
v -64.137831 0.275779 0.066009
v -64.137831 0.283233 0.064012
v -64.137831 0.288689 0.058555
v -64.137831 0.290687 0.051101
v 0.004156 0.283233 0.051101
v -0.001301 0.288689 0.051101
v -0.008752 0.290687 0.051101
v -0.008752 0.288689 0.058555
v -0.008752 0.283233 0.064012
v -0.008752 0.275779 0.066009
v -0.001301 0.275779 0.064012
v 0.004156 0.275779 0.058555
v 0.006154 0.275779 0.051101
v -64.145285 0.275779 -51.671687
v -64.150738 0.275779 -51.666231
v -64.152740 0.275779 -51.658776
v -64.150738 0.283233 -51.658776
v -64.145285 0.288689 -51.658776
v -64.137831 0.290687 -51.658776
v -64.137831 0.288689 -51.666231
v -64.137831 0.283233 -51.671687
v -64.137831 0.275779 -51.673686
v 0.004156 0.275779 -51.666231
v -0.001301 0.275779 -51.671687
v -0.008752 0.275779 -51.673686
v -0.008752 0.283233 -51.671687
v -0.008752 0.288689 -51.666231
v -0.008752 0.290687 -51.658776
v -0.001301 0.288689 -51.658776
v 0.004156 0.283233 -51.658776
v 0.006154 0.275779 -51.658776
v -64.145285 -0.005505 -51.658776
v -64.150738 -0.000048 -51.658776
v -64.152740 0.007406 -51.658776
v -64.150738 0.007406 -51.666231
v -64.145285 0.007406 -51.671687
v -64.137831 0.007406 -51.673686
v -64.137831 -0.000048 -51.671687
v -64.137831 -0.005505 -51.666231
v -64.137831 -0.007502 -51.658776
v 0.004156 -0.000048 -51.658776
v -0.001301 -0.005505 -51.658776
v -0.008752 -0.007502 -51.658776
v -0.008752 -0.005505 -51.666231
v -0.008752 -0.000048 -51.671687
v -0.008752 0.007406 -51.673686
v -0.001301 0.007406 -51.671687
v 0.004156 0.007406 -51.666231
v 0.006154 0.007406 -51.658776
v -64.149619 0.000964 0.057542
v -64.144269 -0.004384 0.057542
v -64.144269 0.000964 0.062890
v -0.002312 -0.004384 0.057542
v 0.003035 0.000964 0.057542
v -0.002312 0.000964 0.062890
v -64.144269 0.287568 0.057542
v -64.149619 0.282220 0.057542
v -64.144269 0.282220 0.062890
v 0.003035 0.282220 0.057542
v -0.002312 0.287568 0.057542
v -0.002312 0.282220 0.062890
v -64.144269 0.282220 -51.670565
v -64.149619 0.282220 -51.665216
v -64.144269 0.287568 -51.665216
v 0.003035 0.282220 -51.665216
v -0.002312 0.282220 -51.670565
v -0.002312 0.287568 -51.665216
v -64.144269 -0.004384 -51.665216
v -64.149619 0.000964 -51.665216
v -64.144269 0.000964 -51.670565
v 0.003035 0.000964 -51.665216
v -0.002312 -0.004384 -51.665216
v -0.002312 0.000964 -51.670565
vt 0.006295 0.487598
vt 0.010329 0.992612
vt 0.605828 0.487653
vt 0.001689 0.996733
vt 0.010329 0.995169
vt 0.001293 0.999312
vt 0.001689 0.999292
vt 0.004044 0.982685
vt 0.006305 0.972150
vt 0.894053 0.999468
vt 0.894022 0.999248
vt 0.894022 0.996689
vt 0.605872 0.004226
vt 0.984140 0.988579
vt 0.894419 0.996669
vt 0.001294 0.996713
vt 0.010329 0.995390
vt 0.001658 0.999512
vt 0.984139 0.991137
vt 0.894417 0.999267
vt 0.984167 0.988359
vt 0.896373 0.982574
vt 0.896373 0.985132
vt 0.984488 0.991156
vt 0.896376 0.982500
vt 0.896386 0.982427
vt 0.896565 0.982395
vt 0.896691 0.982463
vt 0.896637 0.982565
vt 0.896505 0.982572
vt 0.001675 0.996586
vt 0.001686 0.996659
vt 0.001557 0.996731
vt 0.001425 0.996724
vt 0.001370 0.996622
vt 0.001497 0.996554
vt 0.896387 0.985279
vt 0.896376 0.985205
vt 0.896505 0.985134
vt 0.896637 0.985140
vt 0.896692 0.985243
vt 0.896565 0.985310
vt 0.001686 0.999365
vt 0.001675 0.999439
vt 0.001497 0.999471
vt 0.001371 0.999403
vt 0.001425 0.999300
vt 0.001557 0.999294
vt 0.984256 0.991139
vt 0.984372 0.991145
vt 0.984421 0.991248
vt 0.984309 0.991316
vt 0.984151 0.991284
vt 0.984142 0.991210
vt 0.894155 0.999250
vt 0.894286 0.999256
vt 0.894341 0.999358
vt 0.894215 0.999426
vt 0.894036 0.999395
vt 0.894025 0.999321
vt 0.984310 0.988400
vt 0.984422 0.988468
vt 0.984374 0.988570
vt 0.984257 0.988577
vt 0.984142 0.988505
vt 0.984152 0.988432
vt 0.894025 0.996615
vt 0.894036 0.996542
vt 0.894214 0.996510
vt 0.894341 0.996578
vt 0.894287 0.996680
vt 0.894154 0.996687
vt 0.896484 0.982513
vt 0.896504 0.982445
vt 0.896605 0.982500
vt 0.001558 0.996604
vt 0.001579 0.996672
vt 0.001456 0.996660
vt 0.896504 0.985261
vt 0.896483 0.985193
vt 0.896606 0.985205
vt 0.001578 0.999353
vt 0.001558 0.999421
vt 0.001457 0.999365
vt 0.984236 0.991198
vt 0.984345 0.991210
vt 0.984255 0.991266
vt 0.894132 0.999309
vt 0.894255 0.999321
vt 0.894153 0.999377
vt 0.984256 0.988450
vt 0.984345 0.988505
vt 0.984238 0.988518
vt 0.894133 0.996628
vt 0.894153 0.996560
vt 0.894254 0.996616
vt 0.003663 0.988509
vt 0.003663 0.988435
vt 0.003663 0.988362
vt 0.894053 0.996469
vt 0.003663 0.991067
vt 0.605838 0.972138
vt 0.003663 0.991214
vt 0.003663 0.991141
vt 0.990799 0.995391
vt 0.990799 0.995171
vt 0.990799 0.995244
vt 0.990799 0.995318
vt 0.990799 0.992613
vt 0.001658 0.996513
vt 0.990799 0.992466
vt 0.990799 0.992540
vt 0.003663 0.988288
vt 0.006340 0.004171
vt 0.004045 0.985464
vt 0.003663 0.991288
vt 0.605828 0.488710
vt 0.006295 0.488723
vt 0.896403 0.982354
vt 0.990799 0.992392
vt 0.984491 0.988559
vt 0.004045 0.985243
vt 0.984166 0.991357
vt 0.004045 0.985391
vt 0.004045 0.985317
vt 0.004044 0.982611
vt 0.004044 0.982538
vt 0.004044 0.982464
vt 0.010329 0.995243
vt 0.896768 0.985151
vt 0.010329 0.995316
vt 0.896404 0.985352
vt 0.896769 0.982554
vt 0.010329 0.992465
vt 0.010329 0.992391
vt 0.010329 0.992538
vn -0.000031 -1.000000 0.000039
vn -0.258811 -0.965928 0.000057
vn -0.258811 -0.965928 -0.000057
vn -0.000031 -1.000000 -0.000039
vn -0.707316 -0.706898 0.000001
vn -0.866008 -0.500031 0.000030
vn -0.866008 -0.500031 -0.000030
vn -0.707316 -0.706898 -0.000001
vn -0.999974 -0.007253 0.000038
vn -0.999974 -0.007253 -0.000038
vn -0.000031 -0.007239 0.999974
vn -0.000001 -0.258760 0.965942
vn 0.000001 -0.258760 0.965942
vn 0.000031 -0.007239 0.999974
vn -0.000046 -0.707114 0.707100
vn -0.000024 -0.866046 0.499965
vn 0.000024 -0.866046 0.499965
vn 0.000046 -0.707114 0.707100
vn 0.000031 -1.000000 0.000039
vn -0.866150 -0.005651 0.499751
vn -0.866150 0.005647 0.499751
vn -0.999974 0.007253 0.000038
vn -0.707394 -0.005439 0.706798
vn -0.707395 0.005430 0.706798
vn -0.258205 -0.005477 0.966074
vn -0.000031 0.007239 0.999974
vn -0.258206 0.005476 0.966074
vn 0.999974 -0.007241 0.000038
vn 0.965926 -0.258817 0.000002
vn 0.965926 -0.258817 -0.000002
vn 0.999974 -0.007241 -0.000038
vn 0.706993 -0.707221 0.000056
vn 0.706993 -0.707221 0.000001
vn 0.706993 -0.707221 -0.000001
vn 0.706993 -0.707221 -0.000056
vn 0.258919 -0.965899 0.000057
vn 0.000031 -1.000000 -0.000039
vn 0.258919 -0.965899 -0.000057
vn 0.258299 -0.005478 0.966050
vn 0.258298 0.005479 0.966050
vn 0.000031 0.007239 0.999974
vn 0.707083 -0.005432 0.707110
vn 0.866123 -0.005652 0.499800
vn 0.866123 0.005652 0.499800
vn 0.707083 0.005432 0.707110
vn 0.999974 0.007241 0.000038
vn -0.866007 0.500031 0.000030
vn -0.866007 0.500031 -0.000030
vn -0.999974 0.007253 -0.000038
vn -0.707317 0.706897 0.000001
vn -0.707317 0.706897 -0.000001
vn -0.258811 0.965928 0.000057
vn -0.000031 1.000000 0.000039
vn -0.000031 1.000000 -0.000039
vn -0.258811 0.965928 -0.000057
vn -0.000024 0.866045 0.499966
vn 0.000024 0.866045 0.499966
vn 0.000031 1.000000 0.000039
vn -0.000024 0.500003 0.866024
vn 0.000024 0.500003 0.866024
vn 0.500014 0.866017 0.000030
vn 0.500014 0.866017 -0.000030
vn 0.000031 1.000000 -0.000039
vn 0.865959 0.500115 0.000030
vn 0.865959 0.500115 -0.000030
vn 0.999974 0.007241 -0.000038
vn -0.866138 0.005661 -0.499773
vn -0.866140 -0.005663 -0.499770
vn -0.707351 0.005441 -0.706842
vn -0.707353 -0.005440 -0.706840
vn -0.258634 0.005481 -0.965960
vn -0.000031 0.007246 -0.999974
vn -0.000031 -0.007246 -0.999974
vn -0.258634 -0.005481 -0.965960
vn -0.000001 0.258997 -0.965878
vn 0.000001 0.258997 -0.965878
vn 0.000031 0.007246 -0.999974
vn -0.000046 0.707070 -0.707143
vn -0.000024 0.866045 -0.499966
vn 0.000024 0.866045 -0.499966
vn 0.000046 0.707070 -0.707143
vn 0.258727 0.005481 -0.965935
vn 0.258727 -0.005482 -0.965935
vn 0.000031 -0.007246 -0.999974
vn 0.707044 0.005426 -0.707149
vn 0.866111 0.005647 -0.499819
vn 0.866112 -0.005651 -0.499818
vn 0.707042 -0.005432 -0.707151
vn -0.000024 -0.866046 -0.499965
vn 0.000024 -0.866046 -0.499965
vn -0.000046 -0.707071 -0.707142
vn 0.000046 -0.707071 -0.707142
vn -0.000001 -0.258996 -0.965878
vn 0.000001 -0.258996 -0.965878
vn -0.946094 -0.228881 0.229172
vn -0.667376 -0.363170 0.650167
vn -0.484025 -0.727936 0.485623
vn -0.229081 -0.946063 0.229099
vn -0.653720 -0.358862 0.666234
vn -0.229062 -0.228950 0.946104
vn 0.229063 -0.946093 0.228992
vn 0.483969 -0.727952 0.485653
vn 0.667487 -0.362954 0.650173
vn 0.946047 -0.229169 0.229078
vn 0.653819 -0.358653 0.666250
vn 0.229069 -0.228943 0.946104
vn -0.229036 0.946084 0.229056
vn -0.484086 0.727854 0.485684
vn -0.667454 0.362894 0.650240
vn -0.946076 0.228970 0.229155
vn -0.653778 0.358652 0.666290
vn -0.229076 0.228950 0.946101
vn 0.946042 0.229179 0.229086
vn 0.667478 0.362990 0.650162
vn 0.484005 0.727904 0.485690
vn 0.229086 0.946083 0.229014
vn 0.653831 0.358608 0.666263
vn 0.229057 0.228945 0.946106
vn -0.229066 0.229146 -0.946055
vn -0.653776 0.358778 -0.666225
vn -0.667393 0.363171 -0.650149
vn -0.945899 0.229645 -0.229211
vn -0.484377 0.727662 -0.485682
vn -0.229071 0.946042 -0.229196
vn 0.946037 0.229087 -0.229201
vn 0.667823 0.362783 -0.649923
vn 0.654145 0.358567 -0.665976
vn 0.229062 0.229091 -0.946070
vn 0.483998 0.727927 -0.485663
vn 0.228975 0.946111 -0.229009
vn -0.229094 -0.946031 -0.229219
vn -0.484393 -0.727662 -0.485666
vn -0.667466 -0.363121 -0.650102
vn -0.945892 -0.229762 -0.229123
vn -0.653824 -0.358809 -0.666160
vn -0.229065 -0.229145 -0.946056
vn 0.946077 -0.229055 -0.229067
vn 0.667540 -0.363029 -0.650077
vn 0.483967 -0.727927 -0.485694
vn 0.229043 -0.946093 -0.229015
vn 0.653878 -0.358733 -0.666149
vn 0.229061 -0.229090 -0.946070
s 1
g Stage_Floor
usemtl lambert11SG
f 3/119/1 2/26/2 55/127/3 63/128/4
f 2/26/5 1/25/6 56/126/7 55/127/8
f 1/25/6 9/22/9 57/8/10 56/126/7
f 6/2/11 5/136/12 16/112/13 15/109/14
f 5/136/15 4/134/16 17/111/17 16/112/18
f 4/134/16 3/135/1 18/120/19 17/111/17
f 9/22/9 8/30/20 22/39/21 21/23/22
f 8/30/20 7/29/23 23/40/24 22/39/21
f 7/29/25 6/133/11 24/130/26 23/40/27
f 12/4/28 11/32/29 64/67/30 72/12/31
f 11/32/32 10/31/33 65/68/34 64/67/35
f 10/31/36 18/110/19 66/100/37 65/68/38
f 15/16/14 14/34/39 34/47/40 33/6/41
f 14/34/42 13/33/43 35/48/44 34/47/45
f 13/33/43 12/4/28 36/7/46 35/48/44
f 21/23/22 20/38/47 40/125/48 39/122/49
f 20/38/47 19/37/50 41/124/51 40/125/48
f 19/37/52 27/132/53 42/115/54 41/124/55
f 27/17/53 26/131/56 31/108/57 30/105/58
f 26/131/56 25/129/59 32/107/60 31/108/57
f 25/129/59 24/5/26 33/106/41 32/107/60
f 30/18/58 29/44/61 52/59/62 51/10/63
f 29/44/61 28/43/64 53/60/65 52/59/62
f 28/43/64 36/7/46 54/11/66 53/60/65
f 39/24/49 38/50/67 58/63/68 57/121/10
f 38/50/67 37/49/69 59/64/70 58/63/68
s 9
f 37/49/71 45/19/72 60/14/73 59/64/74
f 45/19/72 44/54/75 49/104/76 48/101/77
s 1
f 44/54/78 43/53/79 50/103/80 49/104/81
f 43/53/79 42/123/54 51/116/63 50/103/80
s 9
f 48/20/77 47/56/82 70/71/83 69/15/84
s 1
f 47/56/85 46/55/86 71/72/87 70/71/88
f 46/55/86 54/11/66 72/12/31 71/72/87
f 63/21/4 62/66/89 67/99/90 66/113/37
f 62/66/89 61/65/91 68/98/92 67/99/90
s 9
f 61/65/93 60/14/73 69/97/84 68/98/94
s 1
f 6/2/11 15/109/14 33/106/41 24/5/26
f 27/118/53 30/117/58 51/102/63 42/9/54
s 9
f 45/19/72 48/101/77 69/97/84 60/14/73
s 1
f 63/114/4 66/13/37 18/3/19 3/1/1
f 12/4/28 72/12/31 54/11/66 36/7/46
f 57/8/10 9/22/9 21/23/22 39/122/49
f 8/30/20 9/22/9 1/25/6 73/73/95
f 73/73/96 1/25/6 2/26/5 74/74/97
f 2/26/2 3/119/1 4/27/16 74/74/98
f 74/74/97 4/27/16 5/28/15 75/75/99
f 5/28/12 6/133/11 7/29/25 75/75/100
f 75/75/99 7/29/23 8/30/20 73/73/96
f 73/73/96 74/74/97 75/75/99
f 17/36/17 18/110/19 10/31/36 76/76/101
f 76/76/102 10/31/33 11/32/32 77/77/103
f 11/32/29 12/4/28 13/33/43 77/77/104
f 77/77/103 13/33/43 14/34/42 78/78/105
f 14/34/39 15/16/14 16/35/13 78/78/106
f 78/78/105 16/35/18 17/36/17 76/76/102
f 76/76/102 77/77/103 78/78/105
f 26/42/56 27/132/53 19/37/52 79/79/107
f 79/79/108 19/37/50 20/38/47 80/80/109
f 20/38/47 21/23/22 22/39/21 80/80/110
f 80/80/109 22/39/21 23/40/24 81/81/111
f 23/40/27 24/130/26 25/41/59 81/81/112
f 81/81/111 25/41/59 26/42/56 79/79/108
f 79/79/108 80/80/109 81/81/111
f 35/48/44 36/7/46 28/43/64 82/82/113
f 82/82/114 28/43/64 29/44/61 83/83/115
f 29/44/61 30/18/58 31/45/57 83/83/116
f 83/83/115 31/45/57 32/46/60 84/84/117
f 32/46/60 33/6/41 34/47/40 84/84/118
f 84/84/117 34/47/45 35/48/44 82/82/114
f 82/82/114 83/83/115 84/84/117
s 9
f 44/54/75 45/19/72 37/49/71 85/85/119
s 1
f 85/85/120 37/49/69 38/50/67 86/86/121
f 38/50/67 39/24/49 40/51/48 86/86/122
f 86/86/121 40/51/48 41/52/51 87/87/123
f 41/52/55 42/123/54 43/53/79 87/87/124
f 87/87/123 43/53/79 44/54/78 85/85/120
f 85/85/120 86/86/121 87/87/123
f 53/60/65 54/11/66 46/55/86 88/88/125
f 88/88/126 46/55/86 47/56/85 89/89/127
s 9
f 47/56/82 48/20/77 49/57/76 89/89/128
s 1
f 89/89/127 49/57/81 50/58/80 90/90/129
f 50/58/80 51/10/63 52/59/62 90/90/130
f 90/90/129 52/59/62 53/60/65 88/88/126
f 88/88/126 89/89/127 90/90/129
f 62/66/89 63/21/4 55/61/3 91/91/131
f 91/91/132 55/61/8 56/62/7 92/92/133
f 56/62/7 57/121/10 58/63/68 92/92/134
f 92/92/133 58/63/68 59/64/70 93/93/135
s 9
f 59/64/74 60/14/73 61/65/93 93/93/136
s 1
f 93/93/135 61/65/91 62/66/89 91/91/132
f 91/91/132 92/92/133 93/93/135
f 71/72/87 72/12/31 64/67/30 94/94/137
f 94/94/138 64/67/35 65/68/34 95/95/139
f 65/68/38 66/100/37 67/69/90 95/95/140
f 95/95/139 67/69/90 68/70/92 96/96/141
s 9
f 68/70/94 69/15/84 70/71/83 96/96/142
s 1
f 96/96/141 70/71/88 71/72/87 94/94/138
f 94/94/138 95/95/139 96/96/141
