# This file uses centimeters as units for non-parametric coordinates.

mtllib Wire.mtl
g default
v 0.006312 -0.096677 0.159264
v -0.049047 5.443705 -1.132912
v 0.006312 8.916655 -1.059120
v -0.671911 13.665572 -0.936623
v -72.982153 12.964480 -43.925941
v -73.650732 8.368123 -44.235878
v -73.881140 -1.015176 -42.376808
v -11.361425 12.964480 -8.165627
v -12.030065 8.368123 -8.475563
v -12.260412 -1.015176 -6.616493
v -73.765905 3.676474 -43.306374
v -12.145239 3.676474 -7.546059
v -42.171789 12.964480 -26.045753
v -38.833349 8.368123 -25.344704
v -40.555822 3.676474 -25.426247
v -43.070776 -1.015176 -24.496681
v -20.604528 12.964480 -13.529640
v -21.273168 8.368123 -13.839638
v -21.388342 3.676474 -12.910072
v -21.503515 -1.015176 -11.980507
v -60.657995 12.964480 -36.773842
v -61.326574 8.368125 -37.083778
v -61.441809 3.676474 -36.154274
v -61.556982 -1.015176 -35.224709
v -71.951208 15.252646 -44.127724
v -59.409399 15.750624 -37.900429
v 0.407068 15.535033 -2.096901
v -10.330053 15.253554 -8.367409
v -41.140600 15.253150 -26.247536
v -19.573156 15.253554 -13.731483
vt 0.168248 0.712542
vt 0.168525 0.836891
vt 0.115086 0.828341
vt 0.114761 0.704064
vt 0.059636 0.832640
vt 0.059300 0.708620
vt 0.004220 0.836929
vt 0.003870 0.713135
vt 0.015043 0.999512
vt 0.080629 0.991502
vt 0.120926 0.992600
vt 0.176297 0.986995
vt 0.167238 0.174331
vt 0.169613 0.422546
vt 0.115095 0.460368
vt 0.113712 0.166107
vt 0.059942 0.442748
vt 0.058184 0.170341
vt 0.000488 0.422886
vt 0.002718 0.174407
vt 0.166713 0.008875
vt 0.113357 0.000488
vt 0.058017 0.004840
vt 0.002654 0.009127
vt 0.195994 0.721771
vt 0.196439 0.845739
vt 0.204604 0.989949
vt 0.204608 0.180165
vt 0.197373 0.431746
vt 0.194493 0.017953
vn 0.509248 -0.069341 -0.857822
vn 0.500591 -0.215946 -0.838317
vn 0.499540 -0.097545 -0.860782
vn 0.524778 -0.049975 -0.849771
vn 0.493671 -0.180665 -0.850676
vn 0.510485 -0.226799 -0.829438
vn 0.493668 -0.180676 -0.850675
vn 0.498345 -0.262499 -0.826285
vn 0.483529 -0.188435 -0.854805
vn 0.483529 -0.188435 -0.854805
vn 0.483529 -0.188435 -0.854805
vn 0.483529 -0.188435 -0.854805
vn 0.501935 -0.100516 -0.859045
vn 0.501935 -0.100516 -0.859045
vn 0.501935 -0.100516 -0.859045
vn 0.501935 -0.100516 -0.859045
vn 0.539739 0.039462 -0.840907
vn 0.539739 0.039462 -0.840907
vn 0.539739 0.039462 -0.840907
vn 0.539739 0.039462 -0.840907
vn 0.489114 -0.107434 -0.865578
vn 0.498337 -0.064675 -0.864568
vn 0.510092 -0.034154 -0.859441
vn 0.481910 -0.065111 -0.873798
vn 0.485749 -0.236354 -0.841537
vn 0.470464 -0.209826 -0.857110
vn 0.474814 -0.297217 -0.828380
vn 0.471140 -0.254020 -0.844690
vn 0.491415 -0.135207 -0.860366
vn 0.499321 -0.101885 -0.860406
vn 0.493675 -0.180657 -0.850675
vn 0.493675 -0.180663 -0.850674
vn 0.480442 -0.289469 -0.827879
vn 0.484258 -0.416251 -0.769565
vn 0.482265 -0.483918 -0.730236
vn 0.482265 -0.483918 -0.730236
vn 0.458960 -0.412207 -0.787046
vn 0.476882 -0.341250 -0.810020
vn 0.439123 -0.406953 -0.800975
s 1
g Wire Cave_Tunnel_002
usemtl initialShadingGroup
f 17/1/1 8/2/2 9/3/3 18/4/4
f 18/4/4 9/3/3 12/5/5 19/6/6
f 12/5/5 10/7/7 20/8/8 19/6/6
s off
f 1/9/9 10/7/10 12/5/11 2/10/12
f 2/10/13 12/5/14 9/3/15 3/11/16
f 3/11/17 9/3/18 8/2/19 4/12/20
s 1
f 21/13/21 13/14/22 14/15/23 22/16/24
f 22/16/24 14/15/23 15/17/25 23/18/26
f 16/19/27 24/20/28 23/18/26 15/17/25
f 13/14/22 17/1/1 18/4/4 14/15/23
f 14/15/23 18/4/4 19/6/6 15/17/25
f 20/8/8 16/19/27 15/17/25 19/6/6
f 5/21/29 21/13/21 22/16/24 6/22/30
f 6/22/30 22/16/24 23/18/26 11/23/31
f 24/20/28 7/24/32 11/23/31 23/18/26
f 30/25/33 28/26/34 8/2/2 17/1/1
f 4/12/35 8/2/2 28/26/34 27/27/36
f 26/28/37 29/29/38 13/14/22 21/13/21
f 29/29/38 30/25/33 17/1/1 13/14/22
f 25/30/39 26/28/37 21/13/21 5/21/29
