# This file uses centimeters as units for non-parametric coordinates.

mtllib Mine_Tunnel_002.mtl
g default
v -0.742519 13.616194 7.185857
v -0.427272 13.587499 4.068730
v -0.177089 10.018785 1.594976
v -0.016506 6.885788 0.006719
v 0.038853 3.412836 -0.540523
v -0.016506 -0.060116 0.006719
v -2.167324 -2.127547 19.480535
v -2.222682 3.412836 18.188359
v -2.167324 6.885786 18.262151
v -2.845546 11.634702 18.384648
v -1.756557 13.521543 17.213567
v -1.441310 13.498606 14.096501
v -1.091884 13.163519 10.641179
v -66.870693 6.337255 -38.117915
v -64.960536 11.675276 -37.486506
v -66.745449 14.911749 -36.074275
v -69.892910 13.838552 -33.673335
v -71.347560 14.880441 -31.166865
v -72.802150 14.142767 -28.660335
v -74.114406 13.244886 -24.808467
v -75.155788 10.933611 -24.604670
v -75.824367 6.337253 -24.914607
v -76.054775 -3.046046 -23.055537
v -66.640346 -2.799391 -39.278132
v -6.312038 6.337255 -2.307979
v -4.642238 10.933615 -1.033259
v -5.124721 14.005239 -0.313960
v -8.272243 13.838552 2.086980
v -9.726833 14.880441 4.593511
v -11.181484 14.142767 7.099980
v -12.493679 13.244886 10.951909
v -13.535060 10.933611 11.155644
v -14.203701 6.337253 10.845708
v -14.434047 -3.046046 12.704778
v -5.019619 -2.799391 -3.517817
v -66.755519 1.768932 -38.282893
v -5.665859 1.768932 -2.912898
v -75.939540 1.645605 -23.985103
v -14.318874 1.645605 11.775212
v -35.829982 -2.799391 -21.397944
v -36.210659 1.768932 -20.597896
v -36.591396 6.337255 -19.797847
v -34.801357 10.933615 -18.783015
v -35.935085 14.005239 -18.194087
v -39.082607 13.838552 -15.793208
v -40.537197 14.880441 -13.286677
v -41.991786 14.142767 -10.780147
v -43.304042 13.244886 -6.928279
v -44.345424 10.933611 -6.724483
v -41.006984 6.337253 -6.023433
v -42.729457 1.645605 -6.104976
v -45.244411 -3.046046 -5.175410
v -14.262722 -2.799391 -8.881831
v -18.463466 1.768932 -8.218379
v -18.846340 6.337255 -8.701228
v -13.689968 10.933615 -6.358149
v -14.367824 14.005239 -5.678035
v -17.515346 13.838552 -3.277095
v -18.969936 13.415182 -0.770564
v -20.424587 14.142767 1.735906
v -21.736782 13.244886 5.587834
v -22.778163 10.933611 5.791631
v -23.446804 6.337253 5.481633
v -23.561977 1.645605 6.411199
v -23.677150 -3.046046 7.340764
v -54.316249 -2.799391 -32.126033
v -54.537563 1.768934 -31.208858
v -54.758998 6.337255 -31.030208
v -52.896877 11.843920 -29.915706
v -54.459133 14.087934 -29.466426
v -57.568813 14.422895 -26.521235
v -59.023464 14.880441 -24.014766
v -60.477993 14.938757 -21.508235
v -61.577785 13.738516 -18.588618
v -62.831630 10.933611 -17.452571
v -63.500209 6.337255 -17.762507
v -63.615444 1.645605 -16.833003
v -63.730617 -3.046046 -15.903438
vt 0.323098 0.260785
vt 0.377230 0.195790
vt 0.377602 0.073641
vt 0.323626 0.097478
vt 0.580138 0.722234
vt 0.579764 0.846703
vt 0.537640 0.704474
vt 0.537443 0.828694
vt 0.503590 0.704371
vt 0.501847 0.828768
vt 0.468802 0.704740
vt 0.467337 0.829169
vt 0.196154 0.721921
vt 0.196553 0.845890
vt 0.168142 0.712592
vt 0.168371 0.836945
vt 0.114656 0.704093
vt 0.114934 0.828375
vt 0.059192 0.708628
vt 0.059480 0.832652
vt 0.210132 0.213806
vt 0.270573 0.253381
vt 0.269097 0.093412
vt 0.214935 0.089529
vt 0.003758 0.713121
vt 0.004061 0.836920
vt 0.014820 0.999512
vt 0.080412 0.991527
vt 0.120709 0.992641
vt 0.176084 0.987058
vt 0.421210 0.983323
vt 0.454205 0.967973
vt 0.491327 0.951551
vt 0.528408 0.934262
vt 0.418342 0.000488
vt 0.369386 0.012958
vt 0.329237 0.019625
vt 0.288469 0.021523
vt 0.247828 0.019364
vt 0.206866 0.752258
vt 0.261010 0.749997
vt 0.264589 0.504044
vt 0.210389 0.504243
vt 0.318768 0.503904
vt 0.314143 0.752079
vt 0.378550 0.728001
vt 0.372738 0.480926
vt 0.585412 0.180705
vt 0.580813 0.432556
vt 0.537578 0.166344
vt 0.538306 0.414938
vt 0.503458 0.166428
vt 0.502567 0.414536
vt 0.469785 0.166519
vt 0.467845 0.414895
vt 0.204961 0.180208
vt 0.197650 0.431890
vt 0.167340 0.174363
vt 0.169618 0.422587
vt 0.113815 0.166119
vt 0.115084 0.460390
vt 0.058283 0.170332
vt 0.059936 0.442748
vt 0.000488 0.422863
vt 0.002814 0.174377
vt 0.203982 0.917688
vt 0.258177 0.913974
vt 0.311261 0.915093
vt 0.373826 0.893354
vt 0.581660 0.018642
vt 0.537657 0.000494
vt 0.501926 0.000935
vt 0.467180 0.000975
vt 0.194933 0.018081
vt 0.166876 0.008901
vt 0.113521 0.000494
vt 0.058178 0.004825
vt 0.002812 0.009091
vt 0.431445 0.172597
vt 0.420382 0.424309
vt 0.407923 0.741154
vt 0.410460 0.489320
vt 0.421224 0.713932
vt 0.419933 0.838528
vt 0.414438 0.199113
vt 0.414712 0.075021
vt 0.561866 0.919643
vt 0.204653 0.990054
vt 0.419686 0.010389
vt 0.418744 0.903075
vn -0.509281 0.004747 0.860587
vn -0.449411 -0.024167 0.892998
vn -0.485558 -0.122517 0.865577
vn -0.493475 -0.120878 0.861320
vn -0.317957 -0.776563 0.543924
vn -0.286864 -0.822750 0.490705
vn 0.016220 -0.999555 0.025021
vn -0.009130 -0.999835 0.015732
vn 0.032936 -0.996305 0.079321
vn -0.026550 -0.998618 0.045357
vn 0.091325 -0.990351 -0.104236
vn 0.066507 -0.991183 -0.114602
vn 0.272953 -0.839212 -0.470340
vn 0.279691 -0.830359 -0.481951
vn 0.497718 -0.129331 -0.857642
vn 0.509188 -0.070178 -0.857790
vn 0.499540 -0.097545 -0.860782
vn 0.524778 -0.049975 -0.849771
vn 0.493671 -0.180665 -0.850676
vn 0.510485 -0.226799 -0.829438
vn -0.452233 -0.354626 0.818368
vn -0.410470 -0.335462 0.847927
vn -0.418638 -0.201270 0.885569
vn -0.492516 -0.233554 0.838380
vn 0.493668 -0.180676 -0.850675
vn 0.498345 -0.262499 -0.826285
vn 0.483529 -0.188435 -0.854805
vn 0.483529 -0.188435 -0.854805
vn 0.483529 -0.188435 -0.854805
vn 0.483529 -0.188435 -0.854805
vn 0.501935 -0.100516 -0.859045
vn 0.501935 -0.100516 -0.859045
vn 0.501935 -0.100516 -0.859045
vn 0.501935 -0.100516 -0.859045
vn 0.539739 0.039462 -0.840907
vn 0.539739 0.039462 -0.840907
vn 0.539739 0.039462 -0.840907
vn 0.539739 0.039462 -0.840907
vn 0.482002 -0.483812 -0.730479
vn 0.482002 -0.483812 -0.730479
vn 0.482002 -0.483812 -0.730479
vn 0.482002 -0.483812 -0.730479
vn 0.054593 -0.992227 -0.111823
vn 0.054593 -0.992227 -0.111823
vn 0.054593 -0.992227 -0.111823
vn 0.054593 -0.992227 -0.111823
vn -0.065919 -0.994019 -0.087069
vn -0.065919 -0.994019 -0.087069
vn -0.065919 -0.994019 -0.087069
vn -0.065919 -0.994019 -0.087069
vn -0.153590 -0.986815 0.051051
vn -0.153590 -0.986815 0.051051
vn -0.153590 -0.986815 0.051051
vn -0.153590 -0.986815 0.051051
vn -0.022148 -0.998998 -0.038881
vn -0.022148 -0.998998 -0.038881
vn -0.022148 -0.998998 -0.038881
vn -0.022148 -0.998998 -0.038881
vn -0.592716 -0.401210 0.698368
vn -0.592716 -0.401210 0.698368
vn -0.592716 -0.401210 0.698368
vn -0.592716 -0.401210 0.698368
vn -0.411592 -0.244795 0.877877
vn -0.411592 -0.244795 0.877877
vn -0.411592 -0.244795 0.877877
vn -0.411592 -0.244795 0.877877
vn -0.333166 -0.162150 0.928821
vn -0.333166 -0.162150 0.928821
vn -0.333166 -0.162150 0.928821
vn -0.333166 -0.162150 0.928821
vn -0.469114 -0.040807 0.882194
vn -0.469114 -0.040807 0.882194
vn -0.469114 -0.040807 0.882194
vn -0.469114 -0.040807 0.882194
vn -0.492015 -0.193557 0.848797
vn -0.496592 -0.290248 0.818018
vn -0.514904 -0.202000 0.833109
vn -0.500097 -0.145460 0.853666
vn -0.527181 -0.029397 0.849244
vn -0.515483 -0.030952 0.856340
vn -0.514973 -0.107401 0.850451
vn -0.517832 -0.153571 0.841586
vn -0.253884 -0.875133 0.411930
vn -0.230477 -0.904903 0.357815
vn -0.049171 -0.997280 0.054917
vn -0.051899 -0.995832 0.074999
vn -0.050563 -0.997882 0.040934
vn -0.035420 -0.997507 0.061035
vn 0.069138 -0.985791 -0.153090
vn 0.106736 -0.977686 -0.180936
vn 0.292971 -0.808249 -0.510786
vn 0.299519 -0.801643 -0.517356
vn 0.498360 -0.065614 -0.864484
vn 0.489088 -0.108300 -0.865485
vn 0.510092 -0.034154 -0.859441
vn 0.481910 -0.065111 -0.873798
vn 0.485749 -0.236354 -0.841537
vn 0.470464 -0.209826 -0.857110
vn 0.474814 -0.297217 -0.828380
vn 0.471140 -0.254020 -0.844690
vn -0.491801 -0.195704 0.848429
vn -0.498227 -0.126437 0.857778
vn -0.510588 -0.005958 0.859805
vn -0.511147 -0.157926 0.844860
vn -0.148490 -0.961789 0.230026
vn -0.035578 -0.996794 0.071672
vn -0.014523 -0.997216 0.073140
vn 0.132165 -0.977348 -0.165297
vn 0.326844 -0.771713 -0.545556
vn 0.491286 -0.135814 -0.860344
vn 0.499321 -0.101885 -0.860406
vn 0.493675 -0.180657 -0.850675
vn 0.493675 -0.180663 -0.850674
s 1
g Cave_Tunnel_002
usemtl initialShadingGroup
f 55/1/1 25/4/2 26/3/3 56/2/4
f 56/2/4 26/3/3 27/86/5 57/85/6
f 57/5/6 27/6/5 28/8/7 58/7/8
f 58/7/8 28/8/7 29/10/9 59/9/10
f 59/9/10 29/10/9 30/12/11 60/11/12
f 60/11/12 30/12/11 31/84/13 61/83/14
f 61/13/14 31/14/13 32/16/15 62/15/16
f 62/15/16 32/16/15 33/18/17 63/17/18
f 63/17/18 33/18/17 39/20/19 64/19/20
f 53/21/21 35/24/22 37/23/23 54/22/24
f 37/23/23 25/4/2 55/1/1 54/22/24
f 39/20/19 34/26/25 65/25/26 64/19/20
s off
f 7/27/27 34/26/28 39/20/29 8/28/30
f 8/28/31 39/20/32 33/18/33 9/29/34
f 9/29/35 33/18/36 32/16/37 10/30/38
f 10/30/39 32/16/40 31/14/41 11/88/42
f 11/31/43 31/84/44 30/12/45 12/32/46
f 12/32/47 30/12/48 29/10/49 13/33/50
f 13/33/51 29/10/52 28/8/53 1/34/54
f 1/34/55 28/8/56 27/6/57 2/87/58
f 2/35/59 27/86/60 26/3/61 3/36/62
f 3/36/63 26/3/64 25/4/65 4/37/66
f 4/37/67 25/4/68 37/23/69 5/38/70
f 5/38/71 37/23/72 35/24/73 6/39/74
s 1
f 66/40/75 40/43/76 41/42/77 67/41/78
f 42/44/79 68/45/80 67/41/78 41/42/77
f 68/45/80 42/44/79 43/47/81 69/46/82
f 69/46/82 43/47/81 44/82/83 70/81/84
f 70/48/84 44/49/83 45/51/85 71/50/86
f 71/50/86 45/51/85 46/53/87 72/52/88
f 72/52/88 46/53/87 47/55/89 73/54/90
f 73/54/90 47/55/89 48/80/91 74/79/92
f 74/56/92 48/57/91 49/59/93 75/58/94
f 75/58/94 49/59/93 50/61/95 76/60/96
f 76/60/96 50/61/95 51/63/97 77/62/98
f 52/64/99 78/65/100 77/62/98 51/63/97
f 40/43/76 53/21/21 54/22/24 41/42/77
f 55/1/1 42/44/79 41/42/77 54/22/24
f 42/44/79 55/1/1 56/2/4 43/47/81
f 43/47/81 56/2/4 57/85/6 44/82/83
f 44/49/83 57/5/6 58/7/8 45/51/85
f 45/51/85 58/7/8 59/9/10 46/53/87
f 46/53/87 59/9/10 60/11/12 47/55/89
f 47/55/89 60/11/12 61/83/14 48/80/91
f 48/57/91 61/13/14 62/15/16 49/59/93
f 49/59/93 62/15/16 63/17/18 50/61/95
f 50/61/95 63/17/18 64/19/20 51/63/97
f 65/25/26 52/64/99 51/63/97 64/19/20
f 24/66/101 66/40/75 67/41/78 36/67/102
f 68/45/80 14/68/103 36/67/102 67/41/78
f 14/68/103 68/45/80 69/46/82 15/69/104
f 15/69/104 69/46/82 70/81/84 16/90/105
f 16/70/105 70/48/84 71/50/86 17/71/106
f 17/71/106 71/50/86 72/52/88 18/72/107
f 18/72/107 72/52/88 73/54/90 19/73/108
f 19/73/108 73/54/90 74/79/92 20/89/109
f 20/74/109 74/56/92 75/58/94 21/75/110
f 21/75/110 75/58/94 76/60/96 22/76/111
f 22/76/111 76/60/96 77/62/98 38/77/112
f 78/65/100 23/78/113 38/77/112 77/62/98
