# This file uses centimeters as units for non-parametric coordinates.

mtllib Blanket7.mtl
g default
v -2.048888 0.006981 5.512239
v -1.267484 0.006982 5.151406
v -0.486082 0.006982 4.790587
v 0.295315 0.006982 4.429763
v 1.076715 0.007429 4.068948
v 1.858113 0.006982 3.708130
v 2.639512 0.006982 3.347313
v 3.420913 0.006981 2.986498
v 4.202319 0.006982 2.625682
v 4.983725 0.007849 2.264860
v 5.765137 0.006981 1.904049
v -2.409720 0.006981 4.730816
v -1.628316 0.006982 4.369986
v -0.846914 0.007842 4.009165
v -0.100350 0.137644 3.623240
v 0.715886 0.006982 3.287523
v 1.497284 0.006981 2.926705
v 2.278685 0.006982 2.565888
v 3.060087 0.007514 2.205074
v 3.841491 0.006982 1.069946
v 4.622899 0.006982 1.483441
v 5.404308 0.006982 1.122626
v -2.770551 0.006981 3.949393
v -1.989146 0.006981 3.588565
v -1.063290 0.322060 3.087050
v -0.426344 0.006982 2.866920
v 0.461681 0.155052 2.431868
v 0.743035 0.079198 2.248874
v 1.917857 0.084421 1.784465
v 2.699258 0.006982 1.423651
v 3.480662 0.006981 1.062835
v 3.981667 0.006982 0.240733
v 5.043481 0.006982 0.341207
v -3.131381 0.006982 3.167969
v -2.349975 0.006982 2.807141
v -1.403390 0.098116 2.369430
v -0.787173 0.007499 2.085498
v -0.005774 0.083663 1.724677
v 0.775627 0.008445 1.363861
v 1.557030 0.221353 1.003044
v 2.338431 0.006981 0.642227
v 2.999139 -0.021561 0.336436
v 3.901243 0.006982 -0.079403
v 4.682654 0.006982 -0.440216
v -3.492211 0.006982 2.386551
v -2.390684 0.171646 1.880011
v -1.929404 0.006982 1.664896
v -1.148002 0.006982 1.304075
v -0.366602 0.006982 0.943256
v 0.414798 0.006982 0.582438
v 0.860566 0.126844 0.348448
v 1.977603 0.006982 -0.139195
v 3.060569 0.130804 -0.651549
v 3.540419 0.006982 -0.860824
v 4.321828 0.006982 -1.221636
v -3.853047 0.007686 1.605138
v -3.071641 0.006982 1.244306
v -2.290238 0.006982 0.883476
v -1.508835 0.006982 0.522654
v -0.727434 0.007503 0.161834
v 0.053968 0.006982 -0.198984
v 0.835370 0.006982 -0.559801
v 1.616773 0.006982 -0.920618
v 2.398180 0.006982 -1.281434
v 3.179590 0.006981 -1.642249
v 3.961001 0.006982 -2.003058
v -4.213877 0.006981 0.823713
v -3.626960 0.045785 0.513136
v -2.651068 0.241312 0.102054
v -1.439813 0.080349 -0.258768
v -1.088263 0.006982 -0.619588
v -0.306861 0.006981 -0.980406
v 0.474541 0.006982 -1.341226
v 1.255946 0.006982 -1.702039
v 1.807636 0.140791 -2.009031
v 2.913262 0.059132 -2.474685
v 3.600177 0.006982 -2.784484
v -4.574713 0.006982 0.042295
v -3.793308 0.007479 -0.318537
v -3.011904 0.006982 -0.679366
v -2.230498 0.006981 -1.040187
v -1.449094 0.006982 -1.401010
v -0.667688 0.006982 -1.761825
v 0.113713 0.006982 -2.122647
v 0.651829 0.128631 -2.420830
v 1.676526 0.006982 -2.844277
v 2.457937 0.006982 -3.205093
v 3.239346 0.006982 -3.565909
v -4.935542 0.006982 -0.739128
v -4.154136 0.225109 -1.099959
v -3.372733 0.178955 -1.460789
v -2.591326 0.006982 -1.821609
v -1.818837 0.112038 -2.212329
v -1.028520 0.007728 -2.543248
v -0.247117 0.006982 -2.904069
v 0.534288 0.006982 -3.264886
v 1.315697 0.006981 -3.625699
v 2.097107 0.006982 -3.986516
v 2.878519 0.006982 -4.347326
v -5.296376 0.006982 -1.520547
v -4.514969 0.006982 -1.881378
v -3.733564 0.106614 -1.880610
v -2.952160 0.006982 -2.603032
v -2.170754 0.006982 -2.963850
v -1.281036 0.079051 -3.330146
v -0.607943 0.107507 -3.685488
v 0.173461 0.128742 -4.046309
v 0.954871 0.007216 -4.407124
v 1.736284 0.109648 -4.767937
v 2.517694 0.006982 -5.128750
v -5.657206 0.007389 -2.301959
v -4.875802 0.006982 -2.662793
v -4.094399 0.006982 -3.023622
v -3.312994 0.006981 -3.384452
v -2.531586 0.006982 -3.745272
v -1.750180 0.006982 -4.106094
v -0.968771 0.006982 -4.466910
v -0.187364 0.006981 -4.827729
v 0.594046 0.006981 -5.188547
v 1.375456 0.006982 -5.549358
v 2.156871 0.006982 -5.910169
vt 0.000488 0.006056
vt 0.095699 0.003340
vt 0.192558 0.001118
vt 0.290954 0.001311
vt 0.389787 0.001017
vt 0.489894 0.000488
vt 0.591874 0.000551
vt 0.697382 0.002672
vt 0.807925 0.010303
vt 0.911562 0.044910
vt 0.999512 0.076328
vt 0.002333 0.100621
vt 0.097236 0.097724
vt 0.193165 0.094966
vt 0.289499 0.100987
vt 0.390987 0.095377
vt 0.489732 0.095095
vt 0.588239 0.095493
vt 0.685511 0.098348
vt 0.800173 0.172717
vt 0.879527 0.132616
vt 0.970905 0.157177
vt 0.003424 0.195767
vt 0.097927 0.192618
vt 0.216408 0.198559
vt 0.295889 0.192708
vt 0.405230 0.193609
vt 0.442629 0.198676
vt 0.583288 0.192844
vt 0.678872 0.199796
vt 0.772821 0.196798
vt 0.851386 0.273725
vt 0.958417 0.239539
vt 0.004815 0.291252
vt 0.099582 0.288064
vt 0.216962 0.287657
vt 0.293271 0.287495
vt 0.388630 0.286633
vt 0.482907 0.287234
vt 0.578438 0.289438
vt 0.674805 0.293691
vt 0.751474 0.295595
vt 0.855503 0.308939
vt 0.949146 0.322025
vt 0.005740 0.386675
vt 0.139301 0.382155
vt 0.197647 0.383598
vt 0.292349 0.382733
vt 0.386738 0.382772
vt 0.480534 0.383360
vt 0.536748 0.386798
vt 0.669381 0.388766
vt 0.796308 0.396914
vt 0.853289 0.400875
vt 0.946723 0.408119
vt 0.007446 0.482278
vt 0.102083 0.479836
vt 0.196608 0.477920
vt 0.291361 0.478024
vt 0.385475 0.478691
vt 0.479354 0.479275
vt 0.572975 0.481070
vt 0.666180 0.483959
vt 0.758980 0.488409
vt 0.852016 0.492915
vt 0.946015 0.496888
vt 0.007650 0.577510
vt 0.080413 0.579799
vt 0.196935 0.574705
vt 0.333291 0.554629
vt 0.384803 0.574653
vt 0.478232 0.575088
vt 0.571398 0.576370
vt 0.664303 0.578388
vt 0.733492 0.587274
vt 0.863660 0.586651
vt 0.946341 0.587482
vt 0.007831 0.673102
vt 0.102274 0.671409
vt 0.197277 0.671564
vt 0.291031 0.671012
vt 0.384572 0.670318
vt 0.477994 0.670768
vt 0.571157 0.671619
vt 0.638660 0.678177
vt 0.759204 0.677219
vt 0.852811 0.678694
vt 0.947114 0.679440
vt 0.007823 0.768849
vt 0.104033 0.768439
vt 0.197007 0.767659
vt 0.291684 0.766649
vt 0.385661 0.769481
vt 0.478632 0.766344
vt 0.571812 0.766943
vt 0.665388 0.768719
vt 0.759232 0.770839
vt 0.853302 0.771821
vt 0.947817 0.772235
vt 0.009712 0.865234
vt 0.104236 0.865170
vt 0.181561 0.826996
vt 0.292559 0.861863
vt 0.386005 0.861534
vt 0.490224 0.857313
vt 0.572387 0.862430
vt 0.665469 0.863634
vt 0.759779 0.865014
vt 0.854189 0.865870
vt 0.948966 0.866023
vt 0.011012 0.960469
vt 0.105964 0.959452
vt 0.200118 0.957688
vt 0.293639 0.956555
vt 0.386822 0.956213
vt 0.479872 0.956720
vt 0.573012 0.957760
vt 0.666690 0.958772
vt 0.760529 0.959512
vt 0.854955 0.960463
vt 0.949446 0.960244
vn -0.000000 1.000000 0.000000
vn -0.000122 1.000000 0.000332
vn -0.021752 0.998050 0.058506
vn -0.000000 1.000000 -0.000000
vn -0.018217 0.998558 0.050499
vn -0.005356 0.994703 0.102647
vn 0.032202 0.997244 0.066835
vn 0.050738 0.997439 0.050410
vn 0.049351 0.998620 0.017978
vn 0.044117 0.998691 0.025888
vn 0.000064 1.000000 -0.000172
vn 0.026116 0.998860 0.039945
vn -0.000075 1.000000 0.000205
vn 0.022972 0.999322 0.028761
vn 0.000207 1.000000 0.000216
vn 0.012882 0.999906 0.004762
vn 0.000068 1.000000 -0.000015
vn -0.000026 1.000000 -0.000099
vn -0.000190 1.000000 -0.000412
vn -0.000178 1.000000 -0.000232
vn 0.000247 1.000000 -0.000668
vn 0.000105 1.000000 -0.000285
vn -0.082852 0.995404 0.048033
vn -0.000000 1.000000 -0.000000
vn -0.010622 0.999941 0.002277
vn 0.044079 0.998729 -0.024437
vn 0.006497 0.999959 0.006226
vn 0.034026 0.999155 0.023053
vn 0.041912 0.998195 0.043004
vn 0.068562 0.997647 0.000153
vn -0.002788 0.999961 -0.008392
vn -0.010050 0.999943 -0.003701
vn -0.000000 1.000000 -0.000000
vn -0.067214 0.997304 0.029427
vn -0.021176 0.998120 0.057511
vn -0.009259 0.996735 -0.080206
vn 0.000579 0.997545 -0.070021
vn -0.035425 0.998837 -0.032700
vn -0.067115 0.997640 0.014483
vn 0.026070 0.999420 -0.021909
vn 0.073659 0.997002 -0.023687
vn 0.008204 0.999265 0.037453
vn 0.020819 0.999651 0.016231
vn 0.000000 1.000000 -0.000000
vn -0.001328 0.999847 -0.017415
vn -0.071693 0.996874 0.033209
vn 0.036801 0.998252 -0.046252
vn -0.008631 0.999683 -0.023649
vn -0.009517 0.999749 -0.020282
vn -0.070848 0.997482 -0.003029
vn -0.055377 0.997670 -0.039858
vn 0.012773 0.998948 -0.044031
vn 0.019442 0.999811 0.000284
vn 0.033854 0.999389 -0.008661
vn 0.000000 1.000000 0.000000
vn -0.039136 0.998790 0.029776
vn -0.064849 0.997862 -0.008115
vn 0.043730 0.996558 0.070431
vn 0.063186 0.995695 0.067814
vn 0.015416 0.999865 0.005676
vn -0.024311 0.999663 -0.009072
vn -0.006396 0.999379 -0.034651
vn -0.023245 0.999713 -0.005704
vn -0.003217 0.999817 0.018878
vn 0.043640 0.999034 0.005103
vn 0.020701 0.999757 0.007623
vn -0.057578 0.998041 0.024462
vn -0.022697 0.999678 0.011314
vn -0.009481 0.999948 -0.003749
vn 0.064267 0.997787 -0.017026
vn 0.019187 0.999703 -0.015040
vn 0.000037 1.000000 -0.000101
vn -0.008892 0.999669 0.024147
vn -0.020827 0.998623 0.048150
vn 0.004208 0.999840 0.017398
vn 0.033285 0.999348 -0.014020
vn 0.029392 0.999479 -0.013370
vn -0.043000 0.997734 0.051749
vn -0.049315 0.995246 0.083986
vn 0.019159 0.999215 -0.034665
vn 0.030186 0.997954 -0.056362
vn 0.018244 0.999735 0.014047
vn 0.020253 0.999766 0.007623
vn -0.033628 0.999280 0.017577
vn -0.035076 0.999372 -0.005106
vn 0.003604 0.998276 -0.058581
vn 0.001024 0.999019 -0.044280
vn 0.007654 0.999755 -0.020785
vn -0.043890 0.998121 0.042767
vn -0.114318 0.992049 0.052631
vn 0.082375 0.996600 0.001728
vn 0.027295 0.999627 -0.000464
vn -0.005789 0.999900 0.012887
vn 0.029663 0.999315 0.022147
vn -0.006238 0.998853 0.047480
vn 0.025305 0.999670 0.004460
vn 0.024128 0.999697 0.004899
vn 0.012541 0.999555 0.027078
vn 0.039539 0.999112 0.014559
vn -0.077831 0.995699 -0.050263
vn -0.083593 0.996025 -0.030779
vn -0.010018 0.994669 -0.102631
vn 0.004702 0.998815 -0.048442
vn -0.031823 0.999321 -0.018557
vn -0.017842 0.999825 -0.005594
vn -0.014153 0.999889 0.004650
vn 0.026242 0.999582 -0.012118
vn 0.005035 0.999985 -0.002325
vn 0.000061 1.000000 -0.000028
vn 0.054052 0.998226 -0.024959
vn -0.036355 0.999249 -0.013386
vn 0.000314 1.000000 0.000116
vn -0.016708 0.998827 -0.045446
vn 0.012404 0.999355 -0.033686
vn -0.026677 0.999596 -0.009822
vn -0.054433 0.997492 -0.045250
vn -0.061684 0.993520 -0.095464
vn -0.015391 0.994619 -0.102446
vn -0.022301 0.997858 -0.061499
vn -0.024925 0.998222 -0.054141
vn 0.029042 0.996462 -0.078871
s 1
g Blanket7
usemtl initialShadingGroup
f 1/1/1 2/2/2 13/13/3 12/12/4
f 2/2/2 3/3/5 14/14/6 13/13/3
f 3/3/5 4/4/7 15/15/8 14/14/6
f 4/4/7 5/5/9 16/16/10 15/15/8
f 5/5/9 6/6/11 17/17/12 16/16/10
f 6/6/11 7/7/13 18/18/14 17/17/12
f 7/7/13 8/8/15 19/19/16 18/18/14
f 8/8/15 9/9/17 20/20/18 19/19/16
f 9/9/17 10/10/19 21/21/20 20/20/18
f 10/10/19 11/11/21 22/22/22 21/21/20
f 12/12/4 13/13/3 24/24/23 23/23/24
f 13/13/3 14/14/6 25/25/25 24/24/23
f 14/14/6 15/15/8 26/26/26 25/25/25
f 15/15/8 16/16/10 27/27/27 26/26/26
f 16/16/10 17/17/12 28/28/28 27/27/27
f 17/17/12 18/18/14 29/29/29 28/28/28
f 18/18/14 19/19/16 30/30/30 29/29/29
f 19/19/16 20/20/18 31/31/31 30/30/30
f 20/20/18 21/21/20 32/32/32 31/31/31
f 21/21/20 22/22/22 33/33/33 32/32/32
f 23/23/24 24/24/23 35/35/34 34/34/35
f 24/24/23 25/25/25 36/36/36 35/35/34
f 25/25/25 26/26/26 37/37/37 36/36/36
f 26/26/26 27/27/27 38/38/38 37/37/37
f 27/27/27 28/28/28 39/39/39 38/38/38
f 28/28/28 29/29/29 40/40/40 39/39/39
f 29/29/29 30/30/30 41/41/41 40/40/40
f 30/30/30 31/31/31 42/42/42 41/41/41
f 31/31/31 32/32/32 43/43/43 42/42/42
f 32/32/32 33/33/33 44/44/44 43/43/43
f 34/34/35 35/35/34 46/46/45 45/45/46
f 35/35/34 36/36/36 47/47/47 46/46/45
f 36/36/36 37/37/37 48/48/48 47/47/47
f 37/37/37 38/38/38 49/49/49 48/48/48
f 38/38/38 39/39/39 50/50/50 49/49/49
f 39/39/39 40/40/40 51/51/51 50/50/50
f 40/40/40 41/41/41 52/52/52 51/51/51
f 41/41/41 42/42/42 53/53/53 52/52/52
f 42/42/42 43/43/43 54/54/54 53/53/53
f 43/43/43 44/44/44 55/55/55 54/54/54
f 45/45/46 46/46/45 57/57/56 56/56/57
f 46/46/45 47/47/47 58/58/58 57/57/56
f 47/47/47 48/48/48 59/59/59 58/58/58
f 48/48/48 49/49/49 60/60/60 59/59/59
f 49/49/49 50/50/50 61/61/61 60/60/60
f 50/50/50 51/51/51 62/62/62 61/61/61
f 51/51/51 52/52/52 63/63/63 62/62/62
f 52/52/52 53/53/53 64/64/64 63/63/63
f 53/53/53 54/54/54 65/65/65 64/64/64
f 54/54/54 55/55/55 66/66/66 65/65/65
f 56/56/57 57/57/56 68/68/67 67/67/68
f 57/57/56 58/58/58 69/69/69 68/68/67
f 58/58/58 59/59/59 70/70/70 69/69/69
f 59/59/59 60/60/60 71/71/71 70/70/70
f 60/60/60 61/61/61 72/72/72 71/71/71
f 61/61/61 62/62/62 73/73/73 72/72/72
f 62/62/62 63/63/63 74/74/74 73/73/73
f 63/63/63 64/64/64 75/75/75 74/74/74
f 64/64/64 65/65/65 76/76/76 75/75/75
f 65/65/65 66/66/66 77/77/77 76/76/76
f 67/67/68 68/68/67 79/79/78 78/78/79
f 68/68/67 69/69/69 80/80/80 79/79/78
f 69/69/69 70/70/70 81/81/81 80/80/80
f 70/70/70 71/71/71 82/82/82 81/81/81
f 71/71/71 72/72/72 83/83/83 82/82/82
f 72/72/72 73/73/73 84/84/84 83/83/83
f 73/73/73 74/74/74 85/85/85 84/84/84
f 74/74/74 75/75/75 86/86/86 85/85/85
f 75/75/75 76/76/76 87/87/87 86/86/86
f 76/76/76 77/77/77 88/88/88 87/87/87
f 78/78/79 79/79/78 90/90/89 89/89/90
f 79/79/78 80/80/80 91/91/91 90/90/89
f 80/80/80 81/81/81 92/92/92 91/91/91
f 81/81/81 82/82/82 93/93/93 92/92/92
f 82/82/82 83/83/83 94/94/94 93/93/93
f 83/83/83 84/84/84 95/95/95 94/94/94
f 84/84/84 85/85/85 96/96/96 95/95/95
f 85/85/85 86/86/86 97/97/97 96/96/96
f 86/86/86 87/87/87 98/98/98 97/97/97
f 87/87/87 88/88/88 99/99/99 98/98/98
f 89/89/90 90/90/89 101/101/100 100/100/101
f 90/90/89 91/91/91 102/102/102 101/101/100
f 91/91/91 92/92/92 103/103/103 102/102/102
f 92/92/92 93/93/93 104/104/104 103/103/103
f 93/93/93 94/94/94 105/105/105 104/104/104
f 94/94/94 95/95/95 106/106/106 105/105/105
f 95/95/95 96/96/96 107/107/107 106/106/106
f 96/96/96 97/97/97 108/108/108 107/107/107
f 97/97/97 98/98/98 109/109/109 108/108/108
f 98/98/98 99/99/99 110/110/110 109/109/109
f 100/100/101 101/101/100 112/112/111 111/111/112
f 101/101/100 102/102/102 113/113/113 112/112/111
f 102/102/102 103/103/103 114/114/114 113/113/113
f 103/103/103 104/104/104 115/115/115 114/114/114
f 104/104/104 105/105/105 116/116/116 115/115/115
f 105/105/105 106/106/106 117/117/117 116/116/116
f 106/106/106 107/107/107 118/118/118 117/117/117
f 107/107/107 108/108/108 119/119/119 118/118/118
f 108/108/108 109/109/109 120/120/120 119/119/119
f 109/109/109 110/110/110 121/121/121 120/120/120
