# This file uses centimeters as units for non-parametric coordinates.

mtllib Sheet3.mtl
g default
v 0.052907 -0.041357 -0.040995
v 8.322219 0.247605 -0.236572
v -0.081665 4.709231 -0.115981
v 0.745622 4.744892 -0.052490
v 1.573969 4.773037 -0.015860
v 2.402222 4.799287 0.011532
v 3.230744 4.824423 0.033125
v 4.059627 4.848981 0.050147
v 4.888249 4.872954 0.065505
v 5.714628 4.896696 0.083043
v 6.535401 4.920865 0.107162
v 7.355448 4.952653 0.155359
v 8.181897 4.978538 0.198457
v -0.083926 5.774194 -0.664235
v 0.742265 5.770949 -0.676293
v 1.567225 5.770734 -0.685080
v 2.393406 5.771641 -0.693218
v 3.220505 5.773146 -0.701368
v 4.048889 5.775251 -0.709959
v 4.878948 5.777617 -0.718540
v 5.710510 5.779590 -0.726935
v 6.543272 5.782576 -0.737803
v 7.374682 5.749759 -0.738921
v 8.204544 5.711434 -0.745045
v -0.098573 5.007905 -1.587417
v 0.729291 4.981423 -1.577683
v 1.557967 4.954395 -1.563784
v 2.386161 4.926892 -1.544959
v 3.214505 4.898906 -1.522575
v 4.043209 4.870077 -1.496238
v 4.871482 4.840299 -1.466969
v 5.698865 4.809588 -1.436591
v 6.523348 4.780462 -1.416518
v 7.345561 4.706009 -1.324501
v 8.164158 4.622580 -1.217628
v -0.242987 0.268419 -1.466360
v 0.582538 0.233454 -0.968813
v 1.410999 0.206640 -0.778512
v 2.238991 0.178786 -0.857251
v 3.066835 0.150781 -1.014544
v 3.890292 0.115554 -0.891318
v 4.859972 0.286626 -1.031392
v 5.991834 0.646546 -1.414087
v 6.971048 0.820370 -1.709141
v 7.556218 0.542620 -1.270085
v 8.028330 0.084705 -0.852675
vt 0.011481 0.000488
vt 0.702172 0.000947
vt 0.014073 0.397162
vt 0.083313 0.397431
vt 0.152422 0.397718
vt 0.221465 0.397819
vt 0.290530 0.397803
vt 0.359649 0.397706
vt 0.428798 0.397508
vt 0.497835 0.397214
vt 0.566511 0.396901
vt 0.635307 0.397113
vt 0.704437 0.397128
vt 0.014302 0.497148
vt 0.083319 0.497584
vt 0.152292 0.497835
vt 0.221357 0.497970
vt 0.290462 0.497987
vt 0.359619 0.497921
vt 0.428798 0.497737
vt 0.497895 0.497368
vt 0.566764 0.497114
vt 0.635664 0.496913
vt 0.704784 0.496836
vt 0.013766 0.597065
vt 0.082879 0.597527
vt 0.152091 0.597835
vt 0.221291 0.598081
vt 0.290540 0.598178
vt 0.359848 0.598278
vt 0.429167 0.598397
vt 0.498490 0.598036
vt 0.567601 0.597136
vt 0.636954 0.596658
vt 0.706243 0.595728
vt 0.000488 0.992486
vt 0.080833 0.997047
vt 0.151740 0.999512
vt 0.221154 0.998664
vt 0.291445 0.996987
vt 0.360907 0.998717
vt 0.441735 0.980324
vt 0.539152 0.944054
vt 0.623562 0.925362
vt 0.687047 0.940677
vt 0.743100 0.973519
vn -0.006128 -0.020251 0.999776
vn -0.006230 -0.021056 0.999759
vn -0.006164 -0.021888 0.999741
vn -0.006113 -0.022458 0.999729
vn -0.006105 -0.022978 0.999717
vn -0.006137 -0.023520 0.999705
vn -0.006195 -0.024140 0.999689
vn -0.006280 -0.024883 0.999671
vn -0.006498 -0.025860 0.999644
vn -0.006664 -0.026449 0.999628
vn -0.005875 -0.039450 0.999204
vn -0.005875 -0.039450 0.999204
vn -0.005996 -0.019831 0.999785
vn -0.012846 0.987944 0.154276
vn -0.018747 0.984880 0.172220
vn -0.004590 0.993161 0.116664
vn -0.000668 0.996632 0.082004
vn 0.002274 0.998842 0.048047
vn 0.004488 0.999896 0.013724
vn 0.005275 0.999753 -0.021597
vn 0.001242 0.998348 -0.057440
vn 0.023282 0.994278 -0.104254
vn 0.056070 0.984782 -0.164503
vn 0.063196 0.977791 -0.199826
vn 0.179380 0.059454 -0.981982
vn 0.254598 0.084798 -0.963322
vn 0.035286 0.027362 -0.999003
vn -0.050455 0.034283 -0.998138
vn 0.004750 0.043125 -0.999058
vn 0.015432 0.038275 -0.999148
vn -0.089530 0.052159 -0.994617
vn -0.130618 0.099956 -0.986381
vn 0.048845 0.159140 -0.986047
vn 0.302733 0.132827 -0.943774
vn 0.302487 0.078893 -0.949883
vn 0.203979 -0.115455 -0.972143
vn 0.289529 -0.082254 -0.953628
vn 0.038758 -0.150299 -0.987881
vn -0.062258 -0.137301 -0.988571
vn -0.000980 -0.120681 -0.992691
vn 0.018492 -0.114699 -0.993228
vn -0.104174 -0.086505 -0.990790
vn -0.160810 -0.023638 -0.986702
vn 0.115722 0.039669 -0.992489
vn 0.362755 -0.006212 -0.931864
vn 0.360909 -0.041799 -0.931664
s 1
g Sheet3
usemtl initialShadingGroup
f 12/12/1 11/11/2 10/10/3 9/9/4 8/8/5 7/7/6 6/6/7 5/5/8 4/4/9 3/3/10 1/1/11 2/2/12 13/13/13
f 3/3/10 4/4/9 15/15/14 14/14/15
f 4/4/9 5/5/8 16/16/16 15/15/14
f 5/5/8 6/6/7 17/17/17 16/16/16
f 6/6/7 7/7/6 18/18/18 17/17/17
f 7/7/6 8/8/5 19/19/19 18/18/18
f 8/8/5 9/9/4 20/20/20 19/19/19
f 9/9/4 10/10/3 21/21/21 20/20/20
f 10/10/3 11/11/2 22/22/22 21/21/21
f 11/11/2 12/12/1 23/23/23 22/22/22
f 12/12/1 13/13/13 24/24/24 23/23/23
f 14/14/15 15/15/14 26/26/25 25/25/26
f 15/15/14 16/16/16 27/27/27 26/26/25
f 16/16/16 17/17/17 28/28/28 27/27/27
f 17/17/17 18/18/18 29/29/29 28/28/28
f 18/18/18 19/19/19 30/30/30 29/29/29
f 19/19/19 20/20/20 31/31/31 30/30/30
f 20/20/20 21/21/21 32/32/32 31/31/31
f 21/21/21 22/22/22 33/33/33 32/32/32
f 22/22/22 23/23/23 34/34/34 33/33/33
f 23/23/23 24/24/24 35/35/35 34/34/34
f 26/26/25 37/37/36 36/36/37 25/25/26
f 27/27/27 38/38/38 37/37/36 26/26/25
f 28/28/28 39/39/39 38/38/38 27/27/27
f 29/29/29 40/40/40 39/39/39 28/28/28
f 30/30/30 41/41/41 40/40/40 29/29/29
f 31/31/31 42/42/42 41/41/41 30/30/30
f 32/32/32 43/43/43 42/42/42 31/31/31
f 33/33/33 44/44/44 43/43/43 32/32/32
f 34/34/34 45/45/45 44/44/44 33/33/33
f 35/35/35 46/46/46 45/45/45 34/34/34
