# This file uses centimeters as units for non-parametric coordinates.

mtllib Sheet4.mtl
g default
v -0.005573 -0.008706 0.001857
v 0.821302 0.116967 0.079080
v 1.683191 0.430178 0.355839
v 2.567301 0.342352 0.765621
v 3.422342 0.306858 0.964197
v 4.223456 0.517889 0.812448
v 4.996643 0.199652 0.407754
v 5.792168 0.037539 0.174494
v 6.620038 -0.052704 0.136366
v 7.444310 0.330603 0.226527
v -0.021679 1.181819 -0.033780
v 0.803572 1.327075 0.042793
v 1.653805 1.599531 0.233457
v 2.526789 1.522813 0.566814
v 3.377277 1.449992 0.736432
v 4.182787 1.356426 0.611140
v 4.966409 1.252091 0.284248
v 5.772335 1.103718 0.146255
v 6.599987 0.986322 0.103627
v 7.422731 1.693487 0.203589
v -0.077694 5.070654 -0.078543
v 0.750454 5.092114 -0.039722
v 1.578515 5.110545 -0.017215
v 2.406555 5.128446 -0.000216
v 3.234992 5.146064 0.013313
v 4.064236 5.163653 0.022749
v 4.893048 5.181408 0.031296
v 5.719423 5.200169 0.044218
v 6.536710 5.222962 0.071468
v 7.352777 5.241036 0.128961
v -0.077905 5.826264 -0.460530
v 0.748254 5.822665 -0.471992
v 1.574001 5.822083 -0.480433
v 2.400739 5.822487 -0.488267
v 3.227990 5.823472 -0.495904
v 4.056568 5.825416 -0.503588
v 4.886691 5.827487 -0.511647
v 5.719263 5.828311 -0.520637
v 6.553279 5.831176 -0.537506
v 7.386042 5.754222 -0.538890
v -0.088605 5.268330 -1.099111
v 0.739280 5.250352 -1.096168
v 1.567740 5.232721 -1.089680
v 2.395762 5.215495 -1.079858
v 3.224075 5.198424 -1.067442
v 4.052405 5.181078 -1.051326
v 4.878936 5.163511 -1.033190
v 5.706447 5.140074 -1.018679
v 6.526360 5.095191 -0.996184
v 7.320580 4.955791 -0.795807
v -0.160960 1.079109 -1.278870
v 6.958150 0.901651 -1.208473
vt 0.000488 0.007354
vt 0.075510 0.015890
vt 0.157763 0.040369
vt 0.244215 0.026761
vt 0.322438 0.019975
vt 0.394667 0.040193
vt 0.474632 0.017850
vt 0.549518 0.006455
vt 0.624171 0.000488
vt 0.697815 0.036723
vt 0.003077 0.114329
vt 0.078075 0.124900
vt 0.157520 0.146380
vt 0.241321 0.134577
vt 0.319346 0.124981
vt 0.393255 0.118216
vt 0.470391 0.113126
vt 0.544565 0.102239
vt 0.619536 0.093814
vt 0.692677 0.159006
vt 0.007221 0.463806
vt 0.081910 0.463712
vt 0.156588 0.463647
vt 0.231324 0.463873
vt 0.306110 0.464743
vt 0.380985 0.465893
vt 0.455849 0.467407
vt 0.530559 0.469999
vt 0.604497 0.473325
vt 0.678410 0.477097
vt 0.007084 0.539789
vt 0.081502 0.540141
vt 0.155891 0.540368
vt 0.230303 0.540752
vt 0.304714 0.541422
vt 0.379148 0.542311
vt 0.453505 0.543528
vt 0.527767 0.545426
vt 0.601438 0.548985
vt 0.675746 0.553878
vt 0.006241 0.615933
vt 0.080696 0.616516
vt 0.155107 0.617029
vt 0.229399 0.617554
vt 0.303636 0.618168
vt 0.377790 0.618890
vt 0.451652 0.619741
vt 0.525362 0.621278
vt 0.598384 0.624580
vt 0.672268 0.630960
vt 0.004569 0.994942
vt 0.647927 0.999512
vn -0.097274 0.028435 0.994851
vn -0.184720 0.042672 0.981864
vn -0.125553 0.032400 0.991558
vn -0.078042 0.018953 0.996770
vn -0.331326 0.087109 0.939487
vn -0.203381 0.077605 0.976019
vn -0.283473 0.144564 0.948021
vn -0.186019 0.141233 0.972343
vn -0.044218 0.193034 0.980195
vn -0.016839 0.177251 0.984022
vn 0.307278 0.193885 0.931659
vn 0.176254 0.152902 0.972397
vn 0.335976 0.115983 0.934702
vn 0.179473 0.085684 0.980024
vn 0.138863 0.050875 0.989004
vn 0.065083 0.034612 0.997279
vn -0.038890 0.025395 0.998921
vn -0.040601 0.017524 0.999022
vn -0.128203 0.020762 0.991531
vn -0.104630 0.013140 0.994424
vn -0.087806 0.118017 0.989122
vn -0.062894 0.102090 0.992785
vn -0.139517 0.164595 0.976444
vn -0.126843 0.222054 0.966749
vn -0.013581 0.255369 0.966748
vn 0.113773 0.235479 0.965197
vn 0.116131 0.184397 0.975967
vn 0.035832 0.147100 0.988472
vn -0.038546 0.144992 0.988682
vn -0.086637 0.149645 0.984937
vn -0.007606 0.988879 0.148528
vn -0.010807 0.985313 0.170415
vn -0.003335 0.993549 0.113353
vn -0.001362 0.996748 0.080568
vn 0.000464 0.998814 0.048681
vn 0.001865 0.999855 0.016903
vn 0.001655 0.999838 -0.017931
vn 0.001233 0.998152 -0.060760
vn 0.070242 0.986715 -0.146494
vn 0.139397 0.972943 -0.184257
vn 0.026971 0.061892 -0.997718
vn 0.026969 0.061900 -0.997718
vn 0.026980 0.061456 -0.997745
vn 0.026985 0.060967 -0.997775
vn 0.026994 0.060408 -0.997809
vn 0.027002 0.059758 -0.997848
vn 0.026997 0.059125 -0.997885
vn 0.027051 0.058374 -0.997928
vn 0.028748 0.056604 -0.997983
vn 0.030656 0.054946 -0.998019
vn 0.027259 0.045993 -0.998570
vn 0.027259 0.045993 -0.998570
s 1
g Sheet4
usemtl initialShadingGroup
f 1/1/1 2/2/2 12/12/3 11/11/4
f 2/2/2 3/3/5 13/13/6 12/12/3
f 3/3/5 4/4/7 14/14/8 13/13/6
f 4/4/7 5/5/9 15/15/10 14/14/8
f 5/5/9 6/6/11 16/16/12 15/15/10
f 6/6/11 7/7/13 17/17/14 16/16/12
f 7/7/13 8/8/15 18/18/16 17/17/14
f 8/8/15 9/9/17 19/19/18 18/18/16
f 9/9/17 10/10/19 20/20/20 19/19/18
f 12/12/3 22/22/21 21/21/22 11/11/4
f 13/13/6 23/23/23 22/22/21 12/12/3
f 14/14/8 24/24/24 23/23/23 13/13/6
f 15/15/10 25/25/25 24/24/24 14/14/8
f 16/16/12 26/26/26 25/25/25 15/15/10
f 17/17/14 27/27/27 26/26/26 16/16/12
f 18/18/16 28/28/28 27/27/27 17/17/14
f 19/19/18 29/29/29 28/28/28 18/18/16
f 20/20/20 30/30/30 29/29/29 19/19/18
f 21/21/22 22/22/21 32/32/31 31/31/32
f 22/22/21 23/23/23 33/33/33 32/32/31
f 23/23/23 24/24/24 34/34/34 33/33/33
f 24/24/24 25/25/25 35/35/35 34/34/34
f 25/25/25 26/26/26 36/36/36 35/35/35
f 26/26/26 27/27/27 37/37/37 36/36/36
f 27/27/27 28/28/28 38/38/38 37/37/37
f 28/28/28 29/29/29 39/39/39 38/38/38
f 29/29/29 30/30/30 40/40/40 39/39/39
f 31/31/32 32/32/31 42/42/41 41/41/42
f 32/32/31 33/33/33 43/43/43 42/42/41
f 33/33/33 34/34/34 44/44/44 43/43/43
f 34/34/34 35/35/35 45/45/45 44/44/44
f 35/35/35 36/36/36 46/46/46 45/45/45
f 36/36/36 37/37/37 47/47/47 46/46/46
f 37/37/37 38/38/38 48/48/48 47/47/47
f 38/38/38 39/39/39 49/49/49 48/48/48
f 39/39/39 40/40/40 50/50/50 49/49/49
f 50/50/50 52/52/51 51/51/52 41/41/42 42/42/41 43/43/43 44/44/44 45/45/45 46/46/46 47/47/47 48/48/48 49/49/49
