# This file uses centimeters as units for non-parametric coordinates.

mtllib Wire_3.mtl
g default
v 0.169050 14.545223 -0.064721
v -0.003368 -0.019818 -0.006863
v 0.295238 14.767432 -15.421830
v 0.305515 -0.023932 -15.670638
vt 0.011374 0.003131
vt 0.871936 0.000488
vt 0.000488 0.987009
vt 0.874392 0.999512
vn 0.999886 -0.005614 0.013984
vn 0.999886 -0.005613 0.013984
vn 0.999886 -0.005614 0.013984
vn 0.999886 -0.005613 0.013984
s off
g Wire_3
usemtl initialShadingGroup
f 2/2/1 4/4/2 3/3/3 1/1/4
