# This file uses centimeters as units for non-parametric coordinates.

mtllib Wooden_Pillar_001.mtl
g default
v -0.282918 0.024507 0.445438
v -0.347756 0.024507 0.418562
v -0.374632 0.024507 0.353724
v 0.084052 0.024507 0.353724
v 0.057176 0.024507 0.418562
v -0.007663 0.024507 0.445438
v -0.347756 2.749048 0.353724
v -0.374632 2.607641 0.353724
v -0.347756 2.607641 0.418562
v -0.282918 2.607641 0.445438
v -0.282918 2.749048 0.418562
v -0.282918 2.807622 0.353724
v 0.057176 2.749048 0.353724
v -0.007663 2.807622 0.353724
v -0.007663 2.749048 0.418562
v -0.007663 2.607641 0.445438
v 0.057176 2.607641 0.418562
v 0.084052 2.607641 0.353724
v -0.347756 2.607641 0.013630
v -0.374632 2.607641 0.078469
v -0.347756 2.749048 0.078469
v -0.282918 2.807622 0.078469
v -0.282918 2.749048 0.013630
v -0.282918 2.607641 -0.013246
v 0.057176 2.607641 0.013630
v -0.007663 2.607641 -0.013246
v -0.007663 2.749048 0.013630
v -0.007663 2.807622 0.078469
v 0.057176 2.749048 0.078469
v 0.084052 2.607641 0.078469
v -0.374632 0.024507 0.078469
v -0.347756 0.024507 0.013630
v -0.282918 0.024507 -0.013246
v -0.007663 0.024507 -0.013246
v 0.057176 0.024507 0.013630
v 0.084052 0.024507 0.078469
v -0.335858 2.723058 0.406664
v 0.045277 2.723058 0.406664
v -0.335858 2.723058 0.025529
v 0.045277 2.723058 0.025529
vt 0.083422 0.000655
vt 0.154678 0.000539
vt 0.084496 0.439357
vt 0.131110 0.439435
vt 0.154747 0.440311
vt 0.012446 0.001039
vt 0.085372 0.522087
vt 0.130669 0.521765
vt 0.201311 0.442107
vt 0.201777 0.000605
vt 0.083782 0.999502
vt 0.130745 0.999512
vt 0.130622 0.000488
vt 0.084751 0.476475
vt 0.130594 0.476317
vt 0.084290 0.559522
vt 0.131453 0.559739
vt 0.059380 0.000785
vt 0.060848 0.440275
vt 0.014152 0.442304
vt 0.071394 0.000719
vt 0.142654 0.000510
vt 0.064275 0.465156
vt 0.070773 0.473254
vt 0.072672 0.439702
vt 0.084170 0.462567
vt 0.145359 0.473010
vt 0.151448 0.464794
vt 0.131441 0.462560
vt 0.142931 0.439754
vt 0.002215 0.442711
vt 0.072350 0.558910
vt 0.070728 0.524975
vt 0.015441 0.466808
vt 0.084700 0.535954
vt 0.143405 0.559114
vt 0.213240 0.442484
vt 0.131066 0.535760
vt 0.199997 0.467061
vt 0.144525 0.524627
vt 0.071810 0.999475
vt 0.000488 0.001106
vt 0.213743 0.000636
vt 0.142703 0.999507
vt 0.074012 0.460314
vt 0.141682 0.460184
vt 0.005585 0.462947
vt 0.074878 0.537480
vt 0.140792 0.537292
vt 0.209870 0.463037
vn -0.996892 0.000000 0.078780
vn -0.923783 0.000000 0.382916
vn -0.924415 0.006417 0.381334
vn -0.996935 0.009270 0.077679
vn -0.382916 0.000000 0.923783
vn -0.078780 0.000000 0.996892
vn -0.077679 0.009270 0.996935
vn -0.381334 0.006417 0.924415
vn 0.078780 0.000000 0.996892
vn 0.382916 0.000000 0.923783
vn 0.381334 0.006417 0.924415
vn 0.077679 0.009270 0.996935
vn 0.923783 0.000000 0.382916
vn 0.996892 0.000000 0.078780
vn 0.996935 0.009270 0.077679
vn 0.924415 0.006417 0.381334
vn -0.981908 0.183896 0.045157
vn -0.981908 0.183896 -0.045157
vn -0.996935 0.009270 -0.077679
vn -0.659293 0.744772 0.103187
vn -0.154679 0.975781 0.154679
vn -0.154679 0.975781 -0.154679
vn -0.659293 0.744772 -0.103187
vn -0.103186 0.744771 0.659294
vn 0.103186 0.744771 0.659294
vn 0.154679 0.975781 0.154679
vn -0.045157 0.183896 0.981908
vn 0.045157 0.183896 0.981908
vn 0.659294 0.744771 0.103187
vn 0.659294 0.744771 -0.103187
vn 0.154679 0.975781 -0.154679
vn 0.981908 0.183896 0.045157
vn 0.996935 0.009270 -0.077679
vn 0.981908 0.183896 -0.045157
vn -0.924415 0.006417 -0.381334
vn -0.923783 0.000000 -0.382916
vn -0.996892 0.000000 -0.078780
vn -0.381334 0.006417 -0.924415
vn -0.077679 0.009270 -0.996935
vn -0.078780 0.000000 -0.996892
vn -0.382916 0.000000 -0.923783
vn -0.045157 0.183896 -0.981908
vn 0.045157 0.183896 -0.981908
vn 0.077679 0.009270 -0.996935
vn -0.103186 0.744771 -0.659294
vn 0.103186 0.744771 -0.659294
vn 0.381334 0.006417 -0.924415
vn 0.382916 0.000000 -0.923783
vn 0.078780 0.000000 -0.996892
vn 0.924415 0.006417 -0.381334
vn 0.996892 0.000000 -0.078780
vn 0.923783 0.000000 -0.382916
vn -0.529427 0.662881 0.529430
vn -0.927533 0.155774 0.339730
vn -0.339730 0.155774 0.927533
vn 0.927533 0.155774 0.339730
vn 0.529428 0.662881 0.529430
vn 0.339730 0.155774 0.927533
vn -0.339730 0.155774 -0.927533
vn -0.927533 0.155774 -0.339730
vn -0.529428 0.662881 -0.529430
vn 0.927533 0.155774 -0.339730
vn 0.339730 0.155774 -0.927533
vn 0.529428 0.662880 -0.529430
s 1
g Wooden_Pillar_001
usemtl initialShadingGroup
f 3/18/1 2/21/2 9/25/3 8/19/4
s 2
f 2/21/5 1/1/6 10/3/7 9/25/8
f 6/13/9 5/22/10 17/30/11 16/4/12
s 4
f 5/22/13 4/2/14 18/5/15 17/30/16
s 1
f 8/19/4 7/23/17 21/34/18 20/20/19
s 5
f 7/24/20 12/14/21 22/7/22 21/33/23
f 12/14/21 11/26/24 15/29/25 14/15/26
s 2
f 11/26/27 10/3/7 16/4/12 15/29/28
s 5
f 14/15/26 13/27/29 29/40/30 28/8/31
s 4
f 13/28/32 18/5/15 30/9/33 29/39/34
s 1
f 20/20/19 19/31/35 32/42/36 31/6/37
s 6
f 19/32/38 24/16/39 33/11/40 32/41/41
f 24/16/39 23/35/42 27/38/43 26/17/44
s 5
f 23/35/45 22/7/22 28/8/31 27/38/46
s 6
f 26/17/44 25/36/47 35/44/48 34/12/49
s 4
f 25/37/50 30/9/33 36/10/51 35/43/52
s 2
f 1/1/6 6/13/9 16/4/12 10/3/7
s 5
f 12/14/21 14/15/26 28/8/31 22/7/22
s 6
f 24/16/39 26/17/44 34/12/49 33/11/40
s 4
f 4/2/14 36/10/51 30/9/33 18/5/15
s 1
f 31/6/37 3/18/1 8/19/4 20/20/19
s 5
f 11/26/24 12/14/21 7/24/20 37/45/53
s 1
f 7/23/17 8/19/4 9/25/3 37/45/54
s 2
f 9/25/8 10/3/7 11/26/27 37/45/55
s 4
f 17/30/16 18/5/15 13/28/32 38/46/56
s 5
f 13/27/29 14/15/26 15/29/25 38/46/57
s 2
f 15/29/28 16/4/12 17/30/11 38/46/58
s 6
f 23/35/42 24/16/39 19/32/38 39/48/59
s 1
f 19/31/35 20/20/19 21/34/18 39/47/60
s 5
f 21/33/23 22/7/22 23/35/45 39/48/61
s 4
f 29/39/34 30/9/33 25/37/50 40/50/62
s 6
f 25/36/47 26/17/44 27/38/43 40/49/63
s 5
f 27/38/46 28/8/31 29/40/30 40/49/64
