# This file uses centimeters as units for non-parametric coordinates.

mtllib Wall.mtl
g default
v -126.432806 -4.522841 28.281922
v -126.484235 2.138359 28.990337
v -126.531684 8.799884 29.696380
v -126.575530 15.461709 30.400172
v -126.615640 22.123850 31.101478
v -126.652091 28.786313 31.800387
v -126.684994 35.449084 32.496869
v -126.714294 42.112195 33.190780
v -126.740308 48.775611 33.882414
v -126.762756 55.439348 34.571361
v -126.781882 62.103422 35.257826
v -113.913107 -3.989875 24.615778
v -113.997832 2.685412 25.198463
v -114.082076 9.360851 25.779775
v -114.162511 16.036618 26.129009
v -114.064201 22.541319 24.349606
v -114.175136 29.216312 26.979656
v -114.307672 36.069105 20.613895
v -114.389642 42.745341 21.188574
v -114.570128 49.417212 28.716204
v -114.658954 56.093405 29.811416
v -114.740249 62.770097 30.382159
v -101.337728 -3.515063 21.034870
v -101.428864 3.035365 20.833897
v -101.504621 9.719292 17.563048
v -101.639869 16.593716 18.333483
v -101.780153 23.282484 20.142890
v -101.938557 29.970515 22.976378
v -102.019744 36.662252 20.191166
v -102.182574 43.193363 20.063117
v -102.290419 50.041114 21.625131
v -102.427728 56.730608 22.202315
v -102.606047 63.418384 25.466343
v -88.756089 -3.010314 17.306896
v -88.943098 3.605634 13.029796
v -89.175597 10.301071 17.136890
v -89.234818 17.078107 18.402882
v -89.811240 23.599059 17.202542
v -90.023452 30.300863 17.508885
v -89.736240 37.188392 18.381299
v -90.058821 43.833158 18.120298
v -89.968407 50.644158 17.045672
v -90.154233 57.347054 17.428928
v -90.390493 64.047711 20.910091
v -76.116162 -2.516913 14.459558
v -76.218032 4.204345 10.828276
v -76.773063 10.859212 13.085976
v -77.085869 17.564109 13.215362
v -77.390304 24.272229 13.236052
v -77.641691 30.987687 13.340262
v -77.270281 37.776032 12.397549
v -77.364233 44.510523 13.092925
v -77.625886 51.225396 16.151605
v -77.859498 57.941699 16.569495
v -78.099197 64.657762 16.782286
v -63.461879 -2.068930 11.823633
v -63.632393 4.664700 11.889986
v -63.815370 11.397962 11.958368
v -64.010904 18.130831 12.029128
v -64.218845 24.863296 12.102090
v -64.434437 31.595549 11.820661
v -64.596242 38.330443 6.893100
v -65.411320 45.062446 5.151618
v -65.172939 51.788886 12.188908
v -65.774799 58.518267 11.554652
v -65.730451 65.248616 12.597785
v -50.782089 -1.642496 9.100423
v -50.962049 5.106212 9.034644
v -51.795031 11.944894 5.660728
v -52.091141 18.689359 5.620959
v -51.594105 25.349352 8.671812
v -51.799899 32.097670 5.988757
v -52.058803 38.843690 5.938860
v -53.084482 45.641898 6.331919
v -52.664186 52.332119 8.663262
v -53.380376 59.103579 7.420809
v -53.292520 65.819834 8.590870
v -38.085991 -1.237984 6.569784
v -38.270664 5.525963 6.370861
v -38.474368 12.289295 6.175378
v -38.697121 19.051996 5.983594
v -39.587251 25.936679 2.833997
v -39.924218 32.694986 2.669715
v -39.480001 39.336056 5.432928
v -39.779071 46.095981 5.258103
v -40.097335 52.855152 5.088117
v -40.434569 59.613560 4.923023
v -40.790788 66.371173 4.763085
v -25.378898 -0.855598 4.232851
v -25.563382 5.923765 3.899654
v -25.770303 12.702409 3.570544
v -25.999547 19.480303 3.245869
v -26.251058 26.257429 2.925804
v -26.525151 33.033745 2.610642
v -26.821527 39.809230 2.300671
v -27.138420 46.583927 1.860789
v -27.450078 53.359043 -0.501197
v -27.813352 60.131886 -0.794487
v -28.228466 66.902426 0.981185
v -13.621077 -0.042429 -5.257637
v -13.985862 6.745685 -5.684076
v -13.050791 13.093554 1.158496
v -13.281718 19.886823 0.699829
v -13.538242 26.679206 0.246331
v -13.820417 33.470665 -0.201531
v -14.128374 40.261183 -0.643523
v -14.461831 47.050723 -1.079415
v -14.821010 53.839253 -1.508943
v -15.205725 60.626743 -1.931847
v -15.615972 67.413149 -2.347806
v 0.047331 -0.157930 0.144671
v -0.122442 6.652763 -0.460026
v -0.321221 13.462533 -1.059546
v -0.548909 20.271347 -1.653277
v -0.805619 27.079165 -2.241249
v -1.091293 33.885964 -2.822967
v -1.405836 40.691693 -3.398141
v -1.749377 47.496335 -3.966537
v -2.121803 54.299845 -4.527806
v -2.523188 61.102185 -5.081540
v -2.953398 67.903316 -5.627654
vt 0.007744 0.003913
vt 0.057305 0.004926
vt 0.107075 0.005692
vt 0.157107 0.006215
vt 0.207600 0.007047
vt 0.258511 0.007105
vt 0.309945 0.007134
vt 0.362415 0.006251
vt 0.413789 0.003882
vt 0.464058 0.002362
vt 0.513878 0.000488
vt 0.005462 0.100924
vt 0.054985 0.101947
vt 0.104572 0.102810
vt 0.153955 0.103412
vt 0.202138 0.112958
vt 0.253472 0.106655
vt 0.313561 0.127813
vt 0.358755 0.127790
vt 0.422053 0.101591
vt 0.470635 0.099430
vt 0.519593 0.098311
vt 0.002672 0.199100
vt 0.051029 0.201420
vt 0.104717 0.214391
vt 0.155744 0.212661
vt 0.206416 0.209972
vt 0.258602 0.203869
vt 0.312319 0.212813
vt 0.361740 0.212938
vt 0.415102 0.209138
vt 0.465130 0.208459
vt 0.519501 0.198832
vt 0.000601 0.299004
vt 0.056817 0.309452
vt 0.112710 0.303960
vt 0.161987 0.302918
vt 0.210695 0.301636
vt 0.260879 0.300894
vt 0.313174 0.303636
vt 0.363388 0.303270
vt 0.414743 0.307524
vt 0.464417 0.305454
vt 0.519884 0.297523
vt 0.002434 0.398755
vt 0.058923 0.402186
vt 0.111029 0.399272
vt 0.161264 0.399209
vt 0.211440 0.398558
vt 0.261987 0.398591
vt 0.313689 0.406104
vt 0.365665 0.404883
vt 0.421522 0.398649
vt 0.471908 0.396173
vt 0.521798 0.394691
vt 0.008188 0.495509
vt 0.058356 0.495127
vt 0.108883 0.495702
vt 0.159481 0.495678
vt 0.208931 0.495854
vt 0.257161 0.496473
vt 0.314105 0.507794
vt 0.361380 0.506042
vt 0.426789 0.495882
vt 0.475630 0.494356
vt 0.525656 0.493369
vt 0.008476 0.592555
vt 0.057957 0.592955
vt 0.112927 0.594291
vt 0.160429 0.593853
vt 0.213120 0.593463
vt 0.266771 0.599379
vt 0.317685 0.599724
vt 0.369290 0.592641
vt 0.422401 0.593603
vt 0.473886 0.592506
vt 0.524160 0.592663
vt 0.011314 0.688846
vt 0.061225 0.690147
vt 0.111553 0.691141
vt 0.162535 0.691634
vt 0.218935 0.691046
vt 0.268197 0.689984
vt 0.320831 0.692776
vt 0.371016 0.691499
vt 0.421505 0.690977
vt 0.472126 0.690288
vt 0.522395 0.689903
vt 0.010454 0.782009
vt 0.061447 0.786076
vt 0.112892 0.787828
vt 0.164224 0.788471
vt 0.215582 0.788608
vt 0.267205 0.788762
vt 0.318465 0.788915
vt 0.369298 0.788975
vt 0.422209 0.792612
vt 0.471883 0.792399
vt 0.523153 0.787316
vt 0.000488 0.891875
vt 0.049348 0.889169
vt 0.115454 0.886477
vt 0.166133 0.885892
vt 0.216935 0.885505
vt 0.267764 0.885347
vt 0.318556 0.885349
vt 0.369309 0.885377
vt 0.419994 0.885365
vt 0.470740 0.885258
vt 0.521289 0.884499
vt 0.018805 0.999512
vt 0.068515 0.988764
vt 0.118685 0.984834
vt 0.168568 0.982754
vt 0.218663 0.981905
vt 0.268922 0.981617
vt 0.319318 0.981609
vt 0.369828 0.981685
vt 0.420416 0.981711
vt 0.471043 0.981565
vt 0.521643 0.981078
vn -0.288205 0.089355 -0.953390
vn -0.292981 0.089083 -0.951959
vn -0.336787 -0.000160 -0.941581
vn -0.295219 0.056525 -0.953756
vn -0.306368 0.080317 -0.948519
vn -0.408144 0.009878 -0.912864
vn -0.359552 -0.001550 -0.933124
vn -0.428206 0.014894 -0.903558
vn -0.412905 0.080151 -0.907240
vn -0.397226 0.131119 -0.908306
vn -0.489408 -0.084306 -0.867970
vn -0.389005 -0.100164 -0.915774
vn -0.628456 -0.123666 -0.767952
vn -0.398828 -0.199666 -0.895025
vn -0.623636 0.262562 -0.736301
vn -0.443594 0.264005 -0.856461
vn -0.474531 0.304101 -0.826040
vn -0.458665 0.307496 -0.833710
vn -0.377368 0.102017 -0.920427
vn -0.434029 0.137405 -0.890359
vn -0.373294 0.084255 -0.923879
vn -0.417190 0.164994 -0.893717
vn -0.371141 -0.120410 -0.920737
vn -0.351266 -0.147447 -0.924593
vn -0.344384 0.024621 -0.938506
vn -0.301791 0.065571 -0.951117
vn -0.311748 0.154216 -0.937567
vn -0.272371 -0.062606 -0.960154
vn -0.158069 -0.205621 -0.965782
vn -0.206469 0.173598 -0.962930
vn -0.366544 0.207359 -0.907000
vn -0.421499 0.210934 -0.881955
vn -0.404039 0.321895 -0.856234
vn -0.281320 -0.099482 -0.954444
vn -0.272764 -0.408859 -0.870881
vn -0.234596 0.179038 -0.955463
vn -0.217475 0.041242 -0.975194
vn -0.280672 0.038789 -0.959020
vn -0.328728 0.028998 -0.943979
vn -0.310184 -0.031162 -0.950166
vn -0.267864 0.038382 -0.962692
vn -0.235133 0.073514 -0.969179
vn -0.252177 0.200248 -0.946735
vn -0.283886 0.346157 -0.894195
vn -0.128413 -0.054889 -0.990201
vn -0.104125 -0.396171 -0.912253
vn -0.179047 0.181185 -0.967013
vn -0.221066 -0.000334 -0.975259
vn -0.211690 -0.024992 -0.977017
vn -0.261696 -0.096241 -0.960340
vn -0.372761 -0.128400 -0.919001
vn -0.395910 0.200260 -0.896187
vn -0.278722 0.205985 -0.938022
vn -0.249499 0.090963 -0.964093
vn -0.281662 0.167970 -0.944697
vn -0.157111 -0.089198 -0.983544
vn -0.134170 -0.132943 -0.982000
vn -0.234823 -0.024217 -0.971736
vn -0.262380 0.056155 -0.963329
vn -0.228804 -0.002579 -0.973469
vn -0.225877 -0.241315 -0.943794
vn -0.240306 -0.230065 -0.943039
vn -0.267929 0.249698 -0.930519
vn -0.302778 0.283251 -0.909997
vn -0.325785 0.010852 -0.945382
vn -0.334499 0.119824 -0.934747
vn -0.204193 -0.138748 -0.969048
vn -0.207176 -0.015081 -0.978187
vn -0.216759 -0.129245 -0.967632
vn -0.261357 0.042861 -0.964290
vn -0.320744 -0.052522 -0.945709
vn -0.272576 -0.151509 -0.950130
vn -0.116058 -0.065253 -0.991097
vn -0.086855 0.203753 -0.975162
vn -0.205097 0.134593 -0.969443
vn -0.269623 -0.012937 -0.962879
vn -0.279298 0.112656 -0.953573
vn -0.162613 -0.095004 -0.982105
vn -0.192004 -0.034136 -0.980800
vn -0.109538 -0.093870 -0.989540
vn -0.113477 -0.087723 -0.989660
vn -0.160952 -0.127399 -0.978705
vn -0.160120 0.029996 -0.986642
vn -0.149604 0.080296 -0.985480
vn -0.206631 -0.021413 -0.978185
vn -0.288930 -0.051976 -0.955938
vn -0.311204 -0.003499 -0.950337
vn -0.300417 0.079610 -0.950480
vn -0.388732 0.068816 -0.918777
vn -0.432240 -0.058722 -0.899845
vn -0.264106 0.080112 -0.961161
vn -0.170706 -0.107687 -0.979420
vn -0.124496 -0.107013 -0.986432
vn -0.137217 0.003213 -0.990536
vn -0.204569 -0.002504 -0.978849
vn -0.236622 -0.132348 -0.962546
vn -0.244758 -0.124894 -0.961506
vn -0.261516 0.016066 -0.965065
vn -0.272457 0.089706 -0.957977
vn -0.179606 0.151568 -0.971992
vn -0.154324 -0.072349 -0.985368
vn -0.173049 0.198532 -0.964696
vn -0.186356 -0.072500 -0.979804
vn -0.196221 -0.072696 -0.977861
vn -0.206030 -0.072914 -0.975825
vn -0.214446 -0.075502 -0.973813
vn -0.201108 -0.111212 -0.973235
vn -0.171972 -0.108757 -0.979080
vn -0.184860 -0.035357 -0.982129
vn -0.210558 0.001803 -0.977580
vn 0.249069 0.168408 -0.953731
vn 0.359129 -0.056511 -0.931576
vn -0.031893 0.192482 -0.980782
vn -0.178685 -0.081868 -0.980495
vn -0.188574 -0.082025 -0.978628
vn -0.198407 -0.082203 -0.976667
vn -0.208183 -0.082416 -0.974612
vn -0.217906 -0.082665 -0.972463
vn -0.227583 -0.082943 -0.970220
vn -0.237209 -0.083252 -0.967885
vn -0.242046 -0.083416 -0.966672
s 1
g Wall
usemtl initialShadingGroup
f 1/1/1 2/2/2 13/13/3 12/12/4
f 2/2/2 3/3/5 14/14/6 13/13/3
f 3/3/5 4/4/7 15/15/8 14/14/6
f 4/4/7 5/5/9 16/16/10 15/15/8
f 5/5/9 6/6/11 17/17/12 16/16/10
f 6/6/11 7/7/13 18/18/14 17/17/12
f 7/7/13 8/8/15 19/19/16 18/18/14
f 8/8/15 9/9/17 20/20/18 19/19/16
f 9/9/17 10/10/19 21/21/20 20/20/18
f 10/10/19 11/11/21 22/22/22 21/21/20
f 12/12/4 13/13/3 24/24/23 23/23/24
f 13/13/3 14/14/6 25/25/25 24/24/23
f 14/14/6 15/15/8 26/26/26 25/25/25
f 15/15/8 16/16/10 27/27/27 26/26/26
f 16/16/10 17/17/12 28/28/28 27/27/27
f 17/17/12 18/18/14 29/29/29 28/28/28
f 18/18/14 19/19/16 30/30/30 29/29/29
f 19/19/16 20/20/18 31/31/31 30/30/30
f 20/20/18 21/21/20 32/32/32 31/31/31
f 21/21/20 22/22/22 33/33/33 32/32/32
f 23/23/24 24/24/23 35/35/34 34/34/35
f 24/24/23 25/25/25 36/36/36 35/35/34
f 25/25/25 26/26/26 37/37/37 36/36/36
f 26/26/26 27/27/27 38/38/38 37/37/37
f 27/27/27 28/28/28 39/39/39 38/38/38
f 28/28/28 29/29/29 40/40/40 39/39/39
f 29/29/29 30/30/30 41/41/41 40/40/40
f 30/30/30 31/31/31 42/42/42 41/41/41
f 31/31/31 32/32/32 43/43/43 42/42/42
f 32/32/32 33/33/33 44/44/44 43/43/43
f 34/34/35 35/35/34 46/46/45 45/45/46
f 35/35/34 36/36/36 47/47/47 46/46/45
f 36/36/36 37/37/37 48/48/48 47/47/47
f 37/37/37 38/38/38 49/49/49 48/48/48
f 38/38/38 39/39/39 50/50/50 49/49/49
f 39/39/39 40/40/40 51/51/51 50/50/50
f 40/40/40 41/41/41 52/52/52 51/51/51
f 41/41/41 42/42/42 53/53/53 52/52/52
f 42/42/42 43/43/43 54/54/54 53/53/53
f 43/43/43 44/44/44 55/55/55 54/54/54
f 45/45/46 46/46/45 57/57/56 56/56/57
f 46/46/45 47/47/47 58/58/58 57/57/56
f 47/47/47 48/48/48 59/59/59 58/58/58
f 48/48/48 49/49/49 60/60/60 59/59/59
f 49/49/49 50/50/50 61/61/61 60/60/60
f 50/50/50 51/51/51 62/62/62 61/61/61
f 51/51/51 52/52/52 63/63/63 62/62/62
f 52/52/52 53/53/53 64/64/64 63/63/63
f 53/53/53 54/54/54 65/65/65 64/64/64
f 54/54/54 55/55/55 66/66/66 65/65/65
f 56/56/57 57/57/56 68/68/67 67/67/68
f 57/57/56 58/58/58 69/69/69 68/68/67
f 58/58/58 59/59/59 70/70/70 69/69/69
f 59/59/59 60/60/60 71/71/71 70/70/70
f 60/60/60 61/61/61 72/72/72 71/71/71
f 61/61/61 62/62/62 73/73/73 72/72/72
f 62/62/62 63/63/63 74/74/74 73/73/73
f 63/63/63 64/64/64 75/75/75 74/74/74
f 64/64/64 65/65/65 76/76/76 75/75/75
f 65/65/65 66/66/66 77/77/77 76/76/76
f 67/67/68 68/68/67 79/79/78 78/78/79
f 68/68/67 69/69/69 80/80/80 79/79/78
f 69/69/69 70/70/70 81/81/81 80/80/80
f 70/70/70 71/71/71 82/82/82 81/81/81
f 71/71/71 72/72/72 83/83/83 82/82/82
f 72/72/72 73/73/73 84/84/84 83/83/83
f 73/73/73 74/74/74 85/85/85 84/84/84
f 74/74/74 75/75/75 86/86/86 85/85/85
f 75/75/75 76/76/76 87/87/87 86/86/86
f 76/76/76 77/77/77 88/88/88 87/87/87
f 78/78/79 79/79/78 90/90/89 89/89/90
f 79/79/78 80/80/80 91/91/91 90/90/89
f 80/80/80 81/81/81 92/92/92 91/91/91
f 81/81/81 82/82/82 93/93/93 92/92/92
f 82/82/82 83/83/83 94/94/94 93/93/93
f 83/83/83 84/84/84 95/95/95 94/94/94
f 84/84/84 85/85/85 96/96/96 95/95/95
f 85/85/85 86/86/86 97/97/97 96/96/96
f 86/86/86 87/87/87 98/98/98 97/97/97
f 87/87/87 88/88/88 99/99/99 98/98/98
f 89/89/90 90/90/89 101/101/100 100/100/101
f 90/90/89 91/91/91 102/102/102 101/101/100
f 91/91/91 92/92/92 103/103/103 102/102/102
f 92/92/92 93/93/93 104/104/104 103/103/103
f 93/93/93 94/94/94 105/105/105 104/104/104
f 94/94/94 95/95/95 106/106/106 105/105/105
f 95/95/95 96/96/96 107/107/107 106/106/106
f 96/96/96 97/97/97 108/108/108 107/107/107
f 97/97/97 98/98/98 109/109/109 108/108/108
f 98/98/98 99/99/99 110/110/110 109/109/109
f 100/100/101 101/101/100 112/112/111 111/111/112
f 101/101/100 102/102/102 113/113/113 112/112/111
f 102/102/102 103/103/103 114/114/114 113/113/113
f 103/103/103 104/104/104 115/115/115 114/114/114
f 104/104/104 105/105/105 116/116/116 115/115/115
f 105/105/105 106/106/106 117/117/117 116/116/116
f 106/106/106 107/107/107 118/118/118 117/117/117
f 107/107/107 108/108/108 119/119/119 118/118/118
f 108/108/108 109/109/109 120/120/120 119/119/119
f 109/109/109 110/110/110 121/121/121 120/120/120
