# This file uses centimeters as units for non-parametric coordinates.

mtllib Sheet6.mtl
g default
v 0.510407 1.651716 0.331220
v 1.100131 1.591643 0.371969
v 1.690979 1.493744 0.386486
v 2.281747 1.406752 0.395499
v 2.872396 1.373700 0.404256
v 3.463015 1.406749 0.409063
v 4.053628 1.448689 0.413528
v 4.644286 1.470005 0.420064
v 5.235055 1.463061 0.424313
v 5.825932 1.444461 0.425220
v 6.416316 1.477920 0.452727
v 0.506281 5.269079 0.235439
v 1.093491 5.272233 0.283546
v 1.682213 5.273891 0.291144
v 2.270833 5.275623 0.296194
v 2.859683 5.277489 0.300532
v 3.448714 5.279467 0.302259
v 4.037684 5.281816 0.303982
v 4.626646 5.284825 0.309709
v 5.215620 5.288068 0.311878
v 5.804340 5.291445 0.310978
v 6.392504 5.295631 0.309235
v 0.504715 5.875671 0.215410
v 1.093297 5.876007 0.206819
v 1.680883 5.876613 0.204111
v 2.269298 5.877239 0.202959
v 2.857955 5.877703 0.201939
v 3.446644 5.878784 0.201283
v 4.035673 5.880486 0.200576
v 4.624538 5.882503 0.200226
v 5.212876 5.885396 0.199190
v 5.801373 5.888586 0.198253
v 6.388855 5.893700 0.196645
v 0.496383 5.831155 -0.383633
v 1.086744 5.824489 -0.390615
v 1.676845 5.818727 -0.393262
v 2.266218 5.813690 -0.394196
v 2.855907 5.809708 -0.394957
v 3.445531 5.802224 -0.394304
v 4.034602 5.797391 -0.394277
v 4.624248 5.791978 -0.393949
v 5.214313 5.784989 -0.393607
v 5.803174 5.775469 -0.392049
v 6.393990 5.762032 -0.388507
v 0.480931 4.650901 -0.563140
v 6.352524 4.559315 -0.404507
vt 0.000488 0.046921
vt 0.093888 0.036721
vt 0.187243 0.020639
vt 0.280586 0.006301
vt 0.373965 0.000488
vt 0.467396 0.005139
vt 0.560836 0.011196
vt 0.654274 0.013986
vt 0.747700 0.012327
vt 0.841123 0.008847
vt 0.934615 0.013452
vt 0.003036 0.619122
vt 0.096199 0.618896
vt 0.189295 0.618599
vt 0.282384 0.618286
vt 0.375517 0.617995
vt 0.468680 0.617760
vt 0.561832 0.617553
vt 0.654987 0.617386
vt 0.748145 0.617337
vt 0.841261 0.617399
vt 0.934275 0.617591
vt 0.003273 0.715060
vt 0.096429 0.715210
vt 0.189474 0.714921
vt 0.282587 0.714543
vt 0.375710 0.714151
vt 0.468861 0.713915
vt 0.562016 0.713634
vt 0.655159 0.713379
vt 0.748227 0.713350
vt 0.841341 0.713503
vt 0.934266 0.713916
vt 0.002948 0.809991
vt 0.096251 0.810084
vt 0.189501 0.809876
vt 0.282655 0.809525
vt 0.375812 0.809050
vt 0.469020 0.809012
vt 0.562152 0.808611
vt 0.655305 0.808312
vt 0.748475 0.808260
vt 0.841485 0.808560
vt 0.934836 0.808941
vt 0.002788 0.998859
vt 0.931369 0.999512
vn -0.043807 0.024817 0.998732
vn -0.041510 0.036424 0.998474
vn -0.068301 0.032870 0.997123
vn -0.074055 0.025054 0.996939
vn -0.013191 0.025026 0.999600
vn -0.012083 0.041135 0.999080
vn -0.010252 0.025760 0.999616
vn -0.009314 0.043084 0.999028
vn -0.008364 0.026562 0.999612
vn -0.007555 0.044738 0.998970
vn -0.006319 0.027530 0.999601
vn -0.005655 0.046366 0.998909
vn -0.008605 0.028361 0.999561
vn -0.007910 0.047983 0.998817
vn -0.008159 0.028908 0.999549
vn -0.007558 0.049506 0.998745
vn -0.002441 0.029333 0.999567
vn -0.002251 0.050552 0.998719
vn -0.011311 0.031508 0.999439
vn -0.009562 0.052560 0.998572
vn -0.022912 0.033463 0.999177
vn -0.019658 0.054084 0.998343
vn -0.010481 0.769802 0.638197
vn -0.020904 0.759102 0.650636
vn -0.000192 0.782400 0.622776
vn -0.000139 0.788762 0.614699
vn 0.001279 0.794432 0.607351
vn 0.001780 0.799595 0.600537
vn -0.000458 0.805153 0.593067
vn -0.000361 0.811150 0.584837
vn 0.002544 0.817629 0.575739
vn 0.005104 0.824082 0.566447
vn 0.006112 0.828918 0.559337
vn 0.014094 0.124286 -0.992146
vn 0.014106 0.123809 -0.992206
vn 0.014068 0.124155 -0.992163
vn 0.014034 0.124105 -0.992170
vn 0.014073 0.124029 -0.992179
vn 0.014059 0.123906 -0.992194
vn 0.013988 0.123718 -0.992219
vn 0.013998 0.123593 -0.992234
vn 0.014050 0.123345 -0.992264
vn 0.014131 0.122983 -0.992308
vn 0.014173 0.124403 -0.992131
vn 0.014018 0.075568 -0.997042
vn 0.014018 0.075568 -0.997042
s 1
g Sheet6
usemtl initialShadingGroup
f 2/2/1 13/13/2 12/12/3 1/1/4
f 3/3/5 14/14/6 13/13/2 2/2/1
f 4/4/7 15/15/8 14/14/6 3/3/5
f 5/5/9 16/16/10 15/15/8 4/4/7
f 6/6/11 17/17/12 16/16/10 5/5/9
f 7/7/13 18/18/14 17/17/12 6/6/11
f 8/8/15 19/19/16 18/18/14 7/7/13
f 9/9/17 20/20/18 19/19/16 8/8/15
f 10/10/19 21/21/20 20/20/18 9/9/17
f 11/11/21 22/22/22 21/21/20 10/10/19
f 12/12/3 13/13/2 24/24/23 23/23/24
f 13/13/2 14/14/6 25/25/25 24/24/23
f 14/14/6 15/15/8 26/26/26 25/25/25
f 15/15/8 16/16/10 27/27/27 26/26/26
f 16/16/10 17/17/12 28/28/28 27/27/27
f 17/17/12 18/18/14 29/29/29 28/28/28
f 18/18/14 19/19/16 30/30/30 29/29/29
f 19/19/16 20/20/18 31/31/31 30/30/30
f 20/20/18 21/21/20 32/32/32 31/31/31
f 21/21/20 22/22/22 33/33/33 32/32/32
f 23/23/24 24/24/23 35/35/34 34/34/35
f 24/24/23 25/25/25 36/36/36 35/35/34
f 25/25/25 26/26/26 37/37/37 36/36/36
f 26/26/26 27/27/27 38/38/38 37/37/37
f 27/27/27 28/28/28 39/39/39 38/38/38
f 28/28/28 29/29/29 40/40/40 39/39/39
f 29/29/29 30/30/30 41/41/41 40/40/40
f 30/30/30 31/31/31 42/42/42 41/41/41
f 31/31/31 32/32/32 43/43/43 42/42/42
f 32/32/32 33/33/33 44/44/44 43/43/43
f 46/46/45 45/45/46 34/34/35 35/35/34 36/36/36 37/37/37 38/38/38 39/39/39 40/40/40 41/41/41 42/42/42 43/43/43 44/44/44
