# This file uses centimeters as units for non-parametric coordinates.

mtllib Mine_Tunnel_005.mtl
g default
v -24.171988 0.908039 -5.446317
v -24.296202 5.476363 -4.569127
v -24.420496 10.044686 -3.691826
v -22.408957 14.641045 -3.258378
v -23.314753 17.712670 -2.357599
v -25.600871 17.545983 0.874348
v -26.239834 18.587872 3.701058
v -26.878798 17.850197 6.527768
v -26.979864 16.952317 10.595780
v -27.912730 14.641041 11.101517
v -24.517328 10.044684 10.772732
v -26.185396 5.353035 11.209684
v -28.307620 0.661385 12.848443
v -0.012858 -0.015855 0.026447
v -0.388283 4.552468 2.447710
v -0.347789 9.120791 2.186548
v -0.321001 13.717148 2.014179
v -0.460345 16.788773 2.912864
v -1.003436 16.622086 6.415073
v -1.446438 16.198716 9.272167
v -1.889440 16.926300 12.129262
v -2.507702 16.028420 16.117081
v -2.606248 13.717148 16.752243
v -2.608848 9.120789 16.769011
v -2.744433 4.429140 17.643449
v -2.879976 -0.262510 18.518018
v -45.019692 0.908039 -10.158947
v -44.956833 5.476365 -9.217545
v -45.114710 10.044686 -8.980884
v -43.004650 15.551350 -8.473792
v -44.361136 17.795365 -7.578227
v -46.448453 18.130326 -3.838263
v -47.087528 18.587872 -1.011631
v -47.726381 18.646187 1.815158
v -47.903312 17.445946 4.930054
v -48.760304 14.641041 6.388846
v -49.490987 10.044686 6.292907
v -49.323120 5.353035 7.214335
v -49.155203 0.661385 8.135832
vt 0.530678 0.201498
vt 0.586210 0.203458
vt 0.624911 0.203758
vt 0.672351 0.209389
vt 0.707536 0.206048
vt 0.743484 0.203497
vt 0.793254 0.199104
vt 0.241713 0.204494
vt 0.297369 0.203438
vt 0.355151 0.201238
vt 0.412878 0.201007
vt 0.475462 0.199105
vt 0.412892 0.199104
vt 0.412880 0.758314
vt 0.419582 0.500301
vt 0.475841 0.500547
vt 0.469223 0.756506
vt 0.532107 0.501213
vt 0.524438 0.759286
vt 0.588439 0.478105
vt 0.591699 0.735071
vt 0.630475 0.496506
vt 0.629585 0.758773
vt 0.674940 0.514243
vt 0.679650 0.772621
vt 0.712125 0.514169
vt 0.715137 0.772210
vt 0.748230 0.513188
vt 0.750198 0.771787
vt 0.205767 0.509056
vt 0.202545 0.771141
vt 0.235100 0.518231
vt 0.241807 0.776390
vt 0.291181 0.477890
vt 0.297624 0.783883
vt 0.348913 0.495256
vt 0.355317 0.778660
vt 0.411101 0.515008
vt 0.412946 0.773724
vt 0.789984 0.764720
vt 0.797455 0.502577
vt 0.622095 0.749124
vt 0.627589 0.487273
vt 0.212734 0.205390
vt 0.629601 0.212723
vn -0.215904 -0.192000 0.957351
vn -0.234695 -0.274841 0.932406
vn -0.242215 -0.186141 0.952199
vn -0.223865 -0.159045 0.961555
vn -0.245022 -0.037745 0.968783
vn -0.239057 -0.062678 0.968981
vn -0.239293 -0.122972 0.963129
vn -0.245974 -0.146344 0.958165
vn -0.137832 -0.879565 0.455377
vn -0.100020 -0.936720 0.335487
vn -0.047082 -0.996869 0.063524
vn -0.042972 -0.991359 0.123937
vn -0.054972 -0.997189 0.050923
vn -0.031265 -0.997377 0.065274
vn 0.001308 -0.985779 -0.168041
vn 0.024698 -0.978695 -0.203830
vn 0.108325 -0.809550 -0.576970
vn 0.124706 -0.800214 -0.586605
vn 0.215469 -0.063659 -0.974434
vn 0.207965 -0.062656 -0.976127
vn 0.226308 -0.031183 -0.973557
vn 0.184203 -0.042593 -0.981965
vn 0.205647 -0.236408 -0.949642
vn 0.178183 -0.227216 -0.957405
vn 0.199898 -0.297409 -0.933589
vn 0.185596 -0.294439 -0.937475
vn -0.248676 -0.340898 0.906614
vn -0.257327 -0.210984 0.943010
vn -0.248476 -0.023528 0.968352
vn -0.235229 -0.108585 0.965855
vn -0.146944 -0.864869 0.480010
vn -0.055046 -0.998404 0.012598
vn -0.074834 -0.996520 0.036714
vn -0.017758 -0.990396 -0.137112
vn 0.099295 -0.810727 -0.576942
vn 0.232164 -0.015543 -0.972553
vn 0.250767 -0.036174 -0.967371
vn 0.234753 -0.247002 -0.940149
vn 0.218499 -0.301185 -0.928195
s 1
g Cave_Tunnel_005
usemtl initialShadingGroup
f 27/14/1 1/15/2 2/16/3 28/17/4
f 3/18/5 29/19/6 28/17/4 2/16/3
f 29/19/6 3/18/5 4/20/7 30/21/8
f 30/21/8 4/20/7 5/43/9 31/42/10
f 31/23/10 5/22/9 6/24/11 32/25/12
f 32/25/12 6/24/11 7/26/13 33/27/14
f 33/27/14 7/26/13 8/28/15 34/29/16
f 34/29/16 8/28/15 9/41/17 35/40/18
f 35/31/18 9/30/17 10/32/19 36/33/20
f 36/33/20 10/32/19 11/34/21 37/35/22
f 37/35/22 11/34/21 12/36/23 38/37/24
f 13/38/25 39/39/26 38/37/24 12/36/23
f 1/15/2 14/11/27 15/12/28 2/16/3
f 16/1/29 3/18/5 2/16/3 15/12/28
f 3/18/5 16/1/29 17/2/30 4/20/7
f 4/20/7 17/2/30 18/3/31 5/43/9
f 5/22/9 18/45/31 19/4/32 6/24/11
f 6/24/11 19/4/32 20/5/33 7/26/13
f 7/26/13 20/5/33 21/6/34 8/28/15
f 8/28/15 21/6/34 22/7/35 9/41/17
f 9/30/17 22/44/35 23/8/36 10/32/19
f 10/32/19 23/8/36 24/9/37 11/34/21
f 11/34/21 24/9/37 25/10/38 12/36/23
f 26/13/39 13/38/25 12/36/23 25/10/38
