# This file uses centimeters as units for non-parametric coordinates.

mtllib Fence_003.mtl
g default
v 0.107188 0.345266 0.032937
v 0.107188 0.345266 -0.032937
v 3.505189 0.407386 0.032937
v 3.505189 0.407386 -0.032937
v 3.501215 0.624765 0.032937
v 3.501215 0.624765 -0.032937
v 0.103214 0.562646 0.032937
v 0.103214 0.562646 -0.032937
v 0.103531 1.224827 0.032937
v 0.103531 1.224827 -0.032937
v 3.501710 1.173424 0.032937
v 3.501710 1.173424 -0.032937
v 3.504998 1.390815 0.032937
v 3.504998 1.390815 -0.032937
v 0.106819 1.442217 0.032937
v 0.106819 1.442217 -0.032937
v 0.102010 2.020882 0.032937
v 0.102010 2.020882 -0.032937
v 3.498969 1.916325 0.032937
v 3.498969 1.916325 -0.032937
v 3.505658 2.133637 0.032937
v 3.505658 2.133637 -0.032937
v 0.108699 2.238195 0.032937
v 0.108699 2.238195 -0.032937
v -0.158319 2.714512 0.134539
v -0.168169 2.690731 0.134539
v -0.158319 2.690731 0.158319
v -0.134539 2.690731 0.168169
v -0.134539 2.714512 0.158319
v -0.134539 2.724362 0.134539
v 0.158319 2.714512 0.134539
v 0.134539 2.724362 0.134539
v 0.134539 2.714512 0.158319
v 0.134539 2.690731 0.168169
v 0.158319 2.690731 0.158319
v 0.168169 2.690731 0.134539
v -0.158319 2.690731 -0.158319
v -0.168169 2.690731 -0.134539
v -0.158319 2.714512 -0.134539
v -0.134539 2.724362 -0.134539
v -0.134539 2.714512 -0.158319
v -0.134539 2.690731 -0.168169
v 0.158319 2.690731 -0.158319
v 0.134539 2.690731 -0.168169
v 0.134539 2.714512 -0.158319
v 0.134539 2.724362 -0.134539
v 0.158319 2.714512 -0.134539
v 0.168169 2.690731 -0.134539
v -0.168169 -0.055359 0.134539
v -0.134539 -0.055359 0.168169
v -0.158319 -0.055359 0.158319
v 0.168169 -0.055359 0.134539
v 0.158319 -0.055359 0.158319
v 0.134539 -0.055359 0.168169
v -0.168169 -0.055359 -0.134539
v -0.158319 -0.055359 -0.158319
v -0.134539 -0.055359 -0.168169
v 0.168169 -0.055359 -0.134539
v 0.134539 -0.055359 -0.168169
v 0.158319 -0.055359 -0.158319
v -0.153949 2.710141 0.153949
v 0.153949 2.710141 0.153949
v -0.153949 2.710141 -0.153949
v 0.153949 2.710141 -0.153949
vt 0.999505 0.950132
vt 0.999506 0.959231
vt 0.530030 0.950154
vt 0.530031 0.959253
vt 0.499997 0.950155
vt 0.499997 0.959255
vt 0.030522 0.950177
vt 0.030522 0.959277
vt 0.000488 0.950179
vt 0.000489 0.959279
vt 0.999507 0.989265
vt 0.530032 0.989287
vt 0.999504 0.920098
vt 0.530029 0.920120
vt 0.999505 0.810367
vt 0.999507 0.819466
vt 0.530032 0.819542
vt 0.530030 0.810442
vt 0.499998 0.819547
vt 0.499997 0.810447
vt 0.030523 0.819623
vt 0.030522 0.810523
vt 0.000490 0.819628
vt 0.000488 0.810528
vt 0.999512 0.849500
vt 0.530037 0.849576
vt 0.999501 0.780333
vt 0.530026 0.780409
vt 0.999505 0.880222
vt 0.999507 0.889322
vt 0.530032 0.889398
vt 0.530030 0.880298
vt 0.499998 0.889403
vt 0.499997 0.880303
vt 0.030523 0.889479
vt 0.030522 0.880379
vt 0.000490 0.889484
vt 0.000488 0.880384
vt 0.999512 0.919356
vt 0.530037 0.919432
vt 0.999500 0.850189
vt 0.530025 0.850265
vt 0.041132 0.379632
vt 0.041633 0.383187
vt 0.004132 0.384255
vt 0.004090 0.380714
vt 0.044426 0.385915
vt 0.047967 0.386282
vt 0.048073 0.423452
vt 0.044508 0.423719
vt 0.048197 0.379374
vt 0.044665 0.379468
vt 0.044909 0.000494
vt 0.048479 0.000488
vt 0.041341 0.000500
vt 0.048091 0.382823
vt 0.085261 0.382836
vt 0.085378 0.386328
vt 0.085162 0.379366
vt 0.088958 0.385946
vt 0.088853 0.423643
vt 0.085327 0.423383
vt 0.091728 0.383169
vt 0.092224 0.379640
vt 0.129364 0.380826
vt 0.129304 0.384396
vt 0.088693 0.379468
vt 0.089379 0.000596
vt 0.092948 0.000609
vt 0.085808 0.000583
vt 0.000537 0.380851
vt 0.000488 0.000525
vt 0.004045 0.000521
vt 0.044567 0.430197
vt 0.048114 0.430432
vt 0.049065 0.809830
vt 0.045506 0.809832
vt 0.048163 0.426949
vt 0.085239 0.426884
vt 0.085295 0.430393
vt 0.088842 0.430138
vt 0.089830 0.809658
vt 0.086273 0.809677
vt 0.132915 0.380971
vt 0.130141 0.000704
vt 0.133699 0.000715
vt 0.044985 0.382555
vt 0.088373 0.382564
vt 0.045316 0.426948
vt 0.001215 0.383735
vt 0.132227 0.383867
vt 0.088077 0.426882
vn 0.018278 -0.999833 0.000000
vn 0.018278 -0.999833 0.000000
vn 0.018278 -0.999833 0.000000
vn 0.018278 -0.999833 0.000000
vn 0.999833 0.018277 0.000000
vn 0.999833 0.018277 0.000000
vn 0.999833 0.018277 0.000000
vn 0.999833 0.018277 0.000000
vn -0.018278 0.999833 0.000000
vn -0.018278 0.999833 0.000000
vn -0.018278 0.999833 0.000000
vn -0.018278 0.999833 0.000000
vn -0.999833 -0.018278 0.000000
vn -0.999833 -0.018278 0.000000
vn -0.999833 -0.018278 0.000000
vn -0.999833 -0.018278 0.000000
vn 0.000000 0.000000 -1.000000
vn 0.000000 0.000000 -1.000000
vn 0.000000 0.000000 -1.000000
vn 0.000000 0.000000 -1.000000
vn 0.000000 0.000000 1.000000
vn 0.000000 0.000000 1.000000
vn 0.000000 0.000000 1.000000
vn 0.000000 0.000000 1.000000
vn -0.015125 -0.999886 0.000000
vn -0.015125 -0.999886 0.000000
vn -0.015125 -0.999886 0.000000
vn -0.015125 -0.999886 0.000000
vn 0.999886 -0.015124 0.000000
vn 0.999886 -0.015124 0.000000
vn 0.999886 -0.015124 0.000000
vn 0.999886 -0.015124 0.000000
vn 0.015125 0.999886 0.000000
vn 0.015125 0.999886 0.000000
vn 0.015125 0.999886 0.000000
vn 0.015125 0.999886 0.000000
vn -0.999886 0.015125 0.000000
vn -0.999886 0.015125 0.000000
vn -0.999886 0.015125 0.000000
vn -0.999886 0.015125 0.000000
vn 0.000000 0.000000 -1.000000
vn 0.000000 0.000000 -1.000000
vn 0.000000 0.000000 -1.000000
vn 0.000000 0.000000 -1.000000
vn -0.000000 0.000000 1.000000
vn -0.000000 0.000000 1.000000
vn -0.000000 0.000000 1.000000
vn -0.000000 0.000000 1.000000
vn -0.030765 -0.999527 0.000000
vn -0.030765 -0.999527 0.000000
vn -0.030765 -0.999527 0.000000
vn -0.030765 -0.999527 0.000000
vn 0.999527 -0.030767 0.000000
vn 0.999527 -0.030767 0.000000
vn 0.999527 -0.030767 0.000000
vn 0.999527 -0.030767 0.000000
vn 0.030765 0.999527 0.000000
vn 0.030765 0.999527 0.000000
vn 0.030765 0.999527 0.000000
vn 0.030765 0.999527 0.000000
vn -0.999527 0.030765 0.000000
vn -0.999527 0.030765 0.000000
vn -0.999527 0.030765 0.000000
vn -0.999527 0.030765 0.000000
vn 0.000000 0.000000 -1.000000
vn 0.000000 0.000000 -1.000000
vn 0.000000 0.000000 -1.000000
vn 0.000000 0.000000 -1.000000
vn 0.000000 0.000000 1.000000
vn 0.000000 0.000000 1.000000
vn 0.000000 0.000000 1.000000
vn 0.000000 0.000000 1.000000
vn -0.999432 0.003455 0.033522
vn -0.924649 0.380229 0.021207
vn -0.924649 0.380229 -0.021207
vn -0.999432 0.003455 -0.033522
vn -0.380226 0.924651 0.021207
vn -0.032711 0.998930 0.032711
vn -0.032711 0.998930 -0.032711
vn -0.380226 0.924651 -0.021207
vn -0.033522 0.003455 0.999432
vn -0.382436 0.002201 0.923979
vn -0.382682 0.000000 0.923880
vn -0.033615 0.000000 0.999435
vn -0.923979 0.002201 0.382436
vn -0.999435 0.000000 0.033615
vn -0.923880 0.000000 0.382682
vn -0.021207 0.924650 0.380228
vn 0.021207 0.924650 0.380228
vn 0.032711 0.998930 0.032711
vn -0.021207 0.380230 0.924649
vn 0.033522 0.003455 0.999432
vn 0.021207 0.380230 0.924649
vn 0.380226 0.924651 0.021207
vn 0.380226 0.924651 -0.021207
vn 0.032711 0.998930 -0.032711
vn 0.924649 0.380229 0.021207
vn 0.999432 0.003455 0.033522
vn 0.999432 0.003455 -0.033522
vn 0.924649 0.380229 -0.021207
vn 0.923979 0.002201 0.382436
vn 0.923880 0.000000 0.382682
vn 0.999435 0.000000 0.033615
vn 0.382436 0.002201 0.923979
vn 0.033615 0.000000 0.999435
vn 0.382682 0.000000 0.923880
vn -0.923979 0.002201 -0.382436
vn -0.923880 0.000000 -0.382682
vn -0.999435 0.000000 -0.033615
vn -0.382436 0.002201 -0.923979
vn -0.033522 0.003455 -0.999432
vn -0.033615 0.000000 -0.999435
vn -0.382682 0.000000 -0.923880
vn -0.021207 0.380230 -0.924649
vn 0.021207 0.380230 -0.924649
vn 0.033522 0.003455 -0.999432
vn -0.021207 0.924650 -0.380228
vn 0.021207 0.924650 -0.380228
vn 0.382436 0.002201 -0.923979
vn 0.382682 0.000000 -0.923880
vn 0.033615 0.000000 -0.999435
vn 0.923979 0.002201 -0.382436
vn 0.999435 0.000000 -0.033615
vn 0.923880 0.000000 -0.382682
vn -0.325270 0.887918 0.325271
vn -0.887918 0.325271 0.325271
vn -0.325271 0.325271 0.887917
vn 0.887917 0.325271 0.325271
vn 0.325270 0.887919 0.325269
vn 0.325272 0.325272 0.887917
vn -0.325272 0.325272 -0.887917
vn -0.887917 0.325271 -0.325271
vn -0.325270 0.887919 -0.325269
vn 0.887918 0.325271 -0.325271
vn 0.325271 0.325271 -0.887917
vn 0.325270 0.887918 -0.325271
s off
g Fence_003
usemtl initialShadingGroup
f 1/1/1 2/2/2 4/4/3 3/3/4
f 3/3/5 4/4/6 6/6/7 5/5/8
f 5/5/9 6/6/10 8/8/11 7/7/12
f 7/7/13 8/8/14 2/10/15 1/9/16
f 2/2/17 8/11/18 6/12/19 4/4/20
f 7/13/21 1/1/22 3/3/23 5/14/24
f 9/15/25 10/16/26 12/17/27 11/18/28
f 11/18/29 12/17/30 14/19/31 13/20/32
f 13/20/33 14/19/34 16/21/35 15/22/36
f 15/22/37 16/21/38 10/23/39 9/24/40
f 10/16/41 16/25/42 14/26/43 12/17/44
f 15/27/45 9/15/46 11/18/47 13/28/48
f 17/29/49 18/30/50 20/31/51 19/32/52
f 19/32/53 20/31/54 22/33/55 21/34/56
f 21/34/57 22/33/58 24/35/59 23/36/60
f 23/36/61 24/35/62 18/37/63 17/38/64
f 18/30/65 24/39/66 22/40/67 20/31/68
f 23/41/69 17/29/70 19/32/71 21/42/72
s 1
f 26/43/73 25/44/74 39/45/75 38/46/76
s 2
f 25/47/77 30/48/78 40/49/79 39/50/80
s 3
f 28/51/81 27/52/82 51/53/83 50/54/84
s 1
f 27/52/85 26/43/73 49/55/86 51/53/87
s 2
f 30/48/78 29/56/88 33/57/89 32/58/90
s 3
f 29/56/91 28/51/81 34/59/92 33/57/93
s 2
f 32/58/90 31/60/94 47/61/95 46/62/96
s 4
f 31/63/97 36/64/98 48/65/99 47/66/100
f 36/64/98 35/67/101 53/68/102 52/69/103
s 3
f 35/67/104 34/59/92 54/70/105 53/68/106
s 1
f 38/46/76 37/71/107 56/72/108 55/73/109
s 5
f 37/74/110 42/75/111 57/76/112 56/77/113
f 42/75/111 41/78/114 45/79/115 44/80/116
s 2
f 41/78/117 40/49/79 46/62/96 45/79/118
s 5
f 44/80/116 43/81/119 60/82/120 59/83/121
s 4
f 43/84/122 48/65/99 58/85/123 60/86/124
s 3
f 28/51/81 50/54/84 54/70/105 34/59/92
s 2
f 30/48/78 32/58/90 46/62/96 40/49/79
s 5
f 42/75/111 44/80/116 59/83/121 57/76/112
s 4
f 36/64/98 52/69/103 58/85/123 48/65/99
s 1
f 38/46/76 55/73/109 49/55/86 26/43/73
s 2
f 29/56/88 30/48/78 25/47/77 61/87/125
s 1
f 25/44/74 26/43/73 27/52/85 61/87/126
s 3
f 27/52/82 28/51/81 29/56/91 61/87/127
s 4
f 35/67/101 36/64/98 31/63/97 62/88/128
s 2
f 31/60/94 32/58/90 33/57/89 62/88/129
s 3
f 33/57/93 34/59/92 35/67/104 62/88/130
s 5
f 41/78/114 42/75/111 37/74/110 63/89/131
s 1
f 37/71/107 38/46/76 39/45/75 63/90/132
s 2
f 39/50/80 40/49/79 41/78/117 63/89/133
s 4
f 47/66/100 48/65/99 43/84/122 64/91/134
s 5
f 43/81/119 44/80/116 45/79/115 64/92/135
s 2
f 45/79/118 46/62/96 47/61/95 64/92/136
