# This file uses centimeters as units for non-parametric coordinates.

mtllib Fence.mtl
g default
v -0.158319 2.714512 0.134539
v -0.168169 2.690731 0.134539
v -0.158319 2.690731 0.158319
v -0.134539 2.690731 0.168169
v -0.134539 2.714512 0.158319
v -0.134539 2.724362 0.134539
v 0.158319 2.714512 0.134539
v 0.134539 2.724362 0.134539
v 0.134539 2.714512 0.158319
v 0.134539 2.690731 0.168169
v 0.158319 2.690731 0.158319
v 0.168169 2.690731 0.134539
v -0.158319 2.690731 -0.158319
v -0.168169 2.690731 -0.134539
v -0.158319 2.714512 -0.134539
v -0.134539 2.724362 -0.134539
v -0.134539 2.714512 -0.158319
v -0.134539 2.690731 -0.168169
v 0.158319 2.690731 -0.158319
v 0.134539 2.690731 -0.168169
v 0.134539 2.714512 -0.158319
v 0.134539 2.724362 -0.134539
v 0.158319 2.714512 -0.134539
v 0.168169 2.690731 -0.134539
v -0.168169 -0.055359 0.134539
v -0.134539 -0.055359 0.168169
v -0.158319 -0.055359 0.158319
v 0.168169 -0.055359 0.134539
v 0.158319 -0.055359 0.158319
v 0.134539 -0.055359 0.168169
v -0.168169 -0.055359 -0.134539
v -0.158319 -0.055359 -0.158319
v -0.134539 -0.055359 -0.168169
v 0.168169 -0.055359 -0.134539
v 0.134539 -0.055359 -0.168169
v 0.158319 -0.055359 -0.158319
v -0.153949 2.710141 0.153949
v 0.153949 2.710141 0.153949
v -0.153949 2.710141 -0.153949
v 0.153949 2.710141 -0.153949
v 0.105118 2.005448 0.032937
v 0.105118 2.005448 -0.032937
v 3.503686 2.005448 0.032937
v 3.503686 2.005448 -0.032937
v 3.503686 2.222864 0.032937
v 3.503686 2.222864 -0.032937
v 0.105118 2.222864 0.032937
v 0.105118 2.222864 -0.032937
v 0.105118 1.217252 0.032937
v 0.105118 1.217252 -0.032937
v 3.503686 1.217252 0.032937
v 3.503686 1.217252 -0.032937
v 3.503686 1.434667 0.032937
v 3.503686 1.434667 -0.032937
v 0.105118 1.434667 0.032937
v 0.105118 1.434667 -0.032937
v 0.105118 0.354387 0.032937
v 0.105118 0.354387 -0.032937
v 3.503686 0.354387 0.032937
v 3.503686 0.354387 -0.032937
v 3.503686 0.571803 0.032937
v 3.503686 0.571803 -0.032937
v 0.105118 0.571803 0.032937
v 0.105118 0.571803 -0.032937
vt 0.048479 0.000488
vt 0.041177 0.379633
vt 0.041341 0.000501
vt 0.048242 0.379374
vt 0.092948 0.000604
vt 0.085208 0.379362
vt 0.085808 0.000579
vt 0.004045 0.000526
vt 0.049161 0.809830
vt 0.048124 0.423452
vt 0.085378 0.423379
vt 0.086369 0.809672
vt 0.129410 0.380817
vt 0.130141 0.000694
vt 0.048014 0.386282
vt 0.085424 0.386324
vt 0.048166 0.430432
vt 0.085347 0.430388
vt 0.092270 0.379635
vt 0.004136 0.380719
vt 0.041679 0.383188
vt 0.044473 0.385915
vt 0.044710 0.379468
vt 0.048138 0.382823
vt 0.089005 0.385941
vt 0.091774 0.383164
vt 0.085307 0.382831
vt 0.088739 0.379463
vt 0.000583 0.380856
vt 0.044619 0.430198
vt 0.044558 0.423719
vt 0.004178 0.384260
vt 0.048215 0.426949
vt 0.088894 0.430133
vt 0.132961 0.380961
vt 0.085290 0.426880
vt 0.129350 0.384386
vt 0.088904 0.423638
vt 0.044909 0.000494
vt 0.089379 0.000591
vt 0.045602 0.809832
vt 0.000488 0.000531
vt 0.133699 0.000705
vt 0.089926 0.809654
vt 0.045031 0.382556
vt 0.088419 0.382559
vt 0.001262 0.383741
vt 0.045367 0.426949
vt 0.088129 0.426877
vt 0.132273 0.383857
vt 0.999505 0.810367
vt 0.999507 0.819467
vt 0.530032 0.819543
vt 0.530030 0.810443
vt 0.499998 0.819547
vt 0.499997 0.810448
vt 0.030523 0.819623
vt 0.030522 0.810524
vt 0.000490 0.819628
vt 0.000488 0.810528
vt 0.999512 0.849500
vt 0.530037 0.849576
vt 0.999501 0.780333
vt 0.530026 0.780409
vt 0.999505 0.880223
vt 0.999507 0.889323
vt 0.530032 0.889399
vt 0.530030 0.880299
vt 0.499998 0.889403
vt 0.499997 0.880304
vt 0.030523 0.889479
vt 0.030522 0.880379
vt 0.000490 0.889484
vt 0.000488 0.880384
vt 0.999512 0.919356
vt 0.530037 0.919432
vt 0.999501 0.850189
vt 0.530026 0.850265
vt 0.999505 0.950079
vt 0.999507 0.959179
vt 0.530032 0.959254
vt 0.530030 0.950155
vt 0.499998 0.959259
vt 0.499997 0.950159
vt 0.030523 0.959335
vt 0.030522 0.950235
vt 0.000490 0.959340
vt 0.000488 0.950240
vt 0.999512 0.989212
vt 0.530037 0.989288
vt 0.999501 0.920045
vt 0.530026 0.920121
vn -0.999432 0.003455 0.033522
vn -0.924649 0.380229 0.021207
vn -0.924649 0.380229 -0.021207
vn -0.999432 0.003455 -0.033522
vn -0.380226 0.924651 0.021207
vn -0.032711 0.998930 0.032711
vn -0.032711 0.998930 -0.032711
vn -0.380226 0.924651 -0.021207
vn -0.033522 0.003455 0.999432
vn -0.382436 0.002201 0.923979
vn -0.382682 0.000000 0.923880
vn -0.033615 0.000000 0.999435
vn -0.923979 0.002201 0.382436
vn -0.999435 0.000000 0.033615
vn -0.923880 0.000000 0.382682
vn -0.021207 0.924650 0.380228
vn 0.021207 0.924650 0.380228
vn 0.032711 0.998930 0.032711
vn -0.021207 0.380230 0.924649
vn 0.033522 0.003455 0.999432
vn 0.021207 0.380230 0.924649
vn 0.380226 0.924651 0.021207
vn 0.380226 0.924651 -0.021207
vn 0.032711 0.998930 -0.032711
vn 0.924649 0.380229 0.021207
vn 0.999432 0.003455 0.033522
vn 0.999432 0.003455 -0.033522
vn 0.924649 0.380229 -0.021207
vn 0.923979 0.002201 0.382436
vn 0.923880 0.000000 0.382682
vn 0.999435 0.000000 0.033615
vn 0.382436 0.002201 0.923979
vn 0.033615 0.000000 0.999435
vn 0.382682 0.000000 0.923880
vn -0.923979 0.002201 -0.382436
vn -0.923880 0.000000 -0.382682
vn -0.999435 0.000000 -0.033615
vn -0.382436 0.002201 -0.923979
vn -0.033522 0.003455 -0.999432
vn -0.033615 0.000000 -0.999435
vn -0.382682 0.000000 -0.923880
vn -0.021207 0.380230 -0.924649
vn 0.021207 0.380230 -0.924649
vn 0.033522 0.003455 -0.999432
vn -0.021207 0.924650 -0.380228
vn 0.021207 0.924650 -0.380228
vn 0.382436 0.002201 -0.923979
vn 0.382682 0.000000 -0.923880
vn 0.033615 0.000000 -0.999435
vn 0.923979 0.002201 -0.382436
vn 0.999435 0.000000 -0.033615
vn 0.923880 0.000000 -0.382682
vn -0.325270 0.887918 0.325271
vn -0.887918 0.325271 0.325271
vn -0.325271 0.325271 0.887917
vn 0.887917 0.325271 0.325271
vn 0.325270 0.887919 0.325269
vn 0.325272 0.325272 0.887917
vn -0.325272 0.325272 -0.887917
vn -0.887917 0.325271 -0.325271
vn -0.325270 0.887919 -0.325269
vn 0.887918 0.325271 -0.325271
vn 0.325271 0.325271 -0.887917
vn 0.325270 0.887918 -0.325271
vn 0.000000 -1.000000 0.000000
vn 0.000000 -1.000000 0.000000
vn 0.000000 -1.000000 0.000000
vn 0.000000 -1.000000 0.000000
vn 1.000000 0.000000 0.000000
vn 1.000000 0.000000 0.000000
vn 1.000000 0.000000 0.000000
vn 1.000000 0.000000 0.000000
vn 0.000000 1.000000 0.000000
vn 0.000000 1.000000 0.000000
vn 0.000000 1.000000 0.000000
vn 0.000000 1.000000 0.000000
vn -1.000000 0.000000 0.000000
vn -1.000000 0.000000 0.000000
vn -1.000000 0.000000 0.000000
vn -1.000000 0.000000 0.000000
vn 0.000000 0.000000 -1.000000
vn 0.000000 0.000000 -1.000000
vn 0.000000 0.000000 -1.000000
vn 0.000000 0.000000 -1.000000
vn 0.000000 0.000000 1.000000
vn 0.000000 0.000000 1.000000
vn 0.000000 0.000000 1.000000
vn 0.000000 0.000000 1.000000
vn 0.000000 -1.000000 0.000000
vn 0.000000 -1.000000 0.000000
vn 0.000000 -1.000000 0.000000
vn 0.000000 -1.000000 0.000000
vn 1.000000 0.000000 0.000000
vn 1.000000 0.000000 0.000000
vn 1.000000 0.000000 0.000000
vn 1.000000 0.000000 0.000000
vn 0.000000 1.000000 0.000000
vn 0.000000 1.000000 0.000000
vn 0.000000 1.000000 0.000000
vn 0.000000 1.000000 0.000000
vn -1.000000 0.000000 0.000000
vn -1.000000 0.000000 0.000000
vn -1.000000 0.000000 0.000000
vn -1.000000 0.000000 0.000000
vn 0.000000 0.000000 -1.000000
vn 0.000000 0.000000 -1.000000
vn 0.000000 0.000000 -1.000000
vn 0.000000 0.000000 -1.000000
vn 0.000000 0.000000 1.000000
vn 0.000000 0.000000 1.000000
vn 0.000000 0.000000 1.000000
vn 0.000000 0.000000 1.000000
vn 0.000000 -1.000000 0.000000
vn 0.000000 -1.000000 0.000000
vn 0.000000 -1.000000 0.000000
vn 0.000000 -1.000000 0.000000
vn 1.000000 0.000000 0.000000
vn 1.000000 0.000000 0.000000
vn 1.000000 0.000000 0.000000
vn 1.000000 0.000000 0.000000
vn 0.000000 1.000000 0.000000
vn 0.000000 1.000000 0.000000
vn 0.000000 1.000000 0.000000
vn 0.000000 1.000000 0.000000
vn -1.000000 0.000000 0.000000
vn -1.000000 0.000000 0.000000
vn -1.000000 0.000000 0.000000
vn -1.000000 0.000000 0.000000
vn 0.000000 0.000000 -1.000000
vn 0.000000 0.000000 -1.000000
vn 0.000000 0.000000 -1.000000
vn 0.000000 0.000000 -1.000000
vn 0.000000 0.000000 1.000000
vn 0.000000 0.000000 1.000000
vn 0.000000 0.000000 1.000000
vn 0.000000 0.000000 1.000000
s 1
g Fence
usemtl initialShadingGroup
f 2/2/1 1/21/2 15/32/3 14/20/4
s 2
f 1/22/5 6/15/6 16/10/7 15/31/8
s 3
f 4/4/9 3/23/10 27/39/11 26/1/12
s 1
f 3/23/13 2/2/1 25/3/14 27/39/15
s 2
f 6/15/6 5/24/16 9/27/17 8/16/18
s 3
f 5/24/19 4/4/9 10/6/20 9/27/21
s 2
f 8/16/18 7/25/22 23/38/23 22/11/24
s 4
f 7/26/25 12/19/26 24/13/27 23/37/28
f 12/19/26 11/28/29 29/40/30 28/5/31
s 3
f 11/28/32 10/6/20 30/7/33 29/40/34
s 1
f 14/20/4 13/29/35 32/42/36 31/8/37
s 5
f 13/30/38 18/17/39 33/9/40 32/41/41
f 18/17/39 17/33/42 21/36/43 20/18/44
s 2
f 17/33/45 16/10/7 22/11/24 21/36/46
s 5
f 20/18/44 19/34/47 36/44/48 35/12/49
s 4
f 19/35/50 24/13/27 34/14/51 36/43/52
s 3
f 4/4/9 26/1/12 30/7/33 10/6/20
s 2
f 6/15/6 8/16/18 22/11/24 16/10/7
s 5
f 18/17/39 20/18/44 35/12/49 33/9/40
s 4
f 12/19/26 28/5/31 34/14/51 24/13/27
s 1
f 14/20/4 31/8/37 25/3/14 2/2/1
s 2
f 5/24/16 6/15/6 1/22/5 37/45/53
s 1
f 1/21/2 2/2/1 3/23/13 37/45/54
s 3
f 3/23/10 4/4/9 5/24/19 37/45/55
s 4
f 11/28/29 12/19/26 7/26/25 38/46/56
s 2
f 7/25/22 8/16/18 9/27/17 38/46/57
s 3
f 9/27/21 10/6/20 11/28/32 38/46/58
s 5
f 17/33/42 18/17/39 13/30/38 39/48/59
s 1
f 13/29/35 14/20/4 15/32/3 39/47/60
s 2
f 15/31/8 16/10/7 17/33/45 39/48/61
s 4
f 23/37/28 24/13/27 19/35/50 40/50/62
s 5
f 19/34/47 20/18/44 21/36/43 40/49/63
s 2
f 21/36/46 22/11/24 23/38/23 40/49/64
s off
f 41/51/65 42/52/66 44/53/67 43/54/68
f 43/54/69 44/53/70 46/55/71 45/56/72
f 45/56/73 46/55/74 48/57/75 47/58/76
f 47/58/77 48/57/78 42/59/79 41/60/80
f 42/52/81 48/61/82 46/62/83 44/53/84
f 47/63/85 41/51/86 43/54/87 45/64/88
f 49/65/89 50/66/90 52/67/91 51/68/92
f 51/68/93 52/67/94 54/69/95 53/70/96
f 53/70/97 54/69/98 56/71/99 55/72/100
f 55/72/101 56/71/102 50/73/103 49/74/104
f 50/66/105 56/75/106 54/76/107 52/67/108
f 55/77/109 49/65/110 51/68/111 53/78/112
f 57/79/113 58/80/114 60/81/115 59/82/116
f 59/82/117 60/81/118 62/83/119 61/84/120
f 61/84/121 62/83/122 64/85/123 63/86/124
f 63/86/125 64/85/126 58/87/127 57/88/128
f 58/80/129 64/89/130 62/90/131 60/81/132
f 63/91/133 57/79/134 59/82/135 61/92/136
