# This file uses centimeters as units for non-parametric coordinates.

mtllib Sheet2.mtl
g default
v -5.607039 1.041914 -0.344430
v -5.058031 0.932940 -0.239647
v -4.496538 0.811494 -0.052596
v -3.935801 0.697718 0.013873
v -3.366341 0.578533 -0.128144
v -2.793774 0.457654 -0.255294
v -2.221233 0.337687 -0.167832
v -1.650029 0.220060 0.136485
v -1.080869 0.101120 0.078632
v -0.528500 0.027417 -0.181777
v 0.004845 -0.004997 -0.006231
v -5.132859 2.863582 -0.114227
v -4.608591 2.762967 0.027380
v -4.039629 2.642451 0.022713
v -3.486644 2.514598 0.099527
v -2.915544 2.372845 -0.028939
v -2.343658 2.238209 -0.178392
v -1.770825 2.103568 -0.209748
v -1.196676 1.970063 -0.072874
v -0.623840 1.844341 0.099110
v -0.053227 1.725739 0.220424
v 0.513641 1.616170 0.460741
v -4.972354 3.781261 0.046639
v -4.407891 3.687520 0.054526
v -3.842377 3.586250 0.010661
v -3.276458 3.477575 -0.010025
v -2.702859 3.337291 -0.157133
v -2.127256 3.181883 -0.298805
v -1.553610 3.034808 -0.327114
v -0.982356 2.889133 -0.302442
v -0.410122 2.759824 -0.256519
v 0.159585 2.635472 -0.169246
v 0.727627 2.520490 0.128748
v -4.757996 4.625592 -0.029965
v -4.193515 4.577334 0.062789
v -3.621287 4.502064 0.097820
v -3.047996 4.401138 0.106065
v -2.477387 4.274761 0.039159
v -1.909219 4.124645 -0.038111
v -1.338522 3.971102 -0.093965
v -0.770542 3.821189 -0.159089
v -0.201299 3.682082 -0.262060
v 0.369556 3.555268 -0.277334
v 0.937937 3.433831 -0.100197
v -4.492002 4.817224 -0.633722
v -3.927767 4.860636 -0.429857
v -3.374602 4.864564 -0.317620
v -2.823688 4.877104 -0.254694
v -2.267563 4.886617 -0.179555
v -1.702808 4.818160 -0.075033
v -1.137220 4.768236 0.044922
v -0.563935 4.672207 0.064397
v 0.008955 4.556217 0.002397
v 0.584668 4.457222 0.003781
v 1.158692 4.324523 0.021919
v -4.354157 3.987659 -0.791623
v -3.780514 4.127831 -0.739057
v -3.206804 4.280282 -0.765072
v -2.629328 4.420155 -0.795871
v -2.055734 4.524302 -0.797866
v -1.483390 4.623171 -0.723729
v -0.911676 4.695851 -0.601280
v -0.340968 4.751481 -0.565067
v 0.230119 4.826936 -0.535881
v 0.797053 4.821297 -0.484355
v 1.361781 4.846815 -0.378001
v -4.170032 3.128466 -0.904737
v -3.597362 3.238005 -0.845470
v -3.018543 3.374867 -0.898092
v -2.437708 3.495805 -0.939050
v -1.857689 3.604227 -0.956970
v -1.283349 3.705744 -0.898554
v -0.711009 3.803350 -0.835266
v -0.140754 3.903793 -0.900715
v 0.422326 4.015283 -0.996892
v 0.988475 4.140963 -1.070425
v 1.566352 4.254052 -1.004819
v -3.974405 2.237721 -1.021921
v -3.411682 2.316586 -0.922585
v -2.832970 2.423549 -0.930885
v -2.254157 2.538854 -0.979800
v -1.677486 2.648787 -0.993264
v -1.101485 2.755867 -0.950548
v -0.526315 2.865550 -0.923370
v 0.047457 2.984583 -1.006333
v 0.620155 3.106297 -1.123592
v 1.196208 3.225339 -1.188524
v 1.747201 3.322651 -1.028989
v -3.772608 1.355035 -1.170260
v -3.212198 1.428361 -1.053976
v -2.640788 1.520077 -1.027569
v -2.064858 1.622881 -0.923719
v -1.488464 1.730006 -0.776950
v -0.911798 1.838594 -0.701904
v -0.335052 1.947051 -0.720024
v 0.242265 2.064693 -0.827562
v 0.816246 2.188261 -0.976545
v 1.385106 2.300432 -0.985146
v 1.938771 2.397822 -0.786255
v -3.520338 0.577109 -1.428581
v -2.987074 0.597894 -1.274097
v -2.430588 0.661024 -1.215255
v -1.858739 0.760028 -1.163968
v -1.285429 0.858368 -1.000228
v -0.712004 0.957710 -0.796665
v -0.136667 1.062338 -0.826773
v 0.440799 1.173264 -0.952339
v 1.019118 1.286631 -1.016466
v 1.592537 1.396208 -0.924818
v 2.148552 1.491064 -0.702381
vt 0.000488 0.000488
vt 0.062514 0.001596
vt 0.128333 0.002783
vt 0.191133 0.003364
vt 0.256509 0.002660
vt 0.321713 0.002000
vt 0.385875 0.002123
vt 0.457022 0.000492
vt 0.520084 0.001860
vt 0.586334 0.004630
vt 0.645773 0.016787
vt 0.013135 0.206235
vt 0.073284 0.208324
vt 0.136686 0.207956
vt 0.199067 0.206481
vt 0.264768 0.204046
vt 0.331458 0.202387
vt 0.396835 0.201033
vt 0.464183 0.199292
vt 0.532318 0.198410
vt 0.598524 0.201398
vt 0.667098 0.204941
vt 0.011919 0.308810
vt 0.074202 0.311300
vt 0.137113 0.313038
vt 0.200174 0.314246
vt 0.266595 0.312021
vt 0.332805 0.308153
vt 0.396678 0.306116
vt 0.460462 0.305595
vt 0.523942 0.308034
vt 0.587326 0.311013
vt 0.657958 0.311134
vt 0.015315 0.403917
vt 0.077091 0.410504
vt 0.138723 0.416448
vt 0.200926 0.419116
vt 0.264575 0.419710
vt 0.329604 0.417160
vt 0.394339 0.413320
vt 0.458647 0.410854
vt 0.522586 0.410970
vt 0.584774 0.413292
vt 0.649850 0.417172
vt 0.025068 0.478342
vt 0.091108 0.477537
vt 0.153261 0.481515
vt 0.214225 0.487017
vt 0.274935 0.492249
vt 0.337090 0.496192
vt 0.398169 0.501572
vt 0.458262 0.508459
vt 0.520735 0.514645
vt 0.585467 0.518321
vt 0.649889 0.518010
vt 0.027252 0.570675
vt 0.092039 0.566694
vt 0.157073 0.565136
vt 0.221504 0.566972
vt 0.284093 0.571569
vt 0.346741 0.573432
vt 0.411074 0.574151
vt 0.474387 0.578485
vt 0.536752 0.582522
vt 0.598606 0.588401
vt 0.661897 0.591044
vt 0.026462 0.666466
vt 0.090031 0.667672
vt 0.154813 0.668165
vt 0.219405 0.670768
vt 0.283741 0.674003
vt 0.348013 0.676066
vt 0.412208 0.677624
vt 0.476024 0.681295
vt 0.539640 0.684989
vt 0.602731 0.687725
vt 0.667102 0.687854
vt 0.024816 0.766514
vt 0.087364 0.770867
vt 0.151270 0.774286
vt 0.215775 0.776925
vt 0.280036 0.778950
vt 0.344589 0.781154
vt 0.409005 0.783440
vt 0.473836 0.785023
vt 0.538638 0.786862
vt 0.602369 0.788646
vt 0.664961 0.792252
vt 0.023308 0.866338
vt 0.085993 0.871046
vt 0.149042 0.876040
vt 0.213886 0.879487
vt 0.279427 0.882861
vt 0.343074 0.886139
vt 0.406063 0.888385
vt 0.470660 0.889790
vt 0.536768 0.890594
vt 0.600671 0.892691
vt 0.665683 0.898038
vt 0.026351 0.959495
vt 0.086221 0.967591
vt 0.146734 0.974900
vt 0.209593 0.980144
vt 0.275466 0.982992
vt 0.342926 0.984715
vt 0.406943 0.987440
vt 0.472474 0.989909
vt 0.536785 0.991598
vt 0.600845 0.994244
vt 0.666659 0.999512
vn -0.093213 -0.012614 0.995566
vn -0.086136 -0.017048 0.996137
vn -0.086088 -0.022495 0.996034
vn -0.080372 -0.027917 0.996374
vn -0.070382 -0.031536 0.997021
vn -0.067061 -0.032781 0.997210
vn -0.075161 -0.032345 0.996647
vn -0.080483 -0.035254 0.996132
vn -0.084446 -0.038844 0.995671
vn -0.087147 -0.039309 0.995420
vn -0.085264 -0.038313 0.995622
vn -0.085264 -0.038313 0.995622
vn -0.085264 -0.038313 0.995621
vn -0.085264 -0.038313 0.995622
vn -0.085264 -0.038313 0.995622
vn -0.085264 -0.038313 0.995622
vn -0.085264 -0.038313 0.995622
vn -0.085264 -0.038313 0.995622
vn -0.085264 -0.038313 0.995622
vn -0.085264 -0.038313 0.995622
vn -0.085264 -0.038313 0.995621
vn -0.106926 0.000862 0.994267
vn -0.041319 -0.012983 0.999062
vn -0.121962 -0.019724 0.992339
vn -0.003878 -0.019249 0.999807
vn 0.091532 -0.038374 0.995062
vn 0.194289 -0.078178 0.977824
vn 0.118355 -0.085261 0.989304
vn -0.009317 -0.037315 0.999260
vn -0.049967 0.063931 0.996703
vn -0.050564 0.180100 0.982348
vn -0.193368 0.285091 0.938793
vn -0.327389 0.333384 0.884122
vn -0.050237 0.408849 0.911218
vn -0.099444 0.461115 0.881750
vn -0.008190 0.263381 0.964657
vn 0.064513 0.126063 0.989922
vn 0.089600 -0.010851 0.995919
vn 0.020037 -0.117160 0.992911
vn -0.022420 -0.174740 0.984359
vn 0.018654 -0.184170 0.982717
vn 0.006672 -0.138229 0.990378
vn -0.162936 -0.030310 0.986171
vn -0.266051 0.016883 0.963811
vn 0.028833 0.900146 -0.434632
vn 0.077898 0.828252 -0.554914
vn -0.034739 0.974432 -0.221980
vn -0.028438 0.999348 0.022236
vn 0.017515 0.950322 0.310776
vn -0.008941 0.794113 0.607705
vn -0.003288 0.555478 0.831525
vn 0.062427 0.343337 0.937135
vn 0.023005 0.230664 0.972761
vn -0.092754 0.215632 0.972059
vn -0.126054 0.279504 0.951834
vn 0.035972 0.256321 -0.965922
vn 0.115254 0.226509 -0.967166
vn -0.069857 0.333798 -0.940053
vn -0.068733 0.421752 -0.904102
vn 0.004187 0.507160 -0.861841
vn 0.079660 0.601389 -0.794975
vn 0.039766 0.696639 -0.716319
vn -0.050697 0.769067 -0.637155
vn -0.054847 0.875688 -0.479752
vn -0.007398 0.956519 -0.291577
vn 0.013252 0.988899 -0.147998
vn 0.005623 0.107997 -0.994135
vn 0.088556 0.134443 -0.986956
vn -0.081819 0.078712 -0.993534
vn -0.063257 0.084519 -0.994412
vn 0.018737 0.110227 -0.993730
vn 0.086127 0.146503 -0.985454
vn -0.002871 0.177879 -0.984048
vn -0.133396 0.216936 -0.967029
vn -0.140455 0.288448 -0.947138
vn -0.016237 0.369296 -0.929170
vn 0.108558 0.412294 -0.904560
vn 0.049665 0.121272 -0.991376
vn 0.135251 0.155764 -0.978491
vn -0.030433 0.057672 -0.997872
vn 0.011605 -0.000332 -0.999933
vn 0.082805 -0.052579 -0.995178
vn 0.088623 -0.074252 -0.993294
vn -0.032933 -0.077428 -0.996454
vn -0.159005 -0.073161 -0.984563
vn -0.143644 -0.056623 -0.988008
vn 0.075665 -0.035823 -0.996490
vn 0.271675 -0.051465 -0.961012
vn 0.096186 0.221818 -0.970333
vn 0.177214 0.250292 -0.951814
vn 0.040613 0.161074 -0.986106
vn 0.121104 0.110390 -0.986483
vn 0.171179 0.038565 -0.984485
vn 0.087032 -0.032134 -0.995687
vn -0.088823 -0.071682 -0.993465
vn -0.179206 -0.077711 -0.980738
vn -0.085972 -0.089009 -0.992314
vn 0.193933 -0.086552 -0.977189
vn 0.346104 -0.053274 -0.936683
vn 0.108133 0.283288 -0.952919
vn 0.199456 0.333310 -0.921478
vn 0.065340 0.252998 -0.965258
vn 0.146965 0.280154 -0.948639
vn 0.195830 0.255639 -0.946731
vn 0.051178 0.153086 -0.986887
vn -0.148581 0.088325 -0.984948
vn -0.200279 0.061210 -0.977825
vn -0.040133 0.023121 -0.998927
vn 0.248510 0.006327 -0.968609
vn 0.353883 0.007056 -0.935263
s 1
g Sheet2
usemtl initialShadingGroup
f 21/21/1 20/20/2 19/19/3 18/18/4 17/17/5 16/16/6 15/15/7 14/14/8 13/13/9 12/12/10 1/1/11 2/2/12 3/3/13 4/4/14 5/5/15 6/6/16 7/7/17 8/8/18 9/9/19 10/10/20 11/11/21 22/22/22
f 12/12/10 13/13/9 24/24/23 23/23/24
f 13/13/9 14/14/8 25/25/25 24/24/23
f 14/14/8 15/15/7 26/26/26 25/25/25
f 15/15/7 16/16/6 27/27/27 26/26/26
f 16/16/6 17/17/5 28/28/28 27/27/27
f 17/17/5 18/18/4 29/29/29 28/28/28
f 18/18/4 19/19/3 30/30/30 29/29/29
f 19/19/3 20/20/2 31/31/31 30/30/30
f 20/20/2 21/21/1 32/32/32 31/31/31
f 21/21/1 22/22/22 33/33/33 32/32/32
f 23/23/24 24/24/23 35/35/34 34/34/35
f 24/24/23 25/25/25 36/36/36 35/35/34
f 25/25/25 26/26/26 37/37/37 36/36/36
f 26/26/26 27/27/27 38/38/38 37/37/37
f 27/27/27 28/28/28 39/39/39 38/38/38
f 28/28/28 29/29/29 40/40/40 39/39/39
f 29/29/29 30/30/30 41/41/41 40/40/40
f 30/30/30 31/31/31 42/42/42 41/41/41
f 31/31/31 32/32/32 43/43/43 42/42/42
f 32/32/32 33/33/33 44/44/44 43/43/43
f 34/34/35 35/35/34 46/46/45 45/45/46
f 35/35/34 36/36/36 47/47/47 46/46/45
f 36/36/36 37/37/37 48/48/48 47/47/47
f 37/37/37 38/38/38 49/49/49 48/48/48
f 38/38/38 39/39/39 50/50/50 49/49/49
f 39/39/39 40/40/40 51/51/51 50/50/50
f 40/40/40 41/41/41 52/52/52 51/51/51
f 41/41/41 42/42/42 53/53/53 52/52/52
f 42/42/42 43/43/43 54/54/54 53/53/53
f 43/43/43 44/44/44 55/55/55 54/54/54
f 45/45/46 46/46/45 57/57/56 56/56/57
f 46/46/45 47/47/47 58/58/58 57/57/56
f 47/47/47 48/48/48 59/59/59 58/58/58
f 48/48/48 49/49/49 60/60/60 59/59/59
f 49/49/49 50/50/50 61/61/61 60/60/60
f 50/50/50 51/51/51 62/62/62 61/61/61
f 51/51/51 52/52/52 63/63/63 62/62/62
f 52/52/52 53/53/53 64/64/64 63/63/63
f 53/53/53 54/54/54 65/65/65 64/64/64
f 54/54/54 55/55/55 66/66/66 65/65/65
f 56/56/57 57/57/56 68/68/67 67/67/68
f 57/57/56 58/58/58 69/69/69 68/68/67
f 58/58/58 59/59/59 70/70/70 69/69/69
f 59/59/59 60/60/60 71/71/71 70/70/70
f 60/60/60 61/61/61 72/72/72 71/71/71
f 61/61/61 62/62/62 73/73/73 72/72/72
f 62/62/62 63/63/63 74/74/74 73/73/73
f 63/63/63 64/64/64 75/75/75 74/74/74
f 64/64/64 65/65/65 76/76/76 75/75/75
f 65/65/65 66/66/66 77/77/77 76/76/76
f 67/67/68 68/68/67 79/79/78 78/78/79
f 68/68/67 69/69/69 80/80/80 79/79/78
f 69/69/69 70/70/70 81/81/81 80/80/80
f 70/70/70 71/71/71 82/82/82 81/81/81
f 71/71/71 72/72/72 83/83/83 82/82/82
f 72/72/72 73/73/73 84/84/84 83/83/83
f 73/73/73 74/74/74 85/85/85 84/84/84
f 74/74/74 75/75/75 86/86/86 85/85/85
f 75/75/75 76/76/76 87/87/87 86/86/86
f 76/76/76 77/77/77 88/88/88 87/87/87
f 78/78/79 79/79/78 90/90/89 89/89/90
f 79/79/78 80/80/80 91/91/91 90/90/89
f 80/80/80 81/81/81 92/92/92 91/91/91
f 81/81/81 82/82/82 93/93/93 92/92/92
f 82/82/82 83/83/83 94/94/94 93/93/93
f 83/83/83 84/84/84 95/95/95 94/94/94
f 84/84/84 85/85/85 96/96/96 95/95/95
f 85/85/85 86/86/86 97/97/97 96/96/96
f 86/86/86 87/87/87 98/98/98 97/97/97
f 87/87/87 88/88/88 99/99/99 98/98/98
f 89/89/90 90/90/89 101/101/100 100/100/101
f 90/90/89 91/91/91 102/102/102 101/101/100
f 91/91/91 92/92/92 103/103/103 102/102/102
f 92/92/92 93/93/93 104/104/104 103/103/103
f 93/93/93 94/94/94 105/105/105 104/104/104
f 94/94/94 95/95/95 106/106/106 105/105/105
f 95/95/95 96/96/96 107/107/107 106/106/106
f 96/96/96 97/97/97 108/108/108 107/107/107
f 97/97/97 98/98/98 109/109/109 108/108/108
f 98/98/98 99/99/99 110/110/110 109/109/109
