# This file uses centimeters as units for non-parametric coordinates.

mtllib Wire4.mtl
g default
v 0.092463 0.012726 -0.030498
v 7.300477 0.012726 -0.030498
v 0.092463 5.825562 -0.070068
v 7.300477 5.825562 -0.070068
v 0.092463 5.831650 -0.006113
v 7.300477 5.831650 -0.006113
v 0.095909 5.760634 0.001500
v 7.303908 5.759882 0.001877
v 0.092463 5.838857 -0.038015
v 7.300477 5.838857 -0.038015
v 0.092463 5.810740 0.013437
v 7.300477 5.810740 0.013437
v 0.092463 5.767968 -0.062253
v 7.300477 5.767968 -0.062253
v 0.092463 5.779657 0.013340
v 7.300477 5.779657 0.013340
v 0.094068 5.745057 -0.032557
v 7.302082 5.745057 -0.032557
v 0.092463 2.337860 -0.046326
v 7.300477 2.337860 -0.046326
v 2.254867 0.012726 -0.030498
v 2.254867 2.337860 0.222353
v 2.254867 5.825562 -0.070068
v 2.254867 5.838857 -0.038015
v 2.254867 5.831650 -0.006113
v 2.254867 5.810740 0.013437
v 2.254867 5.779657 0.013340
v 2.258308 5.760408 0.001613
v 2.256472 5.745057 -0.032557
v 2.254867 5.767968 -0.062253
v 0.092463 4.430481 -0.060571
v 2.254867 4.430481 0.297650
v 7.300477 4.430481 -0.060571
v 5.786793 0.012726 -0.030498
v 5.786793 2.337860 -0.180949
v 5.786793 4.430481 0.495102
v 5.786793 5.825562 -0.070068
v 5.786793 5.838857 -0.038015
v 5.786793 5.831650 -0.006113
v 5.786793 5.810740 0.013437
v 5.786793 5.779657 0.013340
v 5.790227 5.760040 0.001797
v 5.788398 5.745057 -0.032557
v 5.786793 5.767968 -0.062253
v 0.092463 1.175293 -0.038412
v 3.722808 1.418593 -0.224839
v 3.945875 1.338567 -0.045681
v 7.300477 1.175293 -0.038412
v 0.092463 1.291550 -0.039204
v 4.118241 1.522104 0.036172
v 7.300477 1.291550 -0.039204
v 4.072957 5.767968 -0.062253
v 4.074562 5.745057 -0.032557
v 4.076394 5.760219 0.001708
v 4.072957 5.779657 0.013340
v 4.072957 5.810740 0.013437
v 4.072957 5.831650 -0.006113
v 4.072957 5.838857 -0.038015
v 4.072957 5.825562 -0.070068
v 4.072957 4.430481 0.399290
v 3.981387 1.829953 -0.001680
vt 0.005633 0.002660
vt 0.993818 0.000488
vt 0.998760 0.809368
vt 0.000954 0.810309
vt 0.000948 0.815070
vt 0.998820 0.814146
vt 0.998879 0.818645
vt 0.000942 0.819555
vt 0.000930 0.827741
vt 0.998992 0.826849
vt 0.999512 0.829969
vt 0.001399 0.830817
vt 0.998933 0.822580
vt 0.000937 0.823480
vt 0.001137 0.835944
vt 0.999334 0.835119
vt 0.999190 0.840264
vt 0.000906 0.841078
vt 0.001908 0.325773
vt 0.996617 0.320640
vt 0.304730 0.000586
vt 0.299412 0.331184
vt 0.298350 0.813692
vt 0.298349 0.818445
vt 0.298348 0.822925
vt 0.298347 0.826846
vt 0.298345 0.831103
vt 0.298819 0.834195
vt 0.298562 0.839322
vt 0.298337 0.844455
vt 0.000488 0.617643
vt 0.301048 0.616607
vt 0.997826 0.613954
vt 0.787208 0.001696
vt 0.788362 0.320640
vt 0.779581 0.614859
vt 0.789351 0.816835
vt 0.789404 0.821567
vt 0.789455 0.826031
vt 0.789500 0.829940
vt 0.789549 0.834187
vt 0.790063 0.837291
vt 0.789869 0.842421
vt 0.789707 0.847558
vt 0.004494 0.162603
vt 0.495345 0.195566
vt 0.533039 0.181940
vt 0.994693 0.159936
vt 0.004504 0.178912
vt 0.557476 0.209580
vt 0.994766 0.175826
vt 0.550231 0.847361
vt 0.550430 0.842227
vt 0.550660 0.837099
vt 0.550166 0.833994
vt 0.550143 0.829739
vt 0.550122 0.825820
vt 0.550097 0.821343
vt 0.550070 0.816594
vt 0.548785 0.614855
vt 0.537245 0.253569
vn -0.119097 0.045029 0.991861
vn -0.062091 0.047343 0.996947
vn -0.056436 0.205633 0.977000
vn -0.081808 0.133527 0.987663
vn 0.000000 -0.995499 0.094769
vn 0.000000 -0.995499 0.094768
vn 0.000000 -0.975420 -0.220352
vn 0.000000 -0.975421 -0.220348
vn 0.000021 0.221052 -0.975262
vn 0.000022 0.229799 -0.973238
vn 0.000049 0.520693 -0.853744
vn 0.000050 0.524349 -0.851503
vn 0.000000 -0.923695 0.383130
vn 0.000000 -0.923694 0.383132
vn 0.000000 -0.682961 -0.730455
vn 0.000000 -0.682961 -0.730455
vn 0.000000 -0.350427 -0.936590
vn 0.000000 -0.350427 -0.936590
vn 0.000033 0.991785 0.127917
vn 0.000034 0.993223 0.116223
vn 0.000000 0.791745 0.610851
vn 0.000000 0.791748 0.610848
vn 0.000058 0.910796 -0.412858
vn 0.000058 0.911984 -0.410227
vn -0.004818 -0.208930 0.977919
vn -0.012996 -0.031830 0.999409
vn -0.042051 -0.113861 0.992606
vn -0.091259 -0.097948 0.990998
vn 0.034829 -0.171255 0.984611
vn 0.001886 -0.000713 0.999998
vn 0.058869 -0.099911 0.993253
vn -0.026501 0.316983 0.948061
vn 0.013895 0.019909 0.999705
vn 0.081283 -0.011980 0.996619
vn 0.068198 0.280948 0.957297
vn 0.000000 -0.995499 0.094768
vn 0.000000 -0.923693 0.383133
vn 0.000000 -0.923695 0.383128
vn 0.000000 -0.995499 0.094768
vn 0.000000 -0.975420 -0.220353
vn 0.000000 -0.975422 -0.220347
vn 0.000000 -0.350427 -0.936590
vn 0.000000 -0.682961 -0.730455
vn 0.000000 -0.682960 -0.730455
vn 0.000000 -0.350428 -0.936590
vn 0.000022 0.226565 -0.973996
vn 0.000021 0.224501 -0.974474
vn 0.000049 0.513481 -0.858101
vn 0.000049 0.507301 -0.861769
vn 0.000034 0.992796 0.119818
vn 0.000058 0.914435 -0.404733
vn 0.000058 0.916520 -0.399988
vn 0.000034 0.992538 0.121937
vn 0.000000 0.791744 0.610853
vn 0.000000 0.791746 0.610850
vn -0.006263 0.046491 0.998899
vn 0.077814 -0.038843 0.996211
vn 0.155005 -0.011987 0.987841
vn 0.176940 0.198545 0.963988
vn 0.000000 -0.923697 0.383125
vn 0.000000 -0.995499 0.094767
vn 0.000000 -0.975422 -0.220345
vn 0.000000 -0.682961 -0.730455
vn 0.000000 -0.350428 -0.936590
vn 0.000022 0.230832 -0.972994
vn 0.000049 0.504315 -0.863520
vn 0.000058 0.917564 -0.397589
vn 0.000035 0.993676 0.112283
vn 0.000000 0.791746 0.610851
vn 0.029516 0.061692 0.997659
vn 0.011759 0.063712 0.997899
vn 0.030558 0.059020 0.997789
vn -0.032144 0.032738 0.998947
vn -0.011608 0.022707 0.999675
vn -0.001816 -0.028952 0.999579
vn -0.001212 0.008385 0.999964
s 1
g Wire4
usemtl initialShadingGroup
f 31/31/1 32/32/2 23/23/3 3/4/4
s 2
f 9/5/5 24/24/6 25/25/7 5/8/8
s 3
f 15/9/9 27/27/10 28/28/11 7/12/12
s 2
f 3/4/13 23/23/14 24/24/6 9/5/5
s 3
f 5/8/15 25/25/16 26/26/17 11/14/18
s 5
f 17/15/19 29/29/20 30/30/21 13/18/22
s 3
f 11/14/18 26/26/17 27/27/10 15/9/9
s 5
f 7/12/23 28/28/24 29/29/20 17/15/19
s 1
f 49/49/25 46/46/26 22/22/27 19/19/28
f 61/61/29 50/50/30 35/35/31
f 59/59/32 60/60/33 36/36/34 37/37/35
s 2
f 58/58/36 59/59/37 37/37/38 38/38/39
f 57/57/40 58/58/36 38/38/39 39/39/41
s 3
f 56/56/42 57/57/43 39/39/44 40/40/45
f 55/55/46 56/56/42 40/40/45 41/41/47
f 54/54/48 55/55/46 41/41/47 42/42/49
s 5
f 53/53/50 54/54/51 42/42/52 43/43/53
f 52/52/54 53/53/50 43/43/53 44/44/55
s 1
f 19/19/28 22/22/27 32/32/2 31/31/1
f 35/35/31 36/36/34 60/60/33 61/61/29
f 35/35/31 50/50/30 51/51/56 20/20/57
f 33/33/58 36/36/34 35/35/31 20/20/57
f 37/37/35 36/36/34 33/33/58 4/3/59
s 2
f 38/38/39 37/37/38 4/3/60 10/6/61
f 39/39/41 38/38/39 10/6/61 6/7/62
s 3
f 40/40/45 39/39/44 6/7/63 12/13/64
f 41/41/47 40/40/45 12/13/64 16/10/65
f 42/42/49 41/41/47 16/10/65 8/11/66
s 5
f 43/43/53 42/42/52 8/11/67 18/16/68
f 44/44/55 43/43/53 18/16/68 14/17/69
s 1
f 1/1/70 21/21/71 46/46/26 45/45/72
f 47/47/73 46/46/26 21/21/71 34/34/74
f 48/48/75 47/47/73 34/34/74 2/2/76
f 45/45/72 46/46/26 49/49/25
f 51/51/56 50/50/30 47/47/73 48/48/75
s 5
f 30/30/21 29/29/20 53/53/50 52/52/54
f 29/29/20 28/28/24 54/54/51 53/53/50
s 3
f 28/28/11 27/27/10 55/55/46 54/54/48
f 27/27/10 26/26/17 56/56/42 55/55/46
f 26/26/17 25/25/16 57/57/43 56/56/42
s 2
f 25/25/7 24/24/6 58/58/36 57/57/40
f 24/24/6 23/23/14 59/59/37 58/58/36
s 1
f 23/23/3 32/32/2 60/60/33 59/59/32
f 61/61/29 60/60/33 32/32/2 22/22/27
f 22/22/27 46/46/26 61/61/29
