# This file uses centimeters as units for non-parametric coordinates.

mtllib Rock_Wall_002.mtl
g default
v -71.534321 41.525475 -44.417703
v -75.394854 45.901821 -43.932748
v -72.607943 36.666064 -32.747462
v -77.334922 44.102512 -37.162367
v -72.587746 38.167813 -36.830664
v -70.111913 35.796618 -13.076270
v -75.492208 41.114513 -19.484275
v -70.314657 35.046936 -17.516777
v -40.336421 98.219673 -31.515640
v -33.631049 98.778797 -31.555680
v -37.002077 95.674045 -37.073054
v -21.633160 108.955135 -6.781202
v -23.841033 107.710370 -13.035817
v -33.083465 106.043867 -15.700065
v -44.086955 90.097816 -0.083450
v -38.491922 93.151466 -0.321531
v -42.148867 96.747583 -4.826232
v -51.545591 75.451366 -50.841018
v -56.482450 76.009536 -49.114257
v -58.123256 78.192416 -44.531046
v -52.359432 87.120788 -39.110136
v -51.805321 84.918059 -44.555201
v -47.134575 83.870800 -46.607431
v -64.294960 58.751729 2.420499
v -68.822481 50.335026 0.134102
v -62.306161 51.809488 3.948650
v -47.995764 86.702068 -1.571601
v -50.257929 89.953482 -4.782294
v -50.671007 91.107740 -8.940857
v -57.632107 83.378271 -9.115491
v -56.530933 81.867587 -4.168116
v -53.712333 79.012537 -1.235094
v -41.835037 21.372903 -38.924571
v -50.591587 26.672127 -44.440449
v -41.503504 8.691449 -3.167665
v -35.556635 6.287271 -0.765265
v -36.403721 8.067442 4.386955
v -49.791162 91.247295 -23.874963
v -50.355548 90.090570 -28.910200
v -58.761240 83.822040 -32.019686
v -58.949137 85.542776 -26.996770
v -45.066780 12.925824 -33.159958
v -36.959909 8.888912 -28.311818
v -35.861227 4.904303 -23.320604
v -44.511668 19.953969 11.289385
v -19.362268 53.349712 -53.314558
v -30.175839 82.617162 -47.096908
v -28.112236 77.775689 -49.479733
v -32.976667 76.047926 -52.117030
v -77.753883 43.219802 -33.300436
v -74.539917 40.775492 -15.883864
v -41.980507 95.946596 -36.254137
v -30.705235 107.293305 -9.555012
v -45.683858 93.665398 -3.619480
v -71.037305 58.052510 -1.962364
v -43.553293 10.707276 2.351368
v -43.237448 8.144415 -28.137086
v -51.486317 20.731471 8.105992
v -63.129608 38.879082 3.053345
v -56.800017 39.775098 6.684205
v -58.252089 84.482345 -15.529433
v -50.389844 91.528507 -13.656058
v -47.828379 19.777785 -38.845351
v -39.295826 15.020847 -33.614947
v -41.829314 7.744374 -12.263015
v -35.663687 5.200366 -8.683980
v -64.368996 36.294920 -44.942011
v -76.430706 45.001773 -40.562049
v -72.130050 39.810509 -40.639999
v -61.449794 25.386543 -31.323608
v -62.658074 28.664454 -35.756468
v -76.294517 41.746538 -23.972824
v -71.022877 35.327804 -22.623248
v -60.518242 26.045726 -6.990713
v -59.165176 24.430667 -11.923999
v -36.761215 102.193900 -23.687907
v -28.680437 103.352083 -22.355656
v -36.993198 100.881088 -5.467986
v -31.457454 99.212896 -1.928824
v -44.892979 75.518028 -51.656984
v -40.966015 83.888244 -46.751699
v -51.415661 88.688133 -33.949186
v -58.525592 81.041046 -38.290865
v -59.607945 24.159899 -18.783487
v -63.618059 32.501903 -40.385997
vt 0.201394 0.496890
vt 0.255669 0.512091
vt 0.303779 0.792411
vt 0.265444 0.828826
vt 0.302994 0.507850
vt 0.289705 0.525084
vt 0.264572 0.485410
vt 0.275222 0.459456
vt 0.315922 0.489726
vt 0.335731 0.766009
vt 0.377433 0.759605
vt 0.287318 0.432851
vt 0.197407 0.368426
vt 0.254226 0.282066
vt 0.328815 0.373833
vt 0.142059 0.128681
vt 0.054402 0.250028
vt 0.194785 0.410265
vt 0.051037 0.313094
vt 0.367832 0.420680
vt 0.330498 0.469533
vt 0.354843 0.347475
vt 0.387232 0.397968
vt 0.485098 0.748522
vt 0.525455 0.738405
vt 0.602785 0.692279
vt 0.340577 0.231217
vt 0.384629 0.330609
vt 0.295849 0.244136
vt 0.205319 0.073144
vt 0.260666 0.058532
vt 0.644433 0.661204
vt 0.404187 0.380650
vt 0.560821 0.425797
vt 0.676959 0.635139
vt 0.540218 0.359937
vt 0.442046 0.819709
vt 0.546902 0.914358
vt 0.500822 0.908109
vt 0.389454 0.827581
vt 0.651518 0.988478
vt 0.556151 0.966518
vt 0.623865 0.928003
vt 0.699986 0.939069
vt 0.748956 0.999512
vt 0.759855 0.856797
vt 0.753489 0.937107
vt 0.574997 0.803691
vt 0.648891 0.763288
vt 0.813860 0.867991
vt 0.806011 0.993176
vt 0.743999 0.803935
vt 0.797015 0.786878
vt 0.742696 0.695024
vt 0.770269 0.736473
vt 0.737307 0.763109
vt 0.709638 0.720839
vt 0.431535 0.755434
vt 0.356443 0.859838
vt 0.308377 0.901390
vt 0.223634 0.954688
vt 0.194000 0.891419
vt 0.488837 0.817004
vt 0.533097 0.813009
vt 0.524687 0.212169
vt 0.591996 0.334411
vt 0.490065 0.255647
vt 0.376201 0.102762
vt 0.382403 0.042192
vt 0.680734 0.741326
vt 0.089669 0.462261
vt 0.060997 0.394364
vt 0.196847 0.453584
vt 0.002845 0.425243
vt 0.000520 0.328075
vt 0.006632 0.241580
vt 0.235865 0.000488
vt 0.126498 0.068883
vt 0.188288 0.021253
vt 0.028993 0.179461
vt 0.495862 0.947313
vt 0.619548 0.412805
vt 0.706173 0.609100
vt 0.000488 0.803271
vt 0.176940 0.933071
vn -0.129069 -0.203746 -0.970479
vn -0.243931 -0.158839 -0.956696
vn -0.169163 0.017156 -0.985439
vn -0.064059 -0.051617 -0.996610
vn -0.908808 0.345527 -0.233836
vn -0.692098 0.217020 -0.688405
vn -0.243931 -0.158839 -0.956696
vn -0.630244 -0.660559 -0.407989
vn -0.908808 0.345527 -0.233836
vn -0.630244 -0.660559 -0.407989
vn -0.666868 -0.666603 -0.333059
vn -0.931943 0.319892 -0.170739
vn -0.438458 0.206529 -0.874700
vn -0.692098 0.217020 -0.688405
vn -0.812066 0.492811 -0.312548
vn -0.727973 -0.682437 -0.065838
vn -0.679934 -0.727140 -0.094645
vn -0.694139 -0.718159 0.049187
vn -0.727330 -0.685182 0.038949
vn -0.617424 -0.784708 0.054964
vn -0.694139 -0.718159 0.049187
vn -0.679934 -0.727140 -0.094645
vn -0.594342 -0.798247 -0.097776
vn -0.679934 -0.727140 -0.094645
vn -0.727973 -0.682437 -0.065838
vn -0.666868 -0.666603 -0.333059
vn -0.572316 -0.693387 -0.437800
vn -0.679934 -0.727140 -0.094645
vn -0.572316 -0.693387 -0.437800
vn -0.364375 -0.725485 -0.583869
vn -0.594342 -0.798247 -0.097776
vn -0.727973 -0.682437 -0.065838
vn -0.727330 -0.685182 0.038949
vn -0.960032 0.239399 0.145003
vn -0.959693 0.274577 0.059968
vn -0.960032 0.239399 0.145003
vn -0.727330 -0.685182 0.038949
vn -0.728907 -0.679778 0.081223
vn -0.951447 0.303375 0.052074
vn -0.837453 0.522469 -0.160309
vn -0.931943 0.319892 -0.170739
vn -0.959693 0.274577 0.059968
vn -0.873275 0.483891 0.056924
vn -0.880513 0.453742 0.137169
vn -0.873275 0.483891 0.056924
vn -0.959693 0.274577 0.059968
vn -0.960032 0.239399 0.145003
vn -0.777901 -0.576680 0.249618
vn -0.819926 -0.439095 0.367310
vn -0.728907 -0.679778 0.081223
vn -0.693527 -0.717019 0.070021
vn -0.777901 -0.576680 0.249618
vn -0.693527 -0.717019 0.070021
vn -0.615578 -0.782942 0.089809
vn -0.634077 -0.704002 0.319886
vn -0.899089 0.434475 0.053574
vn -0.951447 0.303375 0.052074
vn -0.969710 0.234578 0.068083
vn -0.920931 0.346744 0.177917
vn -0.864268 0.461861 0.199315
vn -0.920931 0.346744 0.177917
vn -0.969710 0.234578 0.068083
vn -0.819926 -0.439095 0.367310
vn -0.772816 -0.240671 0.587224
vn -0.641616 0.726265 -0.246715
vn -0.451413 0.856659 -0.249722
vn -0.331384 0.786953 -0.520471
vn -0.403358 0.676581 -0.616068
vn 0.050969 0.882428 -0.467678
vn 0.063714 0.864771 -0.498109
vn -0.451413 0.856659 -0.249722
vn -0.432567 0.872152 -0.228554
vn 0.050969 0.882428 -0.467678
vn -0.432567 0.872152 -0.228554
vn -0.457845 0.876748 -0.147281
vn 0.011317 0.935171 -0.354016
vn -0.560615 0.780364 0.277026
vn -0.467250 0.854946 0.225264
vn -0.626936 0.779050 0.005721
vn -0.631536 0.773937 0.046725
vn -0.560615 0.780364 0.277026
vn -0.203274 0.558560 0.804170
vn -0.125394 0.789381 0.600961
vn -0.467250 0.854946 0.225264
vn -0.203274 0.558560 0.804170
vn -0.560615 0.780364 0.277026
vn -0.513137 0.756697 0.405093
vn -0.242146 0.507326 0.827034
vn -0.481795 0.336169 0.809237
vn -0.383377 0.434818 0.814835
vn -0.522834 0.649801 0.551728
vn -0.638773 0.574459 0.511827
vn -0.908808 0.345527 -0.233836
vn -0.837203 0.505011 -0.209893
vn -0.812066 0.492811 -0.312548
vn -0.692098 0.217020 -0.688405
vn -0.908808 0.345527 -0.233836
vn -0.931943 0.319892 -0.170739
vn -0.837453 0.522469 -0.160309
vn -0.837203 0.505011 -0.209893
vn -0.064059 -0.051617 -0.996610
vn -0.169163 0.017156 -0.985439
vn -0.080971 0.596302 -0.798666
vn 0.052628 0.600657 -0.797772
vn -0.064059 -0.051617 -0.996610
vn 0.052628 0.600657 -0.797772
vn 0.168850 0.590997 -0.788805
vn -0.043696 -0.112879 -0.992648
vn -0.630660 0.761304 -0.150614
vn -0.641616 0.726265 -0.246715
vn -0.812066 0.492811 -0.312548
vn -0.837203 0.505011 -0.209893
vn -0.615223 0.781073 -0.106887
vn -0.630660 0.761304 -0.150614
vn -0.837203 0.505011 -0.209893
vn -0.837453 0.522469 -0.160309
vn -0.960032 0.239399 0.145003
vn -0.951447 0.303375 0.052074
vn -0.899089 0.434475 0.053574
vn -0.880513 0.453742 0.137169
vn -0.414039 -0.028082 0.909826
vn -0.456233 0.011113 0.889791
vn -0.772816 -0.240671 0.587224
vn -0.748810 -0.349413 0.563200
vn -0.414039 -0.028082 0.909826
vn -0.748810 -0.349413 0.563200
vn -0.708492 -0.454810 0.539617
vn -0.382708 -0.243644 0.891164
vn -0.748810 -0.349413 0.563200
vn -0.772816 -0.240671 0.587224
vn -0.819926 -0.439095 0.367310
vn -0.777901 -0.576680 0.249618
vn -0.880513 0.453742 0.137169
vn -0.899089 0.434475 0.053574
vn -0.669174 0.725704 0.159875
vn -0.631536 0.773937 0.046725
vn -0.880513 0.453742 0.137169
vn -0.631536 0.773937 0.046725
vn -0.626936 0.779050 0.005721
vn -0.873275 0.483891 0.056924
vn -0.088082 -0.225260 -0.970309
vn -0.315568 -0.693052 -0.648149
vn -0.523904 -0.686583 -0.504112
vn -0.129069 -0.203746 -0.970479
vn -0.315568 -0.693052 -0.648149
vn -0.364375 -0.725485 -0.583869
vn -0.572316 -0.693387 -0.437800
vn -0.523904 -0.686583 -0.504112
vn -0.315568 -0.693052 -0.648149
vn -0.088082 -0.225260 -0.970309
vn 0.150353 -0.389349 -0.908736
vn 0.186479 -0.608217 -0.771555
vn -0.315568 -0.693052 -0.648149
vn 0.186479 -0.608217 -0.771555
vn 0.171217 -0.676952 -0.715836
vn -0.364375 -0.725485 -0.583869
vn -0.777901 -0.576680 0.249618
vn -0.634077 -0.704002 0.319886
vn -0.708492 -0.454810 0.539617
vn -0.748810 -0.349413 0.563200
vn -0.634077 -0.704002 0.319886
vn -0.379907 -0.707411 0.596020
vn -0.382708 -0.243644 0.891164
vn -0.708492 -0.454810 0.539617
vn -0.382657 -0.921952 0.059822
vn -0.401864 -0.897907 0.179634
vn -0.615578 -0.782942 0.089809
vn -0.617424 -0.784708 0.054964
vn -0.236549 -0.949812 -0.204701
vn -0.382657 -0.921952 0.059822
vn -0.617424 -0.784708 0.054964
vn -0.594342 -0.798247 -0.097776
vn -0.617424 -0.784708 0.054964
vn -0.615578 -0.782942 0.089809
vn -0.693527 -0.717019 0.070021
vn -0.694139 -0.718159 0.049187
vn -0.631536 0.773937 0.046725
vn -0.669174 0.725704 0.159875
vn -0.513137 0.756697 0.405093
vn -0.560615 0.780364 0.277026
vn -0.451413 0.856659 -0.249722
vn -0.641616 0.726265 -0.246715
vn -0.630660 0.761304 -0.150614
vn -0.432567 0.872152 -0.228554
vn -0.630660 0.761304 -0.150614
vn -0.615223 0.781073 -0.106887
vn -0.457845 0.876748 -0.147281
vn -0.432567 0.872152 -0.228554
vn -0.694139 -0.718159 0.049187
vn -0.693527 -0.717019 0.070021
vn -0.728907 -0.679778 0.081223
vn -0.727330 -0.685182 0.038949
vn -0.523904 -0.686583 -0.504112
vn -0.572316 -0.693387 -0.437800
vn -0.666868 -0.666603 -0.333059
vn -0.630244 -0.660559 -0.407989
vn -0.129069 -0.203746 -0.970479
vn -0.523904 -0.686583 -0.504112
vn -0.630244 -0.660559 -0.407989
vn -0.243931 -0.158839 -0.956696
vn -0.169163 0.017156 -0.985439
vn -0.243931 -0.158839 -0.956696
vn -0.692098 0.217020 -0.688405
vn -0.438458 0.206529 -0.874700
vn -0.931943 0.319892 -0.170739
vn -0.666868 -0.666603 -0.333059
vn -0.727973 -0.682437 -0.065838
vn -0.959693 0.274577 0.059968
vn -0.951447 0.303375 0.052074
vn -0.728907 -0.679778 0.081223
vn -0.819926 -0.439095 0.367310
vn -0.969710 0.234578 0.068083
vn 0.027561 0.711550 -0.702094
vn -0.080971 0.596302 -0.798666
vn -0.403358 0.676581 -0.616068
vn -0.331384 0.786953 -0.520471
vn -0.331384 0.786953 -0.520471
vn -0.451413 0.856659 -0.249722
vn 0.063714 0.864771 -0.498109
vn 0.027561 0.711550 -0.702094
vn -0.125394 0.789381 0.600961
vn 0.011317 0.935171 -0.354016
vn -0.457845 0.876748 -0.147281
vn -0.467250 0.854946 0.225264
vn -0.467250 0.854946 0.225264
vn -0.457845 0.876748 -0.147281
vn -0.615223 0.781073 -0.106887
vn -0.626936 0.779050 0.005721
vn -0.638773 0.574459 0.511827
vn -0.522834 0.649801 0.551728
vn -0.513137 0.756697 0.405093
vn -0.669174 0.725704 0.159875
vn -0.522834 0.649801 0.551728
vn -0.383377 0.434818 0.814835
vn -0.242146 0.507326 0.827034
vn -0.513137 0.756697 0.405093
vn -0.403358 0.676581 -0.616068
vn -0.080971 0.596302 -0.798666
vn -0.169163 0.017156 -0.985439
vn -0.438458 0.206529 -0.874700
vn -0.438458 0.206529 -0.874700
vn -0.812066 0.492811 -0.312548
vn -0.641616 0.726265 -0.246715
vn -0.403358 0.676581 -0.616068
vn -0.456233 0.011113 0.889791
vn -0.470644 0.285797 0.834754
vn -0.920931 0.346744 0.177917
vn -0.772816 -0.240671 0.587224
vn -0.920931 0.346744 0.177917
vn -0.470644 0.285797 0.834754
vn -0.445539 0.380365 0.810443
vn -0.864268 0.461861 0.199315
vn -0.864268 0.461861 0.199315
vn -0.445539 0.380365 0.810443
vn -0.481795 0.336169 0.809237
vn -0.638773 0.574459 0.511827
vn -0.864268 0.461861 0.199315
vn -0.638773 0.574459 0.511827
vn -0.669174 0.725704 0.159875
vn -0.899089 0.434475 0.053574
vn 0.302545 -0.165773 -0.938609
vn 0.150353 -0.389349 -0.908736
vn -0.088082 -0.225260 -0.970309
vn -0.043696 -0.112879 -0.992648
vn 0.276502 0.057586 -0.959286
vn -0.064059 -0.051617 -0.996610
vn -0.043696 -0.112879 -0.992648
vn -0.088082 -0.225260 -0.970309
vn -0.129069 -0.203746 -0.970479
vn -0.615578 -0.782942 0.089809
vn -0.401864 -0.897907 0.179634
vn -0.379907 -0.707411 0.596020
vn -0.634077 -0.704002 0.319886
vn -0.873275 0.483891 0.056924
vn -0.626936 0.779050 0.005721
vn -0.615223 0.781073 -0.106887
vn -0.837453 0.522469 -0.160309
vn -0.594342 -0.798247 -0.097776
vn -0.364375 -0.725485 -0.583869
vn 0.171217 -0.676952 -0.715836
vn -0.236549 -0.949812 -0.204701
vn 0.276502 0.057586 -0.959286
vn -0.043696 -0.112879 -0.992648
vn 0.168850 0.590997 -0.788805
s off
g Rock_Wall_002 Rock_61
usemtl Rock_01:lambert14SG
f 67/1/1 1/2/2 18/3/3 80/4/4
f 68/5/5 2/6/6 1/2/7 69/7/8
f 68/5/9 69/7/10 5/8/11 4/9/12
f 19/10/13 2/6/14 20/11/15
f 3/12/16 70/13/17 84/14/18 73/15/19
f 65/16/20 84/14/21 70/13/22 57/17/23
f 70/13/24 3/12/25 5/8/26 71/18/27
f 70/13/28 71/18/29 42/19/30 57/17/31
f 3/12/32 73/15/33 72/20/34 50/21/35
f 72/20/36 73/15/37 8/22/38 7/23/39
f 40/24/40 4/9/41 50/21/42 41/25/43
f 61/26/44 41/25/45 50/21/46 72/20/47
f 74/27/48 6/28/49 8/22/50 75/29/51
f 74/27/52 75/29/53 35/30/54 56/31/55
f 30/32/56 7/23/57 51/33/58 55/34/59 31/35/60
f 55/34/61 51/33/62 6/28/63 25/36/64
f 21/37/65 9/38/66 52/39/67 22/40/68
f 77/41/69 10/42/70 9/38/71 76/43/72
f 77/41/73 76/43/74 14/44/75 13/45/76
f 78/46/77 53/47/78 38/48/79 62/49/80
f 78/46/81 79/50/82 12/51/83 53/47/84
f 79/50/85 78/46/86 17/52/87 16/53/88
f 27/54/89 15/55/90 54/56/91 28/57/92
f 68/5/93 83/58/94 20/11/95 2/6/96
f 68/5/97 4/9/98 40/24/99 83/58/100
f 80/4/101 18/3/102 23/59/103 81/60/104
f 80/4/105 81/60/106 47/61/107 49/62/108
f 82/63/109 21/37/110 20/11/111 83/58/112
f 39/64/113 82/63/114 83/58/115 40/24/116
f 72/20/117 7/23/118 30/32/119 61/26/120
f 60/65/121 26/66/122 25/36/123 59/67/124
f 60/65/125 59/67/126 58/68/127 45/69/128
f 59/67/129 25/36/130 6/28/131 74/27/132
f 61/26/133 30/32/134 29/70/135 62/49/136
f 61/26/137 62/49/138 38/48/139 41/25/140
f 34/71/141 63/72/142 85/73/143 67/1/144
f 63/72/145 42/19/146 71/18/147 85/73/148
f 63/72/149 34/71/150 33/74/151 64/75/152
f 63/72/153 64/75/154 43/76/155 42/19/156
f 74/27/157 56/31/158 58/68/159 59/67/160
f 56/31/161 37/77/162 45/69/163 58/68/164
f 66/78/165 36/79/166 35/30/167 65/16/168
f 44/80/169 66/78/170 65/16/171 57/17/172
f 65/16/173 35/30/174 75/29/175 84/14/176
f 62/49/177 29/70/178 17/52/179 78/46/180
f 9/38/181 21/37/182 82/63/183 76/43/184
f 82/63/185 39/64/186 14/44/187 76/43/188
f 84/14/189 75/29/190 8/22/191 73/15/192
f 85/73/193 71/18/194 5/8/195 69/7/196
f 67/1/197 85/73/198 69/7/199 1/2/200
f 18/3/201 1/2/202 2/6/203 19/10/204
f 4/9/205 5/8/206 3/12/207 50/21/208
f 7/23/209 8/22/210 6/28/211 51/33/212
f 11/81/213 23/59/214 22/40/215 52/39/216
f 52/39/217 9/38/218 10/42/219 11/81/220
f 12/51/221 13/45/222 14/44/223 53/47/224
f 53/47/225 14/44/226 39/64/227 38/48/228
f 28/57/229 54/56/230 17/52/231 29/70/232
f 54/56/233 15/55/234 16/53/235 17/52/236
f 22/40/237 23/59/238 18/3/239 19/10/240
f 19/10/241 20/11/242 21/37/243 22/40/244
f 26/66/245 24/82/246 55/34/247 25/36/248
f 55/34/249 24/82/250 32/83/251 31/35/252
f 31/35/253 32/83/254 27/54/255 28/57/256
f 31/35/257 28/57/258 29/70/259 30/32/260
f 46/84/261 33/74/262 34/71/263 49/62/264 48/85/265
f 80/4/266 49/62/267 34/71/268 67/1/269
f 35/30/270 36/79/271 37/77/272 56/31/273
f 41/25/274 38/48/275 39/64/276 40/24/277
f 57/17/278 42/19/279 43/76/280 44/80/281
f 48/85/282 49/62/283 47/61/284
