# This file uses centimeters as units for non-parametric coordinates.

mtllib Light.mtl
g default
v 0.056500 -0.001727 -0.018876
v 0.036942 -0.001727 -0.042374
v 0.008704 -0.001727 -0.054092
v -0.021745 -0.001727 -0.051345
v -0.047430 -0.001727 -0.034763
v -0.062466 -0.001727 -0.008144
v -0.063410 -0.001727 0.022414
v -0.050045 -0.001727 0.049911
v -0.025432 -0.001727 0.068046
v 0.004790 -0.001727 0.072667
v 0.033697 -0.001727 0.062713
v 0.054667 -0.001727 0.040465
v 0.062896 -0.001727 0.011021
v 0.053161 0.013334 -0.017252
v 0.034740 0.013334 -0.039385
v 0.008143 0.013334 -0.050423
v -0.020536 0.013334 -0.047836
v -0.044728 0.013334 -0.032217
v -0.058891 0.013334 -0.007145
v -0.059780 0.013334 0.021637
v -0.047191 0.013334 0.047536
v -0.024009 0.013334 0.064617
v 0.004456 0.013334 0.068969
v 0.031683 0.013334 0.059593
v 0.051435 0.013334 0.038640
v 0.059186 0.013334 0.010906
v 0.046678 0.027069 -0.014101
v 0.030464 0.027069 -0.033582
v 0.007054 0.027069 -0.043297
v -0.018189 0.027069 -0.041020
v -0.039483 0.027069 -0.027273
v -0.051949 0.027069 -0.005204
v -0.052731 0.027069 0.020129
v -0.041651 0.027069 0.042924
v -0.021246 0.027069 0.057959
v 0.003809 0.027069 0.061790
v 0.027773 0.027069 0.053538
v 0.045158 0.027069 0.035094
v 0.051981 0.027069 0.010684
v 0.037426 0.038680 -0.009604
v 0.024362 0.038680 -0.025301
v 0.005500 0.038680 -0.033129
v -0.014840 0.038680 -0.031294
v -0.031998 0.038680 -0.020217
v -0.042042 0.038680 -0.002436
v -0.042673 0.038680 0.017977
v -0.033744 0.038680 0.036344
v -0.017303 0.038680 0.048459
v 0.002885 0.038680 0.051545
v 0.022194 0.038680 0.044896
v 0.036202 0.038680 0.030035
v 0.041699 0.038680 0.010367
v 0.025945 0.047491 -0.004023
v 0.016789 0.047491 -0.015024
v 0.003570 0.047491 -0.020510
v -0.010684 0.047491 -0.019224
v -0.022708 0.047491 -0.011461
v -0.029747 0.047491 0.001000
v -0.030189 0.047491 0.015306
v -0.023932 0.047491 0.028178
v -0.012410 0.047491 0.036668
v 0.001738 0.047491 0.038831
v 0.015270 0.047491 0.034171
v 0.025087 0.047491 0.023756
v 0.028940 0.047491 0.009972
v 0.012901 0.052992 0.002318
v 0.008186 0.052992 -0.003348
v 0.001378 0.052992 -0.006173
v -0.005962 0.052992 -0.005510
v -0.012154 0.052992 -0.001512
v -0.015779 0.052992 0.004905
v -0.016006 0.052992 0.012271
v -0.012784 0.052992 0.018900
v -0.006851 0.052992 0.023272
v 0.000435 0.052992 0.024386
v 0.007404 0.052992 0.021986
v 0.012459 0.052992 0.016623
v 0.014443 0.052992 0.009525
v -0.000949 0.054862 0.009049
vt 0.997103 0.517916
vt 0.929998 0.749422
vt 0.851652 0.705431
vt 0.907286 0.515371
vt 0.714065 0.847867
vt 0.534348 0.999512
vt 0.526047 0.910045
vt 0.296446 0.960805
vt 0.330672 0.877728
vt 0.103781 0.815976
vt 0.172692 0.758316
vt 0.000488 0.598197
vt 0.088302 0.579168
vt 0.010233 0.357362
vt 0.096832 0.381320
vt 0.130782 0.148640
vt 0.196328 0.210100
vt 0.334519 0.019848
vt 0.363999 0.104726
vt 0.574777 0.000488
vt 0.561436 0.089345
vt 0.796512 0.094999
vt 0.743404 0.167475
vt 0.948930 0.281736
vt 0.868222 0.321228
vt 0.776585 0.663183
vt 0.821183 0.512849
vt 0.667231 0.775570
vt 0.518175 0.824266
vt 0.363563 0.798114
vt 0.238814 0.703107
vt 0.172507 0.561010
vt 0.179830 0.404374
vt 0.259106 0.269084
vt 0.392175 0.186127
vt 0.548553 0.174514
vt 0.692418 0.236905
vt 0.790809 0.359007
vt 0.703828 0.621757
vt 0.737509 0.509980
vt 0.622060 0.705078
vt 0.510936 0.740855
vt 0.395916 0.720894
vt 0.303347 0.649768
vt 0.254436 0.543769
vt 0.260387 0.427183
vt 0.319837 0.326712
vt 0.419168 0.265381
vt 0.535626 0.257236
vt 0.642528 0.304142
vt 0.715386 0.395354
vt 0.632805 0.580592
vt 0.655490 0.506536
vt 0.578303 0.635622
vt 0.504470 0.659020
vt 0.428221 0.645426
vt 0.367022 0.597956
vt 0.334896 0.527483
vt 0.339199 0.450154
vt 0.378947 0.383679
vt 0.445034 0.343289
vt 0.522321 0.338240
vt 0.593102 0.369684
vt 0.641162 0.430421
vt 0.498838 0.578139
vt 0.460820 0.571191
vt 0.430386 0.547375
vt 0.414508 0.512143
vt 0.416820 0.473564
vt 0.436797 0.440482
vt 0.469859 0.420471
vt 0.508434 0.418117
vt 0.543684 0.433959
vt 0.493922 0.497547
vt 0.762994 0.923227
vt 0.563042 0.539282
vt 0.535729 0.566623
vt 0.567534 0.464368
vt 0.574520 0.502377
vn 0.873240 0.239322 -0.424473
vn 0.575960 0.239314 -0.781664
vn 0.557174 0.343178 -0.756165
vn 0.844761 0.343174 -0.410622
vn 0.146729 0.239285 -0.959799
vn 0.141943 0.343172 -0.928486
vn -0.316122 0.239280 -0.918048
vn -0.305807 0.343160 -0.888101
vn -0.706540 0.239309 -0.665983
vn -0.683492 0.343170 -0.644262
vn -0.935106 0.239317 -0.261353
vn -0.904605 0.343176 -0.252825
vn -0.949452 0.239315 0.203151
vn -0.918482 0.343174 0.196524
vn -0.746287 0.239318 0.621114
vn -0.721943 0.343180 0.600855
vn -0.372156 0.239326 0.896785
vn -0.360019 0.343183 0.867532
vn 0.087231 0.239335 0.967011
vn 0.084385 0.343180 0.935472
vn 0.526626 0.239329 0.815713
vn 0.509456 0.343173 0.789105
vn 0.845388 0.239317 0.477542
vn 0.817814 0.343172 0.461966
vn 0.970479 0.239316 0.029972
vn 0.938825 0.343174 0.028991
vn 0.495046 0.550948 -0.671852
vn 0.750568 0.550944 -0.364840
vn 0.126115 0.550959 -0.824948
vn -0.271704 0.550954 -0.789067
vn -0.607283 0.550949 -0.572418
vn -0.803739 0.550949 -0.224633
vn -0.816067 0.550949 0.174613
vn -0.641440 0.550954 0.533858
vn -0.319878 0.550953 0.770798
vn 0.074971 0.550949 0.831165
vn 0.452645 0.550949 0.701119
vn 0.726621 0.550953 0.410455
vn 0.834141 0.550949 0.025761
vn 0.406571 0.728176 -0.551778
vn 0.616424 0.728179 -0.299629
vn 0.103575 0.728176 -0.677519
vn -0.223144 0.728180 -0.648043
vn -0.498745 0.728179 -0.470115
vn -0.660089 0.728180 -0.184488
vn -0.670215 0.728181 0.143405
vn -0.526803 0.728180 0.438443
vn -0.262709 0.728180 0.633038
vn 0.061574 0.728184 0.682611
vn 0.371749 0.728185 0.575804
vn 0.596755 0.728182 0.337095
vn 0.685060 0.728179 0.021158
vn 0.298114 0.864547 -0.404583
vn 0.451986 0.864546 -0.219700
vn 0.075943 0.864545 -0.496784
vn -0.163623 0.864543 -0.475176
vn -0.365703 0.864544 -0.344710
vn -0.484003 0.864547 -0.135274
vn -0.491428 0.864547 0.105151
vn -0.386277 0.864544 0.321488
vn -0.192634 0.864544 0.464173
vn 0.045151 0.864544 0.500525
vn 0.272585 0.864542 0.422215
vn 0.437574 0.864541 0.247181
vn 0.502318 0.864544 0.015513
vn 0.183281 0.951073 -0.248735
vn 0.277875 0.951074 -0.135067
vn 0.046689 0.951072 -0.305421
vn -0.100599 0.951073 -0.292132
vn -0.224830 0.951074 -0.211920
vn -0.297560 0.951074 -0.083166
vn -0.302126 0.951074 0.064644
vn -0.237479 0.951072 0.197651
vn -0.118427 0.951072 0.285372
vn 0.027756 0.951073 0.307717
vn 0.167578 0.951074 0.259570
vn 0.269014 0.951073 0.151963
vn 0.308817 0.951074 0.009537
vn 0.000001 1.000000 -0.000001
s 1
g Light
usemtl lambert31SG
f 1/1/1 2/2/2 15/3/3 14/4/4
f 2/2/2 3/75/5 16/5/6 15/3/3
f 3/75/5 4/6/7 17/7/8 16/5/6
f 4/6/7 5/8/9 18/9/10 17/7/8
f 5/8/9 6/10/11 19/11/12 18/9/10
f 6/10/11 7/12/13 20/13/14 19/11/12
f 7/12/13 8/14/15 21/15/16 20/13/14
f 8/14/15 9/16/17 22/17/18 21/15/16
f 9/16/17 10/18/19 23/19/20 22/17/18
f 10/18/19 11/20/21 24/21/22 23/19/20
f 11/20/21 12/22/23 25/23/24 24/21/22
f 12/22/23 13/24/25 26/25/26 25/23/24
f 13/24/25 1/1/1 14/4/4 26/25/26
f 14/4/4 15/3/3 28/26/27 27/27/28
f 15/3/3 16/5/6 29/28/29 28/26/27
f 16/5/6 17/7/8 30/29/30 29/28/29
f 17/7/8 18/9/10 31/30/31 30/29/30
f 18/9/10 19/11/12 32/31/32 31/30/31
f 19/11/12 20/13/14 33/32/33 32/31/32
f 20/13/14 21/15/16 34/33/34 33/32/33
f 21/15/16 22/17/18 35/34/35 34/33/34
f 22/17/18 23/19/20 36/35/36 35/34/35
f 23/19/20 24/21/22 37/36/37 36/35/36
f 24/21/22 25/23/24 38/37/38 37/36/37
f 25/23/24 26/25/26 39/38/39 38/37/38
f 26/25/26 14/4/4 27/27/28 39/38/39
f 27/27/28 28/26/27 41/39/40 40/40/41
f 28/26/27 29/28/29 42/41/42 41/39/40
f 29/28/29 30/29/30 43/42/43 42/41/42
f 30/29/30 31/30/31 44/43/44 43/42/43
f 31/30/31 32/31/32 45/44/45 44/43/44
f 32/31/32 33/32/33 46/45/46 45/44/45
f 33/32/33 34/33/34 47/46/47 46/45/46
f 34/33/34 35/34/35 48/47/48 47/46/47
f 35/34/35 36/35/36 49/48/49 48/47/48
f 36/35/36 37/36/37 50/49/50 49/48/49
f 37/36/37 38/37/38 51/50/51 50/49/50
f 38/37/38 39/38/39 52/51/52 51/50/51
f 39/38/39 27/27/28 40/40/41 52/51/52
f 40/40/41 41/39/40 54/52/53 53/53/54
f 41/39/40 42/41/42 55/54/55 54/52/53
f 42/41/42 43/42/43 56/55/56 55/54/55
f 43/42/43 44/43/44 57/56/57 56/55/56
f 44/43/44 45/44/45 58/57/58 57/56/57
f 45/44/45 46/45/46 59/58/59 58/57/58
f 46/45/46 47/46/47 60/59/60 59/58/59
f 47/46/47 48/47/48 61/60/61 60/59/60
f 48/47/48 49/48/49 62/61/62 61/60/61
f 49/48/49 50/49/50 63/62/63 62/61/62
f 50/49/50 51/50/51 64/63/64 63/62/63
f 51/50/51 52/51/52 65/64/65 64/63/64
f 52/51/52 40/40/41 53/53/54 65/64/65
f 53/53/54 54/52/53 67/76/66 66/79/67
f 54/52/53 55/54/55 68/77/68 67/76/66
f 55/54/55 56/55/56 69/65/69 68/77/68
f 56/55/56 57/56/57 70/66/70 69/65/69
f 57/56/57 58/57/58 71/67/71 70/66/70
f 58/57/58 59/58/59 72/68/72 71/67/71
f 59/58/59 60/59/60 73/69/73 72/68/72
f 60/59/60 61/60/61 74/70/74 73/69/73
f 61/60/61 62/61/62 75/71/75 74/70/74
f 62/61/62 63/62/63 76/72/76 75/71/75
f 63/62/63 64/63/64 77/73/77 76/72/76
f 64/63/64 65/64/65 78/78/78 77/73/77
f 65/64/65 53/53/54 66/79/67 78/78/78
f 66/79/67 67/76/66 79/74/79
f 67/76/66 68/77/68 79/74/79
f 68/77/68 69/65/69 79/74/79
f 69/65/69 70/66/70 79/74/79
f 70/66/70 71/67/71 79/74/79
f 71/67/71 72/68/72 79/74/79
f 72/68/72 73/69/73 79/74/79
f 73/69/73 74/70/74 79/74/79
f 74/70/74 75/71/75 79/74/79
f 75/71/75 76/72/76 79/74/79
f 76/72/76 77/73/77 79/74/79
f 77/73/77 78/78/78 79/74/79
f 78/78/78 66/79/67 79/74/79
