# This file uses centimeters as units for non-parametric coordinates.

mtllib Table.mtl
g default
v -2.755451 -0.002891 -0.101827
v 2.995428 -0.002891 -0.101827
v -2.755451 -0.002891 0.014368
v 2.995428 -0.002891 0.014368
v -2.755451 2.173815 0.014368
v 2.995428 2.173815 0.014368
v -2.755451 2.173815 -0.101827
v 2.995428 2.173815 -0.101827
v 2.694935 -0.002716 -0.095174
v 2.694935 -0.002716 -2.084064
v 2.811129 -0.002716 -0.095174
v 2.811129 -0.002716 -2.084064
v 2.811129 2.098334 -0.095174
v 2.811129 2.098334 -2.084064
v 2.694935 2.098334 -0.095174
v 2.694935 2.098334 -2.084064
v -2.776794 2.098783 0.078142
v 3.028426 2.098783 0.078142
v -2.776794 2.214977 0.078142
v 3.028426 2.214977 0.078142
v -2.776794 2.214977 -2.098564
v 3.028426 2.214977 -2.098564
v -2.776794 2.098783 -2.098564
v 3.028426 2.098783 -2.098564
v -2.564192 -0.002716 -0.095174
v -2.564192 -0.002716 -2.084064
v -2.447997 -0.002716 -0.095174
v -2.447997 -0.002716 -2.084064
v -2.447997 2.098334 -0.095174
v -2.447997 2.098334 -2.084064
v -2.564192 2.098334 -0.095174
v -2.564192 2.098334 -2.084064
vt 0.165108 0.340063
vt 0.589532 0.340025
vt 0.589532 0.348600
vt 0.165108 0.348638
vt 0.589547 0.509245
vt 0.165123 0.509283
vt 0.834339 0.838830
vt 0.409915 0.838867
vt 0.834353 0.999474
vt 0.409929 0.999512
vt 0.750176 0.340011
vt 0.750177 0.348586
vt 0.004463 0.340077
vt 0.004464 0.348653
vt 0.143589 0.510991
vt 0.290372 0.510632
vt 0.290393 0.519207
vt 0.143610 0.519567
vt 0.290773 0.674267
vt 0.143990 0.674627
vt 0.290794 0.682842
vt 0.144011 0.683202
vt 0.291174 0.837903
vt 0.144391 0.838263
vt 0.445432 0.510252
vt 0.445453 0.518827
vt 0.161134 0.000516
vt 0.589568 0.000592
vt 0.589567 0.009167
vt 0.161133 0.009092
vt 0.589539 0.169811
vt 0.161104 0.169736
vt 0.589537 0.178387
vt 0.161103 0.178311
vt 0.589509 0.339031
vt 0.161075 0.338956
vt 0.750213 0.000620
vt 0.750211 0.009195
vt 0.000490 0.000488
vt 0.000488 0.009064
vt 0.445690 0.510599
vt 0.592473 0.510239
vt 0.592494 0.518815
vt 0.445711 0.519174
vt 0.592874 0.673875
vt 0.446091 0.674235
vt 0.592895 0.682450
vt 0.446112 0.682810
vt 0.593275 0.837510
vt 0.446492 0.837870
vt 0.747533 0.509859
vt 0.747554 0.518434
vn 0.000000 -1.000000 0.000000
vn 0.000000 -1.000000 0.000000
vn 0.000000 -1.000000 0.000000
vn 0.000000 -1.000000 0.000000
vn 0.000000 0.000000 1.000000
vn 0.000000 0.000000 1.000000
vn 0.000000 0.000000 1.000000
vn 0.000000 0.000000 1.000000
vn 0.000000 -0.000000 -1.000000
vn 0.000000 -0.000000 -1.000000
vn 0.000000 -0.000000 -1.000000
vn 0.000000 -0.000000 -1.000000
vn 1.000000 0.000000 0.000000
vn 1.000000 0.000000 0.000000
vn 1.000000 0.000000 0.000000
vn 1.000000 0.000000 0.000000
vn -1.000000 0.000000 0.000000
vn -1.000000 0.000000 0.000000
vn -1.000000 0.000000 0.000000
vn -1.000000 0.000000 0.000000
vn 0.000000 -1.000000 0.000000
vn 0.000000 -1.000000 0.000000
vn 0.000000 -1.000000 0.000000
vn 0.000000 -1.000000 0.000000
vn 1.000000 0.000000 0.000000
vn 1.000000 0.000000 0.000000
vn 1.000000 0.000000 0.000000
vn 1.000000 0.000000 0.000000
vn 0.000000 1.000000 0.000000
vn 0.000000 1.000000 0.000000
vn 0.000000 1.000000 0.000000
vn 0.000000 1.000000 0.000000
vn -1.000000 0.000000 0.000000
vn -1.000000 0.000000 0.000000
vn -1.000000 0.000000 0.000000
vn -1.000000 0.000000 0.000000
vn 0.000000 0.000000 -1.000000
vn 0.000000 0.000000 -1.000000
vn 0.000000 0.000000 -1.000000
vn 0.000000 0.000000 -1.000000
vn 0.000000 0.000000 1.000000
vn 0.000000 0.000000 1.000000
vn 0.000000 0.000000 1.000000
vn 0.000000 0.000000 1.000000
vn 0.000000 1.000000 0.000000
vn 0.000000 1.000000 0.000000
vn 0.000000 1.000000 0.000000
vn 0.000000 1.000000 0.000000
vn 0.000000 0.000000 -1.000000
vn 0.000000 0.000000 -1.000000
vn 0.000000 0.000000 -1.000000
vn 0.000000 0.000000 -1.000000
vn 0.000000 -1.000000 0.000000
vn 0.000000 -1.000000 0.000000
vn 0.000000 -1.000000 0.000000
vn 0.000000 -1.000000 0.000000
vn 1.000000 0.000000 0.000000
vn 1.000000 0.000000 0.000000
vn 1.000000 0.000000 0.000000
vn 1.000000 0.000000 0.000000
vn -1.000000 0.000000 0.000000
vn -1.000000 0.000000 0.000000
vn -1.000000 0.000000 0.000000
vn -1.000000 0.000000 0.000000
vn 0.000000 -1.000000 0.000000
vn 0.000000 -1.000000 0.000000
vn 0.000000 -1.000000 0.000000
vn 0.000000 -1.000000 0.000000
vn 1.000000 0.000000 0.000000
vn 1.000000 0.000000 0.000000
vn 1.000000 0.000000 0.000000
vn 1.000000 0.000000 0.000000
vn 0.000000 1.000000 0.000000
vn 0.000000 1.000000 0.000000
vn 0.000000 1.000000 0.000000
vn 0.000000 1.000000 0.000000
vn -1.000000 0.000000 0.000000
vn -1.000000 0.000000 0.000000
vn -1.000000 0.000000 0.000000
vn -1.000000 0.000000 0.000000
vn 0.000000 0.000000 -1.000000
vn 0.000000 0.000000 -1.000000
vn 0.000000 0.000000 -1.000000
vn 0.000000 0.000000 -1.000000
s off
g Table
usemtl initialShadingGroup
f 1/1/1 2/2/2 4/3/3 3/4/4
f 3/4/5 4/3/6 6/5/7 5/6/8
f 7/8/9 8/7/10 2/9/11 1/10/12
f 2/2/13 8/11/14 6/12/15 4/3/16
f 7/13/17 1/1/18 3/4/19 5/14/20
f 9/15/21 10/16/22 12/17/23 11/18/24
f 11/18/25 12/17/26 14/19/27 13/20/28
f 13/20/29 14/19/30 16/21/31 15/22/32
f 15/22/33 16/21/34 10/23/35 9/24/36
f 10/16/37 16/25/38 14/26/39 12/17/40
f 17/27/41 18/28/42 20/29/43 19/30/44
f 19/30/45 20/29/46 22/31/47 21/32/48
f 21/32/49 22/31/50 24/33/51 23/34/52
f 23/34/53 24/33/54 18/35/55 17/36/56
f 18/28/57 24/37/58 22/38/59 20/29/60
f 23/39/61 17/27/62 19/30/63 21/40/64
f 25/41/65 26/42/66 28/43/67 27/44/68
f 27/44/69 28/43/70 30/45/71 29/46/72
f 29/46/73 30/45/74 32/47/75 31/48/76
f 31/48/77 32/47/78 26/49/79 25/50/80
f 26/42/81 32/51/82 30/52/83 28/43/84
