# This file uses centimeters as units for non-parametric coordinates.

mtllib Wood.mtl
g default
v 0.000985 -0.001632 0.009546
v 0.202432 -0.001632 12.023163
v 0.000985 0.068114 0.009546
v 0.202432 0.068114 12.023163
v 12.039680 0.068114 -0.002018
v 12.241127 0.068114 12.011600
v 12.039680 -0.001632 -0.002018
v 12.241127 -0.001632 12.011600
vt 0.994264 0.004401
vt 0.496298 0.000540
vt 0.000592 0.003366
vt 0.497593 0.003366
vt 0.008391 0.499975
vt 0.504096 0.500027
vt 0.008390 0.502852
vt 0.504096 0.502904
vt 0.000488 0.999460
vt 0.496194 0.999512
vt 0.994264 0.000545
vt 0.994263 0.003423
vt 0.497593 0.004354
vt 0.497593 0.007232
vt 0.000593 0.000488
vt 0.994263 0.007279
vt 0.497593 0.000488
vt 0.496298 0.003417
vn -0.999859 0.000000 0.016766
vn -0.999859 0.000000 0.016766
vn -0.999859 0.000000 0.016766
vn -0.999859 0.000000 0.016766
vn -0.000000 1.000000 0.000000
vn -0.000000 1.000000 0.000000
vn -0.000000 1.000000 0.000000
vn -0.000000 1.000000 0.000000
vn 0.999859 0.000000 -0.016766
vn 0.999859 0.000000 -0.016766
vn 0.999859 0.000000 -0.016766
vn 0.999859 0.000000 -0.016766
vn 0.000000 -1.000000 0.000000
vn 0.000000 -1.000000 0.000000
vn 0.000000 -1.000000 0.000000
vn 0.000000 -1.000000 0.000000
vn 0.000960 0.000000 1.000000
vn 0.000960 0.000000 1.000000
vn 0.000960 0.000000 1.000000
vn 0.000960 0.000000 1.000000
vn -0.000961 0.000000 -1.000000
vn -0.000961 0.000000 -1.000000
vn -0.000961 0.000000 -1.000000
vn -0.000961 0.000000 -1.000000
s off
g Wood
usemtl initialShadingGroup
f 1/15/1 2/2/2 4/18/3 3/3/4
f 3/3/5 4/18/6 6/6/7 5/5/8
f 5/5/9 6/6/10 8/8/11 7/7/12
f 7/7/13 8/8/14 2/10/15 1/9/16
f 2/17/17 8/11/18 6/12/19 4/4/20
f 7/13/21 1/1/22 3/16/23 5/14/24
g default
v 0.000985 -0.001632 0.009546
v 0.202432 -0.001632 12.023163
v 0.000985 0.068114 0.009546
v 0.202432 0.068114 12.023163
v 12.039680 0.068114 -0.002018
v 12.241127 0.068114 12.011600
v 12.039680 -0.001632 -0.002018
v 12.241127 -0.001632 12.011600
vt 0.994264 0.004401
vt 0.496298 0.000540
vt 0.000592 0.003366
vt 0.497593 0.003366
vt 0.008391 0.499975
vt 0.504096 0.500027
vt 0.008390 0.502852
vt 0.504096 0.502904
vt 0.000488 0.999460
vt 0.496194 0.999512
vt 0.994264 0.000545
vt 0.994263 0.003423
vt 0.497593 0.004354
vt 0.497593 0.007232
vt 0.000593 0.000488
vt 0.994263 0.007279
vt 0.497593 0.000488
vt 0.496298 0.003417
vn -0.999859 0.000000 0.016766
vn -0.999859 0.000000 0.016766
vn -0.999859 0.000000 0.016766
vn -0.999859 0.000000 0.016766
vn -0.000000 1.000000 0.000000
vn -0.000000 1.000000 0.000000
vn -0.000000 1.000000 0.000000
vn -0.000000 1.000000 0.000000
vn 0.999859 0.000000 -0.016766
vn 0.999859 0.000000 -0.016766
vn 0.999859 0.000000 -0.016766
vn 0.999859 0.000000 -0.016766
vn 0.000000 -1.000000 0.000000
vn 0.000000 -1.000000 0.000000
vn 0.000000 -1.000000 0.000000
vn 0.000000 -1.000000 0.000000
vn 0.000960 0.000000 1.000000
vn 0.000960 0.000000 1.000000
vn 0.000960 0.000000 1.000000
vn 0.000960 0.000000 1.000000
vn -0.000961 0.000000 -1.000000
vn -0.000961 0.000000 -1.000000
vn -0.000961 0.000000 -1.000000
vn -0.000961 0.000000 -1.000000
s off
g Wood
f 9/33/25 10/20/26 12/36/27 11/21/28
f 11/21/29 12/36/30 14/24/31 13/23/32
f 13/23/33 14/24/34 16/26/35 15/25/36
f 15/25/37 16/26/38 10/28/39 9/27/40
f 10/35/41 16/29/42 14/30/43 12/22/44
f 15/31/45 9/19/46 11/34/47 13/32/48
