# This file uses centimeters as units for non-parametric coordinates.

mtllib Tree_002.mtl
g default
v 0.026469 -0.215347 0.225136
v 0.414343 -0.215347 -0.104864
v 0.026469 -0.215347 -0.434864
v -0.361405 -0.215347 -0.104864
v 0.045451 5.607612 1.380367
v 0.290152 5.630221 1.124435
v -0.044213 5.594582 0.874840
v -0.230217 5.575428 1.126749
v -0.228264 11.547631 0.767309
v -0.009153 11.572073 0.553948
v -0.182741 11.511336 0.342793
v -0.431096 11.501583 0.553864
v -1.108002 14.105238 1.083660
v -0.951470 14.202780 0.899637
v -1.105779 14.102787 0.715244
v -1.262311 14.005247 0.899267
v -7.799426 17.694462 1.788855
v -1.211245 14.038985 1.022134
v -1.004018 14.170675 1.022381
v -1.002536 14.169043 0.776770
v -1.209764 14.037354 0.776523
v -2.263257 15.492213 0.971836
v -2.397311 15.394001 0.802793
v -2.119811 15.582476 0.805750
v -2.253865 15.484262 0.636708
v -4.506437 17.196741 0.915305
v -4.604252 17.113152 0.782209
v -4.408635 17.284882 0.788113
v -4.506451 17.201290 0.655017
v -7.130247 17.791842 1.497428
v -7.149038 17.741144 1.548185
v -7.160110 17.753063 1.440622
v -7.178901 17.702364 1.491379
v -5.978006 17.578379 1.099501
v -6.033380 17.498129 1.190934
v -6.048879 17.518007 1.003593
v -6.104253 17.437759 1.095025
v -0.232113 -0.215347 0.115136
v 0.360748 2.273764 0.654324
v -0.128275 5.588039 1.295878
v 0.033868 2.259747 0.367476
v 0.285051 -0.215347 0.115136
v 0.667192 2.281471 0.366154
v 0.218637 5.624569 1.294335
v 0.285051 -0.215347 -0.324864
v 0.301180 2.265151 0.081988
v 0.158861 5.615882 0.957318
v -0.232113 -0.215347 -0.324864
v -0.188051 5.579352 0.958861
v 0.157115 8.474778 0.513851
v -0.064057 8.402050 0.283462
v 0.371926 8.559067 0.280890
v 0.150754 8.486339 0.050500
v -0.252039 10.420736 0.664235
v -0.368635 11.521758 0.695956
v -0.461804 10.369164 0.446052
v -0.035885 10.468986 0.444990
v -0.087340 11.568750 0.696012
v -0.226154 10.407622 0.228334
v -0.056992 11.544553 0.413001
v -0.338287 11.497560 0.412945
v -0.359049 13.000434 0.765158
v -0.561945 12.961744 0.554269
v -0.143431 13.017319 0.554927
v -0.326831 12.968837 0.345565
v 0.149495 2.265663 0.558705
v 0.571711 2.280145 0.557824
v 0.531999 2.274404 0.176266
v 0.109783 2.259921 0.177148
v 0.010727 8.424366 0.437483
v 0.301382 8.529044 0.435769
v 0.297142 8.536750 0.126868
v 0.006487 8.432073 0.128583
v -0.394572 10.387725 0.591557
v -0.110626 10.454272 0.590849
v -0.093369 10.445530 0.300248
v -0.377315 10.378983 0.300956
v -0.498058 12.979091 0.694625
v -0.219049 13.016141 0.695063
v -0.197570 12.995076 0.415335
v -0.476579 12.958027 0.414897
v -2.354192 15.428062 0.914995
v -2.169192 15.553713 0.916967
v -2.162930 15.548411 0.693548
v -2.347930 15.422762 0.691576
v -4.571645 17.140257 0.869956
v -4.441234 17.254742 0.873892
v -4.441243 17.257776 0.700366
v -4.571655 17.143290 0.696430
v -7.134665 17.772957 1.532274
v -7.142046 17.780901 1.460566
v -7.174483 17.721249 1.456533
v -7.167102 17.713305 1.528242
v -5.993882 17.548317 1.161202
v -6.004214 17.561571 1.036308
v -6.088378 17.467821 1.033324
v -6.078045 17.454571 1.158218
vt 0.000488 0.007606
vt 0.092170 0.007766
vt 0.023794 0.005773
vt 0.046603 0.000844
vt 0.069743 0.001791
vt 0.080775 0.263629
vt 0.013902 0.263220
vt 0.030076 0.263793
vt 0.049294 0.262895
vt 0.063892 0.262222
vt 0.070817 0.527408
vt 0.015332 0.526415
vt 0.029354 0.526641
vt 0.042244 0.524089
vt 0.057291 0.524971
vt 0.066399 0.649136
vt 0.018403 0.648832
vt 0.030342 0.647376
vt 0.042526 0.647205
vt 0.054555 0.648760
vt 0.043372 0.999512
vt 0.037774 0.999360
vt 0.075661 0.116324
vt 0.018934 0.117061
vt 0.037705 0.113045
vt 0.057488 0.112269
vt 0.066502 0.388408
vt 0.023886 0.391462
vt 0.038060 0.393353
vt 0.052042 0.389942
vt 0.065046 0.477321
vt 0.022754 0.478479
vt 0.036872 0.477094
vt 0.051006 0.475612
vt 0.061614 0.591992
vt 0.023446 0.588853
vt 0.036016 0.586326
vt 0.048488 0.588949
vt 0.058021 0.727818
vt 0.025896 0.725463
vt 0.036693 0.725213
vt 0.047234 0.727437
vt 0.052995 0.850961
vt 0.028912 0.847770
vt 0.037060 0.847061
vt 0.044766 0.850075
vt 0.035173 0.968947
vt 0.038458 0.968025
vt 0.041547 0.969166
vt 0.044884 0.970114
vt 0.031636 0.915826
vt 0.037561 0.914806
vt 0.043069 0.917400
vt 0.048912 0.918529
vt 0.080365 0.004780
vt 0.085590 0.117996
vt 0.008958 0.117969
vt 0.072366 0.262772
vt 0.066189 0.114040
vt 0.012729 0.007363
vt 0.027930 0.115181
vt 0.022242 0.263590
vt 0.034609 0.003122
vt 0.048313 0.111670
vt 0.039455 0.263456
vt 0.058764 0.000488
vt 0.056569 0.262371
vt 0.073874 0.390000
vt 0.016946 0.389246
vt 0.059034 0.388177
vt 0.030800 0.393291
vt 0.045253 0.392153
vt 0.071994 0.478493
vt 0.015661 0.477895
vt 0.064011 0.526219
vt 0.058209 0.476193
vt 0.030005 0.478317
vt 0.022220 0.526902
vt 0.043598 0.475821
vt 0.035871 0.525329
vt 0.049859 0.524123
vt 0.068403 0.591417
vt 0.017197 0.590703
vt 0.054888 0.591309
vt 0.029731 0.587129
vt 0.042198 0.586693
vt 0.060473 0.649176
vt 0.024353 0.648103
vt 0.036413 0.647074
vt 0.048604 0.647929
vt 0.063363 0.726956
vt 0.020638 0.726712
vt 0.052607 0.728143
vt 0.031288 0.724783
vt 0.041980 0.726255
vt 0.057083 0.849839
vt 0.025238 0.849611
vt 0.048746 0.851223
vt 0.032871 0.846691
vt 0.041053 0.848303
vt 0.036723 0.968199
vt 0.033760 0.969819
vt 0.046560 0.969925
vt 0.040106 0.968335
vt 0.043142 0.969872
vt 0.034476 0.914643
vt 0.029069 0.917491
vt 0.051829 0.917613
vt 0.040443 0.915854
vt 0.045868 0.918587
vn -0.987706 0.155912 -0.011300
vn -0.685404 -0.025464 0.727718
vn -0.639831 -0.140230 0.755613
vn -0.995522 0.010161 0.093977
vn -0.027864 -0.164859 0.985924
vn 0.039451 -0.193521 0.980303
vn -0.029881 -0.001201 0.999553
vn -0.667283 -0.025244 0.744377
vn -0.982167 -0.027116 0.186046
vn 0.656859 -0.203479 0.726039
vn 0.697183 -0.132249 0.704590
vn 0.991273 -0.079443 -0.105201
vn 0.993435 0.039255 -0.107453
vn 0.997378 0.052610 -0.049693
vn 0.671038 0.033058 0.740686
vn 0.597283 0.099706 -0.795809
vn 0.611533 0.172410 -0.772206
vn -0.031957 0.208424 -0.977516
vn 0.015769 0.217164 -0.976008
vn -0.007875 0.021182 -0.999745
vn 0.644644 0.040612 -0.763403
vn -0.661356 0.237310 -0.711542
vn -0.701298 0.168319 -0.692712
vn -0.795331 -0.007233 -0.606132
vn -0.714040 0.086541 0.694736
vn -0.999642 -0.026400 0.004428
vn 0.019344 0.155193 0.987695
vn 0.744227 0.132081 0.654738
vn 0.992740 0.033514 -0.115517
vn 0.684065 -0.069984 -0.726056
vn 0.078965 -0.142323 -0.986665
vn -0.679360 -0.131062 -0.722006
vn 0.000133 -0.077973 0.996956
vn -0.700518 -0.142318 0.699300
vn -0.992451 -0.118605 -0.031216
vn 0.991476 0.116904 0.057519
vn 0.700107 0.027577 0.713506
vn -0.048382 0.093347 -0.994457
vn 0.710205 0.155005 -0.686719
vn -0.699558 -0.018720 -0.714331
vn 0.017831 -0.040008 0.999040
vn -0.708185 -0.058720 0.703580
vn -0.996444 -0.035072 -0.076606
vn 0.995045 0.039745 0.091141
vn 0.701817 0.002804 0.712352
vn 0.003308 0.046077 -0.998932
vn 0.759715 0.056344 -0.647811
vn -0.658752 0.011223 -0.752276
vn 0.095221 -0.073043 0.992773
vn -0.628549 -0.306640 0.714771
vn 0.030259 -0.058544 0.997826
vn -0.532130 -0.465803 0.707012
vn -0.947882 -0.307402 -0.083811
vn 0.944890 0.326956 0.016834
vn 0.712165 0.180199 0.678491
vn 0.797678 0.601472 0.044047
vn 0.584983 0.380516 0.716242
vn 0.022964 0.144853 -0.989187
vn 0.679943 0.307918 -0.665481
vn -0.010868 0.116064 -0.993182
vn 0.559308 0.502538 -0.659265
vn -0.630345 -0.093494 -0.770665
vn -0.794889 -0.605895 0.032278
vn -0.597292 -0.369057 -0.712067
vn -0.499467 -0.497228 0.709435
vn -0.683187 -0.730159 -0.011137
vn -0.005379 0.058956 0.998246
vn 0.009761 -0.024276 0.999658
vn -0.341767 -0.667827 0.661213
vn -0.494327 -0.868447 -0.037966
vn 0.474016 0.553424 0.684858
vn 0.677653 0.735376 -0.003038
vn 0.502699 0.864458 -0.002371
vn 0.372513 0.621114 0.689530
vn 0.502121 0.528556 -0.684473
vn 0.039147 0.030728 -0.998761
vn -0.054641 0.090338 -0.994411
vn 0.333974 0.662755 -0.670237
vn -0.465696 -0.512610 -0.721359
vn -0.404200 -0.570582 -0.714884
vn 0.170227 -0.254336 0.952017
vn -0.049879 -0.840768 0.539093
vn -0.242526 -0.968039 -0.063884
vn 0.193496 0.979685 0.052695
vn 0.284687 0.630070 0.722472
vn -0.227994 0.175896 -0.957643
vn 0.014288 0.825211 -0.564644
vn -0.339475 -0.632753 -0.695975
vn -0.926009 0.249673 0.283144
vn -0.213946 -0.975434 -0.052503
vn 0.033902 -0.842656 0.537384
vn 0.252243 -0.271371 0.928833
vn 0.325845 0.572357 0.752484
vn 0.174289 0.977336 0.120156
vn -0.077337 0.854467 -0.513717
vn -0.342541 0.246534 -0.906580
vn -0.406691 -0.588296 -0.698935
s 1
g Tree_002
usemtl Tree9:None
f 4/5/1 38/55/2 66/23/3 41/59/4
f 38/55/2 1/2/5 39/56/6 66/23/3
f 66/23/3 39/56/6 5/6/7 40/58/8
f 41/59/4 66/23/3 40/58/8 8/10/9
f 1/1/5 42/60/10 67/24/11 39/57/6
f 42/60/10 2/3/12 43/61/13 67/24/11
f 67/24/11 43/61/13 6/8/14 44/62/15
f 39/57/6 67/24/11 44/62/15 5/7/7
f 2/3/12 45/63/16 68/25/17 43/61/13
f 45/63/16 3/4/18 46/64/19 68/25/17
f 68/25/17 46/64/19 7/9/20 47/65/21
f 43/61/13 68/25/17 47/65/21 6/8/14
f 3/4/18 48/66/22 69/26/23 46/64/19
f 48/66/22 4/5/1 41/59/4 69/26/23
f 69/26/23 41/59/4 8/10/9 49/67/24
f 46/64/19 69/26/23 49/67/24 7/9/20
f 8/10/9 40/58/8 70/27/25 51/70/26
f 40/58/8 5/6/7 50/68/27 70/27/25
f 50/69/27 5/7/7 44/62/15 71/28/28
f 44/62/15 6/8/14 52/71/29 71/28/28
f 52/71/29 6/8/14 47/65/21 72/29/30
f 47/65/21 7/9/20 53/72/31 72/29/30
f 53/72/31 7/9/20 49/67/24 73/30/32
f 49/67/24 8/10/9 51/70/26 73/30/32
f 70/27/25 50/68/27 54/73/33 74/31/34
f 51/70/26 70/27/25 74/31/34 56/76/35
f 71/28/28 52/71/29 57/77/36 75/32/37
f 50/69/27 71/28/28 75/32/37 54/74/33
f 72/29/30 53/72/31 59/79/38 76/33/39
f 52/71/29 72/29/30 76/33/39 57/77/36
f 73/30/32 51/70/26 56/76/35 77/34/40
f 53/72/31 73/30/32 77/34/40 59/79/38
f 74/31/34 54/73/33 9/11/41 55/75/42
f 56/76/35 74/31/34 55/75/42 12/15/43
f 75/32/37 57/77/36 10/13/44 58/78/45
f 54/74/33 75/32/37 58/78/45 9/12/41
f 76/33/39 59/79/38 11/14/46 60/80/47
f 57/77/36 76/33/39 60/80/47 10/13/44
f 77/34/40 56/76/35 12/15/43 61/81/48
f 59/79/38 77/34/40 61/81/48 11/14/46
f 9/11/41 62/82/49 78/35/50 55/75/42
f 78/35/50 62/82/49 13/16/51 18/87/52
f 55/75/42 78/35/50 63/84/53 12/15/43
f 10/13/44 64/85/54 79/36/55 58/78/45
f 79/36/55 64/85/54 14/18/56 19/88/57
f 58/78/45 79/36/55 62/83/49 9/12/41
f 11/14/46 65/86/58 80/37/59 60/80/47
f 80/37/59 65/86/58 15/19/60 20/89/61
f 60/80/47 80/37/59 64/85/54 10/13/44
f 12/15/43 63/84/53 81/38/62 61/81/48
f 81/38/62 63/84/53 16/20/63 21/90/64
f 61/81/48 81/38/62 65/86/58 11/14/46
f 63/84/53 78/35/50 18/87/52 16/20/63
f 13/17/51 62/83/49 79/36/55 19/88/57
f 14/18/56 64/85/54 80/37/59 20/89/61
f 15/19/60 65/86/58 81/38/62 21/90/64
f 16/20/63 18/87/52 82/39/65 23/93/66
f 18/87/52 13/16/51 22/91/67 82/39/65
f 82/39/65 22/91/67 26/96/68 86/43/69
f 23/93/66 82/39/65 86/43/69 27/98/70
f 13/17/51 19/88/57 83/40/71 22/92/67
f 19/88/57 14/18/56 24/94/72 83/40/71
f 83/40/71 24/94/72 28/99/73 87/44/74
f 22/92/67 83/40/71 87/44/74 26/97/68
f 14/18/56 20/89/61 84/41/75 24/94/72
f 20/89/61 15/19/60 25/95/76 84/41/75
f 84/41/75 25/95/76 29/100/77 88/45/78
f 24/94/72 84/41/75 88/45/78 28/99/73
f 15/19/60 21/90/64 85/42/79 25/95/76
f 21/90/64 16/20/63 23/93/66 85/42/79
f 85/42/79 23/93/66 27/98/70 89/46/80
f 25/95/76 85/42/79 89/46/80 29/100/77
f 86/43/69 26/96/68 35/108/81 97/54/82
f 27/98/70 86/43/69 97/54/82 37/110/83
f 87/44/74 28/99/73 34/106/84 94/51/85
f 26/97/68 87/44/74 94/51/85 35/107/81
f 88/45/78 29/100/77 36/109/86 95/52/87
f 28/99/73 88/45/78 95/52/87 34/106/84
f 89/46/80 27/98/70 37/110/83 96/53/88
f 29/100/77 89/46/80 96/53/88 36/109/86
f 17/21/89 33/105/90 93/50/91
f 17/21/89 93/50/91 31/103/92
f 17/22/89 31/102/92 90/47/93
f 17/22/89 90/47/93 30/101/94
f 17/22/89 30/101/94 91/48/95
f 17/22/89 91/48/95 32/104/96
f 17/22/89 32/104/96 92/49/97
f 17/21/89 92/49/97 33/105/90
f 90/47/93 31/102/92 35/107/81 94/51/85
f 30/101/94 90/47/93 94/51/85 34/106/84
f 91/48/95 30/101/94 34/106/84 95/52/87
f 32/104/96 91/48/95 95/52/87 36/109/86
f 92/49/97 32/104/96 36/109/86 96/53/88
f 33/105/90 92/49/97 96/53/88 37/110/83
f 93/50/91 33/105/90 37/110/83 97/54/82
f 35/108/81 31/103/92 93/50/91 97/54/82
