# This file uses centimeters as units for non-parametric coordinates.

mtllib Green_Plant_2.mtl
g default
v 0.143244 -0.512836 0.139383
v -0.121377 -0.291233 -0.408069
v -2.870933 0.683126 1.861102
v -3.020859 0.808680 1.550932
v 0.043666 -0.111003 0.270144
v -0.220955 0.110601 -0.277309
v -0.016025 -0.379458 -0.190116
v -0.115603 0.022375 -0.059355
v -2.946219 1.036237 1.779538
v -1.431912 0.630316 1.144150
v -1.507199 0.983427 1.062585
v -1.581838 0.755870 0.833979
v 0.049819 -0.239416 -0.064113
v -0.009759 -0.223554 -0.120388
v -1.265532 0.418066 1.995648
v -1.394281 0.410258 1.773208
v -0.020683 -0.018242 0.059918
v -0.080262 -0.002380 0.003643
v 0.013960 -0.229869 -0.097984
v -0.056543 -0.008695 0.026047
v -1.469833 0.397483 2.031541
v -0.836227 0.471973 1.364408
v -0.936063 0.549093 1.333608
v -1.067296 0.440826 1.293685
v -0.267173 -0.518149 0.184347
v 0.250619 -0.334134 -0.157510
v -2.379150 0.971438 -2.606412
v -2.085784 1.075696 -2.800098
v -0.346872 -0.091820 0.164954
v 0.170920 0.092195 -0.176903
v 0.044474 -0.407394 -0.021409
v -0.035225 0.018934 -0.040802
v -2.256509 1.317678 -2.652073
v -1.427035 0.600150 -1.364151
v -1.304394 0.946390 -1.409812
v -1.133669 0.704408 -1.557837
v -0.144275 -0.266584 0.067762
v -0.077368 -0.262274 0.018033
v -1.565385 1.436088 -1.151418
v -1.344588 1.367262 -1.263796
v -0.163023 -0.004619 0.050583
v -0.096116 -0.000309 0.000854
v -0.104005 -0.263990 0.037832
v -0.122753 -0.002025 0.020652
v -1.572996 1.476746 -1.355722
v -1.038121 1.135498 -0.685251
v -0.964968 1.213285 -0.759151
v -0.948092 1.129505 -0.911578
v -0.003655 -0.432322 -0.019854
v -0.086342 -0.428012 -0.030457
v 0.127780 2.306644 2.625702
v -0.109703 2.187400 2.536875
v 0.006063 -0.004512 0.009502
v -0.076623 -0.000203 -0.001101
v -0.053422 -0.429728 -0.026236
v -0.043704 -0.001918 0.003120
v -0.017313 2.363852 2.853740
v 0.101451 1.832664 1.619819
v -0.000782 1.956003 1.627376
v -0.128695 1.811885 1.778982
v -0.219481 -0.368738 0.216183
v -0.208595 -0.229690 0.339694
v 1.954723 0.460436 -1.237927
v 1.899197 0.788447 -0.793135
v -0.091738 -0.087680 -0.082093
v -0.080852 0.051368 0.041418
v -0.212929 -0.285048 0.290521
v -0.085186 -0.003990 -0.007755
v 2.219484 0.640804 -1.068066
v 0.714270 0.369151 -0.945754
v 0.775528 0.617799 -0.871970
v 0.915582 0.656502 -0.591225
v 0.041604 -0.231696 0.092503
v 0.001118 -0.246965 0.021118
v -1.730435 1.221334 1.166574
v -1.793689 1.104697 0.946321
v -0.042426 0.017225 0.076707
v -0.082912 0.001956 0.005322
v 0.017236 -0.240886 0.049538
v -0.066794 0.008035 0.033742
v -1.937730 1.207729 1.149408
v -1.142095 1.003893 0.728112
v -1.223303 1.052284 0.639077
v -1.346749 0.930366 0.618222
v -0.216940 -0.163249 0.393913
v -0.141421 -0.303409 0.297167
v -1.373185 1.016145 -1.797264
v -1.134574 0.539542 -1.953560
v -0.136019 0.088081 0.055437
v -0.060501 -0.052079 -0.041309
v -0.171487 -0.247608 0.335684
v -0.090566 0.003722 -0.002792
v -1.471559 0.806614 -2.076375
v -0.465135 0.828159 -0.918329
v -0.359836 0.720063 -1.137988
v -0.451000 0.427278 -1.214778
v 0.021334 -0.400440 0.169257
v -0.028130 -0.427195 -0.008353
v -2.208358 0.718468 0.653116
v -2.257558 0.692485 0.475788
v -0.057613 0.017035 0.107915
v -0.107078 -0.009720 -0.069694
v -0.008437 -0.416543 0.062358
v -0.087385 0.000932 0.001016
v -2.252876 0.997046 0.507412
v -1.412913 0.798838 0.359124
v -1.460934 1.076769 0.213298
v -1.462259 0.772148 0.181942
v 0.057748 -0.400440 -0.149081
v -0.104035 -0.427195 -0.060658
v 1.216126 1.190517 2.449859
v 1.054733 1.163827 2.538068
v 0.015890 0.017035 -0.058288
v -0.145892 -0.009720 0.030135
v -0.039625 -0.416543 -0.095861
v -0.081483 0.000932 -0.005068
v 1.084973 1.468448 2.529673
v 0.567659 0.798838 1.204841
v 0.436507 1.076769 1.284656
v 0.406266 0.772148 1.293051
v -0.250416 -0.393542 0.139062
v -0.386728 -0.267262 0.152483
v 1.896960 1.555980 1.499500
v 1.406710 1.813894 1.540116
v -0.000212 -0.078740 -0.011197
v -0.136524 0.047540 0.002224
v -0.332459 -0.317537 0.147140
v -0.082255 -0.002735 -0.003119
v 1.815986 1.832777 1.719296
v 1.144944 0.908034 0.695102
v 1.047892 1.155892 0.682066
v 0.850389 1.247623 0.911215
v -0.188874 -0.416553 -0.395116
v -0.185413 -0.416553 0.252051
v 3.434770 0.721806 -0.346795
v 3.438231 0.721806 0.300371
v -0.086610 0.000000 -0.327963
v -0.083149 0.000000 0.319204
v -0.186791 -0.416553 -0.005601
v -0.084527 0.000000 0.061552
v 3.436853 1.018965 0.042719
v 1.842800 0.491261 -0.338281
v 1.844883 0.788421 0.051233
v 1.846261 0.491261 0.308885
v -0.478136 -0.416553 0.095565
v 0.169040 -0.416553 0.095565
v -0.275377 0.898272 -2.887505
v 0.013274 0.898272 -2.887505
v -0.410437 0.000000 -0.006339
v 0.236739 0.000000 -0.006339
v -0.088616 -0.416553 0.095565
v -0.020917 0.000000 -0.006339
v -0.101645 1.193132 -2.924412
v -0.231175 0.649414 -1.451800
v -0.057443 0.944273 -1.488707
v 0.057476 0.649414 -1.451800
v 0.079609 -0.340120 -0.246880
v 0.166587 -0.340120 -0.082131
v 0.452918 2.820161 -0.615548
v 0.741031 2.682618 -0.161030
v -0.140495 0.001530 -0.108641
v -0.053516 0.001530 0.056109
v 0.131959 -0.340120 -0.147721
v -0.088144 0.001530 -0.009481
v 0.709408 3.019069 -0.453894
v 0.036854 1.644965 -0.335860
v 0.093373 1.747556 -0.096479
v 0.395517 1.743730 -0.003603
v 0.304269 -0.416553 -0.104960
v -0.342906 -0.416553 -0.103873
v 0.242659 0.721806 3.518482
v -0.404516 0.721806 3.519570
v 0.236741 0.000000 -0.002943
v -0.410434 0.000000 -0.001855
v -0.085251 -0.416553 -0.104306
v -0.152778 0.000000 -0.002288
v -0.146861 1.018965 3.519137
v 0.239984 0.491261 1.926492
v -0.149536 0.788421 1.927147
v -0.407191 0.491261 1.927580
v 0.024080 -0.416553 0.383944
v 0.005827 -0.416553 -0.262975
v -3.603677 0.721806 0.278267
v -3.614019 0.721806 -0.088258
v -0.079692 0.000000 0.319146
v -0.097945 0.000000 -0.327773
v 0.013094 -0.416553 -0.005422
v -0.090678 0.000000 -0.070220
v -3.609901 1.018965 0.057664
v -2.012318 0.491261 0.233367
v -2.018542 0.788421 0.012764
v -2.022659 0.491261 -0.133158
vt 0.000000 0.000000
vt 1.000000 0.000000
vt 0.000000 1.000000
vt 1.000000 1.000000
vt 0.000000 0.144765
vt 1.000000 0.144765
vt 0.601877 0.000000
vt 0.601877 0.144765
vt 0.601877 1.000000
vt 0.000000 0.613359
vt 0.601877 0.613359
vt 1.000000 0.613359
vt 0.000000 0.613359
vt 0.601877 0.613359
vt 0.601877 1.000000
vt 0.000000 1.000000
vt 0.000000 0.000000
vt 0.601877 0.000000
vt 0.601877 0.144765
vt 0.000000 0.144765
vt 1.000000 0.000000
vt 1.000000 0.144765
vt 1.000000 0.613359
vt 1.000000 1.000000
vt 0.000000 0.613359
vt 0.601877 0.613359
vt 0.601877 1.000000
vt 0.000000 1.000000
vt 0.000000 0.000000
vt 0.601877 0.000000
vt 0.601877 0.144765
vt 0.000000 0.144765
vt 1.000000 0.000000
vt 1.000000 0.144765
vt 1.000000 0.613359
vt 1.000000 1.000000
vt 0.000000 0.613359
vt 0.601877 0.613359
vt 0.601877 1.000000
vt 0.000000 1.000000
vt 0.000000 0.000000
vt 0.601877 0.000000
vt 0.601877 0.144765
vt 0.000000 0.144765
vt 1.000000 0.000000
vt 1.000000 0.144765
vt 1.000000 0.613359
vt 1.000000 1.000000
vt 0.000000 0.613359
vt 0.601877 0.613359
vt 0.601877 1.000000
vt 0.000000 1.000000
vt 0.000000 0.000000
vt 0.601877 0.000000
vt 0.601877 0.144765
vt 0.000000 0.144765
vt 1.000000 0.000000
vt 1.000000 0.144765
vt 1.000000 0.613359
vt 1.000000 1.000000
vt 0.000000 0.613359
vt 0.601877 0.613359
vt 0.601877 1.000000
vt 0.000000 1.000000
vt 0.000000 0.000000
vt 0.601877 0.000000
vt 0.601877 0.144765
vt 0.000000 0.144765
vt 1.000000 0.000000
vt 1.000000 0.144765
vt 1.000000 0.613359
vt 1.000000 1.000000
vt 0.000000 0.613359
vt 0.601877 0.613359
vt 0.601877 1.000000
vt 0.000000 1.000000
vt 0.000000 0.000000
vt 0.601877 0.000000
vt 0.601877 0.144765
vt 0.000000 0.144765
vt 1.000000 0.000000
vt 1.000000 0.144765
vt 1.000000 0.613359
vt 1.000000 1.000000
vt 0.000000 0.613359
vt 0.601877 0.613359
vt 0.601877 1.000000
vt 0.000000 1.000000
vt 0.000000 0.000000
vt 0.601877 0.000000
vt 0.601877 0.144765
vt 0.000000 0.144765
vt 1.000000 0.000000
vt 1.000000 0.144765
vt 1.000000 0.613359
vt 1.000000 1.000000
vt 0.000000 0.613359
vt 0.601877 0.613359
vt 0.601877 1.000000
vt 0.000000 1.000000
vt 0.000000 0.000000
vt 0.601877 0.000000
vt 0.601877 0.144765
vt 0.000000 0.144765
vt 1.000000 0.000000
vt 1.000000 0.144765
vt 1.000000 0.613359
vt 1.000000 1.000000
vt 0.000000 0.613359
vt 0.601877 0.613359
vt 0.601877 1.000000
vt 0.000000 1.000000
vt 0.000000 0.000000
vt 0.601877 0.000000
vt 0.601877 0.144765
vt 0.000000 0.144765
vt 1.000000 0.000000
vt 1.000000 0.144765
vt 1.000000 0.613359
vt 1.000000 1.000000
vt 0.000000 0.613359
vt 0.601877 0.613359
vt 0.601877 1.000000
vt 0.000000 1.000000
vt 0.000000 0.000000
vt 0.601877 0.000000
vt 0.601877 0.144765
vt 0.000000 0.144765
vt 1.000000 0.000000
vt 1.000000 0.144765
vt 1.000000 0.613359
vt 1.000000 1.000000
vt 0.000000 0.613359
vt 0.601877 0.613359
vt 0.601877 1.000000
vt 0.000000 1.000000
vt 0.000000 0.000000
vt 0.601877 0.000000
vt 0.601877 0.144765
vt 0.000000 0.144765
vt 1.000000 0.000000
vt 1.000000 0.144765
vt 1.000000 0.613359
vt 1.000000 1.000000
vt 0.000000 0.613359
vt 0.601877 0.613359
vt 0.601877 1.000000
vt 0.000000 1.000000
vt 0.000000 0.000000
vt 0.601877 0.000000
vt 0.601877 0.144765
vt 0.000000 0.144765
vt 1.000000 0.000000
vt 1.000000 0.144765
vt 1.000000 0.613359
vt 1.000000 1.000000
vt 0.000000 0.613359
vt 0.601877 0.613359
vt 0.601877 1.000000
vt 0.000000 1.000000
vt 0.000000 0.000000
vt 0.601877 0.000000
vt 0.601877 0.144765
vt 0.000000 0.144765
vt 1.000000 0.000000
vt 1.000000 0.144765
vt 1.000000 0.613359
vt 1.000000 1.000000
vt 0.000000 0.613359
vt 0.601877 0.613359
vt 0.601877 1.000000
vt 0.000000 1.000000
vt 0.000000 0.000000
vt 0.601877 0.000000
vt 0.601877 0.144765
vt 0.000000 0.144765
vt 1.000000 0.000000
vt 1.000000 0.144765
vt 1.000000 0.613359
vt 1.000000 1.000000
vt 0.000000 0.613359
vt 0.601877 0.613359
vt 0.601877 1.000000
vt 0.000000 1.000000
vt 0.000000 0.000000
vt 0.601877 0.000000
vt 0.601877 0.144765
vt 0.000000 0.144765
vt 1.000000 0.000000
vt 1.000000 0.144765
vt 1.000000 0.613359
vt 1.000000 1.000000
vn 0.595867 0.528674 0.604521
vn 0.370512 0.907410 0.198314
vn 0.183474 0.936357 0.299286
vn 0.435313 0.289705 0.852393
vn 0.897053 0.321102 -0.303628
vn 0.897053 0.321101 -0.303628
vn 0.641413 0.767162 -0.007188
vn 0.756094 0.606978 0.244744
vn 0.897053 0.321101 -0.303628
vn 0.374816 0.844425 -0.382701
vn -0.004396 0.860676 -0.509134
vn -0.286046 0.724192 -0.627475
vn 0.420698 0.901087 0.105143
vn -0.019941 0.985048 -0.171120
vn -0.018859 0.990185 0.138487
vn 0.180114 0.943995 0.276465
vn 0.656422 0.517217 -0.549178
vn 0.656422 0.517217 -0.549179
vn 0.108569 0.924228 -0.366082
vn 0.554689 0.831163 -0.038571
vn 0.656422 0.517217 -0.549179
vn -0.266139 0.797403 -0.541590
vn -0.373959 0.838660 -0.395986
vn -0.450781 0.871130 -0.194752
vn -0.500954 0.553172 0.665617
vn -0.048089 0.905426 0.421771
vn -0.103710 0.928348 0.356952
vn -0.698553 0.331089 0.634353
vn 0.512281 0.134353 0.848244
vn 0.512281 0.134352 0.848244
vn 0.117513 0.793495 0.597123
vn -0.165554 0.617829 0.768687
vn 0.512281 0.134352 0.848244
vn 0.507911 0.830824 0.227502
vn 0.571399 0.813575 -0.107697
vn 0.673228 0.668412 -0.316212
vn 0.174903 0.751564 0.636051
vn 0.529495 0.810360 0.250901
vn 0.248689 0.939810 0.234330
vn 0.073386 0.911254 0.405254
vn 0.589898 0.094804 0.801893
vn 0.589898 0.094804 0.801893
vn 0.663892 0.649580 0.370531
vn 0.258226 0.602215 0.755418
vn 0.589898 0.094804 0.801893
vn 0.836721 0.547478 -0.012873
vn 0.736690 0.666429 -0.114717
vn 0.577598 0.793313 -0.192444
vn 0.430225 0.671802 -0.602983
vn -0.375882 0.746660 -0.548827
vn -0.117466 0.923455 -0.365283
vn 0.311159 0.883421 -0.350353
vn 0.130259 0.064929 -0.989352
vn 0.130258 0.064929 -0.989352
vn -0.366867 0.572553 -0.733206
vn 0.442066 0.531320 -0.722687
vn 0.130258 0.064929 -0.989352
vn -0.767592 0.408645 -0.493773
vn -0.774912 0.503155 -0.382552
vn -0.733617 0.632399 -0.248755
vn -0.493569 0.517363 -0.699089
vn -0.370290 0.766015 -0.525458
vn -0.152608 0.764550 -0.626238
vn -0.169536 0.580945 -0.796091
vn -0.953638 0.238131 -0.184033
vn -0.953638 0.238131 -0.184033
vn -0.751673 0.610519 -0.249509
vn -0.810261 0.363868 -0.459431
vn -0.953638 0.238131 -0.184033
vn -0.609172 0.792836 -0.017875
vn -0.295372 0.929177 -0.222229
vn -0.116651 0.929616 -0.349581
vn 0.445705 0.871305 -0.205363
vn 0.105399 0.793144 -0.599845
vn 0.022228 0.940066 -0.340267
vn 0.171625 0.974106 -0.147178
vn 0.820215 0.244054 -0.517383
vn 0.820215 0.244054 -0.517383
vn 0.277082 0.657094 -0.701038
vn 0.607918 0.751062 -0.257568
vn 0.820215 0.244054 -0.517383
vn -0.044190 0.442273 -0.895791
vn -0.184092 0.539499 -0.821615
vn -0.310174 0.656308 -0.687787
vn 0.722238 0.663969 -0.193695
vn 0.776996 0.452553 -0.437576
vn 0.607762 0.536695 -0.585307
vn 0.510177 0.728648 -0.456937
vn 0.898158 0.221956 0.379536
vn 0.898158 0.221956 0.379536
vn 0.973143 0.226245 -0.042493
vn 0.869736 0.468643 0.154705
vn 0.898158 0.221956 0.379536
vn 0.970416 -0.035802 -0.238771
vn 0.813796 0.126907 -0.567124
vn 0.676771 0.239939 -0.695996
vn 0.428069 0.598444 0.677216
vn 0.228282 0.949388 -0.215752
vn -0.126539 0.989296 -0.072671
vn 0.261331 0.481656 0.836489
vn 0.948636 0.137530 -0.284914
vn 0.948636 0.137530 -0.284914
vn 0.635815 0.718457 -0.282061
vn 0.649826 0.628005 0.428178
vn 0.948636 0.137530 -0.284914
vn 0.160843 0.306437 -0.938204
vn -0.142272 0.215796 -0.966018
vn -0.354416 0.099620 -0.929766
vn 0.557145 0.582492 -0.591856
vn -0.303863 0.914468 -0.267239
vn -0.227268 0.956567 -0.182561
vn 0.705678 0.482107 -0.519222
vn -0.492453 0.137530 -0.859404
vn -0.492453 0.137530 -0.859404
vn -0.418793 0.718457 -0.555366
vn 0.269798 0.628005 -0.729944
vn -0.492453 0.137530 -0.859404
vn -0.950247 0.306437 0.055926
vn -0.928118 0.200759 0.313518
vn -0.895032 0.100827 0.434457
vn 0.434169 0.317042 -0.843197
vn 0.182690 0.586142 -0.789343
vn 0.309682 0.626491 -0.715266
vn 0.494558 0.458737 -0.738223
vn -0.290389 -0.214339 -0.932595
vn -0.290389 -0.214339 -0.932595
vn 0.017492 0.418493 -0.908052
vn 0.295689 0.143617 -0.944427
vn -0.290389 -0.214338 -0.932595
vn -0.261749 0.633291 -0.728306
vn -0.078239 0.752804 -0.653578
vn 0.043129 0.784004 -0.619255
vn -0.220569 0.858726 -0.462536
vn -0.229858 0.973224 -0.000675
vn -0.143350 0.989655 -0.005843
vn -0.117601 0.789837 -0.601936
vn -0.971342 0.237629 0.005195
vn -0.971342 0.237629 0.005195
vn -0.458833 0.888519 0.002454
vn -0.453051 0.839420 -0.300197
vn -0.971342 0.237629 0.005195
vn -0.400275 0.801887 0.443573
vn -0.191382 0.761698 0.619023
vn -0.090421 0.652172 0.752659
vn -0.597648 0.734501 0.321443
vn 0.003132 0.949843 0.312712
vn -0.036072 0.984479 0.171756
vn -0.849427 0.514931 0.115408
vn 0.000000 0.237629 0.971356
vn 0.000000 0.237629 0.971356
vn 0.005530 0.773754 0.633462
vn -0.312154 0.710826 0.630306
vn 0.000000 0.237629 0.971356
vn 0.468650 0.690167 0.551395
vn 0.752113 0.615220 0.236283
vn 0.929680 0.366708 0.034941
vn -0.915319 0.270536 0.298331
vn -0.725952 0.303659 0.617078
vn -0.716348 0.437058 0.543898
vn -0.838175 0.438143 0.324798
vn -0.704533 -0.604387 0.371954
vn -0.704533 -0.604387 0.371954
vn -0.768649 0.044387 0.638129
vn -0.955636 0.030022 0.293017
vn -0.704533 -0.604387 0.371954
vn -0.460554 0.057026 0.885798
vn -0.469500 0.282906 0.836382
vn -0.493082 0.395036 0.775124
vn 0.463342 0.858726 -0.218871
vn 0.001518 0.973224 -0.229854
vn 0.006369 0.989655 -0.143328
vn 0.602363 0.789838 -0.115393
vn -0.001632 0.237629 -0.971355
vn -0.001632 0.237629 -0.971355
vn -0.000771 0.888519 -0.458839
vn 0.301856 0.839420 -0.451947
vn -0.001633 0.237629 -0.971355
vn -0.442102 0.801887 -0.401899
vn -0.618317 0.761698 -0.193651
vn -0.752322 0.652173 -0.093180
vn 0.220073 0.777483 0.589142
vn 0.230134 0.973155 -0.002670
vn 0.143472 0.989648 0.003521
vn 0.108547 0.594016 0.797096
vn 0.970970 0.237629 -0.027396
vn 0.970970 0.237629 -0.027396
vn 0.478029 0.878166 -0.017711
vn 0.483033 0.802894 0.349343
vn 0.970970 0.237629 -0.027396
vn 0.381924 0.754721 -0.533414
vn 0.140525 0.646751 -0.749644
vn 0.038434 0.440025 -0.897163
s 1
g Green_Plant_2
usemtl lambert2SG
f 10/10/1 11/11/2 9/9/3 3/3/4
f 1/1/5 7/7/6 8/8/7 5/5/8
f 8/8/7 7/7/6 2/2/9 6/6/10
f 9/9/3 11/11/2 12/12/11 4/4/12
f 5/5/8 8/8/7 11/11/2 10/10/1
f 12/12/11 11/11/2 8/8/7 6/6/10
s 3
f 22/13/13 23/14/14 21/15/15 15/16/16
f 13/17/17 19/18/18 20/19/19 17/20/20
f 20/19/19 19/18/18 14/21/21 18/22/22
f 21/15/15 23/14/14 24/23/23 16/24/24
f 17/20/20 20/19/19 23/14/14 22/13/13
f 24/23/23 23/14/14 20/19/19 18/22/22
s 5
f 34/25/25 35/26/26 33/27/27 27/28/28
f 25/29/29 31/30/30 32/31/31 29/32/32
f 32/31/31 31/30/30 26/33/33 30/34/34
f 33/27/27 35/26/26 36/35/35 28/36/36
f 29/32/32 32/31/31 35/26/26 34/25/25
f 36/35/35 35/26/26 32/31/31 30/34/34
s 7
f 46/37/37 47/38/38 45/39/39 39/40/40
f 37/41/41 43/42/42 44/43/43 41/44/44
f 44/43/43 43/42/42 38/45/45 42/46/46
f 45/39/39 47/38/38 48/47/47 40/48/48
f 41/44/44 44/43/43 47/38/38 46/37/37
f 48/47/47 47/38/38 44/43/43 42/46/46
s 9
f 58/49/49 59/50/50 57/51/51 51/52/52
f 49/53/53 55/54/54 56/55/55 53/56/56
f 56/55/55 55/54/54 50/57/57 54/58/58
f 57/51/51 59/50/50 60/59/59 52/60/60
f 53/56/56 56/55/55 59/50/50 58/49/49
f 60/59/59 59/50/50 56/55/55 54/58/58
s 11
f 70/61/61 71/62/62 69/63/63 63/64/64
f 61/65/65 67/66/66 68/67/67 65/68/68
f 68/67/67 67/66/66 62/69/69 66/70/70
f 69/63/63 71/62/62 72/71/71 64/72/72
f 65/68/68 68/67/67 71/62/62 70/61/61
f 72/71/71 71/62/62 68/67/67 66/70/70
s 13
f 82/73/73 83/74/74 81/75/75 75/76/76
f 73/77/77 79/78/78 80/79/79 77/80/80
f 80/79/79 79/78/78 74/81/81 78/82/82
f 81/75/75 83/74/74 84/83/83 76/84/84
f 77/80/80 80/79/79 83/74/74 82/73/73
f 84/83/83 83/74/74 80/79/79 78/82/82
s 15
f 94/85/85 95/86/86 93/87/87 87/88/88
f 85/89/89 91/90/90 92/91/91 89/92/92
f 92/91/91 91/90/90 86/93/93 90/94/94
f 93/87/87 95/86/86 96/95/95 88/96/96
f 89/92/92 92/91/91 95/86/86 94/85/85
f 96/95/95 95/86/86 92/91/91 90/94/94
s 17
f 106/97/97 107/98/98 105/99/99 99/100/100
f 97/101/101 103/102/102 104/103/103 101/104/104
f 104/103/103 103/102/102 98/105/105 102/106/106
f 105/99/99 107/98/98 108/107/107 100/108/108
f 101/104/104 104/103/103 107/98/98 106/97/97
f 108/107/107 107/98/98 104/103/103 102/106/106
s 19
f 118/109/109 119/110/110 117/111/111 111/112/112
f 109/113/113 115/114/114 116/115/115 113/116/116
f 116/115/115 115/114/114 110/117/117 114/118/118
f 117/111/111 119/110/110 120/119/119 112/120/120
f 113/116/116 116/115/115 119/110/110 118/109/109
f 120/119/119 119/110/110 116/115/115 114/118/118
s 21
f 130/121/121 131/122/122 129/123/123 123/124/124
f 121/125/125 127/126/126 128/127/127 125/128/128
f 128/127/127 127/126/126 122/129/129 126/130/130
f 129/123/123 131/122/122 132/131/131 124/132/132
f 125/128/128 128/127/127 131/122/122 130/121/121
f 132/131/131 131/122/122 128/127/127 126/130/130
s 23
f 142/133/133 143/134/134 141/135/135 135/136/136
f 133/137/137 139/138/138 140/139/139 137/140/140
f 140/139/139 139/138/138 134/141/141 138/142/142
f 141/135/135 143/134/134 144/143/143 136/144/144
f 137/140/140 140/139/139 143/134/134 142/133/133
f 144/143/143 143/134/134 140/139/139 138/142/142
s 25
f 154/145/145 155/146/146 153/147/147 147/148/148
f 145/149/149 151/150/150 152/151/151 149/152/152
f 152/151/151 151/150/150 146/153/153 150/154/154
f 153/147/147 155/146/146 156/155/155 148/156/156
f 149/152/152 152/151/151 155/146/146 154/145/145
f 156/155/155 155/146/146 152/151/151 150/154/154
s 27
f 166/157/157 167/158/158 165/159/159 159/160/160
f 157/161/161 163/162/162 164/163/163 161/164/164
f 164/163/163 163/162/162 158/165/165 162/166/166
f 165/159/159 167/158/158 168/167/167 160/168/168
f 161/164/164 164/163/163 167/158/158 166/157/157
f 168/167/167 167/158/158 164/163/163 162/166/166
s 29
f 178/169/169 179/170/170 177/171/171 171/172/172
f 169/173/173 175/174/174 176/175/175 173/176/176
f 176/175/175 175/174/174 170/177/177 174/178/178
f 177/171/171 179/170/170 180/179/179 172/180/180
f 173/176/176 176/175/175 179/170/170 178/169/169
f 180/179/179 179/170/170 176/175/175 174/178/178
s 31
f 190/181/181 191/182/182 189/183/183 183/184/184
f 181/185/185 187/186/186 188/187/187 185/188/188
f 188/187/187 187/186/186 182/189/189 186/190/190
f 189/183/183 191/182/182 192/191/191 184/192/192
f 185/188/188 188/187/187 191/182/182 190/181/181
f 192/191/191 191/182/182 188/187/187 186/190/190
