# This file uses centimeters as units for non-parametric coordinates.

mtllib Rock_06.mtl
g default
v 3.966116 2.158564 1.534750
v 3.005052 2.619025 0.922214
v 2.983442 2.301823 1.625227
v 2.475223 1.244102 -0.927086
v 2.893926 2.171006 -0.381234
v 3.469443 1.463489 0.176789
v -0.326190 2.417220 1.444881
v 0.246003 2.604595 0.621953
v -1.290251 2.318791 1.105292
v -0.769597 2.636379 -0.403720
v 1.017067 2.616018 -0.788874
v 0.699855 1.855138 -1.226611
v -0.701658 1.520863 1.783797
v -2.455456 1.616315 1.644936
v -1.396844 0.417766 1.297880
v -1.620154 0.303643 -0.456878
v -2.204391 1.074990 0.109366
v -1.040948 1.155936 -1.290118
v 2.720441 1.227954 1.694284
v 1.817038 0.235030 1.338964
v 3.516989 1.013598 1.393307
v 2.721267 0.342333 0.148183
v 1.107018 -0.263861 -0.208084
v 1.437710 0.232800 -0.942907
v -1.872369 1.701229 1.842996
v -0.510598 2.039548 1.692277
v -0.632095 2.516539 0.767077
v 0.666844 2.705761 -0.124823
v 0.047794 2.471376 -0.466822
v -1.171187 2.345400 0.492862
v -0.149711 2.434068 -1.012090
v -0.153992 1.743078 -1.437276
v -1.774912 1.215896 -0.754924
v -1.610508 2.038737 -0.140853
v -0.997150 0.903868 1.674929
v 0.161781 -0.152975 1.470698
v 2.272095 0.663732 1.649607
v 1.076764 1.350662 1.740294
v -2.304508 1.018122 1.473721
v -2.504118 1.234253 1.028853
v -2.252983 0.517870 -0.072862
v -1.599741 0.247337 0.441737
v -1.476785 0.438172 -0.928501
v 0.163739 0.369045 -1.107456
v 1.099899 -0.090505 -0.752135
v -0.332584 -0.305983 -0.290724
v 2.866665 0.503086 1.356326
v 1.385815 -0.135880 0.615985
v 2.088423 0.017846 -0.038168
v 3.204286 0.666225 0.838295
v 3.790542 2.259472 1.721631
v 2.927216 1.818652 1.710040
v 3.486917 1.190071 1.627566
v 3.889453 1.631049 1.508238
v 3.729039 2.399271 1.306474
v 3.815274 1.827550 0.932866
v 3.381742 1.816759 0.005012
v 2.983457 2.516890 0.240637
v 2.981101 2.556457 1.361037
v 1.675902 2.998214 0.499120
v -0.054014 2.565547 1.111280
v 1.335100 2.464938 1.479629
v 3.056553 1.215919 -0.446478
v 3.215518 0.899102 0.221629
v 2.240388 0.236307 -0.491376
v 1.968630 0.690517 -0.982079
v 2.730404 1.724036 -0.763158
v 1.641261 1.580211 -1.260169
v 1.124717 2.346880 -1.175860
v 2.048005 2.643138 -0.794878
v -1.129379 2.407350 1.361136
v -2.007873 2.032009 1.461279
v 3.725025 1.764197 1.704271
v 3.599086 2.128569 0.692754
v 1.478249 2.784014 1.092770
v 2.694325 0.704592 -0.464426
v 1.988932 2.149608 -1.119079
v -1.551874 2.110335 1.660217
v -0.321887 2.547781 0.145778
v -0.966963 2.431724 -1.194630
v 0.657126 0.665456 1.682533
v -2.376284 0.686374 0.763071
v -0.229520 0.007594 -0.861312
v 2.480741 0.223505 0.696399
v 1.910265 3.013611 -0.234122
v -2.006566 1.765195 0.908324
v -0.201795 -0.644255 0.774427
v 3.666690 1.274406 0.947098
v 0.905232 0.873915 -1.211937
v 1.251434 1.960953 1.688403
v 3.689240 2.469098 1.560656
v 3.153631 1.545715 -0.428290
v -0.760693 2.532213 1.100888
v 0.367092 2.299492 -0.866448
v -1.935054 1.240093 1.754336
v -2.058484 0.496756 -0.570078
v 3.070441 0.743892 1.610505
v 1.865468 -0.001194 -0.516269
vt 0.359861 0.637260
vt 0.347981 0.550782
vt 0.413690 0.582812
vt 0.126992 0.527730
vt 0.229296 0.534570
vt 0.232222 0.634345
vt 0.480004 0.269355
vt 0.388329 0.306663
vt 0.448484 0.164676
vt 0.297197 0.207075
vt 0.238846 0.360454
vt 0.154780 0.332703
vt 0.999506 0.494246
vt 0.518794 0.042128
vt 0.874714 0.557539
vt 0.707928 0.609969
vt 0.771208 0.716215
vt 0.124688 0.137747
vt 0.495742 0.639676
vt 0.822929 0.249361
vt 0.827041 0.069175
vt 0.111035 0.683222
vt 0.671473 0.344345
vt 0.580113 0.326171
vt 0.386430 0.660355
vt 0.301116 0.608985
vt 0.412711 0.429831
vt 0.108331 0.602080
vt 0.180896 0.447940
vt 0.509672 0.147140
vt 0.345717 0.249526
vt 0.225574 0.186948
vt 0.909367 0.349029
vt 0.838050 0.664230
vt 0.628347 0.491187
vt 0.747313 0.193302
vt 0.286041 0.437542
vt 0.430646 0.070624
vt 0.777447 0.443733
vt 0.297267 0.692749
vt 0.055056 0.370090
vt 0.512540 0.446435
vt 0.367780 0.611182
vt 0.192689 0.581268
vt 0.444550 0.220984
vt 0.221962 0.302594
vt 0.953400 0.621975
vt 0.709887 0.652952
vt 0.841650 0.121548
vt 0.630909 0.277103
vt 0.374844 0.627728
vt 0.446945 0.613541
vt 0.857680 0.065653
vt 0.361861 0.672354
vt 0.349008 0.610106
vt 0.310679 0.647367
vt 0.238860 0.596826
vt 0.290390 0.539845
vt 0.385562 0.563399
vt 0.352628 0.430988
vt 0.440999 0.288975
vt 0.461770 0.433307
vt 0.165746 0.594874
vt 0.190926 0.671431
vt 0.622624 0.233182
vt 0.061165 0.503495
vt 0.176581 0.531482
vt 0.126974 0.429556
vt 0.194486 0.370495
vt 0.229332 0.446232
vt 0.472659 0.188767
vt 0.492528 0.098242
vt 0.999512 0.626016
vt 0.526009 0.257412
vt 0.410399 0.226768
vt 0.308114 0.333893
vt 0.275435 0.277895
vt 0.385457 0.167630
vt 0.226174 0.255271
vt 0.146764 0.246390
vt 0.654373 0.701324
vt 0.317066 0.111918
vt 0.937522 0.521035
vt 0.843911 0.403679
vt 0.861854 0.194988
vt 0.573134 0.451847
vt 0.913303 0.654561
vt 0.447305 0.000488
vt 0.757672 0.660744
vt 0.791765 0.588533
vt 0.660237 0.616371
vt 0.000493 0.289027
vt 0.617948 0.357432
vt 0.688887 0.480818
vt 0.813250 0.147259
vt 0.749015 0.301421
vt 0.675303 0.244607
vt 0.232107 0.736935
vt 0.762913 0.109545
vt 0.347119 0.729086
vt 0.688825 0.172381
vt 0.577382 0.469475
vt 0.000488 0.460696
vt 0.573650 0.631560
vt 0.885305 0.702361
vt 0.331071 0.002759
vt 0.965466 0.686973
vt 0.966487 0.298070
vt 0.579142 0.244141
vt 0.899994 0.135167
vt 0.218828 0.056441
vt 0.547616 0.108638
vt 0.040812 0.587153
vt 0.394522 0.708442
vn 0.991848 0.127417 -0.001694
vn 0.183681 0.295592 0.937490
vn 0.203926 -0.085946 0.975206
vn 0.933077 -0.342048 0.111221
vn -0.028196 0.448374 0.893401
vn -0.003303 0.096299 0.995347
vn 0.028315 -0.047711 0.998460
vn 0.266273 -0.265959 0.926480
vn 0.740338 -0.658392 0.135717
vn 0.319536 0.947059 0.031239
vn 0.606877 0.761726 -0.226880
vn 0.742072 0.547199 -0.387172
vn 0.524374 0.814309 -0.248861
vn 0.945204 -0.027646 -0.325307
vn 0.893245 -0.223333 -0.390173
vn 0.801734 0.341072 -0.490808
vn 0.626714 0.561627 -0.540189
vn 0.076660 0.886756 0.455836
vn -0.042716 0.924339 0.379174
vn -0.026218 0.599755 0.799754
vn 0.002502 0.997349 0.072728
vn -0.180517 0.981894 0.057422
vn -0.105865 0.944687 0.310419
vn -0.029126 0.665516 0.745815
vn 0.431942 -0.192419 -0.881136
vn 0.728576 -0.340361 -0.594418
vn 0.641776 -0.511117 -0.571737
vn 0.318755 -0.338837 -0.885203
vn 0.793380 -0.520612 -0.315453
vn 0.625816 -0.757784 -0.184709
vn 0.533154 -0.649236 -0.542438
vn 0.195147 -0.448249 -0.872348
vn 0.567778 0.191777 -0.800531
vn 0.331017 0.323363 -0.886490
vn 0.312924 0.751363 -0.580975
vn 0.192370 -0.037389 -0.980610
vn 0.080776 0.188073 -0.978828
vn -0.000134 0.482183 -0.876071
vn -0.149678 0.855084 -0.496415
vn -0.167390 0.846039 0.506160
vn -0.122566 0.573896 0.809704
vn 0.010755 0.321444 0.946868
vn -0.462848 0.879590 -0.109969
vn -0.602697 0.797255 0.033780
vn -0.876259 0.359467 0.320865
vn -0.130235 0.112095 0.985126
vn 0.014144 -0.002215 0.999898
vn -0.193058 0.980808 -0.027291
vn -0.096467 0.994754 0.034040
vn -0.454867 0.890163 -0.026556
vn -0.219317 0.963756 -0.151904
vn -0.058552 0.980769 -0.186181
vn -0.248204 0.968118 -0.033789
vn 0.061736 0.802482 -0.593473
vn -0.478345 0.554749 -0.680764
vn -0.739555 0.637318 -0.216527
vn -0.045385 0.061041 -0.997103
vn -0.261895 -0.128513 -0.956502
vn -0.744770 0.255545 -0.616453
vn -0.883443 0.355899 -0.304737
vn -0.082442 -0.289194 0.953714
vn 0.002112 -0.266532 0.963824
vn 0.013556 -0.017986 0.999746
vn -0.345402 -0.675042 0.651933
vn -0.043670 -0.712286 0.700529
vn 0.203961 -0.754602 0.623680
vn 0.066271 -0.302263 0.950918
vn -0.523595 -0.629909 0.573640
vn -0.723811 -0.676650 0.135067
vn -0.460818 -0.875982 0.142487
vn -0.951889 0.272687 -0.139819
vn -0.819365 -0.539929 -0.192661
vn -0.403918 -0.891294 -0.206024
vn -0.359625 -0.514765 -0.778259
vn -0.121633 -0.713767 -0.689740
vn -0.186646 -0.951889 -0.243044
vn -0.007534 -0.361314 -0.932414
vn 0.087630 -0.814749 -0.573153
vn 0.165344 -0.969946 -0.178510
vn 0.370602 -0.856886 0.358330
vn 0.358223 -0.920005 0.158959
vn 0.678371 -0.733154 -0.047933
vn 0.255681 -0.952767 0.163895
vn 0.353477 -0.935121 -0.024552
vn 0.140721 0.963075 -0.229530
vn -0.718420 0.657992 -0.225653
vn -0.158978 -0.971326 0.176779
vn 0.876220 -0.440250 -0.196008
vn 0.093583 -0.188814 -0.977544
vn 0.002247 0.214302 0.976765
vn 0.170913 0.887221 0.428517
vn 0.755713 0.091442 -0.648488
vn -0.156851 0.979626 0.125421
vn -0.112410 0.779936 -0.615681
vn -0.148891 -0.370151 0.916962
vn -0.778246 -0.208806 -0.592228
vn 0.250569 -0.442529 0.861036
vn 0.336567 -0.852869 -0.399171
s 1
g Rock_06
usemtl initialShadingGroup
f 1/1/1 51/51/2 73/25/3 54/54/4
f 51/51/2 3/3/5 52/52/6 73/25/3
f 73/25/3 52/52/6 19/19/7 53/114/8
f 54/54/4 73/25/3 53/114/8 21/100/9
f 2/2/10 55/55/11 74/26/12 58/58/13
f 55/55/11 1/1/1 56/56/14 74/26/12
f 74/26/12 56/56/14 6/6/15 57/57/16
f 58/58/13 74/26/12 57/57/16 5/5/17
f 3/3/5 59/59/18 75/27/19 62/62/20
f 59/59/18 2/2/10 60/60/21 75/27/19
f 75/27/19 60/60/21 8/8/22 61/61/23
f 62/62/20 75/27/19 61/61/23 7/7/24
f 4/4/25 63/63/26 76/28/27 66/66/28
f 63/63/26 6/6/15 64/64/29 76/28/27
f 76/28/27 64/64/29 22/22/30 65/113/31
f 66/66/28 76/28/27 65/113/31 24/103/32
f 5/5/17 67/67/33 77/29/34 70/70/35
f 67/67/33 4/4/25 68/68/36 77/29/34
f 77/29/34 68/68/36 12/12/37 69/69/38
f 70/70/35 77/29/34 69/69/38 11/11/39
f 7/7/24 71/71/40 78/30/41 26/74/42
f 71/71/40 9/9/43 72/72/44 78/30/41
f 78/30/41 72/72/44 14/14/45 25/112/46
f 26/74/42 78/30/41 25/112/46 13/109/47
f 9/9/43 27/75/48 79/31/49 30/78/50
f 27/75/48 8/8/22 28/76/51 79/31/49
f 79/31/49 28/76/51 11/11/39 29/77/52
f 30/78/50 79/31/49 29/77/52 10/10/53
f 10/10/53 31/79/54 80/32/55 34/82/56
f 31/79/54 12/12/37 32/80/57 80/32/55
f 80/32/55 32/80/57 18/18/58 33/111/59
f 34/82/56 80/32/55 33/111/59 17/106/60
f 13/13/47 35/83/61 81/33/62 38/108/63
f 35/83/61 15/15/64 36/84/65 81/33/62
f 81/33/62 36/84/65 20/20/66 37/85/67
f 38/108/63 81/33/62 37/85/67 19/110/7
f 15/15/64 39/87/68 82/34/69 42/90/70
f 39/87/68 14/107/45 40/105/71 82/34/69
f 82/34/69 40/105/71 17/17/60 41/89/72
f 42/90/70 82/34/69 41/89/72 16/16/73
f 16/16/73 43/91/74 83/35/75 46/94/76
f 43/91/74 18/104/58 44/102/77 83/35/75
f 83/35/75 44/102/77 24/24/32 45/93/78
f 46/94/76 83/35/75 45/93/78 23/23/79
f 21/21/9 47/95/80 84/36/81 50/99/82
f 47/95/80 20/20/66 48/96/83 84/36/81
f 84/36/81 48/96/83 23/23/79 49/97/84
f 50/99/82 84/36/81 49/97/84 22/101/30
f 2/2/10 58/58/13 85/37/85 60/60/21
f 58/58/13 5/5/17 70/70/35 85/37/85
f 85/37/85 70/70/35 11/11/39 28/76/51
f 60/60/21 85/37/85 28/76/51 8/8/22
f 9/9/43 30/78/50 86/38/86 72/72/44
f 30/78/50 10/10/53 34/82/56 86/38/86
f 86/38/86 34/82/56 17/106/60 40/88/71
f 72/72/44 86/38/86 40/88/71 14/14/45
f 15/15/64 42/90/70 87/39/87 36/84/65
f 42/90/70 16/16/73 46/94/76 87/39/87
f 87/39/87 46/94/76 23/23/79 48/96/83
f 36/84/65 87/39/87 48/96/83 20/20/66
f 21/100/9 50/98/82 88/40/88 54/54/4
f 50/98/82 22/22/30 64/64/29 88/40/88
f 88/40/88 64/64/29 6/6/15 56/56/14
f 54/54/4 88/40/88 56/56/14 1/1/1
f 4/4/25 66/66/28 89/41/89 68/68/36
f 66/66/28 24/103/32 44/92/77 89/41/89
f 89/41/89 44/92/77 18/18/58 32/80/57
f 68/68/36 89/41/89 32/80/57 12/12/37
f 19/19/7 52/52/6 90/42/90 38/86/63
f 52/52/6 3/3/5 62/62/20 90/42/90
f 90/42/90 62/62/20 7/7/24 26/74/42
f 38/86/63 90/42/90 26/74/42 13/109/47
f 1/1/1 55/55/11 91/43/91 51/51/2
f 2/2/10 59/59/18 91/43/91 55/55/11
f 3/3/5 51/51/2 91/43/91 59/59/18
f 4/4/25 67/67/33 92/44/92 63/63/26
f 5/5/17 57/57/16 92/44/92 67/67/33
f 6/6/15 63/63/26 92/44/92 57/57/16
f 7/7/24 61/61/23 93/45/93 71/71/40
f 8/8/22 27/75/48 93/45/93 61/61/23
f 9/9/43 71/71/40 93/45/93 27/75/48
f 10/10/53 29/77/52 94/46/94 31/79/54
f 11/11/39 69/69/38 94/46/94 29/77/52
f 12/12/37 31/79/54 94/46/94 69/69/38
f 13/13/47 25/73/46 95/47/95 35/83/61
f 14/107/45 39/87/68 95/47/95 25/73/46
f 15/15/64 35/83/61 95/47/95 39/87/68
f 16/16/73 41/89/72 96/48/96 43/91/74
f 17/17/60 33/81/59 96/48/96 41/89/72
f 18/104/58 43/91/74 96/48/96 33/81/59
f 19/110/7 37/85/67 97/49/97 53/53/8
f 20/20/66 47/95/80 97/49/97 37/85/67
f 21/21/9 53/53/8 97/49/97 47/95/80
f 22/101/30 49/97/84 98/50/98 65/65/31
f 23/23/79 45/93/78 98/50/98 49/97/84
f 24/24/32 65/65/31 98/50/98 45/93/78
